
<svg width="18" height="23" viewBox="0 0 18 23" fill="none" xmlns="http://www.w3.org/2000/svg">
    <path d="M16.992 18.6215C16.992 14.9737 14.1902 11.2886 10.6242 10.0922C10.935 9.92627 11.2154 9.7183 11.4351 9.44723C11.4374 9.44489 11.4374 9.4449 11.4398 9.44256C11.4421 9.44022 11.4421 9.44022 11.4444 9.43788C11.4468 9.43555 11.4468 9.43555 11.4491 9.43321C11.4514 9.43087 11.4514 9.43087 11.4538 9.42854C11.4561 9.4262 11.4561 9.4262 11.4585 9.42386C11.4608 9.42153 11.4608 9.42153 11.4631 9.41919C11.4655 9.41685 11.4655 9.41685 11.4678 9.41452C11.4701 9.41218 11.4701 9.41218 11.4725 9.40984C11.4748 9.40751 11.4748 9.40751 11.4771 9.40517C11.4795 9.40283 11.4795 9.40283 11.4818 9.4005C11.4842 9.39816 11.4842 9.39816 11.4865 9.39582C11.4888 9.39349 11.4888 9.39349 11.4912 9.39115C11.4935 9.38881 11.4935 9.38881 11.4958 9.38647C11.4982 9.38414 11.4982 9.38414 11.5005 9.3818C11.5029 9.37946 11.5029 9.37946 11.5052 9.37713C11.5075 9.37479 11.5075 9.37479 11.5099 9.37245C11.5122 9.37012 11.5122 9.37012 11.5145 9.36778C11.5169 9.36544 11.5169 9.36544 11.5192 9.36311C11.5215 9.36077 11.5215 9.36077 11.5239 9.35843C11.5262 9.3561 11.5262 9.3561 11.5286 9.35376C11.5309 9.35142 11.5309 9.35142 11.5332 9.34909C11.5356 9.34675 11.5356 9.34675 11.5379 9.34441C11.5402 9.34208 11.5402 9.34208 11.5426 9.33974C11.5449 9.3374 11.5449 9.3374 11.5473 9.33507C11.5496 9.33273 11.5496 9.33273 11.5519 9.33039C11.5543 9.32805 11.5543 9.32806 11.5566 9.32572C11.5589 9.32338 11.5589 9.32338 11.5613 9.32105C11.5636 9.31871 11.5636 9.31871 11.5659 9.31637C11.5683 9.31403 11.5683 9.31403 11.5706 9.3117C11.573 9.30936 11.573 9.30936 11.5753 9.30702C11.5776 9.30469 11.5776 9.30469 11.58 9.30235C11.5823 9.30001 11.5823 9.30001 11.5846 9.29768C11.587 9.29534 11.587 9.29534 11.5893 9.293C11.5917 9.29067 11.5917 9.29067 11.594 9.28833C11.5963 9.28599 11.5963 9.28599 11.5987 9.28366C11.601 9.28132 11.601 9.28132 11.6033 9.27898C11.6057 9.27665 11.6057 9.27665 11.608 9.27431C11.6103 9.27197 11.6103 9.27197 11.6127 9.26964C11.615 9.2673 11.615 9.2673 11.6174 9.26496C11.6197 9.26262 11.6197 9.26262 11.622 9.26029C11.6244 9.25795 11.6244 9.25795 11.6267 9.25561C11.629 9.25328 11.629 9.25328 11.6314 9.25094C11.6337 9.2486 11.6337 9.2486 11.6361 9.24627C11.6384 9.24393 11.6384 9.24393 11.6407 9.24159C11.6431 9.23926 11.6431 9.23926 11.6454 9.23692C11.6477 9.23458 11.6477 9.23458 11.6501 9.23225C11.6524 9.22991 11.6524 9.22991 11.6547 9.22757C11.6571 9.22524 11.6571 9.22524 11.6594 9.2229C11.6618 9.22056 11.6618 9.22056 11.6641 9.21823C11.6664 9.21589 11.6664 9.21589 11.6688 9.21355C11.6711 9.21122 11.6711 9.21122 11.6734 9.20888C11.6758 9.20654 11.6758 9.20654 11.6781 9.20421C11.6804 9.20187 11.6804 9.20187 11.6828 9.19953C11.6851 9.1972 11.6851 9.1972 11.6875 9.19486C11.6898 9.19252 11.6898 9.19252 11.6921 9.19018C11.6945 9.18785 11.6945 9.18785 11.6968 9.18551C11.6991 9.18317 11.6991 9.18317 11.7015 9.18084C11.7038 9.1785 11.7038 9.1785 11.7062 9.17616C11.7085 9.17383 11.7085 9.17383 11.7108 9.17149C11.7132 9.16915 11.7132 9.16915 11.7155 9.16682C11.7178 9.16448 11.7178 9.16448 11.7202 9.16214C11.7225 9.15981 11.7225 9.15981 11.7248 9.15747C11.7272 9.15513 11.7272 9.15513 11.7295 9.1528C11.7319 9.15046 11.7319 9.15046 11.7342 9.14812C11.7365 9.14579 11.7365 9.14579 11.7389 9.14345C11.7412 9.14111 11.7412 9.14111 11.7435 9.13877C11.7459 9.13644 11.7459 9.13644 11.7482 9.1341C11.7506 9.13177 11.7506 9.13177 11.7529 9.12943C11.7552 9.12709 11.7552 9.12709 11.7576 9.12475C11.7599 9.12242 11.7599 9.12242 11.7622 9.12008C11.7646 9.11774 11.7646 9.11774 11.7669 9.11541C11.7692 9.11307 11.7692 9.11307 11.7716 9.11073C11.7739 9.1084 11.7739 9.1084 11.7763 9.10606C11.7786 9.10372 11.7786 9.10372 11.7809 9.10139C11.7833 9.09905 11.7833 9.09905 11.7856 9.09671C11.7879 9.09438 11.7879 9.09438 11.7903 9.09204C11.7926 9.0897 11.7926 9.0897 11.795 9.08737C11.7973 9.08503 11.7973 9.08503 11.7996 9.08269C11.802 9.08036 11.802 9.08036 11.8043 9.07802C11.8066 9.07568 11.8066 9.07568 11.809 9.07335C11.8113 9.07101 11.8113 9.07101 11.8136 9.06867C11.816 9.06633 11.816 9.06633 11.8183 9.064C11.8207 9.06166 11.8207 9.06166 11.823 9.05932C11.8253 9.05699 11.8253 9.05699 11.8277 9.05465C11.83 9.05231 11.83 9.05231 11.8323 9.04998C11.8347 9.04764 11.8347 9.04764 11.837 9.0453C11.8394 9.04297 11.8394 9.04297 11.8417 9.04063C11.844 9.03829 11.844 9.03829 11.8464 9.03596C11.8487 9.03362 11.8487 9.03362 11.851 9.03128C11.8534 9.02895 11.8534 9.02895 11.8557 9.02661C11.858 9.02427 11.858 9.02427 11.8604 9.02194C11.8627 9.0196 11.8627 9.0196 11.8651 9.01726C11.8674 9.01493 11.8674 9.01493 11.8697 9.01259C11.8721 9.01025 11.8721 9.01025 11.8744 9.00792C11.8767 9.00558 11.8767 9.00558 11.8791 9.00324C11.8814 9.0009 11.8814 9.0009 11.8838 8.99857C11.8861 8.99623 11.8861 8.99623 11.8884 8.99389C11.8908 8.99156 11.8908 8.99156 11.8931 8.98922C11.8954 8.98688 11.8954 8.98688 11.8978 8.98455C11.9001 8.98221 11.9001 8.98221 11.9024 8.97987C11.9048 8.97754 11.9048 8.97754 11.9071 8.9752C11.9095 8.97286 11.9095 8.97286 11.9118 8.97053C11.9141 8.96819 11.9141 8.96819 11.9165 8.96585C11.9188 8.96352 11.9188 8.96352 11.9211 8.96118C11.9235 8.95884 11.9235 8.95884 11.9258 8.95651C11.9281 8.95417 11.9281 8.95417 11.9305 8.95183C11.9328 8.9495 11.9328 8.9495 11.9352 8.94716C11.9375 8.94482 11.9375 8.94482 11.9398 8.94248C11.9422 8.94015 11.9422 8.94015 11.9445 8.93781C11.9468 8.93548 11.9468 8.93547 11.9492 8.93314C11.9515 8.9308 11.9515 8.9308 11.9539 8.92846C11.9562 8.92613 11.9562 8.92613 11.9585 8.92379C11.9609 8.92145 11.9609 8.92145 11.9632 8.91912C11.9655 8.91678 11.9655 8.91678 11.9679 8.91444C11.9702 8.91211 11.9702 8.91211 11.9725 8.90977C11.9749 8.90743 11.9749 8.90743 11.9772 8.9051C11.9796 8.90276 11.9796 8.90276 11.9819 8.90042C11.9842 8.89809 11.9842 8.89809 11.9866 8.89575C11.9889 8.89341 11.9889 8.89341 11.9912 8.89108C11.9936 8.88874 11.9936 8.88874 11.9959 8.8864C11.9983 8.88407 11.9983 8.88407 12.0006 8.88173C12.0029 8.87939 12.0029 8.87939 12.0053 8.87705C12.0076 8.87472 12.0076 8.87472 12.0099 8.87238C12.0123 8.87004 12.0123 8.87004 12.0146 8.86771C12.0169 8.86537 12.0169 8.86537 12.0193 8.86303C12.0216 8.8607 12.0216 8.8607 12.024 8.85836C12.0263 8.85602 12.0263 8.85602 12.0286 8.85369C12.031 8.85135 12.031 8.85135 12.0333 8.84901C12.0356 8.84668 12.0356 8.84668 12.038 8.84434C12.0403 8.842 12.0403 8.842 12.0427 8.83967C12.045 8.83733 12.045 8.83733 12.0473 8.83499C12.0497 8.83266 12.0497 8.83266 12.052 8.83032C12.0543 8.82798 12.0543 8.82798 12.0567 8.82565C12.059 8.82331 12.059 8.82331 12.0613 8.82097C12.0637 8.81864 12.0637 8.81864 12.066 8.8163C12.0684 8.81396 12.0684 8.81396 12.0707 8.81162C12.073 8.80929 12.073 8.80929 12.0754 8.80695C12.0777 8.80461 12.0777 8.80461 12.08 8.80228C12.0824 8.79994 12.0824 8.79994 12.0847 8.7976C12.0871 8.79527 12.0871 8.79527 12.0894 8.79293C12.0917 8.79059 12.0917 8.79059 12.0941 8.78826C12.0964 8.78592 12.0964 8.78592 12.0987 8.78358C12.1011 8.78125 12.1011 8.78125 12.1034 8.77891C12.1057 8.77657 12.1057 8.77657 12.1081 8.77424C12.1104 8.7719 12.1104 8.7719 12.1128 8.76956C12.1151 8.76723 12.1151 8.76723 12.1174 8.76489C12.1198 8.76255 12.1198 8.76255 12.1221 8.76022C12.1244 8.75788 12.1244 8.75788 12.1268 8.75554C12.1291 8.7532 12.1291 8.7532 12.1315 8.75087C12.1338 8.74853 12.1338 8.74853 12.1361 8.74619C12.1385 8.74386 12.1385 8.74386 12.1408 8.74152C12.1431 8.73918 12.1431 8.73918 12.1455 8.73685C12.1478 8.73451 12.1478 8.73451 12.1501 8.73217C12.1525 8.72984 12.1525 8.72984 12.1548 8.7275C12.1572 8.72516 12.1572 8.72516 12.1595 8.72283C12.1618 8.72049 12.1618 8.72049 12.1642 8.71815C12.1665 8.71582 12.1665 8.71582 12.1688 8.71348C12.1712 8.71114 12.1712 8.71114 12.1735 8.70881C12.1758 8.70647 12.1758 8.70647 12.1782 8.70413C12.1805 8.7018 12.1805 8.7018 12.1829 8.69946C12.1852 8.69712 12.1852 8.69712 12.1875 8.69479C12.1899 8.69245 12.1899 8.69245 12.1922 8.69011C12.1945 8.68778 12.1945 8.68777 12.1969 8.68544C12.1992 8.6831 12.1992 8.6831 12.2016 8.68076C12.2039 8.67843 12.2039 8.67843 12.2062 8.67609C12.2086 8.67375 12.2086 8.67375 12.2109 8.67142C12.2132 8.66908 12.2132 8.66908 12.2156 8.66674C12.2179 8.66441 12.2179 8.66441 12.2202 8.66207C12.2226 8.65973 12.2226 8.65973 12.2249 8.6574C12.2273 8.65506 12.2273 8.65506 12.2296 8.65272C12.2319 8.65039 12.2319 8.65039 12.2343 8.64805C12.2366 8.64571 12.2366 8.64571 12.2389 8.64338C12.2413 8.64104 12.2413 8.64104 12.2436 8.6387C12.246 8.63637 12.246 8.63637 12.2483 8.63403C12.2506 8.63169 12.2506 8.63169 12.253 8.62935C12.2553 8.62702 12.2553 8.62702 12.2576 8.62468C12.26 8.62235 12.26 8.62235 12.2623 8.62001C12.2646 8.61767 12.2646 8.61767 12.267 8.61533C12.2693 8.613 12.2693 8.613 12.2717 8.61066C12.274 8.60832 12.274 8.60832 12.2763 8.60599C12.2787 8.60365 12.2787 8.60365 12.281 8.60131C12.2833 8.59898 12.2833 8.59898 12.2857 8.59664C12.288 8.5943 12.288 8.5943 12.2904 8.59197C12.2927 8.58963 12.2927 8.58963 12.295 8.58729C12.2974 8.58496 12.2974 8.58496 12.2997 8.58262C12.302 8.58028 12.302 8.58028 12.3044 8.57795C12.3067 8.57561 12.3067 8.57561 12.309 8.57327C12.3114 8.57094 12.3114 8.57094 12.3137 8.5686C12.3161 8.56626 12.3161 8.56626 12.3184 8.56393C12.3207 8.56159 12.3207 8.56159 12.3231 8.55925C12.3254 8.55691 12.3254 8.55691 12.3277 8.55458C12.3301 8.55224 12.3301 8.55224 12.3324 8.5499C12.3348 8.54757 12.3348 8.54757 12.3371 8.54523C12.3394 8.54289 12.3394 8.54289 12.3418 8.54056C12.3441 8.53822 12.3441 8.53822 12.3464 8.53588C12.3488 8.53355 12.3488 8.53355 12.3511 8.53121C12.3534 8.52887 12.3534 8.52887 12.3558 8.52654C12.3581 8.5242 12.3581 8.5242 12.3605 8.52186C12.3628 8.51953 12.3628 8.51953 12.3651 8.51719C12.3675 8.51485 12.3675 8.51485 12.3698 8.51252C12.3721 8.51018 12.3721 8.51018 12.3745 8.50784C12.3768 8.50551 12.3768 8.50551 12.3791 8.50317C12.3815 8.50083 12.3815 8.50083 12.3838 8.4985C12.3862 8.49616 12.3862 8.49616 12.3885 8.49382C12.3908 8.49148 12.3908 8.49148 12.3932 8.48915C12.3955 8.48681 12.3955 8.48681 12.3978 8.48447C12.4002 8.48214 12.4002 8.48214 12.4025 8.4798C12.4049 8.47746 12.4049 8.47746 12.4072 8.47513C12.4095 8.47279 12.4095 8.47279 12.4119 8.47045C12.4142 8.46812 12.4142 8.46812 12.4165 8.46578C12.4189 8.46344 12.4189 8.46344 12.4212 8.46111C12.4235 8.45877 12.4235 8.45877 12.4259 8.45643C12.4282 8.4541 12.4282 8.4541 12.4306 8.45176C12.4329 8.44942 12.4329 8.44942 12.4352 8.44709C12.4376 8.44475 12.4376 8.44475 12.4399 8.44241C12.4422 8.44008 12.4422 8.44007 12.4446 8.43774C12.4469 8.4354 12.4469 8.4354 12.4493 8.43307C12.4516 8.43073 12.4516 8.43073 12.4539 8.42839C12.4563 8.42605 12.4563 8.42605 12.4586 8.42372C12.4609 8.42138 12.4609 8.42138 12.4633 8.41904C12.4656 8.41671 12.4656 8.41671 12.4679 8.41437C12.4703 8.41203 12.4703 8.41203 12.4726 8.4097C12.475 8.40736 12.475 8.40736 12.4773 8.40502C12.4796 8.40269 12.4796 8.40269 12.482 8.40035C12.4843 8.39801 12.4843 8.39801 12.4866 8.39568C12.489 8.39334 12.489 8.39334 12.4913 8.391C12.4937 8.38867 12.4937 8.38867 12.496 8.38633C12.4983 8.38399 12.4983 8.38399 12.5007 8.38166C12.503 8.37932 12.503 8.37932 12.5053 8.37698C12.5077 8.37465 12.5077 8.37465 12.51 8.37231C12.5123 8.36997 12.5123 8.36997 12.5147 8.36763C12.517 8.3653 12.517 8.3653 12.5194 8.36296C12.5217 8.36062 12.5217 8.36062 12.524 8.35829C12.5264 8.35595 12.5264 8.35595 12.5287 8.35361C12.531 8.35128 12.531 8.35128 12.5334 8.34894C12.5357 8.3466 12.5357 8.3466 12.5381 8.34427C12.5404 8.34193 12.5404 8.34193 12.5427 8.33959C12.5451 8.33726 12.5451 8.33726 12.5474 8.33492C12.5497 8.33258 12.5497 8.33258 12.5521 8.33025C12.5544 8.32791 12.5544 8.32791 12.5567 8.32557C12.5591 8.32324 12.5591 8.32324 12.5614 8.3209C12.5638 8.31856 12.5638 8.31856 12.5661 8.31623C12.5684 8.31389 12.5684 8.31389 12.5708 8.31155C12.5731 8.30921 12.5731 8.30922 12.5754 8.30688C12.5778 8.30454 12.5778 8.30454 12.5801 8.3022C12.5825 8.29987 12.5825 8.29987 12.5848 8.29753C12.5871 8.29519 12.5871 8.29519 12.5895 8.29286C12.5918 8.29052 12.5918 8.29052 12.5941 8.28818C12.5965 8.28585 12.5965 8.28585 12.5988 8.28351C12.6011 8.28117 12.6011 8.28117 12.6035 8.27884C12.6058 8.2765 12.6058 8.2765 12.6082 8.27416C12.6105 8.27183 12.6105 8.27183 12.6128 8.26949C12.6152 8.26715 12.6152 8.26715 12.6175 8.26482C12.6198 8.26248 12.6198 8.26248 12.6222 8.26014C12.6245 8.25781 12.6245 8.25781 12.6268 8.25547C12.6292 8.25313 12.6292 8.25313 12.6315 8.25079C12.6339 8.24846 12.6339 8.24846 12.6362 8.24612C12.6385 8.24378 12.6385 8.24378 12.6409 8.24145C12.6432 8.23911 12.6432 8.23911 12.6455 8.23677C12.6479 8.23444 12.6479 8.23444 12.6502 8.2321C12.6526 8.22976 12.6526 8.22976 12.6549 8.22743C12.6572 8.22509 12.6572 8.22509 12.6596 8.22275C12.6619 8.22042 12.6619 8.22042 12.6642 8.21808C12.6666 8.21574 12.6666 8.21574 12.6689 8.21341C12.6712 8.21107 12.6712 8.21107 12.6736 8.20873C12.6759 8.2064 12.6759 8.2064 12.6783 8.20406C12.6806 8.20172 12.6806 8.20172 12.6829 8.19939C12.6853 8.19705 12.6853 8.19705 12.6876 8.19471C12.6899 8.19238 12.6899 8.19238 12.6923 8.19004C12.6946 8.1877 12.6946 8.1877 12.697 8.18536C12.6993 8.18303 12.6993 8.18303 12.7016 8.18069C12.704 8.17835 12.704 8.17835 12.7063 8.17602C12.7086 8.17368 12.7086 8.17368 12.711 8.17134C12.7133 8.16901 12.7133 8.16901 12.7156 8.16667C12.718 8.16433 12.718 8.16433 12.7203 8.162C12.7227 8.15966 12.7227 8.15966 12.725 8.15732C12.7273 8.15499 12.7273 8.15499 12.7297 8.15265C12.732 8.15031 12.732 8.15031 12.7343 8.14798C12.7367 8.14564 12.7367 8.14564 12.739 8.1433C12.7414 8.14097 12.7414 8.14097 12.7437 8.13863C12.746 8.13629 12.746 8.13629 12.7484 8.13396C12.7507 8.13162 12.7507 8.13162 12.753 8.12928C12.7554 8.12695 12.7554 8.12695 12.7577 8.12461C12.76 8.12227 12.76 8.12227 12.7624 8.11993C12.7647 8.1176 12.7647 8.1176 12.7671 8.11526C12.7694 8.11292 12.7694 8.11292 12.7717 8.11059C12.7741 8.10825 12.7741 8.10825 12.7764 8.10591C12.7787 8.10358 12.7787 8.10358 12.7811 8.10124C12.7834 8.0989 12.7834 8.0989 12.7858 8.09657C12.7881 8.09423 12.7881 8.09423 12.7904 8.09189C12.7928 8.08956 12.7928 8.08956 12.7951 8.08722C12.7974 8.08488 12.7974 8.08488 12.7998 8.08255C12.8021 8.08021 12.8021 8.08021 12.8044 8.07787C12.8068 8.07554 12.8068 8.07554 12.8091 8.0732C12.8115 8.07086 12.8115 8.07086 12.8138 8.06853C12.8161 8.06619 12.8161 8.06619 12.8185 8.06385C12.8208 8.06152 12.8208 8.06151 12.8231 8.05918C12.8255 8.05684 12.8255 8.05684 12.8278 8.0545C12.8302 8.05217 12.8302 8.05217 12.8325 8.04983C12.8348 8.04749 12.8348 8.04749 12.8372 8.04516C12.8395 8.04282 12.8395 8.04282 12.8418 8.04048C12.8442 8.03815 12.8442 8.03815 12.8465 8.03581C12.8488 8.03347 12.8488 8.03347 12.8512 8.03114C12.8535 8.0288 12.8535 8.0288 12.8559 8.02646C12.8582 8.02413 12.8582 8.02413 12.8605 8.02179C12.8629 8.01945 12.8629 8.01945 12.8652 8.01712C12.8675 8.01478 12.8675 8.01478 12.8699 8.01244C12.8722 8.01011 12.8722 8.01011 12.8745 8.00777C12.8769 8.00543 12.8769 8.00543 12.8792 8.0031C12.8816 8.00076 12.8816 8.00076 12.8839 7.99842C12.8862 7.99608 12.8862 7.99609 12.8886 7.99375C12.8909 7.99141 12.8909 7.99141 12.8932 7.98907C12.8956 7.98674 12.8956 7.98674 12.8979 7.9844C12.9003 7.98206 12.9003 7.98206 12.9026 7.97973C12.9049 7.97739 12.9049 7.97739 12.9073 7.97505C12.9096 7.97272 12.9096 7.97272 12.9119 7.97038C12.9143 7.96804 12.9143 7.96804 12.9166 7.96571C12.9189 7.96337 12.9189 7.96337 12.9213 7.96103C12.9236 7.9587 12.9236 7.9587 12.926 7.95636C12.9283 7.95402 12.9283 7.95402 12.9306 7.95169C12.933 7.94935 12.933 7.94935 12.9353 7.94701C12.9376 7.94468 12.9376 7.94468 12.94 7.94234C12.9423 7.94 12.9423 7.94 12.9447 7.93766C12.947 7.93533 12.947 7.93533 12.9493 7.93299C12.9517 7.93065 12.9517 7.93065 12.954 7.92832C12.9563 7.92598 12.9563 7.92598 12.9587 7.92364C12.961 7.92131 12.961 7.92131 12.9633 7.91897C12.9657 7.91663 12.9657 7.91663 12.968 7.9143C12.9704 7.91196 12.9704 7.91196 12.9727 7.90962C12.975 7.90729 12.975 7.90729 12.9774 7.90495C12.9797 7.90261 12.9797 7.90261 12.982 7.90028C12.9844 7.89794 12.9844 7.89794 12.9867 7.8956C12.9891 7.89327 12.9891 7.89327 12.9914 7.89093C12.9937 7.88859 12.9937 7.88859 12.9961 7.88626C12.9984 7.88392 12.9984 7.88392 13.0007 7.88158C13.0031 7.87925 13.0031 7.87925 13.0054 7.87691C13.0077 7.87457 13.0077 7.87457 13.0101 7.87224C13.0124 7.8699 13.0124 7.8699 13.0148 7.86756C13.0171 7.86522 13.0171 7.86522 13.0194 7.86289C13.0218 7.86055 13.0218 7.86055 13.0241 7.85821C13.0264 7.85588 13.0264 7.85588 13.0288 7.85354C13.0311 7.8512 13.0311 7.8512 13.0335 7.84887C13.0358 7.84653 13.0358 7.84653 13.0381 7.84419C13.0405 7.84186 13.0405 7.84186 13.0428 7.83952C13.0451 7.83718 13.0451 7.83718 13.0475 7.83485C13.0498 7.83251 13.0498 7.83251 13.0521 7.83017C13.0545 7.82784 13.0545 7.82784 13.0568 7.8255C13.0592 7.82316 13.0592 7.82316 13.0615 7.82083C13.0638 7.81849 13.0638 7.81849 13.0662 7.81615C13.0685 7.81382 13.0685 7.81382 13.0708 7.81148C13.0732 7.80914 13.0732 7.80914 13.0755 7.8068C13.0778 7.80447 13.0778 7.80447 13.0802 7.80213C13.0825 7.79979 13.0825 7.79979 13.0849 7.79746C13.0872 7.79512 13.0872 7.79512 13.0895 7.79278C13.0919 7.79045 13.0919 7.79045 13.0942 7.78811C13.0965 7.78577 13.0965 7.78577 13.0989 7.78344C13.1012 7.7811 13.1012 7.7811 13.1036 7.77876C13.1059 7.77643 13.1059 7.77643 13.1082 7.77409C13.1106 7.77175 13.1106 7.77175 13.1129 7.76942C13.1152 7.76708 13.1152 7.76708 13.1176 7.76474C13.1199 7.76241 13.1199 7.76241 13.1222 7.76007C13.1246 7.75773 13.1246 7.75773 13.1269 7.7554C13.1293 7.75306 13.1293 7.75306 13.1316 7.75072C13.1339 7.74839 13.1339 7.74839 13.1363 7.74605C13.1386 7.74371 13.1386 7.74371 13.1409 7.74138C13.1433 7.73904 13.1433 7.73904 13.1456 7.7367C13.148 7.73436 13.148 7.73436 13.1503 7.73203C13.1526 7.72969 13.1526 7.72969 13.155 7.72735C13.1573 7.72502 13.1573 7.72502 13.1596 7.72268C13.162 7.72034 13.162 7.72034 13.1643 7.71801C13.1666 7.71567 13.1666 7.71567 13.169 7.71333C13.1713 7.711 13.1713 7.711 13.1737 7.70866C13.176 7.70632 13.176 7.70632 13.1783 7.70399C13.1807 7.70165 13.1807 7.70165 13.183 7.69931C13.1853 7.69698 13.1853 7.69698 13.1877 7.69464C13.19 7.6923 13.19 7.6923 13.1924 7.68997C13.1947 7.68763 13.1947 7.68763 13.197 7.68529C13.1994 7.68295 13.1994 7.68296 13.2017 7.68062C13.204 7.67828 13.204 7.67828 13.2064 7.67594C13.2087 7.67361 13.2087 7.67361 13.211 7.67127C13.2134 7.66893 13.2134 7.66893 13.2157 7.6666C13.2181 7.66426 13.2181 7.66426 13.2204 7.66192C13.2227 7.65959 13.2227 7.65959 13.2251 7.65725C13.2274 7.65491 13.2274 7.65491 13.2297 7.65258C13.2321 7.65024 13.2321 7.65024 13.2344 7.6479C13.2368 7.64557 13.2368 7.64557 13.2391 7.64323C13.2414 7.64089 13.2414 7.64089 13.2438 7.63856C13.2461 7.63622 13.2461 7.63622 13.2484 7.63388C13.2508 7.63155 13.2508 7.63155 13.2531 7.62921C13.2554 7.62687 13.2554 7.62687 13.2578 7.62454C13.2601 7.6222 13.2601 7.6222 13.2625 7.61986C13.2648 7.61753 13.2648 7.61753 13.2671 7.61519C13.2695 7.61285 13.2695 7.61285 13.2718 7.61051C13.2741 7.60818 13.2741 7.60818 13.2765 7.60584C13.2788 7.6035 13.2788 7.6035 13.2812 7.60117C13.2835 7.59883 13.2835 7.59883 13.2858 7.59649C13.2882 7.59416 13.2882 7.59416 13.2905 7.59182C13.2928 7.58948 13.2928 7.58948 13.2952 7.58715C13.2975 7.58481 13.2975 7.58481 13.2998 7.58247C13.3022 7.58014 13.3022 7.58014 13.3045 7.5778C13.7111 7.07773 13.9495 6.41408 13.9495 5.63359C13.9495 3.55852 12.267 1.45541 10.1919 0.938982C8.895 0.616505 7.74997 0.988054 7.07464 1.81995C7.0723 1.82229 7.0723 1.82229 7.06996 1.82462C7.06763 1.82696 7.06763 1.82696 7.06529 1.8293C7.06295 1.83164 7.06295 1.83164 7.06062 1.83397C7.05828 1.83631 7.05828 1.83631 7.05594 1.83865C7.05361 1.84098 7.05361 1.84098 7.05127 1.84332C7.04893 1.84566 7.04893 1.84566 7.0466 1.84799C7.04426 1.85033 7.04426 1.85033 7.04192 1.85267C7.03959 1.855 7.03959 1.855 7.03725 1.85734C7.03491 1.85968 7.03491 1.85968 7.03258 1.86201C7.03024 1.86435 7.03024 1.86435 7.0279 1.86669C7.02557 1.86902 7.02557 1.86902 7.02323 1.87136C7.02089 1.8737 7.02089 1.8737 7.01856 1.87603C6.85264 2.04428 6.85031 2.04428 6.84797 2.04662C6.84563 2.04896 6.84563 2.04896 6.8433 2.05129C6.84096 2.05363 6.84096 2.05363 6.83862 2.05597C6.83862 2.05597 6.83862 2.0583 6.83629 2.0583C6.83395 2.06064 6.83395 2.06064 6.83161 2.06298C6.82928 2.06531 6.82928 2.06531 6.82694 2.06765C6.8246 2.06999 6.8246 2.06999 6.82227 2.07232C6.81993 2.07466 6.81993 2.07466 6.81759 2.077C6.81525 2.07933 6.81525 2.07933 6.81292 2.08167C6.81058 2.08401 6.81058 2.08401 6.80824 2.08635C6.80591 2.08868 6.80591 2.08868 6.80357 2.09102C6.80123 2.09336 6.80123 2.09336 6.7989 2.09569C6.79656 2.09803 6.79656 2.09803 6.79422 2.10037C6.79189 2.1027 6.79189 2.1027 6.78955 2.10504C6.78721 2.10738 6.78721 2.10738 6.78488 2.10971C6.78254 2.11205 6.78254 2.11205 6.7802 2.11439C6.77787 2.11672 6.77787 2.11672 6.77553 2.11906C6.77319 2.1214 6.77319 2.1214 6.77086 2.12373C6.76852 2.12607 6.76852 2.12607 6.76618 2.12841C6.76385 2.13074 6.76385 2.13074 6.76151 2.13308C6.75917 2.13542 6.75917 2.13542 6.75683 2.13775C6.7545 2.14009 6.7545 2.14009 6.75216 2.14243C6.74982 2.14476 6.74982 2.14476 6.74749 2.1471C6.74515 2.14944 6.74515 2.14944 6.74281 2.15178C6.74048 2.15411 6.74048 2.15411 6.73814 2.15645C6.7358 2.15879 6.7358 2.15879 6.73347 2.16112C6.73113 2.16346 6.73113 2.16346 6.72879 2.1658C6.72646 2.16813 6.72646 2.16813 6.72412 2.17047C6.72178 2.17281 6.72178 2.17281 6.71945 2.17514C6.71711 2.17748 6.71711 2.17748 6.71477 2.17982C6.71244 2.18215 6.71244 2.18215 6.7101 2.18449C6.70776 2.18683 6.70776 2.18683 6.70543 2.18916C6.70309 2.1915 6.70309 2.1915 6.70075 2.19384C6.69842 2.19617 6.69842 2.19617 6.69608 2.19851C6.69374 2.20085 6.69374 2.20085 6.69141 2.20318C6.68907 2.20552 6.68907 2.20552 6.68673 2.20786C6.68439 2.21019 6.68439 2.21019 6.68206 2.21253C6.67972 2.21487 6.67972 2.21487 6.67738 2.21721C6.67505 2.21954 6.67505 2.21954 6.67271 2.22188C6.67037 2.22422 6.67037 2.22422 6.66804 2.22655C6.6657 2.22889 6.6657 2.22889 6.66336 2.23123C6.66103 2.23356 6.66103 2.23356 6.65869 2.2359C6.65635 2.23824 6.65635 2.23824 6.65402 2.24057C6.65168 2.24291 6.65168 2.24291 6.64934 2.24525C6.64701 2.24758 6.64701 2.24758 6.64467 2.24992C6.64233 2.25226 6.64233 2.25226 6.64 2.25459C6.63766 2.25693 6.63766 2.25693 6.63532 2.25927C6.63298 2.2616 6.63299 2.2616 6.63065 2.26394C6.62831 2.26628 6.62831 2.26628 6.62597 2.26861C6.62364 2.27095 6.62364 2.27095 6.6213 2.27329C6.61896 2.27562 6.61896 2.27562 6.61663 2.27796C6.61429 2.2803 6.61429 2.2803 6.61195 2.28264C6.60962 2.28497 6.60962 2.28497 6.60728 2.28731C6.60494 2.28965 6.60494 2.28965 6.60261 2.29198C6.60027 2.29432 6.60027 2.29432 6.59793 2.29666C6.61896 2.27796 6.61663 2.27796 6.61663 2.2803C6.61429 2.2803 6.61195 2.28264 6.61195 2.28497C6.60962 2.28731 6.60962 2.28731 6.60728 2.28965C6.60494 2.28965 6.60494 2.29198 6.60261 2.29198C6.60027 2.29432 6.60027 2.29432 6.59793 2.29666C6.5956 2.29899 6.5956 2.29899 6.59326 2.30133C6.59092 2.30367 6.59092 2.30367 6.58859 2.306C6.58625 2.30834 6.58625 2.30834 6.58391 2.31068C6.58158 2.31301 6.58158 2.31301 6.57924 2.31535C6.5769 2.31769 6.5769 2.31769 6.57457 2.32002C6.57223 2.32236 6.57223 2.32236 6.56989 2.3247C6.56756 2.32703 6.56756 2.32703 6.56522 2.32937C6.56288 2.33171 6.56288 2.33171 6.56054 2.33404C6.55821 2.33638 6.55821 2.33638 6.55587 2.33872C6.55353 2.34106 6.55353 2.34106 6.5512 2.34339C6.54886 2.34573 6.54886 2.34573 6.54652 2.34807C6.54419 2.3504 6.54419 2.3504 6.54185 2.35274C6.53951 2.35508 6.53951 2.35508 6.53718 2.35741C6.53484 2.35975 6.53484 2.35975 6.5325 2.36209C6.53017 2.36442 6.53017 2.36442 6.52783 2.36676C6.52549 2.3691 6.52549 2.3691 6.52316 2.37143C6.52082 2.37377 6.52082 2.37377 6.51848 2.37611C6.51615 2.37844 6.51615 2.37844 6.51381 2.38078C6.51147 2.38312 6.51147 2.38312 6.50914 2.38545C6.5068 2.38779 6.5068 2.38779 6.50446 2.39013C6.50212 2.39246 6.50212 2.39246 6.49979 2.3948C6.49745 2.39714 6.49745 2.39714 6.49511 2.39947C6.49278 2.40181 6.49278 2.40181 6.49044 2.40415C6.4881 2.40649 6.4881 2.40649 6.48577 2.40882C6.48343 2.41116 6.48343 2.41116 6.48109 2.4135C6.47876 2.41583 6.47876 2.41583 6.47642 2.41817C6.47408 2.42051 6.47408 2.42051 6.47175 2.42284C6.46941 2.42518 6.46941 2.42518 6.46707 2.42752C6.46474 2.42985 6.46474 2.42985 6.4624 2.43219C6.46006 2.43453 6.46006 2.43453 6.45773 2.43686C6.45539 2.4392 6.45539 2.4392 6.45305 2.44154C6.45072 2.44387 6.45072 2.44387 6.44838 2.44621C6.44604 2.44855 6.44604 2.44855 6.44371 2.45088C6.44137 2.45322 6.44137 2.45322 6.43903 2.45556C6.4367 2.45789 6.43669 2.45789 6.43436 2.46023C6.43202 2.46257 6.43202 2.46257 6.42968 2.4649C6.42735 2.46724 6.42735 2.46724 6.42501 2.46958C6.42267 2.47192 6.42267 2.47192 6.42034 2.47425C6.418 2.47659 6.418 2.47659 6.41566 2.47893C6.41333 2.48126 6.41333 2.48126 6.41099 2.4836C6.40865 2.48594 6.40865 2.48594 6.40632 2.48827C6.40398 2.49061 6.40398 2.49061 6.40164 2.49295C6.39931 2.49528 6.39931 2.49528 6.39697 2.49762C6.39463 2.49996 6.39463 2.49996 6.3923 2.50229C6.38996 2.50463 6.38996 2.50463 6.38762 2.50697C6.38529 2.5093 6.38529 2.5093 6.38295 2.51164C6.38061 2.51398 6.38061 2.51398 6.37828 2.51631C6.37594 2.51865 6.37594 2.51865 6.3736 2.52099C6.37126 2.52332 6.37126 2.52332 6.36893 2.52566C6.36659 2.528 6.36659 2.528 6.36425 2.53034C6.38529 2.51164 6.38295 2.51164 6.38295 2.51398C6.38061 2.51398 6.37828 2.51631 6.37828 2.51631C6.37594 2.51865 6.37594 2.51865 6.3736 2.52099C6.3736 2.52332 6.37126 2.52332 6.36893 2.52566C6.36659 2.528 6.36659 2.528 6.36425 2.53034C6.36192 2.53267 6.36192 2.53267 6.35958 2.53501C6.35724 2.53735 6.35724 2.53735 6.35491 2.53968C6.35257 2.54202 6.35257 2.54202 6.35023 2.54436C6.3479 2.54669 6.3479 2.54669 6.34556 2.54903C6.34322 2.55137 6.34322 2.55137 6.34089 2.5537C6.33855 2.55604 6.33855 2.55604 6.33621 2.55838C6.33388 2.56071 6.33388 2.56071 6.33154 2.56305C6.3292 2.56539 6.3292 2.56539 6.32687 2.56772C6.32453 2.57006 6.32453 2.57006 6.32219 2.5724C6.31986 2.57473 6.31986 2.57473 6.31752 2.57707C6.31518 2.57941 6.31518 2.57941 6.31285 2.58174C6.31051 2.58408 6.31051 2.58408 6.30817 2.58642C6.30583 2.58875 6.30583 2.58875 6.3035 2.59109C6.30116 2.59343 6.30116 2.59343 6.29882 2.59577C6.29649 2.5981 6.29649 2.5981 6.29415 2.60044C6.29181 2.60278 6.29181 2.60278 6.28948 2.60511C6.28714 2.60745 6.28714 2.60745 6.2848 2.60979C6.28247 2.61212 6.28247 2.61212 6.28013 2.61446C6.27779 2.6168 6.27779 2.6168 6.27546 2.61913C6.27312 2.62147 6.27312 2.62147 6.27078 2.62381C6.26845 2.62614 6.26845 2.62614 6.26611 2.62848C6.26377 2.63082 6.26377 2.63082 6.26144 2.63315C6.2591 2.63549 6.2591 2.63549 6.25676 2.63783C6.25443 2.64016 6.25443 2.64016 6.25209 2.6425C6.24975 2.64484 6.24975 2.64484 6.24741 2.64717C6.24508 2.64951 6.24508 2.64951 6.24274 2.65185C6.2404 2.65418 6.2404 2.65418 6.23807 2.65652C6.23573 2.65886 6.23573 2.65886 6.23339 2.6612C6.23106 2.66353 6.23106 2.66353 6.22872 2.66587C6.22638 2.66821 6.22638 2.66821 6.22405 2.67054C6.22171 2.67288 6.22171 2.67288 6.21937 2.67522C6.21704 2.67755 6.21704 2.67755 6.2147 2.67989C6.21236 2.68223 6.21236 2.68223 6.21003 2.68456C6.20769 2.6869 6.20769 2.6869 6.20535 2.68924C6.20302 2.69157 6.20302 2.69157 6.20068 2.69391C6.19834 2.69625 6.19834 2.69625 6.19601 2.69858C6.19367 2.70092 6.19367 2.70092 6.19133 2.70326C6.189 2.70559 6.189 2.70559 6.18666 2.70793C6.18432 2.71027 6.18432 2.71027 6.18198 2.7126C6.17965 2.71494 6.17965 2.71494 6.17731 2.71728C6.17497 2.71961 6.17497 2.71961 6.17264 2.72195C6.1703 2.72429 6.1703 2.72429 6.16796 2.72663C6.16563 2.72896 6.16563 2.72896 6.16329 2.7313C6.16095 2.73364 6.16095 2.73364 6.15862 2.73597C6.15628 2.73831 6.15628 2.73831 6.15394 2.74065C6.15161 2.74298 6.15161 2.74298 6.14927 2.74532C6.14693 2.74766 6.14693 2.74766 6.1446 2.74999C6.14226 2.75233 6.14226 2.75233 6.13992 2.75467C6.13759 2.757 6.13759 2.757 6.13525 2.75934C6.13291 2.76168 6.13291 2.76168 6.13058 2.76401C6.15161 2.74298 6.14927 2.74532 6.14927 2.74766C6.14693 2.74766 6.14693 2.74999 6.1446 2.74999C6.14226 2.75233 6.14226 2.75233 6.13992 2.75467C6.13992 2.757 6.13759 2.757 6.13525 2.75934C6.13291 2.76168 6.13291 2.76168 6.13058 2.76401C6.12824 2.76635 6.12824 2.76635 6.1259 2.76869C6.12357 2.77102 6.12357 2.77102 6.12123 2.77336C6.11889 2.7757 6.11889 2.7757 6.11655 2.77803C6.11422 2.78037 6.11422 2.78037 6.11188 2.78271C6.10954 2.78504 6.10954 2.78504 6.10721 2.78738C6.10487 2.78972 6.10487 2.78972 6.10253 2.79206C6.1002 2.79439 6.1002 2.79439 6.09786 2.79673C6.09552 2.79907 6.09552 2.79907 6.09319 2.8014C6.09085 2.80374 6.09085 2.80374 6.08851 2.80608C6.08618 2.80841 6.08618 2.80841 6.08384 2.81075C6.0815 2.81309 6.0815 2.81309 6.07917 2.81542C6.07683 2.81776 6.07683 2.81776 6.07449 2.8201C6.07216 2.82243 6.07216 2.82243 6.06982 2.82477C6.06748 2.82711 6.06748 2.82711 6.06515 2.82944C6.06281 2.83178 6.06281 2.83178 6.06047 2.83412C6.05814 2.83645 6.05813 2.83645 6.0558 2.83879C6.05346 2.84113 6.05346 2.84113 6.05112 2.84346C6.04879 2.8458 6.04879 2.8458 6.04645 2.84814C6.04411 2.85048 6.04411 2.85048 6.04178 2.85281C6.03944 2.85515 6.03944 2.85515 6.0371 2.85749C6.03477 2.85982 6.03477 2.85982 6.03243 2.86216C6.03009 2.8645 6.03009 2.8645 6.02776 2.86683C6.02542 2.86917 6.02542 2.86917 6.02308 2.87151C6.02075 2.87384 6.02075 2.87384 6.01841 2.87618C6.01607 2.87852 6.01607 2.87852 6.01374 2.88085C6.0114 2.88319 6.0114 2.88319 6.00906 2.88553C6.00673 2.88786 6.00673 2.88786 6.00439 2.8902C6.00205 2.89254 6.00205 2.89254 5.99972 2.89487C5.99738 2.89721 5.99738 2.89721 5.99504 2.89955C5.9927 2.90188 5.99271 2.90188 5.99037 2.90422C5.98803 2.90656 5.98803 2.90656 5.98569 2.90889C5.98336 2.91123 5.98336 2.91123 5.98102 2.91357C5.97868 2.91591 5.97868 2.91591 5.97635 2.91824C5.97401 2.92058 5.97401 2.92058 5.97167 2.92292C5.96934 2.92525 5.96934 2.92525 5.967 2.92759C5.96466 2.92993 5.96466 2.92993 5.96233 2.93226C5.95999 2.9346 5.95999 2.9346 5.95765 2.93694C5.95532 2.93927 5.95532 2.93927 5.95298 2.94161C5.95064 2.94395 5.95064 2.94395 5.94831 2.94628C5.94597 2.94862 5.94597 2.94862 5.94363 2.95096C5.9413 2.95329 5.9413 2.95329 5.93896 2.95563C5.93662 2.95797 5.93662 2.95797 5.93429 2.9603C5.93195 2.96264 5.93195 2.96264 5.92961 2.96498C5.92727 2.96731 5.92727 2.96731 5.92494 2.96965C5.9226 2.97199 5.9226 2.97199 5.92026 2.97432C5.91793 2.97666 5.91793 2.97666 5.91559 2.979C5.91325 2.98134 5.91325 2.98134 5.91092 2.98367C5.90858 2.98601 5.90858 2.98601 5.90624 2.98835C5.90391 2.99068 5.90391 2.99068 5.90157 2.99302C5.89923 2.99536 5.89923 2.99536 5.8969 2.99769C5.89456 3.00003 5.89456 3.00003 5.89222 3.00237C5.91325 2.98134 5.91325 2.98367 5.91092 2.98367C5.90858 2.98601 5.90858 2.98601 5.90624 2.98835C5.90624 2.99068 5.90391 2.99068 5.90157 2.99302C5.89923 2.99536 5.89923 2.99536 5.8969 2.99769C5.89456 3.00003 5.89456 3.00003 5.89222 3.00237C5.88989 3.0047 5.88989 3.0047 5.88755 3.00704C5.88521 3.00938 5.88521 3.00938 5.88288 3.01171C5.88054 3.01405 5.88054 3.01405 5.8782 3.01639C5.87587 3.01872 5.87587 3.01872 5.87353 3.02106C5.87119 3.0234 5.87119 3.0234 5.86886 3.02573C5.86652 3.02807 5.86652 3.02807 5.86418 3.03041C5.86184 3.03274 5.86184 3.03274 5.85951 3.03508C5.85717 3.03742 5.85717 3.03742 5.85483 3.03975C5.8525 3.04209 5.8525 3.04209 5.85016 3.04443C5.84782 3.04677 5.84782 3.04677 5.84549 3.0491C5.84315 3.05144 5.84315 3.05144 5.84081 3.05378C5.83848 3.05611 5.83848 3.05611 5.83614 3.05845C5.8338 3.06079 5.8338 3.06079 5.83147 3.06312C5.82913 3.06546 5.82913 3.06546 5.82679 3.0678C5.82446 3.07013 5.82446 3.07013 5.82212 3.07247C5.81978 3.07481 5.81978 3.07481 5.81745 3.07714C5.81511 3.07948 5.81511 3.07948 5.81277 3.08182C5.81044 3.08415 5.81044 3.08415 5.8081 3.08649C5.80576 3.08883 5.80576 3.08883 5.80342 3.09116C5.80109 3.0935 5.80109 3.0935 5.79875 3.09584C5.79641 3.09817 5.79641 3.09817 5.79408 3.10051C5.79174 3.10285 5.79174 3.10285 5.7894 3.10519C5.78707 3.10752 5.78707 3.10752 5.78473 3.10986C5.78239 3.1122 5.78239 3.1122 5.78006 3.11453C5.77772 3.11687 5.77772 3.11687 5.77538 3.11921C5.77305 3.12154 5.77305 3.12154 5.77071 3.12388C5.76837 3.12622 5.76837 3.12622 5.76604 3.12855C5.7637 3.13089 5.7637 3.13089 5.76136 3.13323C5.75903 3.13556 5.75903 3.13556 5.75669 3.1379C5.75435 3.14024 5.75435 3.14024 5.75202 3.14257C5.74968 3.14491 5.74968 3.14491 5.74734 3.14725C5.74501 3.14958 5.74501 3.14958 5.74267 3.15192C5.74033 3.15426 5.74033 3.15426 5.738 3.15659C5.73566 3.15893 5.73566 3.15893 5.73332 3.16127C5.73098 3.1636 5.73098 3.1636 5.72865 3.16594C5.72631 3.16828 5.72631 3.16828 5.72397 3.17062C5.72164 3.17295 5.72164 3.17295 5.7193 3.17529C5.71696 3.17763 5.71696 3.17763 5.71463 3.17996C5.71229 3.1823 5.71229 3.1823 5.70995 3.18464C5.70762 3.18697 5.70762 3.18697 5.70528 3.18931C5.70294 3.19165 5.70294 3.19165 5.70061 3.19398C5.69827 3.19632 5.69827 3.19632 5.69593 3.19866C5.6936 3.20099 5.6936 3.20099 5.69126 3.20333C5.68892 3.20567 5.68892 3.20567 5.68659 3.208C5.68425 3.21034 5.68425 3.21034 5.68191 3.21268C5.67958 3.21501 5.67958 3.21501 5.67724 3.21735C5.6749 3.21969 5.6749 3.21969 5.67256 3.22202C5.67023 3.22436 5.67023 3.22436 5.66789 3.2267C5.66555 3.22903 5.66555 3.22903 5.66322 3.23137C5.66088 3.23371 5.66088 3.23371 5.65854 3.23605C5.68191 3.21501 5.67958 3.21501 5.67724 3.21735C5.6749 3.21969 5.6749 3.21969 5.67256 3.22202C5.67256 3.22436 5.67023 3.22436 5.67023 3.2267C5.66789 3.22903 5.66789 3.22903 5.66555 3.23137C5.66322 3.23371 5.66322 3.23371 5.66088 3.23605C5.65854 3.23838 5.65854 3.23838 5.65621 3.24072C5.65387 3.24306 5.65387 3.24306 5.65153 3.24539C5.6492 3.24773 5.6492 3.24773 5.64686 3.25007C5.64452 3.2524 5.64452 3.2524 5.64219 3.25474C5.63985 3.25708 5.63985 3.25708 5.63751 3.25941C5.63518 3.26175 5.63518 3.26175 5.63284 3.26409C5.6305 3.26642 5.6305 3.26642 5.62817 3.26876C5.62583 3.2711 5.62583 3.2711 5.62349 3.27343C5.62116 3.27577 5.62116 3.27577 5.61882 3.27811C5.61648 3.28044 5.61648 3.28044 5.61415 3.28278C5.61181 3.28512 5.61181 3.28512 5.60947 3.28745C5.60713 3.28979 5.60713 3.28979 5.6048 3.29213C5.60246 3.29446 5.60246 3.29447 5.60012 3.2968C5.59779 3.29914 5.59779 3.29914 5.59545 3.30148C5.59311 3.30381 5.59311 3.30381 5.59078 3.30615C5.58844 3.30849 5.58844 3.30849 5.5861 3.31082C5.58377 3.31316 5.58377 3.31316 5.58143 3.3155C5.57909 3.31783 5.57909 3.31783 5.57676 3.32017C5.57442 3.32251 5.57442 3.32251 5.57208 3.32484C5.56975 3.32718 5.56975 3.32718 5.56741 3.32952C5.56507 3.33185 5.56507 3.33185 5.56274 3.33419C5.5604 3.33653 5.5604 3.33653 5.55806 3.33886C5.55573 3.3412 5.55573 3.3412 5.55339 3.34354C5.55105 3.34587 5.55105 3.34587 5.54871 3.34821C5.54638 3.35055 5.54638 3.35055 5.54404 3.35288C5.5417 3.35522 5.5417 3.35522 5.53937 3.35756C5.53703 3.3599 5.53703 3.3599 5.53469 3.36223C5.53236 3.36457 5.53236 3.36457 5.53002 3.36691C5.52768 3.36924 5.52768 3.36924 5.52535 3.37158C5.52301 3.37392 5.52301 3.37392 5.52067 3.37625C5.51834 3.37859 5.51834 3.37859 5.516 3.38093C5.51366 3.38326 5.51366 3.38326 5.51133 3.3856C5.50899 3.38794 5.50899 3.38794 5.50665 3.39027C5.50432 3.39261 5.50432 3.39261 5.50198 3.39495C5.49964 3.39728 5.49964 3.39728 5.49731 3.39962C5.49497 3.40196 5.49497 3.40196 5.49263 3.40429C5.4903 3.40663 5.4903 3.40663 5.48796 3.40897C5.48562 3.4113 5.48562 3.4113 5.48329 3.41364C5.48095 3.41598 5.48095 3.41598 5.47861 3.41831C5.47627 3.42065 5.47627 3.42065 5.47394 3.42299C5.4716 3.42533 5.4716 3.42533 5.46926 3.42766C5.46693 3.43 5.46693 3.43 5.46459 3.43234C5.46225 3.43467 5.46225 3.43467 5.45992 3.43701C5.45758 3.43935 5.45758 3.43935 5.45524 3.44168C5.45291 3.44402 5.45291 3.44402 5.45057 3.44636C5.44823 3.44869 5.44823 3.44869 5.4459 3.45103C5.44356 3.45337 5.44356 3.45337 5.44122 3.4557C5.43889 3.45804 5.43889 3.45804 5.43655 3.46038C5.43421 3.46271 5.43421 3.46271 5.43188 3.46505C5.42954 3.46739 5.42954 3.46739 5.4272 3.46972C5.44823 3.44869 5.4459 3.44869 5.44356 3.45103C5.44122 3.45337 5.44122 3.45337 5.43889 3.4557C5.43889 3.4557 5.43655 3.45804 5.43655 3.46038C5.43421 3.46271 5.43421 3.46271 5.43188 3.46505C5.42954 3.46739 5.42954 3.46739 5.4272 3.46972C5.42486 3.47206 5.42487 3.47206 5.42253 3.4744C5.42019 3.47673 5.42019 3.47673 5.41785 3.47907C5.41552 3.48141 5.41552 3.48141 5.41318 3.48374C5.41084 3.48608 5.41084 3.48608 5.40851 3.48842C5.40617 3.49076 5.40617 3.49076 5.40383 3.49309C5.4015 3.49543 5.4015 3.49543 5.39916 3.49777C5.39682 3.5001 5.39682 3.5001 5.39449 3.50244C5.39215 3.50478 5.39215 3.50478 5.38981 3.50711C5.38748 3.50945 5.38748 3.50945 5.38514 3.51179C5.3828 3.51412 5.3828 3.51412 5.38047 3.51646C5.37813 3.5188 5.37813 3.5188 5.37579 3.52113C5.37346 3.52347 5.37346 3.52347 5.37112 3.52581C5.36878 3.52814 5.36878 3.52814 5.36645 3.53048C5.36411 3.53282 5.36411 3.53282 5.36177 3.53515C5.35944 3.53749 5.35944 3.53749 5.3571 3.53983C5.35476 3.54216 5.35476 3.54216 5.35242 3.5445C5.35009 3.54684 5.35009 3.54684 5.34775 3.54918C5.34541 3.55151 5.34541 3.55151 5.34308 3.55385C5.34074 3.55619 5.34074 3.55619 5.3384 3.55852C5.33607 3.56086 5.33607 3.56086 5.33373 3.5632C5.33139 3.56553 5.33139 3.56553 5.32906 3.56787C5.32672 3.57021 5.32672 3.57021 5.32438 3.57254C5.32205 3.57488 5.32205 3.57488 5.31971 3.57722C5.31737 3.57955 5.31737 3.57955 5.31504 3.58189C5.3127 3.58423 5.3127 3.58423 5.31036 3.58656C5.30803 3.5889 5.30803 3.5889 5.30569 3.59124C5.30335 3.59357 5.30335 3.59357 5.30102 3.59591C5.29868 3.59825 5.29868 3.59825 5.29634 3.60058C5.294 3.60292 5.294 3.60292 5.29167 3.60526C5.28933 3.60759 5.28933 3.60759 5.28699 3.60993C5.28466 3.61227 5.28466 3.61227 5.28232 3.61461C5.27998 3.61694 5.27998 3.61694 5.27765 3.61928C5.27531 3.62162 5.27531 3.62162 5.27297 3.62395C5.27064 3.62629 5.27064 3.62629 5.2683 3.62863C5.26596 3.63096 5.26596 3.63096 5.26363 3.6333C5.26129 3.63564 5.26129 3.63564 5.25895 3.63797C5.25662 3.64031 5.25662 3.64031 5.25428 3.64265C5.25194 3.64498 5.25194 3.64498 5.24961 3.64732C5.24727 3.64966 5.24727 3.64966 5.24493 3.65199C5.2426 3.65433 5.2426 3.65433 5.24026 3.65667C5.23792 3.659 5.23792 3.659 5.23559 3.66134C5.23325 3.66368 5.23325 3.66368 5.23091 3.66601C5.22858 3.66835 5.22857 3.66835 5.22624 3.67069C5.2239 3.67302 5.2239 3.67302 5.22156 3.67536C5.21923 3.6777 5.21923 3.6777 5.21689 3.68004C5.21455 3.68237 5.21455 3.68237 5.21222 3.68471C5.20988 3.68705 5.20988 3.68705 5.20754 3.68938C5.20521 3.69172 5.20521 3.69172 5.20287 3.69406C5.20053 3.69639 5.20053 3.69639 5.1982 3.69873C5.19586 3.70107 5.19586 3.70107 5.19352 3.7034C5.21455 3.68237 5.21222 3.68237 5.21222 3.68471C5.20988 3.68705 5.20988 3.68705 5.20754 3.68938C4.80094 4.18946 4.56259 4.8531 4.56259 5.63359C4.56259 7.29271 5.64452 8.95417 7.13539 9.82345C6.16563 10.0244 5.31036 10.4637 4.6397 11.111C4.63737 11.1134 4.63737 11.1134 4.63503 11.1157C4.63269 11.118 4.63269 11.118 4.63036 11.1204C4.62802 11.1227 4.62802 11.1227 4.62568 11.125C4.62335 11.1274 4.62335 11.1274 4.62101 11.1297C4.61867 11.1321 4.61867 11.1321 4.61634 11.1344C4.614 11.1367 4.614 11.1367 4.61166 11.1391C4.60933 11.1414 4.60933 11.1414 4.60699 11.1437C4.60465 11.1461 4.60465 11.1461 4.60232 11.1484C4.59998 11.1508 4.59998 11.1508 4.59764 11.1531C4.5953 11.1554 4.59531 11.1554 4.59297 11.1578C4.59063 11.1601 4.59063 11.1601 4.58829 11.1624C4.59063 11.1601 4.58829 11.1601 4.58829 11.1624C4.58596 11.1648 4.58596 11.1648 4.58362 11.1671C4.58128 11.1694 4.58128 11.1694 4.57895 11.1718C4.57661 11.1741 4.57661 11.1741 4.57427 11.1765C4.57194 11.1788 4.57194 11.1788 4.5696 11.1811C4.56726 11.1835 4.56726 11.1835 4.56493 11.1858C4.56259 11.1881 4.56259 11.1881 4.56025 11.1905C4.55792 11.1928 4.55792 11.1928 4.55558 11.1952C4.55324 11.1975 4.55324 11.1975 4.55091 11.1998C4.54857 11.2022 4.54857 11.2022 4.54623 11.2045C4.5439 11.2068 4.5439 11.2068 4.54156 11.2092C4.53922 11.2115 4.53922 11.2115 4.53689 11.2138C4.53455 11.2162 4.53455 11.2162 4.53221 11.2185C4.52987 11.2209 4.52987 11.2209 4.52754 11.2232C4.5252 11.2255 4.5252 11.2255 4.52286 11.2279C4.52053 11.2302 4.52053 11.2302 4.51819 11.2325C4.51585 11.2349 4.51585 11.2349 4.51352 11.2372C4.51118 11.2395 4.51118 11.2395 4.50884 11.2419C4.50651 11.2442 4.50651 11.2442 4.50417 11.2466C4.50183 11.2489 4.50183 11.2489 4.4995 11.2512C4.49716 11.2536 4.49716 11.2536 4.49482 11.2559C4.49249 11.2582 4.49249 11.2582 4.49015 11.2606C4.48781 11.2629 4.48781 11.2629 4.48548 11.2653C4.48314 11.2676 4.48314 11.2676 4.4808 11.2699C4.47847 11.2723 4.47847 11.2723 4.47613 11.2746C4.47379 11.2769 4.47379 11.2769 4.47146 11.2793C4.46912 11.2816 4.46912 11.2816 4.46678 11.2839C4.46444 11.2863 4.46444 11.2863 4.46211 11.2886C4.45977 11.291 4.45977 11.291 4.45743 11.2933C4.4551 11.2956 4.4551 11.2956 4.45276 11.298C4.45042 11.3003 4.45042 11.3003 4.44809 11.3026C4.44575 11.305 4.44575 11.305 4.44341 11.3073C4.44108 11.3097 4.44108 11.3097 4.43874 11.312C4.4364 11.3143 4.4364 11.3143 4.43407 11.3167C4.43173 11.319 4.43173 11.319 4.42939 11.3213C4.42706 11.3237 4.42706 11.3237 4.42472 11.326C4.42238 11.3283 4.42238 11.3283 4.42005 11.3307C4.41771 11.333 4.41771 11.333 4.41537 11.3354C4.41304 11.3377 4.41304 11.3377 4.4107 11.34C4.40836 11.3424 4.40836 11.3424 4.40603 11.3447C4.40369 11.347 4.40369 11.347 4.40135 11.3494C4.39901 11.3517 4.39901 11.3517 4.39668 11.3541C4.39434 11.3564 4.39434 11.3564 4.392 11.3587C4.38967 11.3611 4.38967 11.3611 4.38733 11.3634C4.38499 11.3657 4.38499 11.3657 4.38266 11.3681C4.38032 11.3704 4.38032 11.3704 4.37798 11.3727C4.37565 11.3751 4.37565 11.3751 4.37331 11.3774C4.37097 11.3798 4.37097 11.3798 4.36864 11.3821C4.3663 11.3844 4.3663 11.3844 4.36396 11.3868C4.36163 11.3891 4.36163 11.3891 4.35929 11.3914C4.35695 11.3938 4.35695 11.3938 4.35462 11.3961C4.35228 11.3985 4.35228 11.3985 4.34994 11.4008C4.34761 11.4031 4.34761 11.4031 4.34527 11.4055C4.34293 11.4078 4.34293 11.4078 4.3406 11.4101C4.33826 11.4125 4.33826 11.4125 4.33592 11.4148C4.33358 11.4171 4.33358 11.4171 4.33125 11.4195C4.32891 11.4218 4.32891 11.4218 4.32657 11.4242C4.32424 11.4265 4.32424 11.4265 4.3219 11.4288C4.31956 11.4312 4.31956 11.4312 4.31723 11.4335C4.31489 11.4358 4.31489 11.4358 4.31255 11.4382C4.31022 11.4405 4.31022 11.4405 4.30788 11.4428C4.30554 11.4452 4.30554 11.4452 4.30321 11.4475C4.30087 11.4499 4.30087 11.4499 4.29853 11.4522C4.2962 11.4545 4.2962 11.4545 4.29386 11.4569C4.29152 11.4592 4.29152 11.4592 4.28919 11.4615C4.28685 11.4639 4.28685 11.4639 4.28451 11.4662C4.28218 11.4686 4.28218 11.4686 4.27984 11.4709C4.2775 11.4732 4.2775 11.4732 4.27516 11.4756C4.27283 11.4779 4.27283 11.4779 4.27049 11.4802C4.26815 11.4826 4.26815 11.4826 4.26582 11.4849C4.26348 11.4872 4.26348 11.4872 4.26114 11.4896C4.25881 11.4919 4.25881 11.4919 4.25647 11.4943C4.25413 11.4966 4.25413 11.4966 4.2518 11.4989C4.24946 11.5013 4.24946 11.5013 4.24712 11.5036C4.24479 11.5059 4.24479 11.5059 4.24245 11.5083C4.24011 11.5106 4.24011 11.5106 4.23778 11.513C4.23544 11.5153 4.23544 11.5153 4.2331 11.5176C4.23077 11.52 4.23077 11.52 4.22843 11.5223C4.22609 11.5246 4.22609 11.5246 4.22376 11.527C4.22142 11.5293 4.22142 11.5293 4.21908 11.5316C4.21675 11.534 4.21675 11.534 4.21441 11.5363C4.21207 11.5387 4.21207 11.5387 4.20973 11.541C4.2074 11.5433 4.2074 11.5433 4.20506 11.5457C4.20272 11.548 4.20272 11.548 4.20039 11.5503C4.19805 11.5527 4.19805 11.5527 4.19571 11.555C4.19338 11.5574 4.19338 11.5574 4.19104 11.5597C4.1887 11.562 4.1887 11.562 4.18637 11.5644C4.18403 11.5667 4.18403 11.5667 4.18169 11.569C4.17936 11.5714 4.17936 11.5714 4.17702 11.5737C4.17468 11.576 4.17468 11.576 4.17235 11.5784C4.17001 11.5807 4.17001 11.5807 4.16767 11.5831C4.16534 11.5854 4.16534 11.5854 4.163 11.5877C4.16066 11.5901 4.16066 11.5901 4.15833 11.5924C4.15599 11.5947 4.15599 11.5947 4.15365 11.5971C4.15132 11.5994 4.15131 11.5994 4.14898 11.6018C4.14664 11.6041 4.14664 11.6041 4.1443 11.6064C4.14197 11.6088 4.14197 11.6088 4.13963 11.6111C4.13729 11.6134 4.13729 11.6134 4.13496 11.6158C4.13262 11.6181 4.13262 11.6181 4.13028 11.6204C4.12795 11.6228 4.12795 11.6228 4.12561 11.6251C4.12327 11.6275 4.12327 11.6275 4.12094 11.6298C4.1186 11.6321 4.1186 11.6321 4.11626 11.6345C4.11393 11.6368 4.11393 11.6368 4.11159 11.6391C4.10925 11.6415 4.10925 11.6415 4.10692 11.6438C4.10458 11.6462 4.10458 11.6462 4.10224 11.6485C4.09991 11.6508 4.09991 11.6508 4.09757 11.6532C4.09523 11.6555 4.09523 11.6555 4.0929 11.6578C4.09056 11.6602 4.09056 11.6602 4.08822 11.6625C4.08588 11.6648 4.08588 11.6648 4.08355 11.6672C4.08121 11.6695 4.08121 11.6695 4.07887 11.6719C4.07654 11.6742 4.07654 11.6742 4.0742 11.6765C4.07186 11.6789 4.07186 11.6789 4.06953 11.6812C4.06719 11.6835 4.06719 11.6835 4.06485 11.6859C4.06252 11.6882 4.06252 11.6882 4.06018 11.6905C4.05784 11.6929 4.05784 11.6929 4.05551 11.6952C4.05317 11.6976 4.05317 11.6976 4.05083 11.6999C4.0485 11.7022 4.0485 11.7022 4.04616 11.7046C4.04382 11.7069 4.04382 11.7069 4.04149 11.7092C4.03915 11.7116 4.03915 11.7116 4.03681 11.7139C4.03448 11.7163 4.03448 11.7163 4.03214 11.7186C4.0298 11.7209 4.0298 11.7209 4.02747 11.7233C4.02513 11.7256 4.02513 11.7256 4.02279 11.7279C4.02045 11.7303 4.02045 11.7303 4.01812 11.7326C4.01578 11.7349 4.01578 11.7349 4.01344 11.7373C4.01111 11.7396 4.01111 11.7396 4.00877 11.742C4.00643 11.7443 4.00643 11.7443 4.0041 11.7466C4.00176 11.749 4.00176 11.749 3.99942 11.7513C3.99709 11.7536 3.99709 11.7536 3.99475 11.756C3.99241 11.7583 3.99241 11.7583 3.99008 11.7607C3.98774 11.763 3.98774 11.763 3.9854 11.7653C3.98307 11.7677 3.98307 11.7677 3.98073 11.77C3.97839 11.7723 3.97839 11.7723 3.97606 11.7747C3.97372 11.777 3.97372 11.777 3.97138 11.7793C3.96905 11.7817 3.96905 11.7817 3.96671 11.784C3.96437 11.7864 3.96437 11.7864 3.96204 11.7887C3.9597 11.791 3.9597 11.791 3.95736 11.7934C3.95502 11.7957 3.95502 11.7957 3.95269 11.798C3.95035 11.8004 3.95035 11.8004 3.94801 11.8027C3.94568 11.8051 3.94568 11.8051 3.94334 11.8074C3.941 11.8097 3.941 11.8097 3.93867 11.8121C3.93633 11.8144 3.93633 11.8144 3.93399 11.8167C3.93166 11.8191 3.93166 11.8191 3.92932 11.8214C3.92698 11.8237 3.92698 11.8237 3.92465 11.8261C3.92231 11.8284 3.92231 11.8284 3.91997 11.8308C3.91764 11.8331 3.91764 11.8331 3.9153 11.8354C3.91296 11.8378 3.91296 11.8378 3.91063 11.8401C3.90829 11.8424 3.90829 11.8424 3.90595 11.8448C3.90362 11.8471 3.90362 11.8471 3.90128 11.8495C3.89894 11.8518 3.89894 11.8518 3.8966 11.8541C3.89427 11.8565 3.89427 11.8565 3.89193 11.8588C3.88959 11.8611 3.88959 11.8611 3.88726 11.8635C3.88492 11.8658 3.88492 11.8658 3.88258 11.8681C3.88025 11.8705 3.88025 11.8705 3.87791 11.8728C3.87557 11.8752 3.87557 11.8752 3.87324 11.8775C3.8709 11.8798 3.8709 11.8798 3.86856 11.8822C3.86623 11.8845 3.86623 11.8845 3.86389 11.8868C3.86155 11.8892 3.86155 11.8892 3.85922 11.8915C3.85688 11.8939 3.85688 11.8939 3.85454 11.8962C3.85221 11.8985 3.85221 11.8985 3.84987 11.9009C3.84753 11.9032 3.84753 11.9032 3.8452 11.9055C3.84286 11.9079 3.84286 11.9079 3.84052 11.9102C3.83819 11.9125 3.83819 11.9125 3.83585 11.9149C3.83351 11.9172 3.83351 11.9172 3.83117 11.9196C3.82884 11.9219 3.82884 11.9219 3.8265 11.9242C3.82416 11.9266 3.82416 11.9266 3.82183 11.9289C3.88959 11.8588 3.88726 11.8611 3.88726 11.8611C3.88492 11.8635 3.88492 11.8635 3.88258 11.8658C3.88025 11.8681 3.88025 11.8681 3.87791 11.8705C3.87557 11.8728 3.87557 11.8728 3.87324 11.8752C3.8709 11.8775 3.8709 11.8775 3.86856 11.8798C3.86623 11.8822 3.86623 11.8822 3.86389 11.8845C3.86155 11.8868 3.86155 11.8868 3.85922 11.8892C3.85688 11.8915 3.85688 11.8915 3.85454 11.8938C3.85221 11.8962 3.85221 11.8962 3.84987 11.8985C3.84753 11.9009 3.84753 11.9009 3.8452 11.9032C3.84286 11.9055 3.84286 11.9055 3.84052 11.9079C3.83819 11.9102 3.83819 11.9102 3.83585 11.9125C3.83351 11.9149 3.83351 11.9149 3.83117 11.9172C3.82884 11.9196 3.82884 11.9196 3.8265 11.9219C3.82416 11.9242 3.82416 11.9242 3.82183 11.9266C3.81949 11.9289 3.81949 11.9289 3.81715 11.9312C3.81482 11.9336 3.81482 11.9336 3.81248 11.9359C3.81014 11.9382 3.81014 11.9382 3.80781 11.9406C3.80547 11.9429 3.80547 11.9429 3.80313 11.9453C3.8008 11.9476 3.8008 11.9476 3.79846 11.9499C3.79612 11.9523 3.79612 11.9523 3.79379 11.9546C3.79145 11.9569 3.79145 11.9569 3.78911 11.9593C3.78678 11.9616 3.78678 11.9616 3.78444 11.964C3.7821 11.9663 3.7821 11.9663 3.77977 11.9686C3.77743 11.971 3.77743 11.971 3.77509 11.9733C3.77276 11.9756 3.77276 11.9756 3.77042 11.978C3.76808 11.9803 3.76808 11.9803 3.76574 11.9826C3.76341 11.985 3.76341 11.985 3.76107 11.9873C3.75873 11.9897 3.75873 11.9897 3.7564 11.992C3.75406 11.9943 3.75406 11.9943 3.75172 11.9967C3.74939 11.999 3.74939 11.999 3.74705 12.0013C3.74471 12.0037 3.74471 12.0037 3.74238 12.006C3.74004 12.0084 3.74004 12.0084 3.7377 12.0107C3.73537 12.013 3.73537 12.013 3.73303 12.0154C3.73069 12.0177 3.73069 12.0177 3.72836 12.02C3.72602 12.0224 3.72602 12.0224 3.72368 12.0247C3.72135 12.027 3.72135 12.027 3.71901 12.0294C3.71667 12.0317 3.71667 12.0317 3.71434 12.0341C3.712 12.0364 3.712 12.0364 3.70966 12.0387C3.70733 12.0411 3.70733 12.0411 3.70499 12.0434C3.70265 12.0457 3.70265 12.0457 3.70031 12.0481C3.69798 12.0504 3.69798 12.0504 3.69564 12.0528C3.6933 12.0551 3.6933 12.0551 3.69097 12.0574C3.68863 12.0598 3.68863 12.0598 3.68629 12.0621C3.68396 12.0644 3.68396 12.0644 3.68162 12.0668C3.67928 12.0691 3.67928 12.0691 3.67695 12.0714C3.67461 12.0738 3.67461 12.0738 3.67227 12.0761C3.66994 12.0785 3.66994 12.0785 3.6676 12.0808C3.66526 12.0831 3.66526 12.0831 3.66293 12.0855C3.66059 12.0878 3.66059 12.0878 3.65825 12.0901C3.65592 12.0925 3.65592 12.0925 3.65358 12.0948C3.65124 12.0972 3.65124 12.0972 3.64891 12.0995C3.64657 12.1018 3.64657 12.1018 3.64423 12.1042C3.64189 12.1065 3.6419 12.1065 3.63956 12.1088C3.63722 12.1112 3.63722 12.1112 3.63488 12.1135C3.65592 12.0925 3.65592 12.0948 3.65358 12.0948C3.65124 12.0972 3.65124 12.0972 3.64891 12.0995C3.64657 12.1018 3.64657 12.1018 3.64423 12.1042C3.64189 12.1065 3.6419 12.1065 3.63956 12.1088C3.63722 12.1112 3.63722 12.1112 3.63488 12.1135C3.63255 12.1158 3.63255 12.1158 3.63021 12.1182C3.62787 12.1205 3.62787 12.1205 3.62554 12.1229C3.6232 12.1252 3.6232 12.1252 3.62086 12.1275C3.61853 12.1299 3.61853 12.1299 3.61619 12.1322C3.61385 12.1345 3.61385 12.1345 3.61152 12.1369C3.60918 12.1392 3.60918 12.1392 3.60684 12.1415C3.60451 12.1439 3.60451 12.1439 3.60217 12.1462C3.59983 12.1486 3.59983 12.1486 3.5975 12.1509C3.59516 12.1532 3.59516 12.1532 3.59282 12.1556C3.59049 12.1579 3.59049 12.1579 3.58815 12.1602C3.58581 12.1626 3.58581 12.1626 3.58348 12.1649C3.58114 12.1673 3.58114 12.1673 3.5788 12.1696C3.57646 12.1719 3.57646 12.1719 3.57413 12.1743C3.57179 12.1766 3.57179 12.1766 3.56945 12.1789C3.56712 12.1813 3.56712 12.1813 3.56478 12.1836C3.56244 12.1859 3.56244 12.1859 3.56011 12.1883C3.56712 12.1813 3.56712 12.1836 3.56478 12.1836C3.56244 12.1859 3.56244 12.1859 3.56011 12.1883C3.55777 12.1906 3.55777 12.1906 3.55543 12.193C3.5531 12.1953 3.5531 12.1953 3.55076 12.1976C3.54842 12.2 3.54842 12.2 3.54609 12.2023C3.54375 12.2046 3.54375 12.2046 3.54141 12.207C3.53908 12.2093 3.53908 12.2093 3.53674 12.2117C3.5344 12.214 3.5344 12.214 3.53207 12.2163C3.52973 12.2187 3.52973 12.2187 3.52739 12.221C3.52506 12.2233 3.52506 12.2233 3.52272 12.2257C3.52038 12.228 3.52038 12.228 3.51805 12.2303C3.51571 12.2327 3.51571 12.2327 3.51337 12.235C3.51103 12.2374 3.51103 12.2374 3.5087 12.2397C3.50636 12.242 3.50636 12.242 3.50402 12.2444C3.50169 12.2467 3.50169 12.2467 3.49935 12.249C3.49701 12.2514 3.49701 12.2514 3.49468 12.2537C3.49234 12.2561 3.49234 12.2561 3.49 12.2584C3.48767 12.2607 3.48767 12.2607 3.48533 12.2631C3.48299 12.2654 3.48299 12.2654 3.48066 12.2677C3.47832 12.2701 3.47832 12.2701 3.47598 12.2724C3.47365 12.2747 3.47365 12.2747 3.47131 12.2771C3.46897 12.2794 3.46897 12.2794 3.46664 12.2818C3.4643 12.2841 3.4643 12.2841 3.46196 12.2864C3.45963 12.2888 3.45963 12.2888 3.45729 12.2911C3.45495 12.2934 3.45495 12.2934 3.45262 12.2958C3.45028 12.2981 3.45028 12.2981 3.44794 12.3005C3.4456 12.3028 3.4456 12.3028 3.44327 12.3051C3.44093 12.3075 3.44093 12.3075 3.43859 12.3098C3.43626 12.3121 3.43626 12.3121 3.43392 12.3145C3.43158 12.3168 3.43158 12.3168 3.42925 12.3191C3.42691 12.3215 3.42691 12.3215 3.42457 12.3238C3.42224 12.3262 3.42224 12.3262 3.4199 12.3285C3.41756 12.3308 3.41756 12.3308 3.41523 12.3332C3.41289 12.3355 3.41289 12.3355 3.41055 12.3378C3.42224 12.3262 3.42224 12.3285 3.4199 12.3285C3.41756 12.3308 3.41756 12.3308 3.41523 12.3332C3.41289 12.3355 3.41289 12.3355 3.41055 12.3378C3.40822 12.3402 3.40822 12.3402 3.40588 12.3425C3.40354 12.3449 3.40354 12.3449 3.40121 12.3472C3.39887 12.3495 3.39887 12.3495 3.39653 12.3519C3.3942 12.3542 3.3942 12.3542 3.39186 12.3565C3.38952 12.3589 3.38952 12.3589 3.38718 12.3612C3.38485 12.3635 3.38485 12.3635 3.38251 12.3659C3.38017 12.3682 3.38017 12.3682 3.37784 12.3706C3.3755 12.3729 3.3755 12.3729 3.37316 12.3752C3.37083 12.3776 3.37083 12.3776 3.36849 12.3799C3.36615 12.3822 3.36615 12.3822 3.36382 12.3846C3.36148 12.3869 3.36148 12.3869 3.35914 12.3892C3.35681 12.3916 3.35681 12.3916 3.35447 12.3939C3.35213 12.3963 3.35213 12.3963 3.3498 12.3986C3.34746 12.4009 3.34746 12.4009 3.34512 12.4033C3.34279 12.4056 3.34279 12.4056 3.34045 12.4079C3.33811 12.4103 3.33811 12.4103 3.33578 12.4126C3.33344 12.415 3.33344 12.415 3.3311 12.4173C3.32877 12.4196 3.32877 12.4196 3.32643 12.422C3.33344 12.415 3.33344 12.4173 3.3311 12.4173C3.32877 12.4196 3.32877 12.4196 3.32643 12.422C3.32409 12.4243 3.32409 12.4243 3.32175 12.4266C3.31942 12.429 3.31942 12.429 3.31708 12.4313C3.31474 12.4336 3.31474 12.4336 3.31241 12.436C3.31007 12.4383 3.31007 12.4383 3.30773 12.4407C3.3054 12.443 3.3054 12.443 3.30306 12.4453C3.30072 12.4477 3.30072 12.4477 3.29839 12.45C3.29605 12.4523 3.29605 12.4523 3.29371 12.4547C3.29138 12.457 3.29138 12.457 3.28904 12.4594C3.2867 12.4617 3.2867 12.4617 3.28437 12.464C3.28203 12.4664 3.28203 12.4664 3.27969 12.4687C3.27736 12.471 3.27736 12.471 3.27502 12.4734C3.27268 12.4757 3.27268 12.4757 3.27035 12.478C3.26801 12.4804 3.26801 12.4804 3.26567 12.4827C3.26334 12.4851 3.26334 12.4851 3.261 12.4874C3.25866 12.4897 3.25866 12.4897 3.25632 12.4921C3.25399 12.4944 3.25399 12.4944 3.25165 12.4967C3.24931 12.4991 3.24931 12.4991 3.24698 12.5014C3.24464 12.5038 3.24464 12.5038 3.2423 12.5061C3.23997 12.5084 3.23997 12.5084 3.23763 12.5108C3.23529 12.5131 3.23529 12.5131 3.23296 12.5154C3.23062 12.5178 3.23062 12.5178 3.22828 12.5201C3.22595 12.5224 3.22595 12.5224 3.22361 12.5248C3.22127 12.5271 3.22127 12.5271 3.21894 12.5295C3.2166 12.5318 3.2166 12.5318 3.21426 12.5341C3.21193 12.5365 3.21193 12.5365 3.20959 12.5388C3.20725 12.5411 3.20725 12.5411 3.20492 12.5435C3.20258 12.5458 3.20258 12.5458 3.20024 12.5482C3.19791 12.5505 3.1979 12.5505 3.19557 12.5528C3.19323 12.5552 3.19323 12.5552 3.19089 12.5575C3.18856 12.5598 3.18856 12.5598 3.18622 12.5622C3.18388 12.5645 3.18388 12.5645 3.18155 12.5668C3.17921 12.5692 3.17921 12.5692 3.17687 12.5715C3.18856 12.5598 3.18856 12.5598 3.18622 12.5622C3.18388 12.5645 3.18388 12.5645 3.18155 12.5668C3.17921 12.5692 3.17921 12.5692 3.17687 12.5715C3.17454 12.5739 3.17454 12.5739 3.1722 12.5762C3.16986 12.5785 3.16986 12.5785 3.16753 12.5809C3.16519 12.5832 3.16519 12.5832 3.16285 12.5855C3.16052 12.5879 3.16052 12.5879 3.15818 12.5902C3.15584 12.5925 3.15584 12.5925 3.15351 12.5949C3.15117 12.5972 3.15117 12.5972 3.14883 12.5996C3.1465 12.6019 3.1465 12.6019 3.14416 12.6042C3.14182 12.6066 3.14182 12.6066 3.13949 12.6089C3.13715 12.6112 3.13715 12.6112 3.13481 12.6136C3.13247 12.6159 3.13247 12.6159 3.13014 12.6183C3.1278 12.6206 3.1278 12.6206 3.12546 12.6229C3.12313 12.6253 3.12313 12.6253 3.12079 12.6276C3.11845 12.6299 3.11845 12.6299 3.11612 12.6323C3.11378 12.6346 3.11378 12.6346 3.11144 12.6369C3.10911 12.6393 3.10911 12.6393 3.10677 12.6416C3.10443 12.644 3.10443 12.644 3.1021 12.6463C3.09976 12.6486 3.09976 12.6486 3.09742 12.651C3.09509 12.6533 3.09509 12.6533 3.09275 12.6556C3.09976 12.6486 3.09976 12.651 3.09742 12.651C3.09509 12.6533 3.09509 12.6533 3.09275 12.6556C3.09041 12.658 3.09041 12.658 3.08808 12.6603C3.08574 12.6627 3.08574 12.6627 3.0834 12.665C3.08107 12.6673 3.08107 12.6673 3.07873 12.6697C3.07639 12.672 3.07639 12.672 3.07406 12.6743C3.07172 12.6767 3.07172 12.6767 3.06938 12.679C3.06704 12.6813 3.06704 12.6813 3.06471 12.6837C3.06237 12.686 3.06237 12.686 3.06003 12.6884C3.0577 12.6907 3.0577 12.6907 3.05536 12.693C3.05302 12.6954 3.05302 12.6954 3.05069 12.6977C3.04835 12.7 3.04835 12.7 3.04601 12.7024C3.04368 12.7047 3.04368 12.7047 3.04134 12.7071C3.039 12.7094 3.039 12.7094 3.03667 12.7117C3.03433 12.7141 3.03433 12.7141 3.03199 12.7164C3.02966 12.7187 3.02966 12.7187 3.02732 12.7211C3.02498 12.7234 3.02498 12.7234 3.02265 12.7257C3.02031 12.7281 3.02031 12.7281 3.01797 12.7304C3.01564 12.7328 3.01564 12.7328 3.0133 12.7351C3.01096 12.7374 3.01096 12.7374 3.00863 12.7398C3.00629 12.7421 3.00629 12.7421 3.00395 12.7444C3.00161 12.7468 3.00161 12.7468 2.99928 12.7491C2.99694 12.7515 2.99694 12.7515 2.9946 12.7538C2.99227 12.7561 2.99227 12.7561 2.98993 12.7585C2.98759 12.7608 2.98759 12.7608 2.98526 12.7631C2.98292 12.7655 2.98292 12.7655 2.98058 12.7678C2.97825 12.7701 2.97825 12.7701 2.97591 12.7725C2.97357 12.7748 2.97357 12.7748 2.97124 12.7772C2.9689 12.7795 2.9689 12.7795 2.96656 12.7818C2.96423 12.7842 2.96423 12.7842 2.96189 12.7865C2.95955 12.7888 2.95955 12.7888 2.95722 12.7912C2.95488 12.7935 2.95488 12.7935 2.95254 12.7959C2.95021 12.7982 2.95021 12.7982 2.94787 12.8005C2.94553 12.8029 2.94553 12.8029 2.94319 12.8052C2.95722 12.7935 2.95488 12.7935 2.95254 12.7959C2.95254 12.7959 2.95021 12.7982 2.94787 12.8005C2.94553 12.8029 2.94553 12.8029 2.94319 12.8052C2.94086 12.8075 2.94086 12.8075 2.93852 12.8099C1.94539 13.7656 1.34717 15.163 1.34717 16.8478C1.34717 17.8573 2.16504 18.8808 3.17687 19.1332L13.4611 21.6967C14.092 21.8532 14.6505 21.6733 14.9777 21.269C14.98 21.2667 14.98 21.2667 14.9823 21.2644C14.9847 21.262 14.9847 21.262 14.987 21.2597C14.9893 21.2574 14.9893 21.2574 14.9917 21.255C14.994 21.2527 14.994 21.2527 14.9964 21.2504C14.9987 21.248 14.9987 21.248 15.001 21.2457C15.0034 21.2433 15.0034 21.2433 15.0057 21.241C15.008 21.2387 15.008 21.2387 15.0104 21.2363C15.0127 21.234 15.0127 21.234 15.015 21.2317C15.0174 21.2293 15.0174 21.2293 15.0197 21.227C15.0221 21.2246 15.0221 21.2246 15.0244 21.2223C15.0267 21.22 15.0267 21.22 15.0291 21.2176C15.0314 21.2153 15.0314 21.2153 15.0337 21.213C15.0361 21.2106 15.0361 21.2106 15.0384 21.2083C15.0408 21.206 15.0408 21.206 15.0431 21.2036C15.0454 21.2013 15.0454 21.2013 15.0478 21.1989C15.0501 21.1966 15.0501 21.1966 15.0524 21.1943C15.0548 21.1919 15.0548 21.1919 15.0571 21.1896C15.0594 21.1873 15.0594 21.1873 15.0618 21.1849C15.0641 21.1826 15.0641 21.1826 15.0665 21.1802C15.0688 21.1779 15.0688 21.1779 15.0711 21.1756C15.0735 21.1732 15.0735 21.1732 15.0758 21.1709C15.0781 21.1686 15.0781 21.1686 15.0805 21.1662C15.0828 21.1639 15.0828 21.1639 15.0852 21.1616C15.0875 21.1592 15.0875 21.1592 15.0898 21.1569C15.0922 21.1545 15.0922 21.1545 15.0945 21.1522C15.0968 21.1499 15.0968 21.1499 15.0992 21.1475C15.1015 21.1452 15.1015 21.1452 15.1038 21.1429C15.1062 21.1405 15.1062 21.1405 15.1085 21.1382C15.1109 21.1358 15.1109 21.1359 15.1132 21.1335C15.1155 21.1312 15.1155 21.1312 15.1179 21.1288C15.1202 21.1265 15.1202 21.1265 15.1225 21.1242C15.1249 21.1218 15.1249 21.1218 15.1272 21.1195C15.1296 21.1172 15.1296 21.1172 15.1319 21.1148C15.1342 21.1125 15.1342 21.1125 15.1366 21.1101C15.1389 21.1078 15.1389 21.1078 15.1412 21.1055C15.1436 21.1031 15.1436 21.1031 15.1459 21.1008C15.1482 21.0985 15.1482 21.0985 15.1506 21.0961C15.1529 21.0938 15.1529 21.0938 15.1553 21.0915C15.1576 21.0891 15.1576 21.0891 15.1599 21.0868C15.1623 21.0844 15.1623 21.0844 15.1646 21.0821C15.1669 21.0798 15.1669 21.0798 15.1693 21.0774C15.1716 21.0751 15.1716 21.0751 15.1739 21.0728C15.1763 21.0704 15.1763 21.0704 15.1786 21.0681C15.181 21.0657 15.181 21.0657 15.1833 21.0634C15.1856 21.0611 15.1856 21.0611 15.188 21.0587C15.1903 21.0564 15.1903 21.0564 15.1926 21.0541C15.195 21.0517 15.195 21.0517 15.1973 21.0494C15.1997 21.0471 15.1997 21.0471 15.202 21.0447C15.2043 21.0424 15.2043 21.0424 15.2067 21.04C15.209 21.0377 15.209 21.0377 15.2113 21.0354C15.2137 21.033 15.2137 21.033 15.216 21.0307C15.2183 21.0284 15.2183 21.0284 15.2207 21.026C15.223 21.0237 15.223 21.0237 15.2254 21.0213C15.2277 21.019 15.2277 21.019 15.23 21.0167C15.2324 21.0143 15.2324 21.0143 15.2347 21.012C15.237 21.0097 15.237 21.0097 15.2394 21.0073C15.2417 21.005 15.2417 21.005 15.2441 21.0027C15.2464 21.0003 15.2464 21.0003 15.2487 20.998C15.2511 20.9956 15.2511 20.9956 15.2534 20.9933C15.2557 20.991 15.2557 20.991 15.2581 20.9886C15.2604 20.9863 15.2604 20.9863 15.2627 20.984C15.2651 20.9816 15.2651 20.9816 15.2674 20.9793C15.2698 20.9769 15.2698 20.9769 15.2721 20.9746C15.2744 20.9723 15.2744 20.9723 15.2768 20.9699C15.2791 20.9676 15.2791 20.9676 15.2814 20.9653C15.2838 20.9629 15.2838 20.9629 15.2861 20.9606C15.2885 20.9583 15.2885 20.9583 15.2908 20.9559C15.2931 20.9536 15.2931 20.9536 15.2955 20.9512C15.2978 20.9489 15.2978 20.9489 15.3001 20.9466C15.3025 20.9442 15.3025 20.9442 15.3048 20.9419C15.3071 20.9396 15.3071 20.9396 15.3095 20.9372C15.3118 20.9349 15.3118 20.9349 15.3142 20.9325C15.3165 20.9302 15.3165 20.9302 15.3188 20.9279C15.3212 20.9255 15.3212 20.9255 15.3235 20.9232C15.3258 20.9209 15.3258 20.9209 15.3282 20.9185C15.3305 20.9162 15.3305 20.9162 15.3329 20.9139C15.3352 20.9115 15.3352 20.9115 15.3375 20.9092C15.3399 20.9068 15.3399 20.9068 15.3422 20.9045C15.3445 20.9022 15.3445 20.9022 15.3469 20.8998C15.3492 20.8975 15.3492 20.8975 15.3515 20.8952C15.3539 20.8928 15.3539 20.8928 15.3562 20.8905C15.3586 20.8882 15.3586 20.8882 15.3609 20.8858C15.3632 20.8835 15.3632 20.8835 15.3656 20.8811C15.3679 20.8788 15.3679 20.8788 15.3702 20.8765C15.3726 20.8741 15.3726 20.8741 15.3749 20.8718C15.3773 20.8695 15.3773 20.8695 15.3796 20.8671C15.3819 20.8648 15.3819 20.8648 15.3843 20.8624C15.3866 20.8601 15.3866 20.8601 15.3889 20.8578C15.3913 20.8554 15.3913 20.8554 15.3936 20.8531C15.3959 20.8508 15.3959 20.8508 15.3983 20.8484C15.4006 20.8461 15.4006 20.8461 15.403 20.8438C15.4053 20.8414 15.4053 20.8414 15.4076 20.8391C15.41 20.8367 15.41 20.8367 15.4123 20.8344C15.4146 20.8321 15.4146 20.8321 15.417 20.8297C15.4193 20.8274 15.4193 20.8274 15.4216 20.8251C15.424 20.8227 15.424 20.8227 15.4263 20.8204C15.4287 20.818 15.4287 20.818 15.431 20.8157C15.4333 20.8134 15.4333 20.8134 15.4357 20.811C15.438 20.8087 15.438 20.8087 15.4403 20.8064C15.4427 20.804 15.4427 20.804 15.445 20.8017C15.4474 20.7994 15.4474 20.7994 15.4497 20.797C15.452 20.7947 15.452 20.7947 15.4544 20.7923C15.4567 20.79 15.4567 20.79 15.459 20.7877C15.4614 20.7853 15.4614 20.7853 15.4637 20.783C15.466 20.7807 15.466 20.7807 15.4684 20.7783C15.4707 20.776 15.4707 20.776 15.4731 20.7736C15.4754 20.7713 15.4754 20.7713 15.4777 20.769C15.4801 20.7666 15.4801 20.7666 15.4824 20.7643C15.4847 20.762 15.4847 20.762 15.4871 20.7596C15.4894 20.7573 15.4894 20.7573 15.4918 20.755C15.4941 20.7526 15.4941 20.7526 15.4964 20.7503C15.4988 20.7479 15.4988 20.7479 15.5011 20.7456C15.5034 20.7433 15.5034 20.7433 15.5058 20.7409C15.5081 20.7386 15.5081 20.7386 15.5104 20.7363C15.5128 20.7339 15.5128 20.7339 15.5151 20.7316C15.5175 20.7292 15.5175 20.7292 15.5198 20.7269C15.5221 20.7246 15.5221 20.7246 15.5245 20.7222C15.5268 20.7199 15.5268 20.7199 15.5291 20.7176C15.5315 20.7152 15.5315 20.7152 15.5338 20.7129C15.5362 20.7106 15.5362 20.7106 15.5385 20.7082C15.5408 20.7059 15.5408 20.7059 15.5432 20.7035C15.5455 20.7012 15.5455 20.7012 15.5478 20.6989C15.5502 20.6965 15.5502 20.6965 15.5525 20.6942C15.5548 20.6919 15.5548 20.6919 15.5572 20.6895C15.5595 20.6872 15.5595 20.6872 15.5619 20.6849C15.5642 20.6825 15.5642 20.6825 15.5665 20.6802C15.5689 20.6778 15.5689 20.6778 15.5712 20.6755C15.5735 20.6732 15.5735 20.6732 15.5759 20.6708C15.5782 20.6685 15.5782 20.6685 15.5806 20.6662C15.5829 20.6638 15.5829 20.6638 15.5852 20.6615C15.5876 20.6591 15.5876 20.6591 15.5899 20.6568C15.5922 20.6545 15.5922 20.6545 15.5946 20.6521C15.5969 20.6498 15.5969 20.6498 15.5992 20.6475C15.6016 20.6451 15.6016 20.6451 15.6039 20.6428C15.6063 20.6405 15.6063 20.6405 15.6086 20.6381C15.6109 20.6358 15.6109 20.6358 15.6133 20.6334C15.6156 20.6311 15.6156 20.6311 15.6179 20.6288C15.6203 20.6264 15.6203 20.6264 15.6226 20.6241C15.625 20.6218 15.625 20.6218 15.6273 20.6194C15.6296 20.6171 15.6296 20.6171 15.632 20.6147C15.6343 20.6124 15.6343 20.6124 15.6366 20.6101C15.639 20.6077 15.639 20.6077 15.6413 20.6054C15.6436 20.6031 15.6436 20.6031 15.646 20.6007C15.6483 20.5984 15.6483 20.5984 15.6507 20.5961C15.653 20.5937 15.653 20.5937 15.6553 20.5914C15.6577 20.589 15.6577 20.589 15.66 20.5867C15.6623 20.5844 15.6623 20.5844 15.6647 20.582C15.667 20.5797 15.667 20.5797 15.6693 20.5774C15.6717 20.575 15.6717 20.575 15.674 20.5727C15.6764 20.5703 15.6764 20.5703 15.6787 20.568C15.681 20.5657 15.681 20.5657 15.6834 20.5633C15.6857 20.561 15.6857 20.561 15.688 20.5587C15.6904 20.5563 15.6904 20.5563 15.6927 20.554C15.6951 20.5517 15.6951 20.5517 15.6974 20.5493C15.6997 20.547 15.6997 20.547 15.7021 20.5446C15.7044 20.5423 15.7044 20.5423 15.7067 20.54C15.7091 20.5376 15.7091 20.5376 15.7114 20.5353C15.7137 20.533 15.7137 20.533 15.7161 20.5306C15.7184 20.5283 15.7184 20.5283 15.7208 20.5259C15.7231 20.5236 15.7231 20.5236 15.7254 20.5213C15.7278 20.5189 15.7278 20.5189 15.7301 20.5166C15.7324 20.5143 15.7324 20.5143 15.7348 20.5119C15.7371 20.5096 15.7371 20.5096 15.7395 20.5073C15.7418 20.5049 15.7418 20.5049 15.7441 20.5026C15.7465 20.5002 15.7465 20.5002 15.7488 20.4979C15.7511 20.4956 15.7511 20.4956 15.7535 20.4932C15.7558 20.4909 15.7558 20.4909 15.7581 20.4886C15.7605 20.4862 15.7605 20.4862 15.7628 20.4839C15.7652 20.4815 15.7652 20.4815 15.7675 20.4792C15.7698 20.4769 15.7698 20.4769 15.7722 20.4745C15.7745 20.4722 15.7745 20.4722 15.7768 20.4699C15.7792 20.4675 15.7792 20.4675 15.7815 20.4652C15.7839 20.4629 15.7839 20.4629 15.7862 20.4605C15.7885 20.4582 15.7885 20.4582 15.7909 20.4558C15.7932 20.4535 15.7932 20.4535 15.7955 20.4512C15.7979 20.4488 15.7979 20.4488 15.8002 20.4465C15.8025 20.4442 15.8025 20.4442 15.8049 20.4418C15.8072 20.4395 15.8072 20.4395 15.8096 20.4371C15.8119 20.4348 15.8119 20.4348 15.8142 20.4325C15.8166 20.4301 15.8166 20.4301 15.8189 20.4278C15.8212 20.4255 15.8212 20.4255 15.8236 20.4231C15.8259 20.4208 15.8259 20.4208 15.8283 20.4185C15.8306 20.4161 15.8306 20.4161 15.8329 20.4138C15.8353 20.4114 15.8353 20.4114 15.8376 20.4091C15.8399 20.4068 15.8399 20.4068 15.8423 20.4044C15.8446 20.4021 15.8446 20.4021 15.8469 20.3998C15.8493 20.3974 15.8493 20.3974 15.8516 20.3951C15.854 20.3928 15.854 20.3928 15.8563 20.3904C15.8586 20.3881 15.8586 20.3881 15.861 20.3857C15.8633 20.3834 15.8633 20.3834 15.8656 20.3811C15.868 20.3787 15.868 20.3787 15.8703 20.3764C15.8727 20.3741 15.8726 20.3741 15.875 20.3717C15.8773 20.3694 15.8773 20.3694 15.8797 20.367C15.882 20.3647 15.882 20.3647 15.8843 20.3624C15.8867 20.36 15.8867 20.36 15.889 20.3577C15.8913 20.3554 15.8913 20.3554 15.8937 20.353C15.896 20.3507 15.896 20.3507 15.8984 20.3484C15.9007 20.346 15.9007 20.346 15.903 20.3437C15.9054 20.3413 15.9054 20.3413 15.9077 20.339C15.91 20.3367 15.91 20.3367 15.9124 20.3343C15.9147 20.332 15.9147 20.332 15.917 20.3297C15.9194 20.3273 15.9194 20.3273 15.9217 20.325C15.9241 20.3226 15.9241 20.3226 15.9264 20.3203C15.9287 20.318 15.9287 20.318 15.9311 20.3156C15.9334 20.3133 15.9334 20.3133 15.9357 20.311C15.9381 20.3086 15.9381 20.3086 15.9404 20.3063C15.9428 20.304 15.9428 20.304 15.9451 20.3016C15.9474 20.2993 15.9474 20.2993 15.9498 20.2969C15.9521 20.2946 15.9521 20.2946 15.9544 20.2923C15.9568 20.2899 15.9568 20.2899 15.9591 20.2876C15.9614 20.2853 15.9614 20.2853 15.9638 20.2829C15.9661 20.2806 15.9661 20.2806 15.9685 20.2782C15.9708 20.2759 15.9708 20.2759 15.9731 20.2736C15.9755 20.2712 15.9755 20.2712 15.9778 20.2689C15.9801 20.2666 15.9801 20.2666 15.9825 20.2642C15.9848 20.2619 15.9848 20.2619 15.9872 20.2596C15.9895 20.2572 15.9895 20.2572 15.9918 20.2549C15.9942 20.2525 15.9942 20.2525 15.9965 20.2502C15.9988 20.2479 15.9988 20.2479 16.0012 20.2455C16.0035 20.2432 16.0035 20.2432 16.0058 20.2409C16.0082 20.2385 16.0082 20.2385 16.0105 20.2362C16.0129 20.2338 16.0129 20.2338 16.0152 20.2315C16.0175 20.2292 16.0175 20.2292 16.0199 20.2268C16.0222 20.2245 16.0222 20.2245 16.0245 20.2222C16.0269 20.2198 16.0269 20.2198 16.0292 20.2175C16.0316 20.2152 16.0316 20.2152 16.0339 20.2128C16.0362 20.2105 16.0362 20.2105 16.0386 20.2081C16.0409 20.2058 16.0409 20.2058 16.0432 20.2035C16.0456 20.2011 16.0456 20.2011 16.0479 20.1988C16.0502 20.1965 16.0502 20.1965 16.0526 20.1941C16.0549 20.1918 16.0549 20.1918 16.0573 20.1895C16.0596 20.1871 16.0596 20.1871 16.0619 20.1848C16.0643 20.1824 16.0643 20.1824 16.0666 20.1801C16.0689 20.1778 16.0689 20.1778 16.0713 20.1754C15.9731 20.2736 15.9755 20.2736 15.9755 20.2712C15.9778 20.2689 15.9778 20.2689 15.9801 20.2666C15.9825 20.2642 15.9825 20.2642 15.9848 20.2619C15.9872 20.2596 15.9872 20.2596 15.9895 20.2572C15.9918 20.2549 15.9918 20.2549 15.9942 20.2525C15.9965 20.2502 15.9965 20.2502 15.9988 20.2479C16.0012 20.2455 16.0012 20.2455 16.0035 20.2432C16.0058 20.2409 16.0058 20.2409 16.0082 20.2385C16.0105 20.2362 16.0105 20.2362 16.0129 20.2339C16.0152 20.2315 16.0152 20.2315 16.0175 20.2292C16.0199 20.2268 16.0199 20.2268 16.0222 20.2245C16.0245 20.2222 16.0245 20.2222 16.0269 20.2198C16.0292 20.2175 16.0292 20.2175 16.0316 20.2152C16.0339 20.2128 16.0339 20.2128 16.0362 20.2105C16.0386 20.2081 16.0386 20.2081 16.0409 20.2058C16.0432 20.2035 16.0432 20.2035 16.0456 20.2011C16.0479 20.1988 16.0479 20.1988 16.0502 20.1965C16.0526 20.1941 16.0526 20.1941 16.0549 20.1918C16.0573 20.1895 16.0573 20.1894 16.0596 20.1871C16.0619 20.1848 16.0619 20.1848 16.0643 20.1824C16.0666 20.1801 16.0666 20.1801 16.0689 20.1778C16.0713 20.1754 16.0713 20.1754 16.0736 20.1731C16.076 20.1708 16.076 20.1708 16.0783 20.1684C16.0806 20.1661 16.0806 20.1661 16.083 20.1637C16.0853 20.1614 16.0853 20.1614 16.0876 20.1591C16.09 20.1567 16.09 20.1567 16.0923 20.1544C16.0946 20.1521 16.0946 20.1521 16.097 20.1497C16.0993 20.1474 16.0993 20.1474 16.1017 20.1451C16.104 20.1427 16.104 20.1427 16.1063 20.1404C16.1087 20.138 16.1087 20.138 16.111 20.1357C16.1133 20.1334 16.1133 20.1334 16.1157 20.131C16.118 20.1287 16.118 20.1287 16.1203 20.1264C16.1227 20.124 16.1227 20.124 16.125 20.1217C16.1274 20.1193 16.1274 20.1193 16.1297 20.117C16.132 20.1147 16.132 20.1147 16.1344 20.1123C16.1367 20.11 16.1367 20.11 16.139 20.1077C16.1414 20.1053 16.1414 20.1053 16.1437 20.103C16.1461 20.1007 16.1461 20.1007 16.1484 20.0983C16.1507 20.096 16.1507 20.096 16.1531 20.0936C16.1554 20.0913 16.1554 20.0913 16.1577 20.089C16.1601 20.0866 16.1601 20.0866 16.1624 20.0843C16.1647 20.082 16.1647 20.082 16.1671 20.0796C16.1694 20.0773 16.1694 20.0773 16.1718 20.0749C16.1741 20.0726 16.1741 20.0726 16.1764 20.0703C16.1788 20.0679 16.1788 20.0679 16.1811 20.0656C16.1834 20.0633 16.1834 20.0633 16.1858 20.0609C16.1881 20.0586 16.1881 20.0586 16.1905 20.0563C16.1928 20.0539 16.1928 20.0539 16.1951 20.0516C16.1975 20.0492 16.1975 20.0492 16.1998 20.0469C16.2021 20.0446 16.2021 20.0446 16.2045 20.0422C16.2068 20.0399 16.2068 20.0399 16.2091 20.0376C16.2115 20.0352 16.2115 20.0352 16.2138 20.0329C16.2162 20.0305 16.2162 20.0305 16.2185 20.0282C16.2208 20.0259 16.2208 20.0259 16.2232 20.0235C16.2255 20.0212 16.2255 20.0212 16.2278 20.0189C16.2068 20.0399 16.2068 20.0399 16.2091 20.0376C16.2115 20.0352 16.2115 20.0352 16.2138 20.0329C16.2162 20.0305 16.2162 20.0305 16.2185 20.0282C16.2208 20.0259 16.2208 20.0259 16.2232 20.0235C16.2255 20.0212 16.2255 20.0212 16.2278 20.0189C16.2302 20.0165 16.2302 20.0165 16.2325 20.0142C16.2349 20.0119 16.2349 20.0119 16.2372 20.0095C16.2395 20.0072 16.2395 20.0072 16.2419 20.0048C16.2442 20.0025 16.2442 20.0025 16.2465 20.0002C16.2489 19.9978 16.2489 19.9978 16.2512 19.9955C16.2535 19.9932 16.2535 19.9932 16.2559 19.9908C16.2582 19.9885 16.2582 19.9885 16.2606 19.9861C16.2629 19.9838 16.2629 19.9838 16.2652 19.9815C16.2676 19.9791 16.2676 19.9791 16.2699 19.9768C16.2722 19.9745 16.2722 19.9745 16.2746 19.9721C16.2769 19.9698 16.2769 19.9698 16.2793 19.9675C16.2816 19.9651 16.2816 19.9651 16.2839 19.9628C16.2863 19.9604 16.2863 19.9604 16.2886 19.9581C16.2909 19.9558 16.2909 19.9558 16.2933 19.9534C16.2956 19.9511 16.2956 19.9511 16.2979 19.9488C16.3003 19.9464 16.3003 19.9464 16.3026 19.9441C16.305 19.9418 16.305 19.9418 16.3073 19.9394C16.3096 19.9371 16.3096 19.9371 16.312 19.9347C16.3143 19.9324 16.3143 19.9324 16.3166 19.9301C16.319 19.9277 16.319 19.9277 16.3213 19.9254C16.3237 19.9231 16.3236 19.9231 16.326 19.9207C16.3283 19.9184 16.3283 19.9184 16.3307 19.916C16.333 19.9137 16.333 19.9137 16.3353 19.9114C16.3377 19.909 16.3377 19.909 16.34 19.9067C16.3423 19.9044 16.3423 19.9044 16.3447 19.902C16.347 19.8997 16.347 19.8997 16.3494 19.8974C16.3517 19.895 16.3517 19.895 16.354 19.8927C16.3564 19.8903 16.3564 19.8903 16.3587 19.888C16.361 19.8857 16.361 19.8857 16.3634 19.8833C16.3657 19.881 16.3657 19.881 16.368 19.8787C16.3704 19.8763 16.3704 19.8763 16.3727 19.874C16.3751 19.8716 16.3751 19.8716 16.3774 19.8693C16.3797 19.867 16.3797 19.867 16.3821 19.8646C16.3844 19.8623 16.3844 19.8623 16.3867 19.86C16.3891 19.8576 16.3891 19.8576 16.3914 19.8553C16.3938 19.853 16.3938 19.853 16.3961 19.8506C16.3984 19.8483 16.3984 19.8483 16.4008 19.8459C16.4031 19.8436 16.4031 19.8436 16.4054 19.8413C16.4078 19.8389 16.4078 19.8389 16.4101 19.8366C16.4124 19.8343 16.4124 19.8343 16.4148 19.8319C16.4171 19.8296 16.4171 19.8296 16.4195 19.8272C16.4218 19.8249 16.4218 19.8249 16.4241 19.8226C16.4265 19.8202 16.4265 19.8202 16.4288 19.8179C16.4311 19.8156 16.4311 19.8156 16.4335 19.8132C16.4358 19.8109 16.4358 19.8109 16.4382 19.8086C16.4405 19.8062 16.4405 19.8062 16.4428 19.8039C16.4452 19.8015 16.4452 19.8015 16.4475 19.7992C16.4498 19.7969 16.4498 19.7969 16.4522 19.7945C16.4545 19.7922 16.4545 19.7922 16.4568 19.7899C16.4592 19.7875 16.4592 19.7875 16.4615 19.7852C16.4405 19.8062 16.4405 19.8062 16.4428 19.8039C16.4452 19.8015 16.4452 19.8015 16.4475 19.7992C16.4498 19.7969 16.4498 19.7969 16.4522 19.7945C16.4545 19.7922 16.4545 19.7922 16.4568 19.7899C16.4592 19.7875 16.4592 19.7875 16.4615 19.7852C16.4639 19.7829 16.4639 19.7828 16.4662 19.7805C16.4685 19.7782 16.4685 19.7782 16.4709 19.7758C16.4732 19.7735 16.4732 19.7735 16.4755 19.7712C16.4779 19.7688 16.4779 19.7688 16.4802 19.7665C16.4826 19.7642 16.4826 19.7642 16.4849 19.7618C16.4872 19.7595 16.4872 19.7595 16.4896 19.7571C16.4919 19.7548 16.4919 19.7548 16.4942 19.7525C16.4966 19.7501 16.4966 19.7501 16.4989 19.7478C16.5012 19.7455 16.5012 19.7455 16.5036 19.7431C16.5059 19.7408 16.5059 19.7408 16.5083 19.7385C16.5106 19.7361 16.5106 19.7361 16.5129 19.7338C16.5153 19.7314 16.5153 19.7314 16.5176 19.7291C16.5199 19.7268 16.5199 19.7268 16.5223 19.7244C16.5246 19.7221 16.5246 19.7221 16.527 19.7198C16.5293 19.7174 16.5293 19.7174 16.5316 19.7151C16.534 19.7127 16.534 19.7127 16.5363 19.7104C16.5386 19.7081 16.5386 19.7081 16.541 19.7057C16.5433 19.7034 16.5433 19.7034 16.5456 19.7011C16.548 19.6987 16.548 19.6987 16.5503 19.6964C16.5527 19.6941 16.5527 19.6941 16.555 19.6917C16.5573 19.6894 16.5573 19.6894 16.5597 19.687C16.562 19.6847 16.562 19.6847 16.5643 19.6824C16.5667 19.68 16.5667 19.68 16.569 19.6777C16.5713 19.6754 16.5714 19.6754 16.5737 19.673C16.576 19.6707 16.576 19.6707 16.5784 19.6683C16.5807 19.666 16.5807 19.666 16.583 19.6637C16.5854 19.6613 16.5854 19.6613 16.5877 19.659C16.59 19.6567 16.59 19.6567 16.5924 19.6543C16.5947 19.652 16.5947 19.652 16.5971 19.6497C16.5994 19.6473 16.5994 19.6473 16.6017 19.645C16.6041 19.6426 16.6041 19.6426 16.6064 19.6403C16.6087 19.638 16.6087 19.638 16.6111 19.6356C16.6134 19.6333 16.6134 19.6333 16.6157 19.631C16.6181 19.6286 16.6181 19.6286 16.6204 19.6263C16.6228 19.6239 16.6228 19.6239 16.6251 19.6216C16.6274 19.6193 16.6274 19.6193 16.6298 19.6169C16.6321 19.6146 16.6321 19.6146 16.6344 19.6123C16.6368 19.6099 16.6368 19.6099 16.6391 19.6076C16.6415 19.6053 16.6415 19.6053 16.6438 19.6029C16.6461 19.6006 16.6461 19.6006 16.6485 19.5982C16.6508 19.5959 16.6508 19.5959 16.6531 19.5936C16.6555 19.5912 16.6555 19.5912 16.6578 19.5889C16.6601 19.5866 16.6601 19.5866 16.6625 19.5842C16.6648 19.5819 16.6648 19.5819 16.6672 19.5795C16.6695 19.5772 16.6695 19.5772 16.6718 19.5749C16.6742 19.5725 16.6742 19.5725 16.6765 19.5702C16.6788 19.5679 16.6788 19.5679 16.6812 19.5655C16.6835 19.5632 16.6835 19.5632 16.6859 19.5609C16.6882 19.5585 16.6882 19.5585 16.6905 19.5562C16.6929 19.5538 16.6929 19.5538 16.6952 19.5515C16.6975 19.5492 16.6975 19.5492 16.6999 19.5468C16.8751 19.3272 16.992 19.0024 16.992 18.6215Z" stroke="black" stroke-miterlimit="10" stroke-linecap="round" stroke-linejoin="round"/>
    <path d="M11.1349 9.76132C12.5086 8.54831 12.3612 6.13687 10.8056 4.37521C9.25007 2.61355 6.87542 2.16877 5.5017 3.38178C4.12797 4.59479 4.27537 7.00623 5.83092 8.76789C7.38648 10.5296 9.76113 10.9743 11.1349 9.76132Z" fill="#fff0" stroke="black" stroke-miterlimit="10" stroke-linecap="round" stroke-linejoin="round"/>
    <path d="M8.31781 11.6137C4.46912 10.6533 1.34717 12.9971 1.34717 16.8481C1.34717 17.8576 2.16504 18.8811 3.17687 19.1335L13.4611 21.6969C14.4706 21.9493 15.2908 21.3347 15.2908 20.3229C15.2908 16.4742 12.1688 12.5741 8.31781 11.6137Z" fill="#fff0" stroke="black" stroke-miterlimit="10" stroke-linecap="round" stroke-linejoin="round"/>
    </svg>
    