
<svg width="34" height="30" viewBox="0 0 34 30" fill="none" xmlns="http://www.w3.org/2000/svg">
    <path d="M26.2407 5.38376L9.90116 1.20224C7.91398 0.69405 6.14066 1.17017 4.96806 2.33212C4.96566 2.33458 4.96325 2.33705 4.96325 2.33705C4.96085 2.33952 4.95845 2.34198 4.95604 2.34445C4.95364 2.34692 4.95124 2.34938 4.95124 2.34938C4.94884 2.35185 4.94643 2.35432 4.94403 2.35679C4.94163 2.35925 4.93922 2.36172 4.93922 2.36172C4.93682 2.36419 4.93442 2.36665 4.93442 2.36665C4.93202 2.36912 4.92961 2.37159 4.92721 2.37405C4.92481 2.37652 4.9224 2.37899 4.9224 2.37899C4.92 2.38146 4.9176 2.38392 4.9152 2.38639C4.91279 2.38886 4.91039 2.39132 4.91039 2.39132C4.90799 2.39379 4.90558 2.39626 4.90318 2.39872C4.90078 2.40119 4.89838 2.40366 4.89838 2.40366C4.89597 2.40613 4.89357 2.40859 4.89117 2.41106C4.88876 2.41353 4.88636 2.41599 4.88636 2.41599C4.88396 2.41846 4.88156 2.42093 4.87915 2.42339C4.87675 2.42586 4.87435 2.42833 4.87435 2.42833C4.87194 2.43079 4.86954 2.43326 4.86954 2.43326C4.86714 2.43573 4.86474 2.4382 4.86233 2.44066C4.85993 2.44313 4.85753 2.4456 4.85753 2.4456C4.85512 2.44806 4.85272 2.45053 4.85032 2.453C4.84791 2.45546 4.84551 2.45793 4.84551 2.45793C4.84311 2.4604 4.84071 2.46287 4.8383 2.46533C4.8359 2.4678 4.8335 2.47027 4.8335 2.47027L4.82869 2.4752C4.82629 2.47767 4.82389 2.48013 4.82148 2.4826C4.81427 2.49 4.81187 2.49 4.81187 2.49247C4.80947 2.49494 4.80707 2.4974 4.80466 2.49987C4.80226 2.50234 4.79986 2.5048 4.79986 2.5048C4.79745 2.50727 4.79505 2.50974 4.79265 2.5122C4.79025 2.51467 4.78784 2.51714 4.78784 2.51714C4.78544 2.51961 4.78304 2.52207 4.78063 2.52454C4.77823 2.52701 4.77583 2.52947 4.77583 2.52947C4.77343 2.53194 4.77102 2.53441 4.76862 2.53687C4.76622 2.53934 4.76381 2.54181 4.76381 2.54181C4.76141 2.54428 4.75901 2.54674 4.75901 2.54674C4.75661 2.54921 4.7542 2.55168 4.7518 2.55414C4.7494 2.55661 4.74699 2.55908 4.74699 2.55908C4.74459 2.56154 4.74219 2.56401 4.73979 2.56648C4.73738 2.56894 4.73498 2.57141 4.73498 2.57141C4.73258 2.57388 4.73017 2.57635 4.72777 2.57881C4.72537 2.58128 4.72297 2.58375 4.72297 2.58375C4.72056 2.58621 4.71816 2.58868 4.71816 2.58868C4.71576 2.59115 4.71335 2.59361 4.71095 2.59608C4.70615 2.60102 4.70374 2.60348 4.70134 2.60595C4.69894 2.60842 4.69653 2.61088 4.69413 2.61335C4.69173 2.61582 4.68933 2.61828 4.68933 2.61828C4.68692 2.62075 4.68452 2.62322 4.68212 2.62569C4.67971 2.62815 4.67731 2.63062 4.67731 2.63062C4.67491 2.63309 4.67251 2.63555 4.67251 2.63555C4.6701 2.63802 4.6677 2.64049 4.6653 2.64295C4.66289 2.64542 4.66049 2.64789 4.66049 2.64789C4.65809 2.65035 4.65568 2.65282 4.65328 2.65529C4.65088 2.65776 4.64848 2.66022 4.64848 2.66022C4.64607 2.66269 4.64367 2.66516 4.64127 2.66762C4.63886 2.67009 4.63646 2.67256 4.63646 2.67256C4.63406 2.67502 4.63166 2.67749 4.62925 2.67996C4.62685 2.68243 4.62445 2.68489 4.62445 2.68489C4.62204 2.68736 4.61964 2.68983 4.61724 2.69229C4.61484 2.69476 4.61243 2.69723 4.61243 2.69723C4.61003 2.69969 4.60763 2.70216 4.60763 2.70216C4.60522 2.70463 4.60282 2.7071 4.60042 2.70956C4.59802 2.71203 4.59561 2.7145 4.59561 2.7145C4.59321 2.71696 4.59081 2.71943 4.5884 2.7219C4.586 2.72436 4.5836 2.72683 4.5836 2.72683C4.57879 2.73176 4.57639 2.73423 4.57399 2.73423C4.57399 2.7367 4.57158 2.73917 4.56918 2.74163C4.56678 2.7441 4.56438 2.74657 4.56438 2.74657C4.56197 2.74903 4.55957 2.7515 4.55717 2.75397C4.55476 2.75643 4.55236 2.7589 4.55236 2.7589C4.54996 2.76137 4.54756 2.76384 4.54515 2.7663C4.54275 2.76877 4.54035 2.77124 4.54035 2.77124C4.53794 2.7737 4.53554 2.77617 4.53314 2.77864C4.53074 2.7811 4.52833 2.78357 4.52833 2.78357C4.52593 2.78604 4.52353 2.78851 4.52112 2.79097C4.51872 2.79344 4.51632 2.79591 4.51632 2.79591C4.51392 2.79837 4.51151 2.80084 4.50911 2.80331C4.50671 2.80577 4.5043 2.80824 4.5043 2.80824C4.5019 2.81071 4.4995 2.81317 4.4995 2.81317C4.4971 2.81564 4.49469 2.81811 4.49229 2.82058C4.48989 2.82304 4.48748 2.82551 4.48748 2.82551C4.48508 2.82798 4.48268 2.83044 4.48028 2.83291C4.47787 2.83538 4.47547 2.83784 4.47547 2.83784C4.47307 2.84031 4.47066 2.84278 4.46826 2.84525C4.46346 2.85018 4.46346 2.85018 4.46105 2.85265C4.45865 2.85511 4.45625 2.85758 4.45625 2.85758C4.45384 2.86005 4.45144 2.86251 4.44904 2.86498C4.44664 2.86745 4.44423 2.86992 4.44423 2.86992C4.44183 2.87238 4.43943 2.87485 4.43702 2.87732C4.43462 2.87978 4.43222 2.88225 4.43222 2.88225C4.42981 2.88472 4.42741 2.88718 4.42501 2.88965C4.42261 2.89212 4.4202 2.89458 4.4202 2.89458C4.4178 2.89705 4.4154 2.89952 4.4154 2.89952C4.41299 2.90199 4.41059 2.90445 4.40819 2.90692C4.40579 2.90939 4.40338 2.91185 4.40338 2.91185C4.40098 2.91432 4.39858 2.91679 4.39617 2.91925C4.39377 2.92172 4.39137 2.92419 4.39137 2.92419C4.38897 2.92666 4.38656 2.92912 4.38416 2.93159C4.38176 2.93406 4.37935 2.93652 4.37935 2.93652C4.37695 2.93899 4.37455 2.94146 4.37215 2.94392C4.36974 2.94639 4.36734 2.94886 4.36734 2.94886C4.36494 2.95132 4.36253 2.95379 4.36013 2.95626C4.35773 2.95873 4.35533 2.96119 4.35533 2.96119C4.35292 2.96366 4.35052 2.96613 4.35052 2.96613C4.34812 2.96859 4.34571 2.97106 4.34331 2.97353C4.33851 2.97846 4.3361 2.98093 4.3337 2.9834C4.3313 2.98586 4.32889 2.98833 4.32649 2.9908C4.32409 2.99326 4.32169 2.99573 4.32169 2.99573C4.31928 2.9982 4.31688 3.00066 4.31448 3.00313C4.31207 3.0056 4.30967 3.00807 4.30967 3.00807C4.30727 3.01053 4.30487 3.013 4.30487 3.013C4.30246 3.01547 4.30006 3.01793 4.29766 3.0204C4.29525 3.02287 4.29285 3.02533 4.29285 3.02533C4.29045 3.0278 4.28805 3.03027 4.28564 3.03273C4.28324 3.0352 4.28084 3.03767 4.28084 3.03767C4.27843 3.04014 4.27603 3.0426 4.27363 3.04507C4.27123 3.04754 4.26882 3.05 4.26882 3.05C4.26642 3.05247 4.26402 3.05494 4.26402 3.05494C4.26161 3.0574 4.25921 3.05987 4.25681 3.06234C4.25441 3.06481 4.252 3.06727 4.2496 3.06974C4.2472 3.07221 4.24479 3.07467 4.24479 3.07467C4.24239 3.07714 4.23999 3.07961 4.23999 3.07961C4.23759 3.08207 4.23518 3.08454 4.23278 3.08701C4.23038 3.08948 4.22797 3.09194 4.22797 3.09194C4.22317 3.09688 4.22077 3.09934 4.21836 3.10181C4.21596 3.10428 4.21356 3.10674 4.21356 3.10674C4.21115 3.10921 4.20875 3.11168 4.20635 3.11414C4.20394 3.11661 4.20154 3.11908 4.20154 3.11908C4.19914 3.12155 4.19674 3.12401 4.19674 3.12401C4.19433 3.12648 4.19193 3.12895 4.18953 3.13141C4.18712 3.13388 4.18472 3.13635 4.18472 3.13635C4.18232 3.13881 4.17992 3.14128 4.17751 3.14375C4.17511 3.14622 4.17271 3.14868 4.17271 3.14868C4.1703 3.15115 4.1679 3.15362 4.1655 3.15608C4.1631 3.15855 4.16069 3.16102 4.16069 3.16102C4.15829 3.16348 4.15589 3.16595 4.15589 3.16595C4.15348 3.16842 4.15108 3.17089 4.14868 3.17335C4.14628 3.17582 4.14387 3.17829 4.14387 3.17829C4.14147 3.18075 4.13907 3.18322 4.13666 3.18569C4.13426 3.18815 4.13186 3.19062 4.13186 3.19062C4.12946 3.19309 4.12705 3.19555 4.12465 3.19802C4.12225 3.20049 4.11984 3.20296 4.11984 3.20296C4.11744 3.20542 4.11504 3.20789 4.11264 3.21036C4.11023 3.21282 4.10783 3.21529 4.10783 3.21529C4.10543 3.21776 4.10302 3.22022 4.10062 3.22269C4.09582 3.22763 4.09341 3.23009 4.09101 3.23256C4.08861 3.23503 4.0862 3.23749 4.0862 3.23749C4.0838 3.23996 4.0814 3.24243 4.079 3.24489C4.07659 3.24736 4.07419 3.24983 4.07419 3.24983C4.07179 3.2523 4.06938 3.25476 4.06698 3.25723C4.06458 3.2597 4.06218 3.26216 4.06218 3.26216C4.05977 3.26463 4.05737 3.2671 4.05497 3.26956C4.05256 3.27203 4.05016 3.2745 4.05016 3.2745C4.04776 3.27696 4.04536 3.27943 4.04536 3.27943C4.04295 3.2819 4.04055 3.28437 4.03815 3.28683C4.03574 3.2893 4.03334 3.29177 4.03334 3.29177C4.03094 3.29423 4.02854 3.2967 4.02613 3.29917C4.02373 3.30163 4.02133 3.3041 4.02133 3.3041C4.01892 3.30657 4.01652 3.30904 4.01412 3.3115C4.01171 3.31397 4.00931 3.31644 4.00931 3.31644C4.00691 3.3189 4.00451 3.32137 4.00451 3.32137C4.0021 3.32384 3.9997 3.3263 3.9973 3.32877C3.99489 3.33124 3.99249 3.33371 3.99249 3.33371C3.99009 3.33617 3.98769 3.33864 3.98528 3.34111C3.98288 3.34357 3.98048 3.34604 3.98048 3.34604C3.97807 3.34851 3.97567 3.35097 3.97327 3.35344C3.97087 3.35591 3.96846 3.35837 3.96846 3.35837C3.96606 3.36084 3.96366 3.36331 3.96125 3.36578C3.95885 3.36824 3.95645 3.37071 3.95645 3.37071C3.95405 3.37318 3.95164 3.37564 3.94924 3.37811C3.94684 3.38058 3.94443 3.38304 3.94443 3.38304C3.94203 3.38551 3.93963 3.38798 3.93963 3.38798C3.93723 3.39045 3.93482 3.39291 3.93242 3.39538C3.93002 3.39785 3.92761 3.40031 3.92761 3.40031C3.92521 3.40278 3.92281 3.40525 3.92041 3.40771C3.918 3.41018 3.9156 3.41265 3.9156 3.41265C3.9132 3.41511 3.91079 3.41758 3.90839 3.42005C3.90599 3.42252 3.90359 3.42498 3.90359 3.42498C3.90118 3.42745 3.89878 3.42992 3.89878 3.42992C3.89638 3.43238 3.89397 3.43485 3.89157 3.43732C3.88917 3.43978 3.88677 3.44225 3.88677 3.44225C3.88436 3.44472 3.88196 3.44719 3.87956 3.44965C3.87715 3.45212 3.87475 3.45459 3.87475 3.45459C3.87235 3.45705 3.86995 3.45952 3.86754 3.46199C3.86514 3.46445 3.86274 3.46692 3.86274 3.46692C3.86033 3.46939 3.85793 3.47186 3.85553 3.47432C3.85313 3.47679 3.85072 3.47926 3.85072 3.47926C3.84832 3.48172 3.84592 3.48419 3.84351 3.48666C3.84111 3.48912 3.83871 3.49159 3.83871 3.49159C3.83631 3.49406 3.8339 3.49653 3.8339 3.49653C3.8315 3.49899 3.8291 3.50146 3.82669 3.50393C3.82429 3.50639 3.82189 3.50886 3.82189 3.50886C3.81949 3.51133 3.81708 3.51379 3.81468 3.51626C3.81228 3.51873 3.80987 3.52119 3.80987 3.52119C3.80747 3.52366 3.80507 3.52613 3.80266 3.5286C3.80026 3.53106 3.79786 3.53353 3.79786 3.53353C3.79546 3.536 3.79305 3.53846 3.79305 3.53846C3.79065 3.54093 3.78825 3.5434 3.78585 3.54586C3.78344 3.54833 3.78104 3.5508 3.78104 3.5508C3.77864 3.55327 3.77623 3.55573 3.77383 3.5582C3.77143 3.56067 3.76902 3.56313 3.76902 3.56313C3.76662 3.5656 3.76422 3.56807 3.76182 3.57053C3.75941 3.573 3.75701 3.57547 3.75701 3.57547C3.75461 3.57793 3.7522 3.5804 3.7522 3.5804C3.7498 3.58287 3.7474 3.58534 3.745 3.5878C3.74259 3.59027 3.74019 3.59274 3.74019 3.59274C3.73779 3.5952 3.73538 3.59767 3.73298 3.60014C3.73058 3.6026 3.72818 3.60507 3.72818 3.60507C3.72577 3.60754 3.72337 3.61001 3.72097 3.61247C3.71856 3.61494 3.71616 3.61741 3.71616 3.61741C3.71376 3.61987 3.71136 3.62234 3.70895 3.62481C3.70655 3.62727 3.70415 3.62974 3.70415 3.62974C3.70174 3.63221 3.69934 3.63468 3.69694 3.63714C3.69454 3.63961 3.69213 3.64208 3.69213 3.64208C3.68973 3.64454 3.68733 3.64701 3.68733 3.64701C3.68492 3.64948 3.68252 3.65194 3.68012 3.65441C3.67772 3.65688 3.67531 3.65934 3.67531 3.65934C3.67291 3.66181 3.67051 3.66428 3.6681 3.66675C3.6657 3.66921 3.6633 3.67168 3.6633 3.67168C3.6609 3.67415 3.65849 3.67661 3.65609 3.67908C3.65369 3.68155 3.65128 3.68401 3.65128 3.68401C3.64888 3.68648 3.64648 3.68895 3.64648 3.68895C3.64408 3.69142 3.64167 3.69388 3.63927 3.69635C3.63687 3.69882 3.63446 3.70128 3.63446 3.70128C3.63206 3.70375 3.62966 3.70622 3.62726 3.70868C3.62485 3.71115 3.62245 3.71362 3.62245 3.71362C3.62005 3.71609 3.61764 3.71855 3.61524 3.72102C3.61284 3.72349 3.61044 3.72595 3.61044 3.72595C3.60803 3.72842 3.60563 3.73089 3.60323 3.73335C3.60082 3.73582 3.59842 3.73829 3.59842 3.73829C3.59602 3.74075 3.59362 3.74322 3.59121 3.74569C3.58881 3.74816 3.58641 3.75062 3.58641 3.75062C3.584 3.75309 3.5816 3.75556 3.5816 3.75556C3.5792 3.75802 3.57679 3.76049 3.57439 3.76296C3.57199 3.76542 3.56959 3.76789 3.56959 3.76789C3.56718 3.77036 3.56478 3.77283 3.56238 3.77529C3.55997 3.77776 3.55757 3.78023 3.55757 3.78023C3.55517 3.78269 3.55277 3.78516 3.55036 3.78763C3.54796 3.79009 3.54556 3.79256 3.54556 3.79256C3.54315 3.79503 3.54075 3.7975 3.54075 3.7975C3.53835 3.79996 3.53595 3.80243 3.53354 3.8049C3.53114 3.80736 3.52874 3.80983 3.52874 3.80983C3.52633 3.8123 3.52393 3.81476 3.52153 3.81723C3.51913 3.8197 3.51672 3.82216 3.51672 3.82216C3.51432 3.82463 3.51192 3.8271 3.50951 3.82957C3.50711 3.83203 3.50471 3.8345 3.50471 3.8345C3.50231 3.83697 3.4999 3.83943 3.4999 3.83943C3.4975 3.8419 3.4951 3.84437 3.49269 3.84683C3.49029 3.8493 3.48789 3.85177 3.48789 3.85177C3.48549 3.85424 3.48308 3.8567 3.48068 3.85917C3.47828 3.86164 3.47587 3.8641 3.47587 3.8641C3.47347 3.86657 3.47107 3.86904 3.46867 3.8715C3.46626 3.87397 3.46386 3.87644 3.46386 3.87644C3.46146 3.8789 3.45905 3.88137 3.45665 3.88384C3.45425 3.88631 3.45185 3.88877 3.45185 3.88877C3.44944 3.89124 3.44704 3.89371 3.44464 3.89617C3.44223 3.89864 3.43983 3.90111 3.43983 3.90111C3.43743 3.90357 3.43503 3.90604 3.43503 3.90604C3.43262 3.90851 3.43022 3.91098 3.42782 3.91344C3.42541 3.91591 3.42301 3.91838 3.42301 3.91838C3.42061 3.92084 3.41821 3.92331 3.4158 3.92578C3.4134 3.92824 3.411 3.93071 3.411 3.93071C3.40859 3.93318 3.40619 3.93565 3.40379 3.93811C3.40139 3.94058 3.39898 3.94305 3.39898 3.94305C3.39658 3.94551 3.39418 3.94798 3.39418 3.94798C3.39177 3.95045 3.38937 3.95291 3.38697 3.95538C3.38457 3.95785 3.38216 3.96031 3.38216 3.96031C3.37976 3.96278 3.37736 3.96525 3.37495 3.96772C3.37255 3.97018 3.37015 3.97265 3.37015 3.97265C3.36774 3.97512 3.36534 3.97758 3.36294 3.98005C3.36054 3.98252 3.35813 3.98498 3.35813 3.98498C3.35573 3.98745 3.35333 3.98992 3.35092 3.99239C3.34852 3.99485 3.34612 3.99732 3.34612 3.99732C3.34372 3.99979 3.34131 4.00225 3.33891 4.00472C3.33651 4.00719 3.3341 4.00965 3.3341 4.00965C3.3317 4.01212 3.3293 4.01459 3.3293 4.01459C3.3269 4.01706 3.32449 4.01952 3.32209 4.02199C3.31969 4.02446 3.31728 4.02692 3.31728 4.02692C3.31488 4.02939 3.31248 4.03186 3.31008 4.03432C3.30767 4.03679 3.30527 4.03926 3.30527 4.03926C3.30287 4.04172 3.30046 4.04419 3.29806 4.04666C3.29566 4.04913 3.29326 4.05159 3.29326 4.05159C3.29085 4.05406 3.28845 4.05653 3.28845 4.05653C3.26202 4.08366 3.25962 4.08613 3.25721 4.0886C3.25481 4.09106 3.25241 4.09353 3.25241 4.09353C3.25 4.096 3.2476 4.09846 3.2452 4.10093C3.2428 4.1034 3.24039 4.10587 3.24039 4.10587C3.23799 4.10833 3.23559 4.1108 3.23318 4.11327C3.23078 4.11573 3.22838 4.1182 3.22838 4.1182C3.22598 4.12067 3.22357 4.12313 3.22357 4.12313C3.22117 4.1256 3.21877 4.12807 3.21636 4.13054C3.21396 4.133 3.21156 4.13547 3.21156 4.13547C3.20916 4.13794 3.20675 4.1404 3.20435 4.14287C3.20195 4.14534 3.19954 4.1478 3.19954 4.1478C3.19714 4.15027 3.19474 4.15274 3.19234 4.15521C3.18993 4.15767 3.18753 4.16014 3.18753 4.16014C3.18513 4.16261 3.18272 4.16507 3.18032 4.16754C3.17792 4.17001 3.17552 4.17247 3.17552 4.17247C3.17311 4.17494 3.17071 4.17741 3.16831 4.17988C3.1659 4.18234 3.1635 4.18481 3.1635 4.18481C3.1611 4.18728 3.15869 4.18974 3.15869 4.18974C3.15629 4.19221 3.15389 4.19468 3.15149 4.19714C3.14908 4.19961 3.14668 4.20208 3.14668 4.20208C3.14428 4.20454 3.14187 4.20701 3.13947 4.20948C3.13467 4.21441 3.13467 4.21441 3.13226 4.21688C3.12986 4.21935 3.12746 4.22181 3.12505 4.22428C3.12265 4.22675 3.12025 4.22921 3.12025 4.22921C3.11785 4.23168 3.11544 4.23415 3.11544 4.23415C3.11304 4.23662 3.11064 4.23908 3.10823 4.24155C3.10583 4.24402 3.10343 4.24648 3.10343 4.24648C3.10103 4.24895 3.09862 4.25142 3.09622 4.25388C3.09382 4.25635 3.09141 4.25882 3.09141 4.25882C3.08901 4.26129 3.08661 4.26375 3.08421 4.26622C3.0818 4.26869 3.0794 4.27115 3.0794 4.27115C3.077 4.27362 3.07459 4.27609 3.07219 4.27855C3.06979 4.28102 3.06739 4.28349 3.06739 4.28349C3.06498 4.28595 3.06258 4.28842 3.06018 4.29089C3.05777 4.29336 3.05537 4.29582 3.05537 4.29582C3.05297 4.29829 3.05057 4.30076 3.05057 4.30076C3.04816 4.30322 3.04576 4.30569 3.04336 4.30816C3.04095 4.31062 3.03855 4.31309 3.03855 4.31309C3.03615 4.31556 3.03375 4.31803 3.03134 4.32049C3.02654 4.32543 3.02413 4.32789 3.02173 4.33036C3.02173 4.33036 3.01933 4.33283 3.01693 4.33529C3.01452 4.33776 3.01212 4.34023 3.01212 4.34023C3.00972 4.34269 3.00731 4.34516 3.00731 4.34516C3.00491 4.34763 3.00251 4.3501 3.00011 4.35256C2.9977 4.35503 2.9953 4.3575 2.9953 4.3575C2.9929 4.35996 2.99049 4.36243 2.98809 4.3649C2.98569 4.36736 2.98329 4.36983 2.98329 4.36983C2.98088 4.3723 2.97848 4.37477 2.97608 4.37723C2.97367 4.3797 2.97127 4.38217 2.97127 4.38217C2.96887 4.38463 2.96647 4.3871 2.96647 4.3871C2.96406 4.38957 2.96166 4.39203 2.95926 4.3945C2.95685 4.39697 2.95445 4.39944 2.95445 4.39944C2.95205 4.4019 2.94964 4.40437 2.94724 4.40684C2.94484 4.4093 2.94244 4.41177 2.94244 4.41177C2.94003 4.41424 2.93763 4.4167 2.93523 4.41917C2.93282 4.42164 2.93042 4.4241 2.93042 4.4241C2.92802 4.42657 2.92562 4.42904 2.92321 4.43151C2.92081 4.43397 2.91841 4.43644 2.91841 4.43644C2.916 4.43891 2.9136 4.44137 2.9112 4.44384C2.9088 4.44631 2.90639 4.44877 2.90639 4.44877C2.90399 4.45124 2.90159 4.45371 2.90159 4.45371C2.89438 4.46111 2.89198 4.46358 2.88957 4.46604C2.88717 4.46851 2.88477 4.47098 2.88477 4.47098C2.88236 4.47344 2.87996 4.47591 2.87756 4.47838C2.87516 4.48085 2.87275 4.48331 2.87275 4.48331C2.87035 4.48578 2.86795 4.48825 2.86554 4.49071C2.86314 4.49318 2.86074 4.49565 2.86074 4.49565C2.85834 4.49811 2.85593 4.50058 2.85593 4.50058C2.85353 4.50305 2.85113 4.50551 2.84872 4.50798C2.84632 4.51045 2.84392 4.51292 2.84392 4.51292C2.84152 4.51538 2.83911 4.51785 2.83671 4.52032C2.83431 4.52278 2.8319 4.52525 2.8319 4.52525C2.8295 4.52772 2.8271 4.53018 2.8247 4.53265C2.82229 4.53512 2.81989 4.53759 2.81989 4.53759C2.81749 4.54005 2.81508 4.54252 2.81268 4.54499C2.81028 4.54745 2.80788 4.54992 2.80788 4.54992C2.80547 4.55239 2.80307 4.55485 2.80067 4.55732C2.79826 4.55979 2.79586 4.56225 2.79586 4.56225C2.79346 4.56472 2.79106 4.56719 2.79106 4.56719C2.78385 4.57212 2.78385 4.57459 2.78144 4.57706C2.77904 4.57952 2.77664 4.58199 2.77664 4.58199C2.77424 4.58446 2.77183 4.58692 2.76943 4.58939C2.76703 4.59186 2.76462 4.59433 2.76462 4.59433C2.76222 4.59679 2.75982 4.59926 2.75742 4.60173C2.75501 4.60419 2.75261 4.60666 2.75261 4.60666C2.75021 4.60913 2.7478 4.61159 2.7478 4.61159C2.7454 4.61406 2.743 4.61653 2.7406 4.619C2.73819 4.62146 2.73579 4.62393 2.73579 4.62393C2.73339 4.6264 2.73098 4.62886 2.72858 4.63133C2.72618 4.6338 2.72378 4.63626 2.72378 4.63626C2.72137 4.63873 2.71897 4.6412 2.71657 4.64367C2.71416 4.64613 2.71176 4.6486 2.71176 4.6486C2.70936 4.65107 2.70695 4.65353 2.70695 4.65353C2.70455 4.656 2.70215 4.65847 2.69975 4.66093C2.69734 4.6634 2.69494 4.66587 2.69494 4.66587C2.69254 4.66833 2.69013 4.6708 2.68773 4.67327C2.68533 4.67574 2.68293 4.6782 2.68293 4.6782C2.68052 4.68067 2.67812 4.68314 2.67572 4.6856C2.67331 4.68807 2.67091 4.69054 2.67091 4.69054C2.66851 4.693 2.66611 4.69547 2.6637 4.69794C2.6613 4.70041 2.6589 4.70287 2.6589 4.70287C2.65169 4.71027 2.64929 4.71274 2.64688 4.71521C2.64448 4.71767 2.64208 4.72014 2.64208 4.72014C2.63967 4.72261 2.63727 4.72508 2.63727 4.72508C2.63487 4.72754 2.63247 4.73001 2.63006 4.73248C2.62766 4.73494 2.62526 4.73741 2.62526 4.73741C2.62285 4.73988 2.62045 4.74234 2.61805 4.74481C2.61565 4.74728 2.61324 4.74974 2.61324 4.74974C2.61084 4.75221 2.60844 4.75468 2.60603 4.75715C2.60363 4.75961 2.60123 4.76208 2.60123 4.76208C2.59883 4.76455 2.59642 4.76701 2.59642 4.76701C2.59402 4.76948 2.59162 4.77195 2.58921 4.77441C2.58681 4.77688 2.58441 4.77935 2.58441 4.77935C2.58201 4.78182 2.5796 4.78428 2.5772 4.78675C2.5748 4.78922 2.57239 4.79168 2.57239 4.79168C2.56999 4.79415 2.56759 4.79662 2.56519 4.79908C2.56278 4.80155 2.56038 4.80402 2.56038 4.80402C2.55798 4.80648 2.55557 4.80895 2.55317 4.81142C1.64008 5.71186 1.09222 7.02676 1.09222 8.61302V16.4185C1.09222 20.0425 3.95405 23.7109 7.48146 24.6138L23.821 28.7953C25.8082 29.3035 27.5839 28.8273 28.7541 27.6654C28.7565 27.6629 28.7589 27.6605 28.7613 27.658C28.7637 27.6555 28.7661 27.6531 28.7661 27.6531C28.7685 27.6506 28.7709 27.6481 28.7733 27.6457C28.7757 27.6432 28.7781 27.6407 28.7781 27.6407C28.7805 27.6383 28.7829 27.6358 28.7853 27.6333C28.7877 27.6309 28.7901 27.6284 28.7901 27.6284C28.7925 27.6259 28.7949 27.6235 28.7949 27.6235C28.7974 27.621 28.7998 27.6185 28.8022 27.6161C28.8046 27.6136 28.807 27.6111 28.807 27.6111C28.8094 27.6087 28.8118 27.6062 28.8142 27.6037C28.8166 27.6013 28.819 27.5988 28.819 27.5988C28.8214 27.5963 28.8238 27.5939 28.8262 27.5914C28.8286 27.5889 28.831 27.5865 28.831 27.5865C28.8334 27.584 28.8358 27.5815 28.8358 27.5815C28.8382 27.5791 28.8406 27.5766 28.843 27.5741C28.8454 27.5717 28.8478 27.5692 28.8502 27.5667C28.8526 27.5643 28.855 27.5618 28.855 27.5618C28.8574 27.5593 28.8598 27.5569 28.8598 27.5569C28.8622 27.5544 28.8646 27.5519 28.867 27.5495C28.8694 27.547 28.8718 27.5445 28.8718 27.5445C28.8742 27.5421 28.8766 27.5396 28.879 27.5371C28.8815 27.5347 28.8839 27.5322 28.8839 27.5322C28.8863 27.5297 28.8887 27.5273 28.8911 27.5248C28.8935 27.5223 28.8959 27.5199 28.8959 27.5199C28.8983 27.5174 28.9007 27.5149 28.9007 27.5149C28.9031 27.5125 28.9055 27.51 28.9079 27.5075C28.9103 27.5051 28.9127 27.5026 28.9127 27.5026C28.9151 27.5001 28.9175 27.4977 28.9199 27.4952C28.9223 27.4927 28.9247 27.4903 28.9247 27.4903C28.9271 27.4878 28.9295 27.4853 28.9319 27.4829C28.9343 27.4804 28.9367 27.4779 28.9367 27.4779C28.9391 27.4755 28.9415 27.473 28.9415 27.473C28.9439 27.4705 28.9463 27.4681 28.9487 27.4656C28.9511 27.4631 28.9535 27.4606 28.9535 27.4606C28.9559 27.4582 28.9583 27.4557 28.9607 27.4532C28.9632 27.4508 28.9656 27.4483 28.9656 27.4483C28.968 27.4458 28.9704 27.4434 28.9728 27.4409C28.9752 27.4384 28.9776 27.436 28.9776 27.436C28.98 27.4335 28.9824 27.431 28.9824 27.431C28.9848 27.4286 28.9872 27.4261 28.9896 27.4236C28.992 27.4212 28.9944 27.4187 28.9968 27.4162C28.9992 27.4138 29.0016 27.4113 29.0016 27.4113C29.004 27.4088 29.0064 27.4064 29.0064 27.4064C29.0088 27.4039 29.0112 27.4014 29.0136 27.399C29.016 27.3965 29.0184 27.394 29.0184 27.394C29.0208 27.3916 29.0232 27.3891 29.0256 27.3866C29.028 27.3842 29.0304 27.3817 29.0304 27.3817C29.0328 27.3792 29.0352 27.3768 29.0376 27.3743C29.04 27.3718 29.0424 27.3694 29.0424 27.3694C29.0448 27.3669 29.0473 27.3644 29.0473 27.3644C29.0497 27.362 29.0521 27.3595 29.0545 27.357C29.0569 27.3546 29.0593 27.3521 29.0593 27.3521C29.0617 27.3496 29.0641 27.3472 29.0665 27.3447C29.0689 27.3422 29.0713 27.3398 29.0713 27.3398C29.0737 27.3373 29.0761 27.3348 29.0785 27.3324C29.0809 27.3299 29.0833 27.3274 29.0833 27.3274C29.0857 27.325 29.0881 27.3225 29.0881 27.3225C29.0905 27.32 29.0929 27.3176 29.0953 27.3151C29.0977 27.3126 29.1001 27.3102 29.1025 27.3077C29.1049 27.3052 29.1073 27.3028 29.1073 27.3028C29.1097 27.3003 29.1121 27.2978 29.1121 27.2978C29.1145 27.2954 29.1169 27.2929 29.1193 27.2904C29.1217 27.288 29.1241 27.2855 29.1241 27.2855C29.1265 27.283 29.1289 27.2806 29.1313 27.2781C29.1338 27.2756 29.1362 27.2732 29.1362 27.2732C29.1386 27.2707 29.141 27.2682 29.1434 27.2658C29.1458 27.2633 29.1482 27.2608 29.1482 27.2608C29.1506 27.2584 29.153 27.2559 29.153 27.2559C29.1554 27.2534 29.1578 27.251 29.1602 27.2485C29.1626 27.246 29.165 27.2436 29.165 27.2436C29.1674 27.2411 29.1698 27.2386 29.1722 27.2362C29.1746 27.2337 29.177 27.2312 29.177 27.2312C29.1794 27.2288 29.1818 27.2263 29.1842 27.2238C29.1866 27.2214 29.189 27.2189 29.189 27.2189C29.1914 27.2164 29.1938 27.214 29.1938 27.214C29.1962 27.2115 29.1986 27.209 29.201 27.2066C29.2034 27.2041 29.2058 27.2016 29.2058 27.2016C29.2082 27.1992 29.2106 27.1967 29.213 27.1942C29.2155 27.1917 29.2179 27.1893 29.2179 27.1893C29.2203 27.1868 29.2227 27.1843 29.2251 27.1819C29.2275 27.1794 29.2299 27.1769 29.2299 27.1769C29.2323 27.1745 29.2347 27.172 29.2347 27.172C29.2371 27.1695 29.2395 27.1671 29.2419 27.1646C29.2443 27.1621 29.2467 27.1597 29.2491 27.1572C29.2515 27.1547 29.2539 27.1523 29.2539 27.1523C29.2563 27.1498 29.2587 27.1473 29.2587 27.1473C29.2611 27.1449 29.2635 27.1424 29.2659 27.1399C29.2683 27.1375 29.2707 27.135 29.2707 27.135C29.2731 27.1325 29.2755 27.1301 29.2779 27.1276C29.2803 27.1251 29.2827 27.1227 29.2827 27.1227C29.2851 27.1202 29.2875 27.1177 29.2899 27.1153C29.2923 27.1128 29.2947 27.1103 29.2947 27.1103C29.2971 27.1079 29.2996 27.1054 29.2996 27.1054C29.302 27.1029 29.3044 27.1005 29.3068 27.098C29.3092 27.0955 29.3116 27.0931 29.3116 27.0931C29.314 27.0906 29.3164 27.0881 29.3188 27.0857C29.3212 27.0832 29.3236 27.0807 29.3236 27.0807C29.326 27.0783 29.3284 27.0758 29.3308 27.0733C29.3332 27.0709 29.3356 27.0684 29.3356 27.0684C29.338 27.0659 29.3404 27.0635 29.3404 27.0635C29.3428 27.061 29.3452 27.0585 29.3476 27.0561C29.35 27.0536 29.3524 27.0511 29.3548 27.0487C29.3572 27.0462 29.3596 27.0437 29.3596 27.0437C29.362 27.0413 29.3644 27.0388 29.3644 27.0388C29.3668 27.0363 29.3692 27.0339 29.3716 27.0314C29.374 27.0289 29.3764 27.0265 29.3764 27.0265C29.3788 27.024 29.3813 27.0215 29.3837 27.0191C29.3861 27.0166 29.3885 27.0141 29.3885 27.0141C29.3909 27.0117 29.3933 27.0092 29.3957 27.0067C29.3981 27.0043 29.4005 27.0018 29.4005 27.0018C29.4029 26.9993 29.4053 26.9969 29.4053 26.9969C29.4077 26.9944 29.4101 26.9919 29.4125 26.9895C29.4149 26.987 29.4173 26.9845 29.4173 26.9845C29.4197 26.9821 29.4221 26.9796 29.4245 26.9771C29.4269 26.9747 29.4293 26.9722 29.4293 26.9722C29.4317 26.9697 29.4341 26.9673 29.4365 26.9648C29.4389 26.9623 29.4413 26.9599 29.4413 26.9599C29.4437 26.9574 29.4461 26.9549 29.4461 26.9549C29.4485 26.9525 29.4509 26.95 29.4533 26.9475C29.4557 26.9451 29.4581 26.9426 29.4581 26.9426C29.4605 26.9401 29.4629 26.9377 29.4653 26.9352C29.4678 26.9327 29.4702 26.9303 29.4702 26.9303C29.4726 26.9278 29.475 26.9253 29.4774 26.9228C29.4798 26.9204 29.4822 26.9179 29.4822 26.9179C29.4846 26.9154 29.487 26.913 29.487 26.913C29.4894 26.9105 29.4918 26.908 29.4942 26.9056C29.4966 26.9031 29.499 26.9006 29.5014 26.8982C29.5038 26.8957 29.5062 26.8932 29.5062 26.8932C29.5086 26.8908 29.511 26.8883 29.511 26.8883C29.5134 26.8858 29.5158 26.8834 29.5182 26.8809C29.5206 26.8784 29.523 26.876 29.523 26.876C29.5254 26.8735 29.5278 26.871 29.5302 26.8686C29.5326 26.8661 29.535 26.8636 29.535 26.8636C29.5374 26.8612 29.5398 26.8587 29.5422 26.8562C29.5446 26.8538 29.547 26.8513 29.547 26.8513C29.5494 26.8488 29.5519 26.8464 29.5519 26.8464C29.5543 26.8439 29.5567 26.8414 29.5591 26.839C29.5615 26.8365 29.5639 26.834 29.5639 26.834C29.5663 26.8316 29.5687 26.8291 29.5711 26.8266C29.5735 26.8242 29.5759 26.8217 29.5759 26.8217C29.5783 26.8192 29.5807 26.8168 29.5831 26.8143C29.5855 26.8118 29.5879 26.8094 29.5879 26.8094C29.5903 26.8069 29.5927 26.8044 29.5927 26.8044C29.5951 26.802 29.5975 26.7995 29.5999 26.797C29.6023 26.7946 29.6047 26.7921 29.6071 26.7896C29.6095 26.7872 29.6119 26.7847 29.6119 26.7847C29.6143 26.7822 29.6167 26.7798 29.6167 26.7798C29.6191 26.7773 29.6215 26.7748 29.6239 26.7724C29.6263 26.7699 29.6287 26.7674 29.6287 26.7674C29.6311 26.765 29.6336 26.7625 29.636 26.76C29.6384 26.7576 29.6408 26.7551 29.6408 26.7551C29.6432 26.7526 29.6456 26.7502 29.648 26.7477C29.6504 26.7452 29.6528 26.7428 29.6528 26.7428C29.6552 26.7403 29.6576 26.7378 29.6576 26.7378C29.66 26.7354 29.6624 26.7329 29.6648 26.7304C29.6672 26.728 29.6696 26.7255 29.6696 26.7255C29.672 26.723 29.6744 26.7206 29.6768 26.7181C29.6792 26.7156 29.6816 26.7132 29.6816 26.7132C29.684 26.7107 29.6864 26.7082 29.6888 26.7058C29.6912 26.7033 29.6936 26.7008 29.6936 26.7008C29.696 26.6984 29.6984 26.6959 29.6984 26.6959C29.7008 26.6934 29.7032 26.691 29.7056 26.6885C29.708 26.686 29.7104 26.6836 29.7104 26.6836C29.7128 26.6811 29.7152 26.6786 29.7177 26.6762C29.7201 26.6737 29.7225 26.6712 29.7225 26.6712C29.7249 26.6688 29.7273 26.6663 29.7297 26.6638C29.7321 26.6614 29.7345 26.6589 29.7345 26.6589C29.7369 26.6564 29.7393 26.6539 29.7393 26.6539C29.7417 26.6515 29.7441 26.649 29.7465 26.6465C29.7489 26.6441 29.7513 26.6416 29.7537 26.6391C29.7561 26.6367 29.7585 26.6342 29.7585 26.6342C29.7609 26.6317 29.7633 26.6293 29.7633 26.6293C29.7657 26.6268 29.7681 26.6243 29.7705 26.6219C29.7729 26.6194 29.7753 26.6169 29.7753 26.6169C29.7777 26.6145 29.7801 26.612 29.7825 26.6095C29.7849 26.6071 29.7873 26.6046 29.7873 26.6046C29.7897 26.6021 29.7921 26.5997 29.7945 26.5972C29.7969 26.5947 29.7994 26.5923 29.7994 26.5923C29.8018 26.5898 29.8042 26.5873 29.8042 26.5873C29.8066 26.5849 29.809 26.5824 29.8114 26.5799C29.8138 26.5775 29.8162 26.575 29.8162 26.575C29.8186 26.5725 29.821 26.5701 29.8234 26.5676C29.8258 26.5651 29.8282 26.5627 29.8282 26.5627C29.8306 26.5602 29.833 26.5577 29.8354 26.5553C29.8378 26.5528 29.8402 26.5503 29.8402 26.5503C29.8426 26.5479 29.845 26.5454 29.845 26.5454C29.8474 26.5429 29.8498 26.5405 29.8522 26.538C29.8546 26.5355 29.857 26.5331 29.8594 26.5306C29.8618 26.5281 29.8642 26.5257 29.8642 26.5257C29.8666 26.5232 29.869 26.5207 29.869 26.5207C29.8714 26.5183 29.8738 26.5158 29.8762 26.5133C29.8786 26.5109 29.881 26.5084 29.881 26.5084C29.8834 26.5059 29.8859 26.5035 29.8883 26.501C29.8907 26.4985 29.8931 26.4961 29.8931 26.4961C29.8955 26.4936 29.8979 26.4911 29.9003 26.4887C29.9027 26.4862 29.9051 26.4837 29.9051 26.4837C29.9075 26.4813 29.9099 26.4788 29.9099 26.4788C29.9123 26.4763 29.9147 26.4739 29.9171 26.4714C29.9195 26.4689 29.9219 26.4665 29.9219 26.4665C29.9243 26.464 29.9267 26.4615 29.9291 26.4591C29.9315 26.4566 29.9339 26.4541 29.9339 26.4541C29.9363 26.4517 29.9387 26.4492 29.9411 26.4467C29.9435 26.4443 29.9459 26.4418 29.9459 26.4418C29.9483 26.4393 29.9507 26.4369 29.9507 26.4369C29.9531 26.4344 29.9555 26.4319 29.9579 26.4295C29.9603 26.427 29.9627 26.4245 29.9627 26.4245C29.9651 26.4221 29.9676 26.4196 29.97 26.4171C29.9724 26.4147 29.9748 26.4122 29.9748 26.4122C29.9772 26.4097 29.9796 26.4073 29.982 26.4048C29.9844 26.4023 29.9868 26.3999 29.9868 26.3999C29.9892 26.3974 29.9916 26.3949 29.9916 26.3949C29.994 26.3925 29.9964 26.39 29.9988 26.3875C30.0012 26.3851 30.0036 26.3826 30.006 26.3801C30.0084 26.3776 30.0108 26.3752 30.0108 26.3752C30.0132 26.3727 30.0156 26.3702 30.0156 26.3702C30.018 26.3678 30.0204 26.3653 30.0228 26.3628C30.0252 26.3604 30.0276 26.3579 30.0276 26.3579C30.03 26.3554 30.0324 26.353 30.0348 26.3505C30.0372 26.348 30.0396 26.3456 30.0396 26.3456C30.042 26.3431 30.0444 26.3406 30.0468 26.3382C30.0492 26.3357 30.0517 26.3332 30.0517 26.3332C30.0541 26.3308 30.0565 26.3283 30.0565 26.3283C30.0589 26.3258 30.0613 26.3234 30.0637 26.3209C30.0661 26.3184 30.0685 26.316 30.0685 26.316C30.0709 26.3135 30.0733 26.311 30.0757 26.3086C30.0781 26.3061 30.0805 26.3036 30.0805 26.3036C30.0829 26.3012 30.0853 26.2987 30.0877 26.2962C30.0901 26.2938 30.0925 26.2913 30.0925 26.2913C30.0949 26.2888 30.0973 26.2864 30.0973 26.2864C30.0997 26.2839 30.1021 26.2814 30.1045 26.279C30.1069 26.2765 30.1093 26.274 30.1093 26.274C30.1117 26.2716 30.1141 26.2691 30.1165 26.2666C30.1189 26.2642 30.1213 26.2617 30.1213 26.2617C30.1237 26.2592 30.1261 26.2568 30.1285 26.2543C30.1309 26.2518 30.1334 26.2494 30.1334 26.2494C30.1358 26.2469 30.1382 26.2444 30.1406 26.242C30.143 26.2395 30.1454 26.237 30.1454 26.237C30.1478 26.2346 30.1502 26.2321 30.1526 26.2296C30.155 26.2272 30.1574 26.2247 30.1574 26.2247C30.1598 26.2222 30.1622 26.2198 30.1622 26.2198C30.1646 26.2173 30.167 26.2148 30.1694 26.2124C30.1718 26.2099 30.1742 26.2074 30.1742 26.2074C30.1766 26.205 30.179 26.2025 30.1814 26.2C30.1838 26.1976 30.1862 26.1951 30.1862 26.1951C30.1886 26.1926 30.191 26.1902 30.1934 26.1877C30.1958 26.1852 30.1982 26.1828 30.1982 26.1828C30.2006 26.1803 30.203 26.1778 30.203 26.1778C30.2054 26.1754 30.2078 26.1729 30.2102 26.1704C30.2126 26.168 30.215 26.1655 30.215 26.1655C30.2174 26.163 30.2199 26.1606 30.2223 26.1581C30.2247 26.1556 30.2271 26.1532 30.2271 26.1532C30.2295 26.1507 30.2319 26.1482 30.2343 26.1458C30.2367 26.1433 30.2391 26.1408 30.2391 26.1408C30.2415 26.1384 30.2439 26.1359 30.2439 26.1359C30.2463 26.1334 30.2487 26.131 30.2511 26.1285C30.2535 26.126 30.2559 26.1236 30.2583 26.1211C30.2607 26.1186 30.2631 26.1161 30.2631 26.1161C30.2655 26.1137 30.2679 26.1112 30.2679 26.1112C30.2703 26.1088 30.2727 26.1063 30.2751 26.1038C30.2775 26.1014 30.2799 26.0989 30.2799 26.0989C30.2823 26.0964 30.2847 26.0939 30.2871 26.0915C30.2895 26.089 30.2919 26.0865 30.2919 26.0865C30.2943 26.0841 30.2967 26.0816 30.2991 26.0791C30.3015 26.0767 30.304 26.0742 30.304 26.0742C30.3064 26.0717 30.3088 26.0693 30.3088 26.0693C30.3112 26.0668 30.3136 26.0643 30.316 26.0619C30.3184 26.0594 30.3208 26.0569 30.3208 26.0569C30.3232 26.0545 30.3256 26.052 30.328 26.0495C30.3304 26.0471 30.3328 26.0446 30.3328 26.0446C30.3352 26.0421 30.3376 26.0397 30.34 26.0372C30.3424 26.0347 30.3448 26.0323 30.3448 26.0323C30.3472 26.0298 30.3496 26.0273 30.3496 26.0273C30.352 26.0249 30.3544 26.0224 30.3568 26.0199C30.3592 26.0175 30.3616 26.015 30.3616 26.015C30.364 26.0125 30.3664 26.0101 30.3688 26.0076C30.3712 26.0051 30.3736 26.0027 30.3736 26.0027C30.376 26.0002 30.3784 25.9977 30.3808 25.9953C30.3832 25.9928 30.3857 25.9903 30.3857 25.9903C30.3881 25.9879 30.3905 25.9854 30.3929 25.9829C30.3953 25.9805 30.3977 25.978 30.3977 25.978C30.4001 25.9755 30.4025 25.9731 30.4049 25.9706C30.4073 25.9681 30.4097 25.9657 30.4097 25.9657C30.4121 25.9632 30.4145 25.9607 30.4145 25.9607C30.4169 25.9583 30.4193 25.9558 30.4217 25.9533C30.4241 25.9509 30.4265 25.9484 30.4265 25.9484C30.4289 25.9459 30.4313 25.9435 30.4337 25.941C30.4361 25.9385 30.4385 25.9361 30.4385 25.9361C30.4409 25.9336 30.4433 25.9311 30.4457 25.9287C30.4481 25.9262 30.4505 25.9237 30.4505 25.9237C30.4529 25.9213 30.4553 25.9188 30.4553 25.9188C30.4577 25.9163 30.4601 25.9139 30.4625 25.9114C30.4649 25.9089 30.4673 25.9065 30.4673 25.9065C30.4698 25.904 30.4722 25.9015 30.4746 25.8991C30.477 25.8966 30.4794 25.8941 30.4794 25.8941C30.4818 25.8917 30.4842 25.8892 30.4866 25.8867C30.489 25.8843 30.4914 25.8818 30.4914 25.8818C30.4938 25.8793 30.4962 25.8769 30.4962 25.8769C30.4986 25.8744 30.501 25.8719 30.5034 25.8695C30.5058 25.867 30.5082 25.8645 30.5106 25.8621C30.513 25.8596 30.5154 25.8571 30.5154 25.8571C30.5178 25.8547 30.5202 25.8522 30.5202 25.8522C30.5226 25.8497 30.525 25.8473 30.5274 25.8448C30.5298 25.8423 30.5322 25.8399 30.5322 25.8399C30.5346 25.8374 30.537 25.8349 30.5394 25.8325C30.5418 25.83 30.5442 25.8275 30.5442 25.8275C30.5466 25.825 30.549 25.8226 30.5514 25.8201C30.5539 25.8176 30.5563 25.8152 30.5563 25.8152C30.5587 25.8127 30.5611 25.8102 30.5611 25.8102C30.5635 25.8078 30.5659 25.8053 30.5683 25.8028C30.5707 25.8004 30.5731 25.7979 30.5731 25.7979C30.5755 25.7954 30.5779 25.793 30.5803 25.7905C30.5827 25.788 30.5851 25.7856 30.5851 25.7856C30.5875 25.7831 30.5899 25.7806 30.5923 25.7782C30.5947 25.7757 30.5971 25.7732 30.5971 25.7732C30.5995 25.7708 30.6019 25.7683 30.6019 25.7683C30.6043 25.7658 30.6067 25.7634 30.6091 25.7609C30.6115 25.7584 30.6139 25.756 30.6139 25.756C30.6163 25.7535 30.6187 25.751 30.6211 25.7486C30.6235 25.7461 30.6259 25.7436 30.6259 25.7436C30.6283 25.7412 30.6307 25.7387 30.6331 25.7362C30.6355 25.7338 30.638 25.7313 30.638 25.7313C30.6404 25.7288 30.6428 25.7264 30.6428 25.7264C30.6452 25.7239 30.6476 25.7214 30.65 25.719C30.6524 25.7165 30.6548 25.714 30.6572 25.7116C30.6596 25.7091 30.662 25.7066 30.662 25.7066C30.6644 25.7042 30.6668 25.7017 30.6668 25.7017C30.6692 25.6992 30.6716 25.6968 30.674 25.6943C30.6764 25.6918 30.6788 25.6894 30.6788 25.6894C30.6812 25.6869 30.6836 25.6844 30.686 25.682C30.6884 25.6795 30.6908 25.677 30.6908 25.677C30.6932 25.6746 30.6956 25.6721 30.698 25.6696C30.7004 25.6672 30.7028 25.6647 30.7028 25.6647C30.7052 25.6622 30.7076 25.6598 30.7076 25.6598C30.71 25.6573 30.7124 25.6548 30.7148 25.6524C30.7172 25.6499 30.7197 25.6474 30.7197 25.6474C30.7221 25.645 30.7245 25.6425 30.7269 25.64C30.7293 25.6376 30.7317 25.6351 30.7317 25.6351C30.7341 25.6326 30.7365 25.6302 30.7389 25.6277C30.7413 25.6252 30.7437 25.6228 30.7437 25.6228C30.7461 25.6203 30.7485 25.6178 30.7485 25.6178C30.7509 25.6154 30.7533 25.6129 30.7557 25.6104C30.7581 25.608 30.7605 25.6055 30.7629 25.603C30.7653 25.6006 30.7677 25.5981 30.7677 25.5981C30.7701 25.5956 30.7725 25.5932 30.7725 25.5932C30.7749 25.5907 30.7773 25.5882 30.7797 25.5858C30.7821 25.5833 30.7845 25.5808 30.7845 25.5808C30.7869 25.5784 30.7893 25.5759 30.7917 25.5734C30.7941 25.571 30.7965 25.5685 30.7965 25.5685C30.7989 25.566 30.8013 25.5635 30.8038 25.5611C30.8062 25.5586 30.8086 25.5562 30.8086 25.5562C30.811 25.5537 30.8134 25.5512 30.8134 25.5512C30.8158 25.5487 30.8182 25.5463 30.8206 25.5438C30.823 25.5413 30.8254 25.5389 30.8254 25.5389C30.8278 25.5364 30.8302 25.5339 30.8326 25.5315C30.835 25.529 30.8374 25.5265 30.8374 25.5265C30.8398 25.5241 30.8422 25.5216 30.8446 25.5191C30.847 25.5167 30.8494 25.5142 30.8494 25.5142C30.8518 25.5117 30.8542 25.5093 30.8542 25.5093C30.8566 25.5068 30.859 25.5043 30.8614 25.5019C30.8638 25.4994 30.8662 25.4969 30.8662 25.4969C30.8686 25.4945 30.871 25.492 30.8734 25.4895C30.8758 25.4871 30.8782 25.4846 30.8782 25.4846C30.8806 25.4821 30.883 25.4797 30.8854 25.4772C30.8879 25.4747 30.8903 25.4723 30.8903 25.4723C30.8927 25.4698 30.8951 25.4673 30.8951 25.4673C30.8975 25.4649 30.8999 25.4624 30.9023 25.4599C30.9047 25.4575 30.9071 25.455 30.9095 25.4525C30.9119 25.4501 30.9143 25.4476 30.9143 25.4476C30.9167 25.4451 30.9191 25.4427 30.9191 25.4427C30.9215 25.4402 30.9239 25.4377 30.9263 25.4353C30.9287 25.4328 30.9311 25.4303 30.9311 25.4303C30.9335 25.4279 30.9359 25.4254 30.9383 25.4229C30.9407 25.4205 30.9431 25.418 30.9431 25.418C30.9455 25.4155 30.9479 25.4131 30.9503 25.4106C30.9527 25.4081 30.9551 25.4057 30.9551 25.4057C30.9575 25.4032 30.9599 25.4007 30.9599 25.4007C30.9623 25.3983 30.9647 25.3958 30.9671 25.3933C30.9695 25.3909 30.972 25.3884 30.972 25.3884C30.9744 25.3859 30.9768 25.3835 30.9792 25.381C30.9816 25.3785 30.984 25.3761 30.984 25.3761C30.9864 25.3736 30.9888 25.3711 30.9912 25.3687C30.9936 25.3662 30.996 25.3637 30.996 25.3637C30.9984 25.3613 31.0008 25.3588 31.0008 25.3588C31.0032 25.3563 31.0056 25.3539 31.008 25.3514C31.0104 25.3489 31.0128 25.3465 31.0152 25.344C31.0176 25.3415 31.02 25.3391 31.02 25.3391C31.0224 25.3366 31.0248 25.3341 31.0248 25.3341C31.0272 25.3317 31.0296 25.3292 31.032 25.3267C31.0344 25.3243 31.0368 25.3218 31.0368 25.3218C31.0392 25.3193 31.0416 25.3169 31.044 25.3144C31.0464 25.3119 31.0488 25.3095 31.0488 25.3095C31.0512 25.307 31.0536 25.3045 31.0561 25.3021C31.0585 25.2996 31.0609 25.2971 31.0609 25.2971C31.0633 25.2947 31.0657 25.2922 31.0657 25.2922C31.0681 25.2897 31.0705 25.2873 31.0729 25.2848C31.0753 25.2823 31.0777 25.2798 31.0777 25.2798C31.0801 25.2774 31.0825 25.2749 31.0849 25.2724C31.0873 25.27 31.0897 25.2675 31.0897 25.2675C31.0921 25.265 31.0945 25.2626 31.0969 25.2601C31.0993 25.2576 31.1017 25.2552 31.1017 25.2552C32.0148 24.3547 32.5627 23.0398 32.5627 21.4536V13.5815C32.6299 9.95751 29.7705 6.28913 26.2407 5.38376Z" fill="black" stroke="white" stroke-miterlimit="10" stroke-linecap="round" stroke-linejoin="round"/>
    <path d="M23.8184 7.87297L7.47884 3.69146C3.95142 2.78608 1.0896 4.99155 1.0896 8.61553V16.421C1.0896 20.045 3.95142 23.7134 7.47884 24.6163L23.8184 28.7978C27.3482 29.7007 30.2076 27.4952 30.2076 23.8737V16.0682C30.2076 12.4443 27.3482 8.77588 23.8184 7.87297Z" fill="black" stroke="white" stroke-miterlimit="10" stroke-linecap="round" stroke-linejoin="round"/>
    <path d="M20.0626 18.1602L12.6473 19.7144C12.0899 19.8303 11.4603 19.2506 11.4603 18.624V11.7165C11.4603 11.0898 12.0923 10.8333 12.6473 11.2354L20.0626 16.5862C20.721 17.0624 20.721 18.022 20.0626 18.1602Z" fill="white"/>
    </svg>
    