
<svg width="27" height="30" viewBox="0 0 27 30" fill="none" xmlns="http://www.w3.org/2000/svg">
    <path d="M19.2986 3.50204L10.1194 1.21199C7.97513 0.677502 6.0569 1.18241 4.78934 2.40349C4.78723 2.4056 4.78511 2.40772 4.783 2.40983C4.78089 2.41194 4.77878 2.41405 4.77666 2.41617C4.77455 2.41828 4.77244 2.42039 4.77033 2.4225C4.76821 2.42462 4.7661 2.42673 4.76399 2.42884C4.76188 2.43095 4.75976 2.43307 4.75765 2.43518C4.75554 2.43729 4.75342 2.43941 4.75131 2.44152C4.7492 2.44363 4.74709 2.44574 4.74497 2.44786C4.74286 2.44997 4.74075 2.45208 4.73864 2.45419C4.73652 2.45631 4.73441 2.45842 4.7323 2.46053C4.73019 2.46264 4.72807 2.46476 4.72596 2.46687C4.72385 2.46898 4.72174 2.47109 4.71962 2.47321C4.71751 2.47532 4.7154 2.47743 4.71329 2.47954C4.71117 2.48166 4.70906 2.48377 4.70695 2.48588C4.70484 2.488 4.70272 2.49011 4.70061 2.49222C4.6985 2.49433 4.69639 2.49645 4.69427 2.49856C4.69216 2.50067 4.69005 2.50278 4.68793 2.5049C4.68582 2.50701 4.68371 2.50912 4.6816 2.51123C4.67948 2.51335 4.67737 2.51546 4.67526 2.51757C4.67315 2.51968 4.67103 2.5218 4.66892 2.52391C4.66681 2.52602 4.6647 2.52813 4.66258 2.53025C4.66047 2.53236 4.65836 2.53447 4.65625 2.53658C4.65413 2.5387 4.65202 2.54081 4.64991 2.54292C4.6478 2.54504 4.64568 2.54715 4.64357 2.54926C4.64146 2.55137 4.63935 2.55349 4.63723 2.5556C4.63512 2.55771 4.63301 2.55982 4.63089 2.56194C4.62878 2.56405 4.62667 2.56616 4.62456 2.56827C4.62244 2.57039 4.62033 2.5725 4.61822 2.57461C4.61611 2.57672 4.61399 2.57884 4.61188 2.58095C4.60977 2.58306 4.60766 2.58517 4.60554 2.58729C4.60343 2.5894 4.60132 2.59151 4.59921 2.59362C4.61611 2.57884 4.61399 2.57884 4.61188 2.58095C4.60977 2.58306 4.60766 2.58517 4.60554 2.58729C4.60343 2.5894 4.60132 2.59151 4.59921 2.59362C4.59709 2.59574 4.59498 2.59785 4.59287 2.59996C4.59076 2.60207 4.58864 2.60419 4.58653 2.6063C4.58442 2.60841 4.5823 2.61053 4.58019 2.61264C4.57808 2.61475 4.57597 2.61686 4.57385 2.61898C4.57174 2.62109 4.56963 2.6232 4.56752 2.62531C4.5654 2.62743 4.56329 2.62954 4.56118 2.63165C4.55907 2.63376 4.55695 2.63588 4.55484 2.63799C4.55273 2.6401 4.55062 2.64221 4.5485 2.64433C4.54639 2.64644 4.54428 2.64855 4.54217 2.65066C4.54005 2.65278 4.53794 2.65489 4.53583 2.657C4.53372 2.65912 4.5316 2.66123 4.52949 2.66334C4.52738 2.66545 4.52526 2.66757 4.52315 2.66968C4.52104 2.67179 4.51893 2.6739 4.51681 2.67602C4.5147 2.67813 4.51259 2.68024 4.51048 2.68235C4.50836 2.68447 4.50625 2.68658 4.50414 2.68869C4.50203 2.6908 4.49991 2.69292 4.4978 2.69503C4.49569 2.69714 4.49358 2.69925 4.49146 2.70137C4.48935 2.70348 4.48724 2.70559 4.48513 2.7077C4.48301 2.70982 4.4809 2.71193 4.47879 2.71404C4.47668 2.71615 4.47456 2.71827 4.47245 2.72038C4.47034 2.72249 4.46823 2.72461 4.46611 2.72672C4.464 2.72883 4.46189 2.73094 4.45977 2.73306C4.45766 2.73517 4.45555 2.73728 4.45344 2.73939C4.45132 2.74151 4.44921 2.74362 4.4471 2.74573C4.44499 2.74784 4.44287 2.74996 4.44076 2.75207C4.43865 2.75418 4.43654 2.75629 4.43442 2.75841C4.43231 2.76052 4.4302 2.76263 4.42809 2.76474C4.42597 2.76686 4.42386 2.76897 4.42175 2.77108C4.41964 2.7732 4.41752 2.77531 4.41541 2.77742C4.4133 2.77953 4.41119 2.78165 4.40907 2.78376C4.40696 2.78587 4.40485 2.78798 4.40273 2.7901C4.40062 2.79221 4.39851 2.79432 4.3964 2.79643C4.39428 2.79855 4.39217 2.80066 4.39006 2.80277C4.40907 2.78376 4.40696 2.78587 4.40485 2.78798C4.40273 2.7901 4.40062 2.79221 4.39851 2.79432C4.39851 2.79432 4.3964 2.79643 4.39428 2.79855C4.39217 2.80066 4.39006 2.80277 4.38795 2.80488C4.38583 2.807 4.38372 2.80911 4.38161 2.81122C4.3795 2.81333 4.37738 2.81545 4.37527 2.81756C4.37316 2.81967 4.37105 2.82178 4.36893 2.8239C4.36682 2.82601 4.36471 2.82812 4.3626 2.83024C4.36048 2.83235 4.35837 2.83446 4.35626 2.83657C4.35415 2.83869 4.35203 2.8408 4.34992 2.84291C4.34781 2.84502 4.34569 2.84714 4.34358 2.84925C4.34147 2.85136 4.33936 2.85347 4.33724 2.85559C4.33513 2.8577 4.33302 2.85981 4.33091 2.86192C4.32879 2.86404 4.32668 2.86615 4.32457 2.86826C4.32246 2.87037 4.32034 2.87249 4.31823 2.8746C4.31612 2.87671 4.31401 2.87882 4.31189 2.88094C4.30978 2.88305 4.30767 2.88516 4.30556 2.88728C4.30344 2.88939 4.30133 2.8915 4.29922 2.89361C4.2971 2.89573 4.29499 2.89784 4.29288 2.89995C4.29077 2.90206 4.28865 2.90418 4.28654 2.90629C4.28443 2.9084 4.28232 2.91051 4.2802 2.91263C4.27809 2.91474 4.27598 2.91685 4.27387 2.91896C4.27175 2.92108 4.26964 2.92319 4.26753 2.9253C4.26542 2.92741 4.2633 2.92953 4.26119 2.93164C4.25908 2.93375 4.25697 2.93586 4.25485 2.93798C4.25274 2.94009 4.25063 2.9422 4.24852 2.94432C4.2464 2.94643 4.24429 2.94854 4.24218 2.95065C4.24006 2.95277 4.23795 2.95488 4.23584 2.95699C4.23373 2.9591 4.23161 2.96122 4.2295 2.96333C4.22739 2.96544 4.22528 2.96755 4.22316 2.96967C4.22105 2.97178 4.21894 2.97389 4.21683 2.976C4.21471 2.97812 4.2126 2.98023 4.21049 2.98234C4.20838 2.98445 4.20626 2.98657 4.20415 2.98868C4.20204 2.99079 4.19993 2.9929 4.19781 2.99502C4.1957 2.99713 4.19359 2.99924 4.19148 3.00136C4.18936 3.00347 4.18725 3.00558 4.18514 3.00769C4.18302 3.00981 4.18091 3.01192 4.1788 3.01403C4.19781 2.99502 4.1957 2.99713 4.19359 2.99924C4.19148 3.00136 4.18936 3.00347 4.18725 3.00558C4.18514 3.00769 4.18302 3.00981 4.18091 3.01192C4.1788 3.01403 4.17669 3.01614 4.17457 3.01826C4.17246 3.02037 4.17035 3.02248 4.16824 3.02459C4.16612 3.02671 4.16401 3.02882 4.1619 3.03093C4.15979 3.03304 4.15767 3.03516 4.15556 3.03727C4.15345 3.03938 4.15134 3.04149 4.14922 3.04361C4.14711 3.04572 4.145 3.04783 4.14289 3.04994C4.14077 3.05206 4.13866 3.05417 4.13655 3.05628C4.13443 3.0584 4.13232 3.06051 4.13021 3.06262C4.1281 3.06473 4.12598 3.06685 4.12387 3.06896C4.12176 3.07107 4.11965 3.07318 4.11753 3.0753C4.11542 3.07741 4.11331 3.07952 4.1112 3.08163C4.10908 3.08375 4.10697 3.08586 4.10486 3.08797C4.10275 3.09008 4.10063 3.0922 4.09852 3.09431C4.09641 3.09642 4.0943 3.09853 4.09218 3.10065C4.09007 3.10276 4.08796 3.10487 4.08585 3.10698C4.08373 3.1091 4.08162 3.11121 4.07951 3.11332C4.0774 3.11544 4.07528 3.11755 4.07317 3.11966C4.07106 3.12177 4.06894 3.12389 4.06683 3.126C4.06472 3.12811 4.06261 3.13022 4.06049 3.13234C4.05838 3.13445 4.05627 3.13656 4.05416 3.13867C4.05204 3.14079 4.04993 3.1429 4.04782 3.14501C4.04571 3.14712 4.04359 3.14924 4.04148 3.15135C4.03937 3.15346 4.03726 3.15557 4.03514 3.15769C4.03303 3.1598 4.03092 3.16191 4.02881 3.16402C4.02669 3.16614 4.02458 3.16825 4.02247 3.17036C4.02035 3.17248 4.01824 3.17459 4.01613 3.1767C4.01402 3.17881 4.0119 3.18093 4.00979 3.18304C4.00768 3.18515 4.00557 3.18726 4.00345 3.18938C4.00134 3.19149 3.99923 3.1936 3.99712 3.19571C3.995 3.19783 3.99289 3.19994 3.99078 3.20205C3.98867 3.20416 3.98655 3.20628 3.98444 3.20839C3.98233 3.2105 3.98022 3.21261 3.9781 3.21473C3.97599 3.21684 3.97388 3.21895 3.97177 3.22107C3.96965 3.22318 3.96754 3.22529 3.96543 3.2274C3.96332 3.22952 3.9612 3.23163 3.95909 3.23374C3.95698 3.23585 3.95486 3.23797 3.95275 3.24008C3.95064 3.24219 3.94853 3.2443 3.94641 3.24642C3.9443 3.24853 3.94219 3.25064 3.94008 3.25275C3.93796 3.25487 3.93585 3.25698 3.93374 3.25909C3.93163 3.2612 3.92951 3.26332 3.9274 3.26543C3.92529 3.26754 3.92318 3.26965 3.92106 3.27177C3.91895 3.27388 3.91684 3.27599 3.91473 3.27811C3.91261 3.28022 3.9105 3.28233 3.90839 3.28444C3.90628 3.28656 3.90416 3.28867 3.90205 3.29078C3.89994 3.29289 3.89782 3.29501 3.89571 3.29712C3.8936 3.29923 3.89149 3.30134 3.88937 3.30346C3.88726 3.30557 3.88515 3.30768 3.88304 3.30979C3.88092 3.31191 3.87881 3.31402 3.8767 3.31613C3.87459 3.31824 3.87247 3.32036 3.87036 3.32247C3.86825 3.32458 3.86614 3.32669 3.86402 3.32881C3.86191 3.33092 3.8598 3.33303 3.85769 3.33514C3.85557 3.33726 3.85346 3.33937 3.85135 3.34148C3.84924 3.3436 3.84712 3.34571 3.84501 3.34782C3.8429 3.34993 3.84078 3.35205 3.83867 3.35416C3.83656 3.35627 3.83445 3.35838 3.83233 3.3605C3.83022 3.36261 3.82811 3.36472 3.826 3.36683C3.82388 3.36895 3.82177 3.37106 3.81966 3.37317C3.81755 3.37528 3.81543 3.3774 3.81332 3.37951C3.81121 3.38162 3.8091 3.38373 3.80698 3.38585C3.80487 3.38796 3.80276 3.39007 3.80065 3.39218C3.79853 3.3943 3.79642 3.39641 3.79431 3.39852C3.79219 3.40064 3.79008 3.40275 3.78797 3.40486C3.78586 3.40697 3.78374 3.40909 3.78163 3.4112C3.77952 3.41331 3.77741 3.41542 3.77529 3.41754C3.77318 3.41965 3.77107 3.42176 3.76896 3.42387C3.76684 3.42599 3.76473 3.4281 3.76262 3.43021C3.76051 3.43232 3.75839 3.43444 3.75628 3.43655C3.75417 3.43866 3.75206 3.44077 3.74994 3.44289C3.74783 3.445 3.74572 3.44711 3.74361 3.44923C3.74149 3.45134 3.73938 3.45345 3.73727 3.45556C3.73515 3.45768 3.73304 3.45979 3.73093 3.4619C3.72882 3.46401 3.7267 3.46613 3.72459 3.46824C3.72248 3.47035 3.72037 3.47246 3.71825 3.47458C3.71614 3.47669 3.71403 3.4788 3.71192 3.48091C3.7098 3.48303 3.70769 3.48514 3.70558 3.48725C3.70347 3.48936 3.70135 3.49148 3.69924 3.49359C3.69713 3.4957 3.69502 3.49781 3.6929 3.49993C3.69079 3.50204 3.68868 3.50415 3.68657 3.50627C3.68445 3.50838 3.68234 3.51049 3.68023 3.5126C3.67811 3.51472 3.676 3.51683 3.67389 3.51894C3.67178 3.52105 3.66966 3.52317 3.66755 3.52528C3.66544 3.52739 3.66333 3.5295 3.66121 3.53162C3.6591 3.53373 3.65699 3.53584 3.65488 3.53795C3.65276 3.54007 3.65065 3.54218 3.64854 3.54429C3.64643 3.5464 3.64431 3.54852 3.6422 3.55063C3.64009 3.55274 3.63798 3.55485 3.63586 3.55697C3.63375 3.55908 3.63164 3.56119 3.62953 3.56331C3.62741 3.56542 3.6253 3.56753 3.62319 3.56964C3.62107 3.57176 3.61896 3.57387 3.61685 3.57598C3.61474 3.57809 3.61262 3.58021 3.61051 3.58232C3.6084 3.58443 3.60629 3.58654 3.60417 3.58866C3.60206 3.59077 3.59995 3.59288 3.59784 3.59499C3.59572 3.59711 3.59361 3.59922 3.5915 3.60133C3.58939 3.60344 3.58727 3.60556 3.58516 3.60767C3.58305 3.60978 3.58094 3.61189 3.57882 3.61401C3.57671 3.61612 3.5746 3.61823 3.57249 3.62035C3.57037 3.62246 3.56826 3.62457 3.56615 3.62668C3.56403 3.6288 3.56192 3.63091 3.55981 3.63302C3.5577 3.63513 3.55558 3.63725 3.55347 3.63936C3.55136 3.64147 3.54925 3.64358 3.54713 3.6457C3.54502 3.64781 3.54291 3.64992 3.5408 3.65203C3.53868 3.65415 3.53657 3.65626 3.53446 3.65837C3.53235 3.66048 3.53023 3.6626 3.52812 3.66471C3.52601 3.66682 3.5239 3.66894 3.52178 3.67105C3.51967 3.67316 3.51756 3.67527 3.51545 3.67739C3.51333 3.6795 3.51122 3.68161 3.50911 3.68372C3.50699 3.68584 3.50488 3.68795 3.50277 3.69006C3.50066 3.69217 3.49854 3.69429 3.49643 3.6964C3.56192 3.63091 3.55981 3.63302 3.55981 3.63513C3.5577 3.63725 3.55558 3.63936 3.55347 3.64147C3.55136 3.64358 3.54925 3.6457 3.54713 3.64781C3.54502 3.64992 3.54291 3.65203 3.5408 3.65415C3.53868 3.65626 3.53657 3.65837 3.53446 3.66048C3.53235 3.6626 3.53023 3.66471 3.52812 3.66682C3.52601 3.66893 3.5239 3.67105 3.52178 3.67316C3.51967 3.67527 3.51756 3.67739 3.51545 3.6795C3.51333 3.68161 3.51122 3.68372 3.50911 3.68584C3.50699 3.68795 3.50488 3.69006 3.50277 3.69217C3.50066 3.69429 3.49854 3.6964 3.49643 3.69851C3.49432 3.70062 3.49221 3.70274 3.49009 3.70485C3.48798 3.70696 3.48587 3.70907 3.48376 3.71119C3.48164 3.7133 3.47953 3.71541 3.47742 3.71752C3.47531 3.71964 3.47319 3.72175 3.47108 3.72386C3.46897 3.72598 3.46686 3.72809 3.46474 3.7302C3.46263 3.73231 3.46052 3.73443 3.45841 3.73654C3.45629 3.73865 3.45418 3.74076 3.45207 3.74288C3.44995 3.74499 3.44784 3.7471 3.44573 3.74921C3.44362 3.75133 3.4415 3.75344 3.43939 3.75555C3.43728 3.75766 3.43517 3.75978 3.43305 3.76189C3.43094 3.764 3.42883 3.76611 3.42672 3.76823C3.4246 3.77034 3.42249 3.77245 3.42038 3.77456C3.41827 3.77668 3.41615 3.77879 3.41404 3.7809C3.41193 3.78302 3.40982 3.78513 3.4077 3.78724C3.40559 3.78935 3.40348 3.79147 3.40137 3.79358C3.39925 3.79569 3.39714 3.7978 3.39503 3.79992C3.39291 3.80203 3.3908 3.80414 3.38869 3.80625C3.38658 3.80837 3.38446 3.81048 3.38235 3.81259C3.38024 3.8147 3.37813 3.81682 3.37601 3.81893C3.3739 3.82104 3.37179 3.82315 3.36968 3.82527C3.36756 3.82738 3.36545 3.82949 3.36334 3.8316C3.36123 3.83372 3.35911 3.83583 3.357 3.83794C3.35489 3.84005 3.35278 3.84217 3.35066 3.84428C3.34855 3.84639 3.34644 3.84851 3.34433 3.85062C3.34221 3.85273 3.3401 3.85484 3.33799 3.85696C3.33587 3.85907 3.33376 3.86118 3.33165 3.86329C3.32954 3.86541 3.32742 3.86752 3.32531 3.86963C3.3232 3.87174 3.32109 3.87386 3.31897 3.87597C3.31686 3.87808 3.31475 3.88019 3.31264 3.88231C3.31052 3.88442 3.30841 3.88653 3.3063 3.88864C3.30419 3.89076 3.30207 3.89287 3.29996 3.89498C3.29785 3.89709 3.29574 3.89921 3.29362 3.90132C3.29151 3.90343 3.2894 3.90555 3.28729 3.90766C3.28517 3.90977 3.28306 3.91188 3.28095 3.914C3.27883 3.91611 3.27672 3.91822 3.27461 3.92033C3.2725 3.92245 3.27038 3.92456 3.26827 3.92667C3.26616 3.92878 3.26405 3.9309 3.26193 3.93301C3.25982 3.93512 3.25771 3.93723 3.2556 3.93935C3.25348 3.94146 3.25137 3.94357 3.24926 3.94568C3.24715 3.9478 3.24503 3.94991 3.24292 3.95202C3.24081 3.95414 3.2387 3.95625 3.23658 3.95836C3.23447 3.96047 3.23236 3.96259 3.23024 3.9647C3.22813 3.96681 3.22602 3.96892 3.22391 3.97104C3.22179 3.97315 3.21968 3.97526 3.21757 3.97737C3.21546 3.97949 3.21334 3.9816 3.21123 3.98371C3.20912 3.98582 3.20701 3.98794 3.20489 3.99005C3.20278 3.99216 3.20067 3.99427 3.19856 3.99639C3.19644 3.9985 3.19433 4.00061 3.19222 4.00272C3.19011 4.00484 3.18799 4.00695 3.18588 4.00906C3.18377 4.01118 3.18166 4.01329 3.17954 4.0154C3.17743 4.01751 3.17532 4.01963 3.1732 4.02174C3.17109 4.02385 3.16898 4.02596 3.16687 4.02808C3.16475 4.03019 3.16264 4.0323 3.16053 4.03441C3.15842 4.03653 3.1563 4.03864 3.15419 4.04075C3.15208 4.04286 3.14997 4.04498 3.14785 4.04709C3.14574 4.0492 3.14363 4.05131 3.14152 4.05343C3.1394 4.05554 3.13729 4.05765 3.13518 4.05976C3.13307 4.06188 3.13095 4.06399 3.12884 4.0661C3.12673 4.06822 3.12462 4.07033 3.1225 4.07244C3.12039 4.07455 3.11828 4.07667 3.11616 4.07878C3.11405 4.08089 3.11194 4.083 3.10983 4.08512C3.10771 4.08723 3.1056 4.08934 3.10349 4.09145C3.10138 4.09357 3.09926 4.09568 3.09715 4.09779C3.09504 4.0999 3.09293 4.10202 3.09081 4.10413C3.0887 4.10624 3.08659 4.10835 3.08448 4.11047C3.08236 4.11258 3.08025 4.11469 3.07814 4.1168C3.07603 4.11892 3.07391 4.12103 3.0718 4.12314C3.06969 4.12526 3.06758 4.12737 3.06546 4.12948C3.06335 4.13159 3.06124 4.13371 3.05912 4.13582C3.05701 4.13793 3.0549 4.14004 3.05279 4.14216C3.05067 4.14427 3.04856 4.14638 3.04645 4.14849C3.04434 4.15061 3.04222 4.15272 3.04011 4.15483C3.038 4.15694 3.03589 4.15906 3.03377 4.16117C3.03166 4.16328 3.02955 4.16539 3.02744 4.16751C3.02532 4.16962 3.02321 4.17173 3.0211 4.17385C3.01899 4.17596 3.01687 4.17807 3.01476 4.18018C3.01265 4.1823 3.01054 4.18441 3.00842 4.18652C3.00631 4.18863 3.0042 4.19075 3.00208 4.19286C2.99997 4.19497 2.99786 4.19708 2.99575 4.1992C2.99363 4.20131 2.99152 4.20342 2.98941 4.20553C2.9873 4.20765 2.98518 4.20976 2.98307 4.21187C2.98096 4.21398 2.97885 4.2161 2.97673 4.21821C2.97462 4.22032 2.97251 4.22243 2.9704 4.22455C2.96828 4.22666 2.96617 4.22877 2.96406 4.23088C2.96195 4.233 2.95983 4.23511 2.95772 4.23722C2.95561 4.23934 2.9535 4.24145 2.95138 4.24356C2.94927 4.24567 2.94716 4.24779 2.94504 4.2499C2.94293 4.25201 2.94082 4.25412 2.93871 4.25624C2.93659 4.25835 2.93448 4.26046 2.93237 4.26257C2.93026 4.26469 2.92814 4.2668 2.92603 4.26891C2.92392 4.27102 2.92181 4.27314 2.91969 4.27525C2.91758 4.27736 2.91547 4.27947 2.91336 4.28159C2.91124 4.2837 2.90913 4.28581 2.90702 4.28792C2.90491 4.29004 2.90279 4.29215 2.90068 4.29426C2.89857 4.29638 2.89646 4.29849 2.89434 4.3006C2.89223 4.30271 2.89012 4.30483 2.888 4.30694C2.88589 4.30905 2.88378 4.31116 2.88167 4.31328C2.87955 4.31539 2.87744 4.3175 2.87533 4.31961C2.87322 4.32173 2.8711 4.32384 2.86899 4.32595C2.86688 4.32806 2.86477 4.33018 2.86265 4.33229C2.86054 4.3344 2.85843 4.33651 2.85632 4.33863C2.92181 4.27102 2.91969 4.27314 2.91758 4.27525C2.91547 4.27736 2.91336 4.27947 2.91124 4.28159C2.90913 4.2837 2.90702 4.28581 2.90491 4.28792C2.90279 4.29004 2.90068 4.29215 2.89857 4.29426C2.89646 4.29638 2.89434 4.29849 2.89223 4.3006C2.89012 4.30271 2.888 4.30483 2.88589 4.30694C2.88378 4.30905 2.88167 4.31116 2.87955 4.31328C2.87744 4.31539 2.87533 4.3175 2.87322 4.31961C2.8711 4.32173 2.86899 4.32384 2.86688 4.32595C2.86477 4.32806 2.86265 4.33018 2.86054 4.33229C2.85843 4.3344 2.85632 4.33651 2.8542 4.33863C2.85209 4.34074 2.84998 4.34285 2.84787 4.34496C2.84575 4.34708 2.84364 4.34919 2.84153 4.3513C2.83942 4.35342 2.8373 4.35553 2.83519 4.35764C2.83308 4.35975 2.83096 4.36187 2.82885 4.36398C2.82674 4.36609 2.82463 4.3682 2.82251 4.37032C2.8204 4.37243 2.81829 4.37454 2.81618 4.37665C2.81406 4.37877 2.81195 4.38088 2.80984 4.38299C2.80773 4.3851 2.80561 4.38722 2.8035 4.38933C2.80139 4.39144 2.79928 4.39355 2.79716 4.39567C2.79505 4.39778 2.79294 4.39989 2.79083 4.40201C2.78871 4.40412 2.7866 4.40623 2.78449 4.40834C2.78238 4.41046 2.78026 4.41257 2.77815 4.41468C2.77604 4.41679 2.77392 4.41891 2.77181 4.42102C2.7697 4.42313 2.76759 4.42524 2.76547 4.42736C2.76336 4.42947 2.76125 4.43158 2.75914 4.43369C2.75702 4.43581 2.75491 4.43792 2.7528 4.44003C2.75069 4.44214 2.74857 4.44426 2.74646 4.44637C2.74435 4.44848 2.74224 4.45059 2.74012 4.45271C2.73801 4.45482 2.7359 4.45693 2.73379 4.45905C2.73167 4.46116 2.72956 4.46327 2.72745 4.46538C2.72534 4.4675 2.72322 4.46961 2.72111 4.47172C2.719 4.47383 2.71688 4.47595 2.71477 4.47806C2.71266 4.48017 2.71055 4.48228 2.70843 4.4844C2.70632 4.48651 2.70421 4.48862 2.7021 4.49073C2.69998 4.49285 2.69787 4.49496 2.69576 4.49707C2.71477 4.47806 2.71477 4.48017 2.71266 4.48228C2.71055 4.4844 2.70843 4.48651 2.70632 4.48651C2.70421 4.48862 2.7021 4.49073 2.69998 4.49285C2.69787 4.49496 2.69576 4.49707 2.69365 4.49918C2.69153 4.5013 2.68942 4.50341 2.68731 4.50552C2.6852 4.50763 2.68308 4.50975 2.68097 4.51186C2.67886 4.51397 2.67675 4.51609 2.67463 4.5182C2.67252 4.52031 2.67041 4.52242 2.6683 4.52454C2.66618 4.52665 2.66407 4.52876 2.66196 4.53087C2.65984 4.53299 2.65773 4.5351 2.65562 4.53721C2.65351 4.53932 2.65139 4.54144 2.64928 4.54355C2.64717 4.54566 2.64506 4.54777 2.64294 4.54989C2.64083 4.552 2.63872 4.55411 2.63661 4.55622C2.63449 4.55834 2.63238 4.56045 2.63027 4.56256C2.62816 4.56468 2.62604 4.56679 2.62393 4.5689C2.62182 4.57101 2.61971 4.57313 2.61759 4.57524C2.61548 4.57735 2.61337 4.57946 2.61126 4.58158C2.60914 4.58369 2.60703 4.5858 2.60492 4.58791C2.6028 4.59003 2.60069 4.59214 2.59858 4.59425C2.59647 4.59636 2.59435 4.59848 2.59224 4.60059C2.59013 4.6027 2.58802 4.60481 2.5859 4.60693C2.58379 4.60904 2.58168 4.61115 2.57957 4.61326C2.57745 4.61538 2.57534 4.61749 2.57323 4.6196C2.57112 4.62171 2.569 4.62383 2.56689 4.62594C2.56478 4.62805 2.56267 4.63017 2.56055 4.63228C2.55844 4.63439 2.55633 4.6365 2.55421 4.63862C2.5521 4.64073 2.54999 4.64284 2.54788 4.64495C2.54576 4.64707 2.54365 4.64918 2.54154 4.65129C2.53943 4.6534 2.53731 4.65552 2.5352 4.65763C2.53309 4.65974 2.53098 4.66185 2.52886 4.66397C2.52675 4.66608 2.52464 4.66819 2.52253 4.6703C2.52041 4.67242 2.5183 4.67453 2.51619 4.67664C2.51408 4.67875 2.51196 4.68087 2.50985 4.68298C2.50774 4.68509 2.50563 4.68721 2.50351 4.68932C2.5014 4.69143 2.49929 4.69354 2.49717 4.69566C2.49506 4.69777 2.49295 4.69988 2.49084 4.70199C2.48872 4.70411 2.48661 4.70622 2.4845 4.70833C2.50351 4.68932 2.5014 4.69143 2.49929 4.69354C1.51271 5.6421 0.919067 7.02373 0.919067 8.69268V17.8719C0.919067 21.6788 4.01613 25.5491 7.82514 26.4997L17.0044 28.7877C19.1486 29.3222 21.0669 28.8194 22.3344 27.5962C22.3365 27.5941 22.3387 27.5919 22.3408 27.5898C22.3429 27.5877 22.345 27.5856 22.3471 27.5835C22.3492 27.5814 22.3513 27.5793 22.3534 27.5772C22.3556 27.575 22.3577 27.5729 22.3598 27.5708C22.3619 27.5687 22.364 27.5666 22.3661 27.5645C22.3682 27.5624 22.3703 27.5603 22.3725 27.5581C22.3746 27.556 22.3767 27.5539 22.3788 27.5518C22.3809 27.5497 22.383 27.5476 22.3851 27.5455C22.3872 27.5434 22.3894 27.5412 22.3915 27.5391C22.3936 27.537 22.3957 27.5349 22.3978 27.5328C22.3999 27.5307 22.402 27.5286 22.4041 27.5265C22.4063 27.5243 22.4084 27.5222 22.4105 27.5201C22.4126 27.518 22.4147 27.5159 22.4168 27.5138C22.4189 27.5117 22.421 27.5096 22.4232 27.5074C22.4253 27.5053 22.4274 27.5032 22.4295 27.5011C22.4316 27.499 22.4337 27.4969 22.4358 27.4948C22.4379 27.4927 22.4401 27.4905 22.4422 27.4884C22.4443 27.4863 22.4464 27.4842 22.4485 27.4821C22.4506 27.48 22.4527 27.4779 22.4548 27.4758C22.457 27.4736 22.4591 27.4715 22.4612 27.4694C22.4633 27.4673 22.4654 27.4652 22.4675 27.4631C22.4696 27.461 22.4717 27.4589 22.4739 27.4567C22.476 27.4546 22.4781 27.4525 22.4802 27.4504C22.4823 27.4483 22.4844 27.4462 22.4865 27.4441C22.4886 27.442 22.4908 27.4398 22.4929 27.4377C22.495 27.4356 22.4971 27.4335 22.4992 27.4314C22.5013 27.4293 22.5034 27.4272 22.5056 27.4251C22.5077 27.4229 22.5098 27.4208 22.5119 27.4187C22.514 27.4166 22.5161 27.4145 22.5182 27.4124C22.5203 27.4103 22.5225 27.4082 22.5246 27.406C22.5267 27.4039 22.5288 27.4018 22.5309 27.3997C22.533 27.3976 22.5351 27.3955 22.5372 27.3934C22.5394 27.3913 22.5415 27.3891 22.5436 27.387C22.5457 27.3849 22.5478 27.3828 22.5499 27.3807C22.552 27.3786 22.5541 27.3765 22.5563 27.3744C22.5584 27.3722 22.5605 27.3701 22.5626 27.368C22.5647 27.3659 22.5668 27.3638 22.5689 27.3617C22.571 27.3596 22.5732 27.3575 22.5753 27.3553C22.5774 27.3532 22.5795 27.3511 22.5816 27.349C22.5837 27.3469 22.5858 27.3448 22.5879 27.3427C22.5901 27.3405 22.5922 27.3384 22.5943 27.3363C22.5964 27.3342 22.5985 27.3321 22.6006 27.33C22.6027 27.3279 22.6048 27.3258 22.607 27.3236C22.6091 27.3215 22.6112 27.3194 22.6133 27.3173C22.6154 27.3152 22.6175 27.3131 22.6196 27.311C22.6217 27.3089 22.6239 27.3067 22.626 27.3046C22.6281 27.3025 22.6302 27.3004 22.6323 27.2983C22.6344 27.2962 22.6365 27.2941 22.6386 27.292C22.6408 27.2898 22.6429 27.2877 22.645 27.2856C22.6471 27.2835 22.6492 27.2814 22.6513 27.2793C22.6534 27.2772 22.6555 27.2751 22.6577 27.2729C22.6598 27.2708 22.6619 27.2687 22.664 27.2666C22.6661 27.2645 22.6682 27.2624 22.6703 27.2603C22.6724 27.2582 22.6746 27.256 22.6767 27.2539C22.6788 27.2518 22.6809 27.2497 22.683 27.2476C22.6851 27.2455 22.6872 27.2434 22.6893 27.2413C22.6915 27.2391 22.6936 27.237 22.6957 27.2349C22.6978 27.2328 22.6999 27.2307 22.702 27.2286C22.7041 27.2265 22.7062 27.2244 22.7084 27.2222C22.7105 27.2201 22.7126 27.218 22.7147 27.2159C22.7168 27.2138 22.7189 27.2117 22.721 27.2096C22.7231 27.2075 22.7253 27.2053 22.7274 27.2032C22.7295 27.2011 22.7316 27.199 22.7337 27.1969C22.7358 27.1948 22.7379 27.1927 22.74 27.1906C22.7422 27.1884 22.7443 27.1863 22.7464 27.1842C22.7485 27.1821 22.7506 27.18 22.7527 27.1779C22.7548 27.1758 22.7569 27.1737 22.7591 27.1715C22.7612 27.1694 22.7633 27.1673 22.7654 27.1652C22.7675 27.1631 22.7696 27.161 22.7717 27.1589C22.7739 27.1568 22.776 27.1546 22.7781 27.1525C22.7802 27.1504 22.7823 27.1483 22.7844 27.1462C22.7865 27.1441 22.7886 27.142 22.7908 27.1399C22.7929 27.1377 22.795 27.1356 22.7971 27.1335C22.7992 27.1314 22.8013 27.1293 22.8034 27.1272C22.8055 27.1251 22.8077 27.123 22.8098 27.1208C22.8119 27.1187 22.814 27.1166 22.8161 27.1145C22.8182 27.1124 22.8203 27.1103 22.8224 27.1082C22.8246 27.1061 22.8267 27.1039 22.8288 27.1018C22.8309 27.0997 22.833 27.0976 22.8351 27.0955C22.8372 27.0934 22.8393 27.0913 22.8415 27.0892C22.8436 27.087 22.8457 27.0849 22.8478 27.0828C22.8499 27.0807 22.852 27.0786 22.8541 27.0765C22.8562 27.0744 22.8584 27.0723 22.8605 27.0701C22.8626 27.068 22.8647 27.0659 22.8668 27.0638C22.8689 27.0617 22.871 27.0596 22.8731 27.0575C22.8753 27.0553 22.8774 27.0532 22.8795 27.0511C22.8816 27.049 22.8837 27.0469 22.8858 27.0448C22.8879 27.0427 22.89 27.0406 22.8922 27.0384C22.8943 27.0363 22.8964 27.0342 22.8985 27.0321C22.9006 27.03 22.9027 27.0279 22.9048 27.0258C22.9069 27.0237 22.9091 27.0215 22.9112 27.0194C22.9133 27.0173 22.9154 27.0152 22.9175 27.0131C22.9196 27.011 22.9217 27.0089 22.9238 27.0068C22.926 27.0046 22.9281 27.0025 22.9302 27.0004C22.9323 26.9983 22.9344 26.9962 22.9365 26.9941C22.9386 26.992 22.9407 26.9899 22.9429 26.9877C22.945 26.9856 22.9471 26.9835 22.9492 26.9814C22.9513 26.9793 22.9534 26.9772 22.9555 26.9751C22.9576 26.973 22.9598 26.9708 22.9619 26.9687C22.964 26.9666 22.9661 26.9645 22.9682 26.9624C22.9703 26.9603 22.9724 26.9582 22.9745 26.9561C22.9767 26.9539 22.9788 26.9518 22.9809 26.9497C22.983 26.9476 22.9851 26.9455 22.9872 26.9434C22.9893 26.9413 22.9914 26.9392 22.9936 26.937C22.9957 26.9349 22.9978 26.9328 22.9999 26.9307C23.002 26.9286 23.0041 26.9265 23.0062 26.9244C23.0083 26.9223 23.0105 26.9201 23.0126 26.918C23.0147 26.9159 23.0168 26.9138 23.0189 26.9117C23.021 26.9096 23.0231 26.9075 23.0252 26.9054C23.0274 26.9032 23.0295 26.9011 23.0316 26.899C23.0337 26.8969 23.0358 26.8948 23.0379 26.8927C23.04 26.8906 23.0422 26.8885 23.0443 26.8863C23.0464 26.8842 23.0485 26.8821 23.0506 26.88C23.0527 26.8779 23.0548 26.8758 23.0569 26.8737C23.0591 26.8716 23.0612 26.8694 23.0633 26.8673C23.0654 26.8652 23.0675 26.8631 23.0696 26.861C23.0717 26.8589 23.0738 26.8568 23.076 26.8547C23.0781 26.8525 23.0802 26.8504 23.0823 26.8483C23.0844 26.8462 23.0865 26.8441 23.0886 26.842C23.0907 26.8399 23.0929 26.8378 23.095 26.8356C23.0971 26.8335 23.0992 26.8314 23.1013 26.8293C23.1034 26.8272 23.1055 26.8251 23.1076 26.823C23.1098 26.8209 23.1119 26.8187 23.114 26.8166C23.1161 26.8145 23.1182 26.8124 23.1203 26.8103C23.1224 26.8082 23.1245 26.8061 23.1267 26.804C23.1288 26.8018 23.1309 26.7997 23.133 26.7976C23.1351 26.7955 23.1372 26.7934 23.1393 26.7913C23.1414 26.7892 23.1436 26.7871 23.1457 26.7849C23.1478 26.7828 23.1499 26.7807 23.152 26.7786C23.1541 26.7765 23.1562 26.7744 23.1583 26.7723C23.1605 26.7701 23.1626 26.768 23.1647 26.7659C23.1668 26.7638 23.1689 26.7617 23.171 26.7596C23.1731 26.7575 23.1752 26.7554 23.1774 26.7532C23.1795 26.7511 23.1816 26.749 23.1837 26.7469C23.1858 26.7448 23.1879 26.7427 23.19 26.7406C23.1921 26.7385 23.1943 26.7363 23.1964 26.7342C23.1985 26.7321 23.2006 26.73 23.2027 26.7279C23.2048 26.7258 23.2069 26.7237 23.209 26.7216C23.2112 26.7194 23.2133 26.7173 23.2154 26.7152C23.2175 26.7131 23.2196 26.711 23.2217 26.7089C23.2238 26.7068 23.2259 26.7047 23.2281 26.7025C23.2302 26.7004 23.2323 26.6983 23.2344 26.6962C23.2365 26.6941 23.2386 26.692 23.2407 26.6899C23.2428 26.6878 23.245 26.6856 23.2471 26.6835C23.2492 26.6814 23.2513 26.6793 23.2534 26.6772C23.2555 26.6751 23.2576 26.673 23.2597 26.6709C23.2619 26.6687 23.264 26.6666 23.2661 26.6645C23.2682 26.6624 23.2703 26.6603 23.2724 26.6582C23.2745 26.6561 23.2766 26.654 23.2788 26.6518C23.2809 26.6497 23.283 26.6476 23.2851 26.6455C23.2872 26.6434 23.2893 26.6413 23.2914 26.6392C23.2935 26.6371 23.2957 26.6349 23.2978 26.6328C23.2999 26.6307 23.302 26.6286 23.3041 26.6265C23.3062 26.6244 23.3083 26.6223 23.3104 26.6202C23.3126 26.618 23.3147 26.6159 23.3168 26.6138C23.3189 26.6117 23.321 26.6096 23.3231 26.6075C23.3252 26.6054 23.3274 26.6033 23.3295 26.6011C23.3316 26.599 23.3337 26.5969 23.3358 26.5948C23.3379 26.5927 23.34 26.5906 23.3421 26.5885C23.3442 26.5864 23.3464 26.5842 23.3485 26.5821C23.3506 26.58 23.3527 26.5779 23.3548 26.5758C23.3569 26.5737 23.359 26.5716 23.3612 26.5695C23.3633 26.5673 23.3654 26.5652 23.3675 26.5631C23.3696 26.561 23.3717 26.5589 23.3738 26.5568C23.3759 26.5547 23.3781 26.5526 23.3802 26.5504C23.3823 26.5483 23.3844 26.5462 23.3865 26.5441C23.3886 26.542 23.3907 26.5399 23.3928 26.5378C23.395 26.5357 23.3971 26.5335 23.3992 26.5314C23.4013 26.5293 23.4034 26.5272 23.4055 26.5251C23.4076 26.523 23.4097 26.5209 23.4119 26.5188C23.414 26.5166 23.4161 26.5145 23.4182 26.5124C23.4203 26.5103 23.4224 26.5082 23.4245 26.5061C23.4266 26.504 23.4288 26.5019 23.4309 26.4997C23.433 26.4976 23.4351 26.4955 23.4372 26.4934C23.4393 26.4913 23.4414 26.4892 23.4435 26.4871C23.4457 26.4849 23.4478 26.4828 23.4499 26.4807C23.452 26.4786 23.4541 26.4765 23.4562 26.4744C23.4583 26.4723 23.4604 26.4702 23.4626 26.4681C23.4647 26.4659 23.4668 26.4638 23.4689 26.4617C23.471 26.4596 23.4731 26.4575 23.4752 26.4554C23.4773 26.4533 23.4795 26.4511 23.4816 26.449C23.4837 26.4469 23.4858 26.4448 23.4879 26.4427C23.49 26.4406 23.4921 26.4385 23.4942 26.4364C23.4964 26.4342 23.4985 26.4321 23.5006 26.43C23.5027 26.4279 23.5048 26.4258 23.5069 26.4237C23.509 26.4216 23.5111 26.4195 23.5133 26.4173C23.5154 26.4152 23.5175 26.4131 23.5196 26.411C23.5217 26.4089 23.5238 26.4068 23.5259 26.4047C23.528 26.4026 23.5302 26.4004 23.5323 26.3983C23.5344 26.3962 23.5365 26.3941 23.5386 26.392C23.5407 26.3899 23.5428 26.3878 23.5449 26.3857C23.5471 26.3835 23.5492 26.3814 23.5513 26.3793C23.5534 26.3772 23.5555 26.3751 23.5576 26.373C23.5597 26.3709 23.5618 26.3688 23.564 26.3666C23.5661 26.3645 23.5682 26.3624 23.5703 26.3603C23.5724 26.3582 23.5745 26.3561 23.5766 26.354C23.5787 26.3519 23.5809 26.3497 23.583 26.3476C23.5851 26.3455 23.5872 26.3434 23.5893 26.3413C23.5914 26.3392 23.5935 26.3371 23.5956 26.335C23.5978 26.3328 23.5999 26.3307 23.602 26.3286C23.6041 26.3265 23.6062 26.3244 23.6083 26.3223C23.6104 26.3202 23.6126 26.3181 23.6147 26.3159C23.6168 26.3138 23.6189 26.3117 23.621 26.3096C23.6231 26.3075 23.6252 26.3054 23.6273 26.3033C23.6294 26.3012 23.6316 26.299 23.6337 26.2969C23.6358 26.2948 23.6379 26.2927 23.64 26.2906C23.6421 26.2885 23.6442 26.2864 23.6464 26.2843C23.6485 26.2821 23.6506 26.28 23.6527 26.2779C23.6548 26.2758 23.6569 26.2737 23.659 26.2716C23.6611 26.2695 23.6633 26.2674 23.6654 26.2652C23.6675 26.2631 23.6696 26.261 23.6717 26.2589C23.6738 26.2568 23.6759 26.2547 23.678 26.2526C23.6802 26.2505 23.6823 26.2483 23.6844 26.2462C23.6865 26.2441 23.6886 26.242 23.6907 26.2399C23.6928 26.2378 23.6949 26.2357 23.6971 26.2336C23.6992 26.2314 23.7013 26.2293 23.7034 26.2272C23.7055 26.2251 23.7076 26.223 23.7097 26.2209C23.7118 26.2188 23.714 26.2167 23.7161 26.2145C23.7182 26.2124 23.7203 26.2103 23.7224 26.2082C23.7245 26.2061 23.7266 26.204 23.7287 26.2019C23.7309 26.1997 23.733 26.1976 23.7351 26.1955C23.7372 26.1934 23.7393 26.1913 23.7414 26.1892C23.7435 26.1871 23.7456 26.185 23.7478 26.1828C23.7499 26.1807 23.752 26.1786 23.7541 26.1765C23.7562 26.1744 23.7583 26.1723 23.7604 26.1702C23.7625 26.1681 23.7647 26.1659 23.7668 26.1638C23.7689 26.1617 23.771 26.1596 23.7731 26.1575C23.7752 26.1554 23.7773 26.1533 23.7794 26.1512C23.7816 26.149 23.7837 26.1469 23.7858 26.1448C23.7879 26.1427 23.79 26.1406 23.7921 26.1385C23.7942 26.1364 23.7963 26.1343 23.7985 26.1321C23.8006 26.13 23.8027 26.1279 23.8048 26.1258C23.8069 26.1237 23.809 26.1216 23.8111 26.1195C23.8132 26.1174 23.8154 26.1152 23.8175 26.1131C23.8196 26.111 23.8217 26.1089 23.8238 26.1068C23.8259 26.1047 23.828 26.1026 23.8301 26.1005C23.8323 26.0983 23.8344 26.0962 23.8365 26.0941C23.8386 26.092 23.8407 26.0899 23.8428 26.0878C23.8449 26.0857 23.847 26.0836 23.8492 26.0814C23.8513 26.0793 23.8534 26.0772 23.8555 26.0751C23.8576 26.073 23.8597 26.0709 23.8618 26.0688C23.8639 26.0667 23.8661 26.0645 23.8682 26.0624C23.8703 26.0603 23.8724 26.0582 23.8745 26.0561C23.8766 26.054 23.8787 26.0519 23.8808 26.0498C23.883 26.0476 23.8851 26.0455 23.8872 26.0434C23.8893 26.0413 23.8914 26.0392 23.8935 26.0371C23.8956 26.035 23.8977 26.0329 23.8999 26.0307C23.902 26.0286 23.9041 26.0265 23.9062 26.0244C23.9083 26.0223 23.9104 26.0202 23.9125 26.0181C23.9146 26.016 23.9168 26.0138 23.9189 26.0117C23.921 26.0096 23.9231 26.0075 23.9252 26.0054C23.9273 26.0033 23.9294 26.0012 23.9316 25.9991C23.9337 25.9969 23.9358 25.9948 23.9379 25.9927C23.94 25.9906 23.9421 25.9885 23.9442 25.9864C23.9463 25.9843 23.9485 25.9822 23.9506 25.98C23.9527 25.9779 23.9548 25.9758 23.9569 25.9737C23.959 25.9716 23.9611 25.9695 23.9632 25.9674C23.9654 25.9653 23.9675 25.9631 23.9696 25.961C23.9717 25.9589 23.9738 25.9568 23.9759 25.9547C23.978 25.9526 23.9801 25.9505 23.9823 25.9483C23.9844 25.9462 23.9865 25.9441 23.9886 25.942C23.9907 25.9399 23.9928 25.9378 23.9949 25.9357C23.997 25.9336 23.9992 25.9314 24.0013 25.9293C24.0034 25.9272 24.0055 25.9251 24.0076 25.923C24.0097 25.9209 24.0118 25.9188 24.0139 25.9167C24.0161 25.9145 24.0182 25.9124 24.0203 25.9103C24.0224 25.9082 24.0245 25.9061 24.0266 25.904C24.0287 25.9019 24.0308 25.8998 24.033 25.8976C24.0351 25.8955 24.0372 25.8934 24.0393 25.8913C24.0414 25.8892 24.0435 25.8871 24.0456 25.885C24.0477 25.8829 24.0499 25.8807 24.052 25.8786C24.0541 25.8765 24.0562 25.8744 24.0583 25.8723C24.0604 25.8702 24.0625 25.8681 24.0646 25.866C24.0668 25.8638 24.0689 25.8617 24.071 25.8596C24.0731 25.8575 24.0752 25.8554 24.0773 25.8533C24.0794 25.8512 24.0815 25.8491 24.0837 25.8469C24.0858 25.8448 24.0879 25.8427 24.09 25.8406C24.0921 25.8385 24.0942 25.8364 24.0963 25.8343C24.0984 25.8322 24.1006 25.83 24.1027 25.8279C24.1048 25.8258 24.1069 25.8237 24.109 25.8216C24.1111 25.8195 24.1132 25.8174 24.1153 25.8153C24.1175 25.8131 24.1196 25.811 24.1217 25.8089C24.1238 25.8068 24.1259 25.8047 24.128 25.8026C24.1301 25.8005 24.1322 25.7984 24.1344 25.7962C24.1365 25.7941 24.1386 25.792 24.1407 25.7899C24.1428 25.7878 24.1449 25.7857 24.147 25.7836C24.1491 25.7815 24.1513 25.7793 24.1534 25.7772C24.1555 25.7751 24.1576 25.773 24.1597 25.7709C24.1618 25.7688 24.1639 25.7667 24.166 25.7646C24.1682 25.7624 24.1703 25.7603 24.1724 25.7582C24.1745 25.7561 24.1766 25.754 24.1787 25.7519C24.1808 25.7498 24.1829 25.7477 24.1851 25.7455C24.1872 25.7434 24.1893 25.7413 24.1914 25.7392C24.1935 25.7371 24.1956 25.735 24.1977 25.7329C24.1999 25.7308 24.202 25.7286 24.2041 25.7265C24.2062 25.7244 24.2083 25.7223 24.2104 25.7202C24.2125 25.7181 24.2146 25.716 24.2168 25.7139C24.2189 25.7117 24.221 25.7096 24.2231 25.7075C24.2252 25.7054 24.2273 25.7033 24.2294 25.7012C24.2315 25.6991 24.2337 25.697 24.2358 25.6948C24.2379 25.6927 24.24 25.6906 24.2421 25.6885C24.2442 25.6864 24.2463 25.6843 24.2484 25.6822C24.2506 25.6801 24.2527 25.6779 24.2548 25.6758C24.2569 25.6737 24.259 25.6716 24.2611 25.6695C24.2632 25.6674 24.2653 25.6653 24.2675 25.6631C24.2696 25.661 24.2717 25.6589 24.2738 25.6568C24.2759 25.6547 24.278 25.6526 24.2801 25.6505C24.2822 25.6484 24.2844 25.6462 24.2865 25.6441C24.2886 25.642 24.2907 25.6399 24.2928 25.6378C24.2949 25.6357 24.297 25.6336 24.2991 25.6315C24.3013 25.6293 24.3034 25.6272 24.3055 25.6251C24.3076 25.623 24.3097 25.6209 24.3118 25.6188C24.3139 25.6167 24.316 25.6146 24.3182 25.6124C24.3203 25.6103 24.3224 25.6082 24.3245 25.6061C24.3266 25.604 24.3287 25.6019 24.3308 25.5998C24.3329 25.5977 24.3351 25.5955 24.3372 25.5934C24.3393 25.5913 24.3414 25.5892 24.3435 25.5871C24.3456 25.585 24.3477 25.5829 24.3498 25.5808C24.352 25.5786 24.3541 25.5765 24.3562 25.5744C24.3583 25.5723 24.3604 25.5702 24.3625 25.5681C24.3646 25.566 24.3667 25.5639 24.3689 25.5617C24.371 25.5596 24.3731 25.5575 24.3752 25.5554C24.3773 25.5533 24.3794 25.5512 24.3815 25.5491C24.3836 25.547 24.3858 25.5448 24.3879 25.5427C24.39 25.5406 24.3921 25.5385 24.3942 25.5364C24.3963 25.5343 24.3984 25.5322 24.4005 25.5301C24.4027 25.5279 24.4048 25.5258 24.4069 25.5237C24.409 25.5216 24.4111 25.5195 24.4132 25.5174C24.4153 25.5153 24.4174 25.5132 24.4196 25.511C24.4217 25.5089 24.4238 25.5068 24.4259 25.5047C24.428 25.5026 24.4301 25.5005 24.4322 25.4984C24.4343 25.4963 24.4365 25.4941 24.4386 25.492C24.4407 25.4899 24.4428 25.4878 24.4449 25.4857C24.447 25.4836 24.4491 25.4815 24.4513 25.4794C24.4534 25.4772 24.4555 25.4751 24.4576 25.473C24.4597 25.4709 24.4618 25.4688 24.4639 25.4667C24.466 25.4646 24.4682 25.4625 24.4703 25.4603C24.4724 25.4582 24.4745 25.4561 24.4766 25.454C24.4787 25.4519 24.4808 25.4498 24.4829 25.4477C24.4851 25.4456 24.4872 25.4434 24.4893 25.4413C24.4914 25.4392 24.4935 25.4371 24.4956 25.435C24.4977 25.4329 24.4998 25.4308 24.502 25.4287C24.5041 25.4265 24.5062 25.4244 24.5083 25.4223C24.5104 25.4202 24.5125 25.4181 24.5146 25.416C24.5167 25.4139 24.5189 25.4118 24.521 25.4096C24.5231 25.4075 24.5252 25.4054 24.5273 25.4033C24.5294 25.4012 24.5315 25.3991 24.5336 25.397C24.5358 25.3949 24.5379 25.3927 24.54 25.3906C24.5421 25.3885 24.5442 25.3864 24.5463 25.3843C24.5484 25.3822 24.5505 25.3801 24.5527 25.378C24.5548 25.3758 24.5569 25.3737 24.559 25.3716C24.5611 25.3695 24.5632 25.3674 24.5653 25.3653C24.5674 25.3632 24.5696 25.361 24.5717 25.3589C24.5738 25.3568 24.5759 25.3547 24.578 25.3526C24.5801 25.3505 24.5822 25.3484 24.5843 25.3463C24.5865 25.3441 24.5886 25.342 24.5907 25.3399C24.5928 25.3378 24.5949 25.3357 24.597 25.3336C24.5991 25.3315 24.6012 25.3294 24.6034 25.3272C24.6055 25.3251 24.6076 25.323 24.6097 25.3209C24.6118 25.3188 24.6139 25.3167 24.616 25.3146C24.6181 25.3125 24.6203 25.3103 24.6224 25.3082C24.6245 25.3061 24.6266 25.304 24.6287 25.3019C24.6308 25.2998 24.6329 25.2977 24.635 25.2956C24.6372 25.2934 24.6393 25.2913 24.6414 25.2892C24.6435 25.2871 24.6456 25.285 24.6477 25.2829C24.6498 25.2808 24.6519 25.2787 24.6541 25.2765C24.6562 25.2744 24.6583 25.2723 24.6604 25.2702C24.6625 25.2681 24.6646 25.266 24.6667 25.2639C24.6688 25.2618 24.671 25.2596 24.6731 25.2575C24.6752 25.2554 24.6773 25.2533 24.6794 25.2512C24.6815 25.2491 24.6836 25.247 24.6857 25.2449C24.6879 25.2427 24.69 25.2406 24.6921 25.2385C24.6942 25.2364 24.6963 25.2343 24.6984 25.2322C24.7005 25.2301 24.7026 25.228 24.7048 25.2258C24.7069 25.2237 24.709 25.2216 24.7111 25.2195C24.7132 25.2174 24.7153 25.2153 24.7174 25.2132C24.7195 25.2111 24.7217 25.2089 24.7238 25.2068C24.7259 25.2047 24.728 25.2026 24.7301 25.2005C24.7322 25.1984 24.7343 25.1963 24.7365 25.1942C24.7386 25.192 24.7407 25.1899 24.7428 25.1878C24.7449 25.1857 24.747 25.1836 24.7491 25.1815C24.7512 25.1794 24.7534 25.1773 24.7555 25.1751C24.7576 25.173 24.7597 25.1709 24.7618 25.1688C24.7639 25.1667 24.766 25.1646 24.7681 25.1625C24.7703 25.1604 24.7724 25.1582 24.7745 25.1561C24.7766 25.154 24.7787 25.1519 24.7808 25.1498C24.7829 25.1477 24.785 25.1456 24.7872 25.1435C24.7893 25.1413 24.7914 25.1392 24.7935 25.1371C24.7956 25.135 24.7977 25.1329 24.7998 25.1308C24.8019 25.1287 24.8041 25.1266 24.8062 25.1244C24.8083 25.1223 24.8104 25.1202 24.8125 25.1181C24.8146 25.116 24.8167 25.1139 24.8188 25.1118C24.821 25.1096 24.8231 25.1075 24.8252 25.1054C24.8273 25.1033 24.8294 25.1012 24.8315 25.0991C24.8336 25.097 24.8357 25.0949 24.8379 25.0928C24.84 25.0906 24.8421 25.0885 24.8442 25.0864C24.8463 25.0843 24.8484 25.0822 24.8505 25.0801C24.8526 25.078 24.8548 25.0758 24.8569 25.0737C24.859 25.0716 24.8611 25.0695 24.8632 25.0674C24.8653 25.0653 24.8674 25.0632 24.8695 25.0611C25.8561 24.1125 26.4498 22.7309 26.4498 21.0619V12.1299C26.2047 8.32087 23.1076 4.45059 19.2986 3.50204Z" fill="black" stroke="white" stroke-miterlimit="10" stroke-linecap="round" stroke-linejoin="round"/>
    <path d="M17.0044 28.7877L7.82514 26.4998C4.01613 25.5491 0.919067 21.6788 0.919067 17.8719V8.6927C0.919067 4.88369 4.01613 2.55984 7.82514 3.50839L17.0044 5.79633C20.8113 6.74489 23.9104 10.6152 23.9104 14.4242V23.6034C23.9104 27.4124 20.8113 29.7362 17.0044 28.7877Z" fill="black" stroke="white" stroke-miterlimit="10" stroke-linecap="round" stroke-linejoin="round"/>
    <path d="M7.82517 5.67157C5.20978 5.01878 3.0824 6.6159 3.0824 9.23129V18.4105C3.0824 21.0259 5.20978 23.6835 7.82517 24.3363L17.0044 26.6243C19.6198 27.2771 21.7472 25.6799 21.7472 23.0646V13.8853C21.7472 11.2699 19.6198 8.6123 17.0044 7.95951L7.82517 5.67157Z" fill="black"/>
    <path d="M18.502 10.275C17.7584 10.0891 17.1542 10.5433 17.1542 11.287C17.1542 12.0306 17.7584 12.7848 18.502 12.9707C19.2456 13.1566 19.8498 12.7024 19.8498 11.9588C19.8498 11.2151 19.2456 10.4609 18.502 10.275Z" fill="white"/>
    <path d="M12.5088 10.5095C9.38638 9.73208 6.84705 11.6376 6.84705 14.7601C6.84705 17.8825 9.38638 21.0556 12.5088 21.833C15.6312 22.6105 18.1706 20.7049 18.1706 17.5825C18.1706 14.4601 15.6312 11.287 12.5088 10.5095ZM12.5088 19.7986C10.5082 19.3 8.88147 17.2677 8.88147 15.2671C8.88147 13.2665 10.5082 12.0454 12.5088 12.5439C14.5094 13.0425 16.1361 15.0748 16.1361 17.0755C16.1361 19.0761 14.5094 20.2972 12.5088 19.7986Z" fill="white"/>
    </svg>
    