<?xml version="1.0" encoding="utf-8"?>
<!-- Generator: Adobe Illustrator 23.0.0, SVG Export Plug-In . SVG Version: 6.00 Build 0)  -->
<svg version="1.1" id="Layer_1" xmlns="http://www.w3.org/2000/svg" xmlns:xlink="http://www.w3.org/1999/xlink" x="0px" y="0px"
	 viewBox="0 0 1075.9 408.9" style="enable-background:new 0 0 1075.9 408.9;" xml:space="preserve">
<style type="text/css">
	.st0{fill:none;stroke:#0F0F0F;stroke-width:20;stroke-miterlimit:10;}
	.st1{fill:#0F0F0F;}
</style>
<title>logoArtboard 1</title>
<circle class="st0" cx="204.4" cy="204.4" r="194.4"/>
<path class="st0" d="M295.6,115.3h-73.2c-49,0-89.1,40.1-89.1,89.1l0,0c0,49,40.1,89.1,89.1,89.1h73.2"/>
<circle class="st1" cx="223.7" cy="204.4" r="14.8"/>
<circle class="st1" cx="280.8" cy="204.4" r="14.8"/>
<g>
	<path d="M517.5,220.1h16.1c-2.8,6.8-7.8,12.5-14.1,16.2c-6.2,3.9-13.3,6-20.7,6c-10.4,0.2-20.4-4-27.5-11.6
		c-7.5-7.3-11.6-17.4-11.5-27.8c-0.1-10.3,4-20.2,11.4-27.4c7.6-7.6,16.6-11.5,27.1-11.5c7.6,0,15,2.1,21.4,6.2
		c6.4,3.9,11.4,9.7,14.2,16.6h-15.8c-2.3-2.9-5.3-5.2-8.7-6.8c-3.4-1.6-7.2-2.5-11-2.5c-6.6-0.1-13,2.7-17.5,7.6
		c-4.7,4.9-7.4,11.4-7.2,18.2c0,6.7,2.6,13.1,7.3,17.8c5,5.1,10.7,7.6,17.4,7.6c3.5,0,7-0.8,10.1-2.3
		C512,225.1,515,222.9,517.5,220.1z"/>
	<path d="M578,164.1c21.6,0.1,39.1,17.6,39.1,39.3l0,0c0,21.5-17.5,39-39,39l0,0c-10.4,0.1-20.3-4-27.6-11.4
		c-7.5-7.2-11.7-17.2-11.5-27.6C538.9,181.6,556.4,164.1,578,164.1L578,164.1z M578,177.6c-6.7-0.1-13.1,2.6-17.8,7.4
		c-4.8,4.7-7.4,11.2-7.3,18c-0.1,6.8,2.6,13.3,7.4,18.1c4.5,4.9,11,7.7,17.7,7.6c6.7,0,13.1-2.7,17.7-7.6c9.9-10,9.9-26.1,0.1-36.2
		C591.2,180.1,584.7,177.4,578,177.6z"/>
	<path d="M663.3,164.1c21.6,0.1,39.1,17.6,39.1,39.3l0,0c0,21.5-17.5,39-39,39l0,0c-10.4,0.1-20.3-4-27.6-11.4
		c-7.5-7.2-11.7-17.2-11.5-27.6c-0.2-10.5,4-20.5,11.5-27.8C642.9,168.1,652.9,163.9,663.3,164.1z M663.3,177.6
		c-6.7-0.1-13.1,2.6-17.8,7.4c-4.8,4.7-7.4,11.2-7.3,18c-0.1,6.8,2.6,13.3,7.4,18.1c4.5,4.9,11,7.7,17.7,7.6
		c6.7,0,13.1-2.7,17.7-7.6c9.9-10,9.9-26.1,0.1-36.2C676.5,180.1,670,177.4,663.3,177.6z"/>
	<path d="M713.3,240.6v-74.9h14v61.5h22.9v13.4L713.3,240.6L713.3,240.6z"/>
</g>
<polygon points="917.1,208.4 932.8,208.4 925,186.4 "/>
<path d="M784.7,153.4v102.2h291.2V153.4H784.7z M882.7,240.4h-13.4v-54.6l-18.8,54.6H839l-18.8-54.6v54.6h-13.5v-72.8h18.4
	l19.5,55.6l19.7-55.6h18.4L882.7,240.4L882.7,240.4z M946,240.4l-7.9-18.8h-25.7l-8.1,18.8h-14.9l30.3-72.8h10.5l30.6,72.8H946z
	 M1002.6,180.6H989v59.6h-13.4v-59.6h-13.4v-13.1h40.5L1002.6,180.6L1002.6,180.6z M1048.6,180.6h-25.5v16.7h24.5v13.1h-24.5v16.8
	h25.5v13.1h-39.1v-72.8h39.1V180.6z"/>
</svg>
