
<svg width="20" height="23" viewBox="0 0 20 23" fill="none" xmlns="http://www.w3.org/2000/svg">
    <path d="M18.4919 17.8795L17.4795 9.97313C17.3292 8.79164 16.3544 7.69472 15.2011 7.40815L5.77738 5.05927C5.05627 4.87841 4.40328 5.05222 3.98048 5.47737C3.97814 5.47972 3.97814 5.47972 3.97579 5.48207C3.97344 5.48442 3.97344 5.48442 3.97109 5.48677C3.96874 5.48911 3.96874 5.48911 3.96639 5.49146C3.96404 5.49381 3.96404 5.49381 3.96169 5.49616C3.95934 5.49851 3.95934 5.49851 3.957 5.50086C3.95465 5.50321 3.95465 5.50321 3.9523 5.50556C3.94995 5.50791 3.94995 5.50791 3.9476 5.51025C3.94525 5.5126 3.94525 5.5126 3.9429 5.51495C3.94055 5.5173 3.94055 5.5173 3.9382 5.51965C3.93586 5.522 3.93586 5.522 3.93351 5.52435C3.93116 5.5267 3.93116 5.5267 3.92881 5.52905C3.92646 5.53139 3.92646 5.53139 3.92411 5.53374C3.92646 5.5267 3.92411 5.52905 3.92411 5.52905C3.92176 5.53139 3.92176 5.53139 3.91941 5.53374C3.91706 5.53609 3.91706 5.53609 3.91472 5.53844C3.91237 5.54079 3.91237 5.54079 3.91002 5.54314C3.90767 5.54549 3.90767 5.54549 3.90532 5.54784C3.90297 5.55019 3.90297 5.55019 3.90062 5.55253C3.89827 5.55488 3.89827 5.55488 3.89592 5.55723C3.89358 5.55958 3.89358 5.55958 3.89123 5.56193C3.88888 5.56428 3.88888 5.56428 3.88653 5.56663C3.88418 5.56898 3.88418 5.56898 3.88183 5.57133C3.87948 5.57367 3.87948 5.57367 3.87713 5.57602C3.87478 5.57837 3.87478 5.57837 3.87244 5.58072C3.87009 5.58307 3.87009 5.58307 3.86774 5.58542C3.86539 5.58777 3.86539 5.58777 3.86304 5.59012C3.86069 5.59247 3.86069 5.59247 3.85834 5.59481C3.85599 5.59716 3.85599 5.59716 3.85364 5.59951C3.8513 5.60186 3.8513 5.60186 3.84895 5.60421C3.8466 5.60656 3.8466 5.60656 3.84425 5.60891C3.8419 5.61126 3.8419 5.61126 3.83955 5.61361C3.8372 5.61595 3.8372 5.61595 3.83485 5.6183C3.83251 5.62065 3.83251 5.62065 3.83016 5.623C3.82781 5.62535 3.82781 5.62535 3.82546 5.6277C3.82311 5.63005 3.82311 5.63005 3.82076 5.6324C3.81841 5.63475 3.81841 5.63475 3.81606 5.63709C3.81371 5.63944 3.81371 5.63944 3.81137 5.64179C3.80902 5.64414 3.80902 5.64414 3.80667 5.64649C3.80432 5.64884 3.80432 5.64884 3.80197 5.65119C3.79962 5.65354 3.79962 5.65354 3.79727 5.65589C3.79492 5.65823 3.79492 5.65823 3.79257 5.66058C3.79023 5.66293 3.79023 5.66293 3.78788 5.66528C3.78553 5.66763 3.78553 5.66763 3.78318 5.66998C3.78083 5.67233 3.78083 5.67233 3.77848 5.67468C3.77613 5.67703 3.77613 5.67703 3.77378 5.67937C3.77143 5.68172 3.77143 5.68172 3.76909 5.68407C3.76674 5.68642 3.76674 5.68642 3.76439 5.68877C3.76204 5.69112 3.76204 5.69112 3.75969 5.69347C3.75734 5.69582 3.75734 5.69582 3.75499 5.69817C3.75264 5.70051 3.75264 5.70051 3.75029 5.70286C3.74795 5.70521 3.74795 5.70521 3.7456 5.70756C3.74325 5.70991 3.74325 5.70991 3.7409 5.71226C3.73855 5.71461 3.73855 5.71461 3.7362 5.71696C3.73385 5.7193 3.73385 5.71931 3.7315 5.72165C3.72915 5.724 3.72915 5.724 3.72681 5.72635C3.72446 5.7287 3.72446 5.7287 3.72211 5.73105C3.71976 5.7334 3.71976 5.7334 3.71741 5.73575C3.71506 5.7381 3.71506 5.7381 3.71271 5.74045C3.71036 5.74279 3.71036 5.74279 3.70801 5.74514C3.70567 5.74749 3.70567 5.74749 3.70332 5.74984C3.70097 5.75219 3.70097 5.75219 3.69862 5.75454C3.69627 5.75689 3.69627 5.75689 3.69392 5.75924C3.69157 5.76158 3.69157 5.76159 3.68922 5.76393C3.68687 5.76628 3.68687 5.76628 3.68453 5.76863C3.68218 5.77098 3.68218 5.77098 3.67983 5.77333C3.67748 5.77568 3.67748 5.77568 3.67513 5.77803C3.67278 5.78038 3.67278 5.78038 3.67043 5.78272C3.69157 5.76159 3.68922 5.76393 3.68922 5.76393C3.68687 5.76628 3.68687 5.76628 3.68453 5.76863C3.68218 5.77098 3.68218 5.77098 3.67983 5.77333C3.67748 5.77568 3.67748 5.77568 3.67513 5.77803C3.67278 5.78038 3.67278 5.78038 3.67043 5.78272C3.66808 5.78507 3.66808 5.78507 3.66573 5.78742C3.66339 5.78977 3.66339 5.78977 3.66104 5.79212C3.65869 5.79447 3.65869 5.79447 3.65634 5.79682C3.65399 5.79917 3.65399 5.79917 3.65164 5.80152C3.64929 5.80386 3.64929 5.80386 3.64694 5.80621C3.64459 5.80856 3.64459 5.80856 3.64225 5.81091C3.6399 5.81326 3.6399 5.81326 3.63755 5.81561C3.6352 5.81796 3.6352 5.81796 3.63285 5.82031C3.6305 5.82266 3.6305 5.82266 3.62815 5.825C3.6258 5.82735 3.6258 5.82735 3.62345 5.8297C3.62111 5.83205 3.62111 5.83205 3.61876 5.8344C3.61641 5.83675 3.61641 5.83675 3.61406 5.8391C3.61171 5.84145 3.61171 5.84145 3.60936 5.8438C3.60701 5.84614 3.60701 5.84614 3.60466 5.84849C3.60231 5.85084 3.60231 5.85084 3.59997 5.85319C3.59762 5.85554 3.59762 5.85554 3.59527 5.85789C3.59292 5.86024 3.59292 5.86024 3.59057 5.86259C3.58822 5.86494 3.58822 5.86494 3.58587 5.86728C3.58352 5.86963 3.58352 5.86963 3.58117 5.87198C3.57883 5.87433 3.57883 5.87433 3.57648 5.87668C3.57413 5.87903 3.57413 5.87903 3.57178 5.88138C3.56943 5.88373 3.56943 5.88373 3.56708 5.88608C3.56473 5.88842 3.56473 5.88842 3.56238 5.89077C3.56003 5.89312 3.56003 5.89312 3.55769 5.89547C3.55534 5.89782 3.55534 5.89782 3.55299 5.90017C3.55064 5.90252 3.55064 5.90252 3.54829 5.90487C3.54594 5.90722 3.54594 5.90722 3.54359 5.90956C3.54124 5.91191 3.54124 5.91191 3.53889 5.91426C3.53655 5.91661 3.53655 5.91661 3.5342 5.91896C3.53185 5.92131 3.53185 5.92131 3.5295 5.92366C3.52715 5.92601 3.52715 5.92601 3.5248 5.92836C3.52245 5.9307 3.52245 5.9307 3.5201 5.93305C3.51775 5.9354 3.51775 5.9354 3.51541 5.93775C3.51306 5.9401 3.51306 5.9401 3.51071 5.94245C3.50836 5.9448 3.50836 5.9448 3.50601 5.94715C3.50366 5.9495 3.50366 5.9495 3.50131 5.95184C3.49896 5.95419 3.49896 5.95419 3.49661 5.95654C3.49427 5.95889 3.49427 5.95889 3.49192 5.96124C3.48957 5.96359 3.48957 5.96359 3.48722 5.96594C3.48487 5.96829 3.48487 5.96829 3.48252 5.97064C3.48017 5.97298 3.48017 5.97298 3.47782 5.97533C3.47547 5.97768 3.47547 5.97768 3.47313 5.98003C3.47078 5.98238 3.47078 5.98238 3.46843 5.98473C3.46608 5.98708 3.46608 5.98708 3.46373 5.98943C3.46138 5.99178 3.46138 5.99178 3.45903 5.99412C3.45668 5.99647 3.45668 5.99647 3.45433 5.99882C3.45199 6.00117 3.45199 6.00117 3.44964 6.00352C3.44729 6.00587 3.44729 6.00587 3.44494 6.00822C3.44259 6.01057 3.44259 6.01057 3.44024 6.01292C3.43789 6.01526 3.43789 6.01526 3.43554 6.01761C3.43319 6.01996 3.43319 6.01996 3.43085 6.02231C3.4285 6.02466 3.4285 6.02466 3.42615 6.02701C3.4238 6.02936 3.4238 6.02936 3.42145 6.03171C3.4191 6.03406 3.4191 6.03406 3.41675 6.0364C3.4144 6.03875 3.4144 6.03875 3.41205 6.0411C3.40971 6.04345 3.40971 6.04345 3.40736 6.0458C3.40501 6.04815 3.40501 6.04815 3.40266 6.0505C3.40031 6.05285 3.40031 6.05285 3.39796 6.0552C3.39561 6.05754 3.39561 6.05754 3.39326 6.05989C3.39091 6.06224 3.39092 6.06224 3.38857 6.06459C3.38622 6.06694 3.38622 6.06694 3.38387 6.06929C3.38152 6.07164 3.38152 6.07164 3.37917 6.07399C3.37682 6.07634 3.37682 6.07634 3.37447 6.07868C3.37212 6.08103 3.37212 6.08103 3.36978 6.08338C3.36743 6.08573 3.36743 6.08573 3.36508 6.08808C3.36273 6.09043 3.36273 6.09043 3.36038 6.09278C3.35803 6.09513 3.35803 6.09513 3.35568 6.09748C3.35333 6.09982 3.35333 6.09982 3.35098 6.10217C3.34864 6.10452 3.34864 6.10452 3.34629 6.10687C3.34394 6.10922 3.34394 6.10922 3.34159 6.11157C3.33924 6.11392 3.33924 6.11392 3.33689 6.11627C3.33454 6.11862 3.33454 6.11861 3.33219 6.12096C3.32984 6.12331 3.32984 6.12331 3.3275 6.12566C3.32515 6.12801 3.32515 6.12801 3.3228 6.13036C3.32045 6.13271 3.32045 6.13271 3.3181 6.13506C3.31575 6.13741 3.31575 6.13741 3.3134 6.13975C3.34629 6.10687 3.34394 6.10922 3.34394 6.10922C3.34159 6.11157 3.34159 6.11157 3.33924 6.11392C3.33689 6.11627 3.33689 6.11627 3.33454 6.11862C3.33219 6.12096 3.33219 6.12096 3.32984 6.12331C3.3275 6.12566 3.3275 6.12566 3.32515 6.12801C3.3228 6.13036 3.3228 6.13036 3.32045 6.13271C3.3181 6.13506 3.3181 6.13506 3.31575 6.13741C3.3134 6.13976 3.3134 6.13975 3.31105 6.1421C3.3087 6.14445 3.3087 6.14445 3.30636 6.1468C3.30401 6.14915 3.30401 6.14915 3.30166 6.1515C3.29931 6.15385 3.29931 6.15385 3.29696 6.1562C3.29461 6.15855 3.29461 6.15855 3.29226 6.16089C3.28991 6.16324 3.28991 6.16324 3.28756 6.16559C3.28522 6.16794 3.28522 6.16794 3.28287 6.17029C3.28052 6.17264 3.28052 6.17264 3.27817 6.17499C3.27582 6.17734 3.27582 6.17734 3.27347 6.17969C3.27112 6.18203 3.27112 6.18203 3.26877 6.18438C3.26642 6.18673 3.26642 6.18673 3.26408 6.18908C3.26173 6.19143 3.26173 6.19143 3.25938 6.19378C3.25703 6.19613 3.25703 6.19613 3.25468 6.19848C3.25233 6.20083 3.25233 6.20083 3.24998 6.20317C3.24763 6.20552 3.24763 6.20552 3.24528 6.20787C3.24294 6.21022 3.24294 6.21022 3.24059 6.21257C3.23824 6.21492 3.23824 6.21492 3.23589 6.21727C3.23354 6.21962 3.23354 6.21962 3.23119 6.22197C3.22884 6.22431 3.22884 6.22431 3.22649 6.22666C3.22414 6.22901 3.22414 6.22901 3.2218 6.23136C3.21945 6.23371 3.21945 6.23371 3.2171 6.23606C3.21475 6.23841 3.21475 6.23841 3.2124 6.24076C3.21005 6.24311 3.21005 6.24311 3.2077 6.24545C3.20535 6.2478 3.20535 6.2478 3.203 6.25015C3.20066 6.2525 3.20066 6.2525 3.19831 6.25485C3.19596 6.2572 3.19596 6.2572 3.19361 6.25955C3.19126 6.2619 3.19126 6.2619 3.18891 6.26425C3.18656 6.26659 3.18656 6.26659 3.18421 6.26894C3.18186 6.27129 3.18186 6.27129 3.17952 6.27364C3.17717 6.27599 3.17717 6.27599 3.17482 6.27834C3.17247 6.28069 3.17247 6.28069 3.17012 6.28304C3.16777 6.28539 3.16777 6.28539 3.16542 6.28773C3.16307 6.29008 3.16307 6.29008 3.16072 6.29243C3.15838 6.29478 3.15838 6.29478 3.15603 6.29713C3.15368 6.29948 3.15368 6.29948 3.15133 6.30183C3.14898 6.30418 3.14898 6.30418 3.14663 6.30653C3.14428 6.30887 3.14428 6.30887 3.14193 6.31122C3.13958 6.31357 3.13958 6.31357 3.13724 6.31592C3.13489 6.31827 3.13489 6.31827 3.13254 6.32062C3.13019 6.32297 3.13019 6.32297 3.12784 6.32532C3.12549 6.32767 3.12549 6.32767 3.12314 6.33001C3.12079 6.33236 3.12079 6.33236 3.11844 6.33471C3.1161 6.33706 3.1161 6.33706 3.11375 6.33941C3.1114 6.34176 3.1114 6.34176 3.10905 6.34411C3.1067 6.34646 3.1067 6.34646 3.10435 6.34881C3.102 6.35115 3.102 6.35115 3.09965 6.3535C3.0973 6.35585 3.0973 6.35585 3.09496 6.3582C3.09261 6.36055 3.09261 6.36055 3.09026 6.3629C3.1114 6.34176 3.1114 6.34411 3.10905 6.34411C3.1067 6.34646 3.1067 6.34646 3.10435 6.34881C3.102 6.35115 3.102 6.35115 3.09965 6.3535C3.0973 6.35585 3.0973 6.35585 3.09496 6.3582C3.09261 6.36055 3.09261 6.36055 3.09026 6.3629C3.08791 6.36525 3.08791 6.36525 3.08556 6.3676C3.08321 6.36995 3.08321 6.36995 3.08086 6.37229C3.07851 6.37464 3.07851 6.37464 3.07616 6.37699C3.07382 6.37934 3.07382 6.37934 3.07147 6.38169C3.06912 6.38404 3.06912 6.38404 3.06677 6.38639C3.06442 6.38874 3.06442 6.38874 3.06207 6.39109C3.05972 6.39343 3.05972 6.39343 3.05737 6.39578C3.05502 6.39813 3.05502 6.39813 3.05268 6.40048C3.05033 6.40283 3.05033 6.40283 3.04798 6.40518C3.04563 6.40753 3.04563 6.40753 3.04328 6.40988C3.04093 6.41223 3.04093 6.41223 3.03858 6.41457C3.03623 6.41692 3.03623 6.41692 3.03388 6.41927C3.03154 6.42162 3.03154 6.42162 3.02919 6.42397C3.02684 6.42632 3.02684 6.42632 3.02449 6.42867C3.02214 6.43102 3.02214 6.43102 3.01979 6.43337C3.01744 6.43571 3.01744 6.43571 3.01509 6.43806C3.01274 6.44041 3.01274 6.44041 3.0104 6.44276C3.00805 6.44511 3.00805 6.44511 3.0057 6.44746C3.00335 6.44981 3.00335 6.44981 3.001 6.45216C2.99865 6.45451 2.99865 6.45451 2.9963 6.45685C2.99395 6.4592 2.99395 6.4592 2.9916 6.46155C2.98926 6.4639 2.98926 6.4639 2.98691 6.46625C2.98456 6.4686 2.98456 6.4686 2.98221 6.47095C2.97986 6.4733 2.97986 6.4733 2.97751 6.47565C2.97516 6.47799 2.97516 6.47799 2.97281 6.48034C2.97046 6.48269 2.97047 6.48269 2.96812 6.48504C2.96577 6.48739 2.96577 6.48739 2.96342 6.48974C2.96107 6.49209 2.96107 6.49209 2.95872 6.49444C2.95637 6.49679 2.95637 6.49679 2.95402 6.49913C2.95167 6.50148 2.95167 6.50148 2.94933 6.50383C2.94698 6.50618 2.94698 6.50618 2.94463 6.50853C2.94228 6.51088 2.94228 6.51088 2.93993 6.51323C2.93758 6.51558 2.93758 6.51558 2.93523 6.51793C2.93288 6.52027 2.93288 6.52027 2.93053 6.52262C2.92819 6.52497 2.92819 6.52497 2.92584 6.52732C2.92349 6.52967 2.92349 6.52967 2.92114 6.53202C2.91879 6.53437 2.91879 6.53437 2.91644 6.53672C2.91409 6.53907 2.91409 6.53907 2.91174 6.54141C2.90939 6.54376 2.90939 6.54376 2.90705 6.54611C2.9047 6.54846 2.9047 6.54846 2.90235 6.55081C2.9 6.55316 2.9 6.55316 2.89765 6.55551C2.8953 6.55786 2.8953 6.55786 2.89295 6.56021C2.8906 6.56255 2.8906 6.56255 2.88825 6.5649C2.88591 6.56725 2.88591 6.56725 2.88356 6.5696C2.88121 6.57195 2.88121 6.57195 2.87886 6.5743C2.87651 6.57665 2.87651 6.57665 2.87416 6.579C2.87181 6.58135 2.87181 6.58135 2.86946 6.58369C2.86711 6.58604 2.86711 6.58604 2.86477 6.58839C2.86242 6.59074 2.86242 6.59074 2.86007 6.59309C2.85772 6.59544 2.85772 6.59544 2.85537 6.59779C2.87651 6.57665 2.87651 6.579 2.87416 6.579C2.87181 6.58135 2.87181 6.58135 2.86946 6.58369C2.86711 6.58604 2.86711 6.58604 2.86477 6.58839C2.86242 6.59074 2.86242 6.59074 2.86007 6.59309C2.85772 6.59544 2.85772 6.59544 2.85537 6.59779C2.85302 6.60014 2.85302 6.60014 2.85067 6.60249C2.84832 6.60483 2.84832 6.60483 2.84597 6.60718C2.84363 6.60953 2.84363 6.60953 2.84128 6.61188C2.83893 6.61423 2.83893 6.61423 2.83658 6.61658C2.83423 6.61893 2.83423 6.61893 2.83188 6.62128C2.82953 6.62363 2.82953 6.62363 2.82718 6.62597C2.82483 6.62832 2.82483 6.62832 2.82249 6.63067C2.82014 6.63302 2.82014 6.63302 2.81779 6.63537C2.81544 6.63772 2.81544 6.63772 2.81309 6.64007C2.81074 6.64242 2.81074 6.64242 2.80839 6.64477C2.80604 6.64711 2.80604 6.64711 2.80369 6.64946C2.80135 6.65181 2.80135 6.65181 2.799 6.65416C2.79665 6.65651 2.79665 6.65651 2.7943 6.65886C2.79195 6.66121 2.79195 6.66121 2.7896 6.66356C2.78725 6.66591 2.78725 6.6659 2.7849 6.66825C2.78255 6.6706 2.78255 6.6706 2.78021 6.67295C2.77786 6.6753 2.77786 6.6753 2.77551 6.67765C2.77316 6.68 2.78255 6.67295 2.78021 6.67295C2.77786 6.6753 2.77786 6.6753 2.77551 6.67765C2.77316 6.68 2.77316 6.68 2.77081 6.68235C2.76846 6.6847 2.76846 6.6847 2.76611 6.68704C2.76376 6.68939 2.76376 6.68939 2.76141 6.69174C2.75907 6.69409 2.75907 6.69409 2.75672 6.69644C2.75437 6.69879 2.75437 6.69879 2.75202 6.70114C2.75437 6.70114 2.75202 6.70114 2.74967 6.70349C2.74967 6.70349 2.74732 6.70584 2.74732 6.70818C2.74497 6.71053 2.74497 6.71053 2.74262 6.71288C2.74027 6.71523 2.74027 6.71523 2.73793 6.71758C2.73558 6.71993 2.73558 6.71993 2.73323 6.72228C2.73088 6.72463 2.73088 6.72463 2.72853 6.72698C2.72618 6.72932 2.72618 6.72932 2.72383 6.73167C2.72148 6.73402 2.72148 6.73402 2.71913 6.73637C2.71679 6.73872 2.71679 6.73872 2.71444 6.74107C2.71209 6.74342 2.71209 6.74342 2.70974 6.74577C2.70739 6.74812 2.70739 6.74812 2.70504 6.75046C2.70269 6.75281 2.70269 6.75281 2.70034 6.75516C2.69799 6.75751 2.69799 6.75751 2.69565 6.75986C2.6933 6.76221 2.6933 6.76221 2.69095 6.76456C2.6886 6.76691 2.6886 6.76691 2.68625 6.76926C2.6839 6.7716 2.6839 6.7716 2.68155 6.77395C2.6792 6.7763 2.6792 6.7763 2.67685 6.77865C2.67451 6.781 2.67451 6.781 2.67216 6.78335C2.66981 6.7857 2.66981 6.7857 2.66746 6.78805C2.66511 6.7904 2.66511 6.7904 2.66276 6.79274C2.66041 6.79509 2.66041 6.79509 2.65806 6.79744C2.65571 6.79979 2.65571 6.79979 2.65337 6.80214C2.65102 6.80449 2.65102 6.80449 2.64867 6.80684C2.64632 6.80919 2.64632 6.80919 2.64397 6.81154C2.64162 6.81388 2.64162 6.81388 2.63927 6.81623C2.63692 6.81858 2.63692 6.81858 2.63457 6.82093C2.64162 6.81154 2.64162 6.81154 2.63927 6.81388C2.63692 6.81623 2.63692 6.81623 2.63457 6.81858C2.63223 6.82093 2.63223 6.82093 2.62988 6.82328C2.62753 6.82563 2.62753 6.82563 2.62518 6.82798C2.62283 6.83033 2.62283 6.83033 2.62048 6.83268C2.61813 6.83502 2.61813 6.83502 2.61578 6.83737C2.61343 6.83972 2.61343 6.83972 2.61109 6.84207C2.60874 6.84442 2.60874 6.84442 2.60639 6.84677C2.60404 6.84912 2.60404 6.84912 2.60169 6.85147C2.59934 6.85382 2.59934 6.85382 2.59699 6.85616C2.59464 6.85851 2.59464 6.85851 2.59229 6.86086C2.58995 6.86321 2.58995 6.86321 2.5876 6.86556C2.58525 6.86791 2.58525 6.86791 2.5829 6.87026C2.58055 6.87261 2.58055 6.87261 2.5782 6.87496C2.57585 6.8773 2.57585 6.8773 2.5735 6.87965C2.57115 6.882 2.57115 6.882 2.56881 6.88435C2.56646 6.8867 2.56646 6.8867 2.56411 6.88905C2.56176 6.8914 2.56176 6.8914 2.55941 6.89375C2.55706 6.8961 2.55706 6.8961 2.55471 6.89844C2.55236 6.90079 2.55236 6.90079 2.55001 6.90314C2.54767 6.90549 2.54767 6.90549 2.54532 6.90784C2.54297 6.91019 2.54297 6.91019 2.54062 6.91254C2.53827 6.91489 2.53827 6.91489 2.53592 6.91724C2.53357 6.91958 2.53357 6.91958 2.53122 6.92193C2.52888 6.92428 2.52888 6.92428 2.52653 6.92663C2.52418 6.92898 2.52418 6.92898 2.52183 6.93133C2.51948 6.93368 2.51948 6.93368 2.51713 6.93603C2.51478 6.93838 2.51478 6.93838 2.51243 6.94072C2.51008 6.94307 2.51008 6.94307 2.50774 6.94542C2.50539 6.94777 2.50539 6.94777 2.50304 6.95012C2.51478 6.93838 2.51243 6.94072 2.51243 6.94307C2.51008 6.94542 2.51008 6.94542 2.50774 6.94777C2.50539 6.95012 2.50539 6.95012 2.50304 6.95247C2.50069 6.95482 2.50069 6.95482 2.49834 6.95717C2.49599 6.95952 2.49599 6.95952 2.49364 6.96186C2.49129 6.96421 2.49129 6.96421 2.48894 6.96656C2.4866 6.96891 2.4866 6.96891 2.48425 6.97126C2.4819 6.97361 2.4819 6.97361 2.47955 6.97596C2.4772 6.97831 2.4772 6.97831 2.47485 6.98065C2.4725 6.983 2.4725 6.983 2.47015 6.98535C2.4678 6.9877 2.4678 6.9877 2.46546 6.99005C2.46311 6.9924 2.46311 6.9924 2.46076 6.99475C2.45841 6.9971 2.45841 6.9971 2.45606 6.99945C2.45371 7.0018 2.45371 7.0018 2.45136 7.00414C2.44901 7.00649 2.44901 7.00649 2.44666 7.00884C2.44432 7.01119 2.44432 7.01119 2.44197 7.01354C2.43962 7.01589 2.43962 7.01589 2.43727 7.01824C2.43492 7.02059 2.43492 7.02059 2.43257 7.02293C2.43022 7.02528 2.43022 7.02528 2.42787 7.02763C2.42552 7.02998 2.42552 7.02998 2.42318 7.03233C2.42083 7.03468 2.42083 7.03468 2.41848 7.03703C2.41613 7.03938 2.41613 7.03938 2.41378 7.04173C2.41143 7.04407 2.41143 7.04407 2.40908 7.04642C2.40673 7.04877 2.40673 7.04877 2.40438 7.05112C2.40204 7.05347 2.40204 7.05347 2.39969 7.05582C2.40673 7.04642 2.40673 7.04642 2.40438 7.04877C2.40204 7.05112 2.40204 7.05112 2.39969 7.05347C2.39734 7.05582 2.39734 7.05582 2.39499 7.05817C2.39264 7.06052 2.39264 7.06052 2.39029 7.06287C2.38794 7.06521 2.38794 7.06521 2.38559 7.06756C2.38324 7.06991 2.38324 7.06991 2.3809 7.07226C2.37855 7.07461 2.37855 7.07461 2.3762 7.07696C2.37385 7.07931 2.37385 7.07931 2.3715 7.08166C2.36915 7.08401 2.36915 7.08401 2.3668 7.08635C2.36445 7.0887 2.36445 7.0887 2.3621 7.09105C2.35976 7.0934 2.35976 7.0934 2.35741 7.09575C2.35506 7.0981 2.35506 7.0981 2.35271 7.10045C2.35036 7.1028 2.35036 7.1028 2.34801 7.10515C2.34566 7.10749 2.34566 7.10749 2.34331 7.10984C2.34096 7.11219 2.34096 7.11219 2.33862 7.11454C2.33627 7.11689 2.33627 7.11689 2.33392 7.11924C2.33157 7.12159 2.33157 7.12159 2.32922 7.12394C2.32687 7.12629 2.32687 7.12629 2.32452 7.12863C2.32217 7.13098 2.32217 7.13098 2.31982 7.13333C2.31748 7.13568 2.31748 7.13568 2.31513 7.13803C2.31278 7.14038 2.31278 7.14038 2.31043 7.14273C2.30808 7.14508 2.30808 7.14508 2.30573 7.14743C2.30338 7.14977 2.30338 7.14977 2.30103 7.15212C2.29868 7.15447 2.29868 7.15447 2.29634 7.15682C2.29399 7.15917 2.29399 7.15917 2.29164 7.16152C2.28929 7.16387 2.28929 7.16387 2.28694 7.16622C2.28459 7.16857 2.28459 7.16857 2.28224 7.17091C2.27989 7.17326 2.27989 7.17326 2.27754 7.17561C2.2752 7.17796 2.2752 7.17796 2.27285 7.18031C2.2705 7.18266 2.2705 7.18266 2.26815 7.18501C2.27989 7.17326 2.27754 7.17561 2.27754 7.17561C2.2752 7.17796 2.2752 7.17796 2.27285 7.18031C2.01682 7.43399 1.843 7.77928 1.78663 8.19503L0.774259 15.5987C0.591047 16.9305 1.66449 18.4221 3.05268 18.7673L14.5035 21.6212C15.2011 21.7951 15.8165 21.64 16.2346 21.2642C16.237 21.2619 16.237 21.2619 16.2393 21.2595C16.2417 21.2572 16.2417 21.2572 16.244 21.2548C16.2464 21.2525 16.2464 21.2525 16.2487 21.2501C16.251 21.2478 16.251 21.2478 16.2534 21.2454C16.2557 21.2431 16.2557 21.2431 16.2581 21.2407C16.2604 21.2384 16.2604 21.2384 16.2628 21.236C16.2651 21.2337 16.2651 21.2337 16.2675 21.2313C16.2698 21.229 16.2698 21.229 16.2722 21.2266C16.2745 21.2243 16.2745 21.2243 16.2769 21.2219C16.2792 21.2196 16.2792 21.2196 16.2816 21.2172C16.2839 21.2149 16.2839 21.2149 16.2863 21.2125C16.2886 21.2102 16.2886 21.2102 16.291 21.2078C16.2933 21.2055 16.2933 21.2055 16.2957 21.2031C16.298 21.2008 16.298 21.2008 16.3004 21.1984C16.3027 21.1961 16.3027 21.1961 16.3051 21.1937C16.3074 21.1914 16.3074 21.1914 16.3098 21.189C16.3121 21.1867 16.3121 21.1867 16.3145 21.1844C16.3168 21.182 16.3168 21.182 16.3192 21.1797C16.3215 21.1773 16.3215 21.1773 16.3239 21.175C16.3262 21.1726 16.3262 21.1726 16.3286 21.1703C16.3309 21.1679 16.3309 21.1679 16.3333 21.1656C16.3356 21.1632 16.3356 21.1632 16.338 21.1609C16.3403 21.1585 16.3403 21.1585 16.3427 21.1562C16.345 21.1538 16.345 21.1538 16.3474 21.1515C16.3497 21.1491 16.3497 21.1491 16.3521 21.1468C16.3544 21.1444 16.3544 21.1444 16.3567 21.1421C16.3591 21.1397 16.3591 21.1397 16.3614 21.1374C16.3638 21.135 16.3638 21.135 16.3661 21.1327C16.3685 21.1303 16.3685 21.1303 16.3708 21.128C16.3732 21.1256 16.3732 21.1256 16.3755 21.1233C16.3779 21.1209 16.3779 21.1209 16.3802 21.1186C16.3826 21.1162 16.3826 21.1162 16.3849 21.1139C16.3873 21.1115 16.3873 21.1115 16.3896 21.1092C16.392 21.1068 16.392 21.1068 16.3943 21.1045C16.3967 21.1021 16.3967 21.1021 16.399 21.0998C16.4014 21.0974 16.4014 21.0974 16.4037 21.0951C16.4061 21.0927 16.4061 21.0927 16.4084 21.0904C16.4108 21.088 16.4108 21.088 16.4131 21.0857C16.4155 21.0833 16.4155 21.0833 16.4178 21.081C16.4202 21.0787 16.4202 21.0787 16.4225 21.0763C16.4249 21.074 16.4249 21.074 16.4272 21.0716C16.4296 21.0693 16.4296 21.0693 16.4319 21.0669C16.4343 21.0646 16.4343 21.0646 16.4366 21.0622C16.439 21.0599 16.439 21.0599 16.4413 21.0575C16.4437 21.0552 16.4437 21.0552 16.446 21.0528C16.4484 21.0505 16.4484 21.0505 16.4507 21.0481C16.4531 21.0458 16.4531 21.0458 16.4554 21.0434C16.4578 21.0411 16.4578 21.0411 16.4601 21.0387C16.4624 21.0364 16.4624 21.0364 16.4648 21.034C16.4671 21.0317 16.4671 21.0317 16.4695 21.0293C16.4718 21.027 16.4718 21.027 16.4742 21.0246C16.4765 21.0223 16.4765 21.0223 16.4789 21.0199C16.4812 21.0176 16.4812 21.0176 16.4836 21.0152C16.4859 21.0129 16.4859 21.0129 16.4883 21.0105C16.4906 21.0082 16.4906 21.0082 16.493 21.0058C16.4953 21.0035 16.4953 21.0035 16.4977 21.0011C16.5 20.9988 16.5 20.9988 16.5024 20.9964C16.5047 20.9941 16.5047 20.9941 16.5071 20.9917C16.5094 20.9894 16.5094 20.9894 16.5118 20.987C16.5141 20.9847 16.5141 20.9847 16.5165 20.9823C16.5188 20.98 16.5188 20.98 16.5212 20.9776C16.5235 20.9753 16.5235 20.9753 16.5259 20.973C16.5282 20.9706 16.5282 20.9706 16.5306 20.9683C16.5329 20.9659 16.5329 20.9659 16.5353 20.9636C16.5376 20.9612 16.5376 20.9612 16.54 20.9589C16.5423 20.9565 16.5423 20.9565 16.5447 20.9542C16.547 20.9518 16.547 20.9518 16.5494 20.9495C16.5517 20.9471 16.5517 20.9471 16.5541 20.9448C16.5564 20.9424 16.5564 20.9424 16.5588 20.9401C16.5611 20.9377 16.5611 20.9377 16.5635 20.9354C16.5658 20.933 16.5658 20.933 16.5681 20.9307C16.5705 20.9283 16.5705 20.9283 16.5728 20.926C16.5752 20.9236 16.5752 20.9236 16.5775 20.9213C16.5799 20.9189 16.5799 20.9189 16.5822 20.9166C16.5846 20.9142 16.5846 20.9142 16.5869 20.9119C16.5893 20.9095 16.5893 20.9095 16.5916 20.9072C16.594 20.9048 16.594 20.9048 16.5963 20.9025C16.5987 20.9001 16.5987 20.9001 16.601 20.8978C16.6034 20.8954 16.6034 20.8954 16.6057 20.8931C16.6081 20.8907 16.6081 20.8907 16.6104 20.8884C16.6128 20.886 16.6128 20.886 16.6151 20.8837C16.6175 20.8813 16.6175 20.8813 16.6198 20.879C16.6222 20.8766 16.6222 20.8766 16.6245 20.8743C16.6269 20.8719 16.6269 20.8719 16.6292 20.8696C16.6316 20.8673 16.6316 20.8673 16.6339 20.8649C16.6363 20.8626 16.6363 20.8626 16.6386 20.8602C16.641 20.8579 16.641 20.8579 16.6433 20.8555C16.6457 20.8532 16.6457 20.8532 16.648 20.8508C16.6504 20.8485 16.6504 20.8485 16.6527 20.8461C16.6551 20.8438 16.6551 20.8438 16.6574 20.8414C16.6598 20.8391 16.6598 20.8391 16.6621 20.8367C16.6645 20.8344 16.6645 20.8344 16.6668 20.832C16.6692 20.8297 16.6691 20.8297 16.6715 20.8273C16.6738 20.825 16.6738 20.825 16.6762 20.8226C16.6785 20.8203 16.6785 20.8203 16.6809 20.8179C16.6832 20.8156 16.6832 20.8156 16.6856 20.8132C16.6879 20.8109 16.6879 20.8109 16.6903 20.8085C16.6926 20.8062 16.6926 20.8062 16.695 20.8038C16.6973 20.8015 16.6973 20.8015 16.6997 20.7991C16.702 20.7968 16.702 20.7968 16.7044 20.7944C16.7067 20.7921 16.7067 20.7921 16.7091 20.7897C16.7114 20.7874 16.7114 20.7874 16.7138 20.785C16.7161 20.7827 16.7161 20.7827 16.7185 20.7803C16.7208 20.778 16.7208 20.778 16.7232 20.7756C16.7255 20.7733 16.7255 20.7733 16.7279 20.7709C16.7302 20.7686 16.7302 20.7686 16.7326 20.7662C16.7349 20.7639 16.7349 20.7639 16.7373 20.7616C16.7396 20.7592 16.7396 20.7592 16.742 20.7569C16.7443 20.7545 16.7443 20.7545 16.7467 20.7522C16.749 20.7498 16.749 20.7498 16.7514 20.7475C16.7537 20.7451 16.7537 20.7451 16.7561 20.7428C16.7584 20.7404 16.7584 20.7404 16.7608 20.7381C16.7631 20.7357 16.7631 20.7357 16.7655 20.7334C16.7678 20.731 16.7678 20.731 16.7702 20.7287C16.7725 20.7263 16.7725 20.7263 16.7749 20.724C16.7772 20.7216 16.7772 20.7216 16.7795 20.7193C16.7819 20.7169 16.7819 20.7169 16.7842 20.7146C16.7866 20.7122 16.7866 20.7122 16.7889 20.7099C16.7913 20.7075 16.7913 20.7075 16.7936 20.7052C16.796 20.7028 16.796 20.7028 16.7983 20.7005C16.8007 20.6981 16.8007 20.6981 16.803 20.6958C16.8054 20.6934 16.8054 20.6934 16.8077 20.6911C16.8101 20.6887 16.8101 20.6887 16.8124 20.6864C16.8148 20.684 16.8148 20.684 16.8171 20.6817C16.8195 20.6793 16.8195 20.6793 16.8218 20.677C16.8242 20.6746 16.8242 20.6746 16.8265 20.6723C16.8289 20.6699 16.8289 20.6699 16.8312 20.6676C16.8336 20.6652 16.8336 20.6652 16.8359 20.6629C16.8383 20.6605 16.8383 20.6605 16.8406 20.6582C16.843 20.6559 16.843 20.6559 16.8453 20.6535C16.8477 20.6512 16.8477 20.6512 16.85 20.6488C16.8524 20.6465 16.8524 20.6465 16.8547 20.6441C16.8571 20.6418 16.8571 20.6418 16.8594 20.6394C16.8618 20.6371 16.8618 20.6371 16.8641 20.6347C16.8665 20.6324 16.8665 20.6324 16.8688 20.63C16.8712 20.6277 16.8712 20.6277 16.8735 20.6253C16.8759 20.623 16.8759 20.623 16.8782 20.6206C16.8806 20.6183 16.8805 20.6183 16.8829 20.6159C16.8852 20.6136 16.8852 20.6136 16.8876 20.6112C16.8899 20.6089 16.8899 20.6089 16.8923 20.6065C16.8946 20.6042 16.8946 20.6042 16.897 20.6018C16.8993 20.5995 16.8993 20.5995 16.9017 20.5971C16.904 20.5948 16.904 20.5948 16.9064 20.5924C16.9087 20.5901 16.9087 20.5901 16.9111 20.5877C16.9134 20.5854 16.9134 20.5854 16.9158 20.583C16.9181 20.5807 16.9181 20.5807 16.9205 20.5783C16.9228 20.576 16.9228 20.576 16.9252 20.5736C16.9275 20.5713 16.9275 20.5713 16.9299 20.5689C16.9322 20.5666 16.9322 20.5666 16.9346 20.5642C16.9369 20.5619 16.9369 20.5619 16.9393 20.5595C16.9416 20.5572 16.9416 20.5572 16.944 20.5548C16.9463 20.5525 16.9463 20.5525 16.9487 20.5502C16.951 20.5478 16.951 20.5478 16.9534 20.5455C16.9557 20.5431 16.9557 20.5431 16.9581 20.5408C16.9604 20.5384 16.9604 20.5384 16.9628 20.5361C16.9651 20.5337 16.9651 20.5337 16.9675 20.5314C16.9698 20.529 16.9698 20.529 16.9722 20.5267C16.9745 20.5243 16.9745 20.5243 16.9769 20.522C16.9792 20.5196 16.9792 20.5196 16.9816 20.5173C16.9839 20.5149 16.9839 20.5149 16.9863 20.5126C16.9886 20.5102 16.9886 20.5102 16.9909 20.5079C16.9933 20.5055 16.9933 20.5055 16.9956 20.5032C16.998 20.5008 16.998 20.5008 17.0003 20.4985C17.0027 20.4961 17.0027 20.4961 17.005 20.4938C17.0074 20.4914 17.0074 20.4914 17.0097 20.4891C17.0121 20.4867 17.0121 20.4867 17.0144 20.4844C17.0168 20.482 17.0168 20.482 17.0191 20.4797C17.0215 20.4773 17.0215 20.4773 17.0238 20.475C17.0262 20.4726 17.0262 20.4726 17.0285 20.4703C17.0309 20.4679 17.0309 20.4679 17.0332 20.4656C17.0356 20.4632 17.0356 20.4632 17.0379 20.4609C17.0403 20.4585 17.0403 20.4585 17.0426 20.4562C17.045 20.4538 17.045 20.4538 17.0473 20.4515C17.0497 20.4491 17.0497 20.4492 17.052 20.4468C17.0544 20.4445 17.0544 20.4445 17.0567 20.4421C17.0591 20.4398 17.0591 20.4398 17.0614 20.4374C17.0638 20.4351 17.0638 20.4351 17.0661 20.4327C17.0685 20.4304 17.0685 20.4304 17.0708 20.428C17.0732 20.4257 17.0732 20.4257 17.0755 20.4233C17.0779 20.421 17.0779 20.421 17.0802 20.4186C17.0826 20.4163 17.0826 20.4163 17.0849 20.4139C17.0873 20.4116 17.0873 20.4116 17.0896 20.4092C17.092 20.4069 17.0919 20.4069 17.0943 20.4045C17.0966 20.4022 17.0966 20.4022 17.099 20.3998C17.1013 20.3975 17.1013 20.3975 17.1037 20.3951C17.106 20.3928 17.106 20.3928 17.1084 20.3904C17.1107 20.3881 17.1107 20.3881 17.1131 20.3857C17.1154 20.3834 17.1154 20.3834 17.1178 20.381C17.1201 20.3787 17.1201 20.3787 17.1225 20.3763C17.1248 20.374 17.1248 20.374 17.1272 20.3716C17.1295 20.3693 17.1295 20.3693 17.1319 20.3669C17.1342 20.3646 17.1342 20.3646 17.1366 20.3622C17.1389 20.3599 17.1389 20.3599 17.1413 20.3575C17.1436 20.3552 17.1436 20.3552 17.146 20.3528C17.1483 20.3505 17.1483 20.3505 17.1507 20.3481C17.153 20.3458 17.153 20.3458 17.1554 20.3434C17.1577 20.3411 17.1577 20.3411 17.1601 20.3388C17.1624 20.3364 17.1624 20.3364 17.1648 20.3341C17.1671 20.3317 17.1671 20.3317 17.1695 20.3294C17.1718 20.327 17.1718 20.327 17.1742 20.3247C17.1765 20.3223 17.1765 20.3223 17.1789 20.32C17.1812 20.3176 17.1812 20.3176 17.1836 20.3153C17.1859 20.3129 17.1859 20.3129 17.1883 20.3106C17.1906 20.3082 17.1906 20.3082 17.193 20.3059C17.1953 20.3035 17.1953 20.3035 17.1976 20.3012C17.2 20.2988 17.2 20.2988 17.2023 20.2965C17.2047 20.2941 17.2047 20.2941 17.207 20.2918C17.2094 20.2894 17.2094 20.2894 17.2117 20.2871C17.2141 20.2847 17.2141 20.2847 17.2164 20.2824C17.2188 20.28 17.2188 20.28 17.2211 20.2777C17.2235 20.2753 17.2235 20.2753 17.2258 20.273C17.2282 20.2706 17.2282 20.2706 17.2305 20.2683C17.2329 20.2659 17.2329 20.2659 17.2352 20.2636C17.2376 20.2612 17.2376 20.2612 17.2399 20.2589C17.2423 20.2565 17.2423 20.2565 17.2446 20.2542C17.247 20.2518 17.247 20.2518 17.2493 20.2495C17.2517 20.2471 17.2517 20.2471 17.254 20.2448C17.2564 20.2424 17.2564 20.2424 17.2587 20.2401C17.2611 20.2378 17.2611 20.2378 17.2634 20.2354C17.2658 20.2331 17.2658 20.2331 17.2681 20.2307C17.2705 20.2284 17.2705 20.2284 17.2728 20.226C17.2752 20.2237 17.2752 20.2237 17.2775 20.2213C17.2799 20.219 17.2799 20.219 17.2822 20.2166C17.2846 20.2143 17.2846 20.2143 17.2869 20.2119C17.2893 20.2096 17.2893 20.2096 17.2916 20.2072C17.294 20.2049 17.294 20.2049 17.2963 20.2025C17.2987 20.2002 17.2987 20.2002 17.301 20.1978C17.3033 20.1955 17.3033 20.1955 17.3057 20.1931C17.308 20.1908 17.308 20.1908 17.3104 20.1884C17.3127 20.1861 17.3127 20.1861 17.3151 20.1837C17.3174 20.1814 17.3174 20.1814 17.3198 20.179C17.3221 20.1767 17.3221 20.1767 17.3245 20.1743C17.3268 20.172 17.3268 20.172 17.3292 20.1696C17.3315 20.1673 17.3315 20.1673 17.3339 20.1649C17.3362 20.1626 17.3362 20.1626 17.3386 20.1602C17.3409 20.1579 17.3409 20.1579 17.3433 20.1555C17.3456 20.1532 17.3456 20.1532 17.348 20.1508C17.3503 20.1485 17.3503 20.1485 17.3527 20.1461C17.355 20.1438 17.355 20.1438 17.3574 20.1414C17.3597 20.1391 17.3597 20.1391 17.3621 20.1367C17.3644 20.1344 17.3644 20.1344 17.3668 20.132C17.3691 20.1297 17.3691 20.1297 17.3715 20.1274C17.3738 20.125 17.3738 20.125 17.3762 20.1227C17.3785 20.1203 17.3785 20.1203 17.3809 20.118C17.3832 20.1156 17.3832 20.1156 17.3856 20.1133C17.3879 20.1109 17.3879 20.1109 17.3903 20.1086C17.3926 20.1062 17.3926 20.1062 17.395 20.1039C17.3973 20.1015 17.3973 20.1015 17.3997 20.0992C17.402 20.0968 17.402 20.0968 17.4044 20.0945C17.4067 20.0921 17.4067 20.0921 17.409 20.0898C17.4114 20.0874 17.4114 20.0874 17.4137 20.0851C17.4161 20.0827 17.4161 20.0827 17.4184 20.0804C17.4208 20.078 17.4208 20.078 17.4231 20.0757C17.4255 20.0733 17.4255 20.0733 17.4278 20.071C17.4302 20.0686 17.4302 20.0686 17.4325 20.0663C17.4349 20.0639 17.4349 20.0639 17.4372 20.0616C17.4396 20.0592 17.4396 20.0592 17.4419 20.0569C17.4443 20.0545 17.4443 20.0545 17.4466 20.0522C17.449 20.0498 17.449 20.0498 17.4513 20.0475C17.4537 20.0451 17.4537 20.0451 17.456 20.0428C17.4584 20.0404 17.4584 20.0404 17.4607 20.0381C17.4631 20.0357 17.4631 20.0357 17.4654 20.0334C17.4678 20.031 17.4678 20.031 17.4701 20.0287C17.4725 20.0264 17.4725 20.0264 17.4748 20.024C17.4772 20.0217 17.4772 20.0217 17.4795 20.0193C17.4819 20.017 17.4819 20.017 17.4842 20.0146C17.4866 20.0123 17.4866 20.0123 17.4889 20.0099C17.4913 20.0076 17.4913 20.0076 17.4936 20.0052C17.496 20.0029 17.496 20.0029 17.4983 20.0005C17.5007 19.9982 17.5007 19.9982 17.503 19.9958C17.5054 19.9935 17.5054 19.9935 17.5077 19.9911C17.5101 19.9888 17.5101 19.9888 17.5124 19.9864C17.5147 19.9841 17.5147 19.9841 17.5171 19.9817C17.5194 19.9794 17.5194 19.9794 17.5218 19.977C17.5241 19.9747 17.5241 19.9747 17.5265 19.9723C17.5288 19.97 17.5288 19.97 17.5312 19.9676C17.5335 19.9653 17.5335 19.9653 17.5359 19.9629C17.5382 19.9606 17.5382 19.9606 17.5406 19.9582C17.5429 19.9559 17.5429 19.9559 17.5453 19.9535C17.5476 19.9512 17.5476 19.9512 17.55 19.9488C17.5523 19.9465 17.5523 19.9465 17.5547 19.9441C17.557 19.9418 17.557 19.9418 17.5594 19.9394C17.5617 19.9371 17.5617 19.9371 17.5641 19.9347C17.5664 19.9324 17.5664 19.9324 17.5688 19.93C17.5711 19.9277 17.5711 19.9277 17.5735 19.9253C17.5758 19.923 17.5758 19.923 17.5782 19.9207C17.5805 19.9183 17.5805 19.9183 17.5829 19.916C17.5852 19.9136 17.5852 19.9136 17.5876 19.9113C17.5899 19.9089 17.5899 19.9089 17.5923 19.9066C17.5946 19.9042 17.5946 19.9042 17.597 19.9019C17.5993 19.8995 17.5993 19.8995 17.6017 19.8972C17.604 19.8948 17.604 19.8948 17.6064 19.8925C17.6087 19.8901 17.6087 19.8901 17.6111 19.8878C17.6134 19.8854 17.6134 19.8854 17.6158 19.8831C17.6181 19.8807 17.6181 19.8807 17.6204 19.8784C17.6228 19.876 17.6228 19.876 17.6251 19.8737C17.6275 19.8713 17.6275 19.8713 17.6298 19.869C17.6322 19.8666 17.6322 19.8666 17.6345 19.8643C17.6369 19.8619 17.6369 19.8619 17.6392 19.8596C17.6416 19.8572 17.6416 19.8572 17.6439 19.8549C17.6463 19.8525 17.6463 19.8525 17.6486 19.8502C17.651 19.8478 17.651 19.8478 17.6533 19.8455C17.6557 19.8431 17.6557 19.8431 17.658 19.8408C17.6604 19.8384 17.6604 19.8384 17.6627 19.8361C17.6651 19.8337 17.6651 19.8337 17.6674 19.8314C17.6698 19.829 17.6698 19.829 17.6721 19.8267C17.6745 19.8243 17.6745 19.8243 17.6768 19.822C17.6792 19.8196 17.6792 19.8196 17.6815 19.8173C17.6839 19.815 17.6839 19.815 17.6862 19.8126C17.6886 19.8103 17.6886 19.8103 17.6909 19.8079C17.6933 19.8056 17.6933 19.8056 17.6956 19.8032C17.698 19.8009 17.698 19.8009 17.7003 19.7985C17.7027 19.7962 17.7027 19.7962 17.705 19.7938C17.7074 19.7915 17.7074 19.7915 17.7097 19.7891C17.7121 19.7868 17.7121 19.7868 17.7144 19.7844C17.7168 19.7821 17.7168 19.7821 17.7191 19.7797C17.7215 19.7774 17.7215 19.7774 17.7238 19.775C17.7261 19.7727 17.7261 19.7727 17.7285 19.7703C17.7308 19.768 17.7308 19.768 17.7332 19.7656C17.7355 19.7633 17.7355 19.7633 17.7379 19.7609C17.7402 19.7586 17.7402 19.7586 17.7426 19.7562C17.7449 19.7539 17.7449 19.7539 17.7473 19.7515C17.7496 19.7492 17.7496 19.7492 17.752 19.7468C17.7543 19.7445 17.7543 19.7445 17.7567 19.7421C17.759 19.7398 17.759 19.7398 17.7614 19.7374C17.7637 19.7351 17.7637 19.7351 17.7661 19.7327C17.7684 19.7304 17.7684 19.7304 17.7708 19.728C17.7731 19.7257 17.7731 19.7257 17.7755 19.7233C17.7778 19.721 17.7778 19.721 17.7802 19.7186C17.7825 19.7163 17.7825 19.7163 17.7849 19.7139C17.7872 19.7116 17.7872 19.7116 17.7896 19.7093C17.7919 19.7069 17.7919 19.7069 17.7943 19.7046C17.7966 19.7022 17.7966 19.7022 17.799 19.6999C17.8013 19.6975 17.8013 19.6975 17.8037 19.6952C17.806 19.6928 17.806 19.6928 17.8084 19.6905C17.8107 19.6881 17.8107 19.6881 17.8131 19.6858C17.8154 19.6834 17.8154 19.6834 17.8178 19.6811C17.8201 19.6787 17.8201 19.6787 17.8225 19.6764C17.8248 19.674 17.8248 19.674 17.8272 19.6717C17.8295 19.6693 17.8295 19.6693 17.8318 19.667C17.8342 19.6646 17.8342 19.6646 17.8365 19.6623C17.8389 19.6599 17.8389 19.6599 17.8412 19.6576C17.8436 19.6552 17.8436 19.6552 17.8459 19.6529C17.8483 19.6505 17.8483 19.6505 17.8506 19.6482C17.853 19.6458 17.853 19.6458 17.8553 19.6435C17.8577 19.6411 17.8577 19.6411 17.86 19.6388C17.8624 19.6364 17.8624 19.6364 17.8647 19.6341C17.8671 19.6317 17.8671 19.6317 17.8694 19.6294C17.8718 19.627 17.8718 19.627 17.8741 19.6247C17.8765 19.6223 17.8765 19.6223 17.8788 19.62C17.8812 19.6176 17.8812 19.6176 17.8835 19.6153C17.8859 19.6129 17.8859 19.6129 17.8882 19.6106C17.8906 19.6083 17.8906 19.6082 17.8929 19.6059C17.8953 19.6036 17.8953 19.6036 17.8976 19.6012C17.9 19.5989 17.9 19.5989 17.9023 19.5965C17.9047 19.5942 17.9047 19.5942 17.907 19.5918C17.9094 19.5895 17.9094 19.5895 17.9117 19.5871C17.9141 19.5848 17.9141 19.5848 17.9164 19.5824C17.9188 19.5801 17.9188 19.5801 17.9211 19.5777C17.9235 19.5754 17.9235 19.5754 17.9258 19.573C17.9282 19.5707 17.9282 19.5707 17.9305 19.5683C17.9328 19.566 17.9329 19.566 17.9352 19.5636C17.9375 19.5613 17.9375 19.5613 17.9399 19.5589C17.9422 19.5566 17.9422 19.5566 17.9446 19.5542C17.9469 19.5519 17.9469 19.5519 17.9493 19.5495C17.9516 19.5472 17.9516 19.5472 17.954 19.5448C17.9563 19.5425 17.9563 19.5425 17.9587 19.5401C17.961 19.5378 17.961 19.5378 17.9634 19.5354C17.9657 19.5331 17.9657 19.5331 17.9681 19.5307C17.9704 19.5284 17.9704 19.5284 17.9728 19.526C17.9751 19.5237 17.9751 19.5237 17.9775 19.5213C17.9798 19.519 17.9798 19.519 17.9822 19.5166C17.9845 19.5143 17.9845 19.5143 17.9869 19.5119C17.9892 19.5096 17.9892 19.5096 17.9916 19.5072C17.9939 19.5049 17.9939 19.5049 17.9963 19.5025C17.9986 19.5002 17.9986 19.5002 18.001 19.4979C18.0033 19.4955 18.0033 19.4955 18.0057 19.4932C18.008 19.4908 18.008 19.4908 18.0104 19.4885C18.0127 19.4861 18.0127 19.4861 18.0151 19.4838C18.0174 19.4814 18.0174 19.4814 18.0198 19.4791C18.0221 19.4767 18.0221 19.4767 18.0245 19.4744C18.0268 19.472 18.0268 19.472 18.0292 19.4697C18.0315 19.4673 18.0315 19.4673 18.0339 19.465C18.0362 19.4626 18.0362 19.4626 18.0385 19.4603C18.0409 19.4579 18.0409 19.4579 18.0432 19.4556C18.0456 19.4532 18.0456 19.4532 18.0479 19.4509C18.0503 19.4485 18.0503 19.4485 18.0526 19.4462C18.055 19.4438 18.055 19.4438 18.0573 19.4415C18.0597 19.4391 18.0597 19.4391 18.062 19.4368C18.0644 19.4344 18.0644 19.4344 18.0667 19.4321C18.0691 19.4297 18.0691 19.4297 18.0714 19.4274C18.0738 19.425 18.0738 19.425 18.0761 19.4227C18.0785 19.4203 18.0785 19.4203 18.0808 19.418C18.0832 19.4156 18.0832 19.4156 18.0855 19.4133C18.0879 19.4109 18.0879 19.4109 18.0902 19.4086C18.0926 19.4062 18.0926 19.4062 18.0949 19.4039C18.0973 19.4015 18.0973 19.4015 18.0996 19.3992C18.102 19.3969 18.102 19.3968 18.1043 19.3945C18.1067 19.3922 18.1067 19.3922 18.109 19.3898C18.1114 19.3875 18.1114 19.3875 18.1137 19.3851C18.3603 19.1855 18.5835 18.5912 18.4919 17.8795Z" stroke="black" stroke-miterlimit="10" stroke-linecap="round" stroke-linejoin="round"/>
    <path d="M13.9327 10.619V5.23297C13.9327 3.33037 12.3918 1.40429 10.4892 0.929816C8.58664 0.455341 7.04578 1.61334 7.04578 3.51594V8.90192" stroke="black" stroke-miterlimit="10" stroke-linecap="round" stroke-linejoin="round"/>
    <path d="M14.5035 21.6211L3.05265 18.7672C1.66211 18.4196 0.591022 16.9304 0.774235 15.5986L1.7866 8.19723C1.93693 7.09091 2.91172 6.4802 4.06502 6.76911L13.4887 9.118C14.642 9.40456 15.6168 10.5038 15.7672 11.683L16.7795 19.5893C16.9651 21.0127 15.8916 21.9687 14.5035 21.6211Z" fill="#fff0" stroke="black" stroke-miterlimit="10" stroke-linecap="round" stroke-linejoin="round"/>
    <path d="M12.2226 12.3289V6.94289C12.2226 5.0403 10.6818 3.11421 8.77919 2.63974C6.87659 2.16762 5.33337 3.32327 5.33337 5.22586V10.6118" stroke="black" stroke-miterlimit="10" stroke-linecap="round" stroke-linejoin="round"/>
    </svg>
    