
<svg width="18" height="30" viewBox="0 0 18 30" fill="none" xmlns="http://www.w3.org/2000/svg">
    <path d="M17.4194 2.46161C17.4194 2.46161 15.5778 1.6879 13.8156 1.24957C11.974 0.787697 10.4531 0.970092 9.39105 1.77028C9.38811 1.77322 9.38516 1.7791 9.37928 1.78204C9.37634 1.78499 9.37634 1.78499 9.3734 1.78793C9.37045 1.79087 9.36751 1.79675 9.36163 1.79969C9.35869 1.80264 9.35869 1.80264 9.35575 1.80558C9.3528 1.80852 9.3528 1.80852 9.34986 1.81146C9.34692 1.8144 9.34398 1.82029 9.33809 1.82323C9.33515 1.82617 9.33515 1.82617 9.33221 1.82911C9.32927 1.83205 9.32633 1.83794 9.32044 1.84088C9.3175 1.84382 9.3175 1.84382 9.31456 1.84676C9.31162 1.84971 9.31162 1.84971 9.30868 1.85265C9.30573 1.85559 9.30279 1.86147 9.29691 1.86442C9.29397 1.86736 9.29397 1.86736 9.29102 1.8703C9.28808 1.87324 9.28514 1.87912 9.27926 1.88207C9.27632 1.88501 9.27632 1.88501 9.27337 1.88795C9.27043 1.89089 9.27043 1.89089 9.26749 1.89383C9.26455 1.89678 9.26161 1.90266 9.25572 1.9056C9.25278 1.90854 9.25278 1.90854 9.24984 1.91148C9.2469 1.91443 9.2469 1.91443 9.24396 1.91737C9.24101 1.92031 9.23807 1.92619 9.23219 1.92914C9.22925 1.93208 9.22925 1.93208 9.2263 1.93502C9.22336 1.93796 9.22042 1.94385 9.21454 1.94679C9.21159 1.94973 9.2116 1.94973 9.20865 1.95267C9.20571 1.95561 9.20571 1.95561 9.20277 1.95855C9.19983 1.9615 9.19689 1.96738 9.191 1.97032C9.18806 1.97326 9.18806 1.97326 9.18512 1.97621C9.18218 1.97915 9.17923 1.98503 9.17335 1.98797C9.17041 1.99091 9.17041 1.99091 9.16747 1.99386C9.16453 1.9968 9.16453 1.9968 9.16158 1.99974C9.15864 2.00268 9.1557 2.00857 9.14982 2.01151C9.1557 2.00562 9.15276 2.00857 9.14982 2.01151C9.14982 2.01151 9.14687 2.01445 9.14393 2.01739C9.14099 2.02033 9.13805 2.02622 9.13216 2.02916L9.12922 2.0321C9.12628 2.03504 9.12334 2.04093 9.11746 2.04387C9.11451 2.04681 9.11451 2.04681 9.11157 2.04975C9.10863 2.05269 9.10863 2.05269 9.10569 2.05564C9.10275 2.05858 9.0998 2.06446 9.09392 2.0674C9.09098 2.07034 9.09098 2.07034 9.08804 2.07329C9.0851 2.07623 9.08215 2.08211 9.07627 2.08505C9.07333 2.088 9.07333 2.088 9.07039 2.09094C9.06744 2.09388 9.06744 2.09388 9.0645 2.09682C9.06156 2.09976 9.05862 2.10565 9.05273 2.10859C9.04979 2.11153 9.04979 2.11153 9.04685 2.11447C9.04391 2.11741 9.04097 2.1233 9.03508 2.12624C9.03214 2.12918 9.03214 2.12918 9.0292 2.13212C9.02626 2.13507 9.02626 2.13507 9.02332 2.13801C9.02037 2.14095 9.01743 2.14683 9.01155 2.14977C9.00861 2.15272 9.00861 2.15272 9.00567 2.15566C9.00272 2.1586 9.00272 2.1586 8.99978 2.16154C8.99684 2.16448 8.9939 2.17037 8.98801 2.17331C8.98507 2.17625 8.98507 2.17625 8.98213 2.17919C8.97919 2.18214 8.97625 2.18802 8.97036 2.19096C8.96742 2.1939 8.96742 2.1939 8.96448 2.19684C8.96154 2.19979 8.96154 2.19979 8.9586 2.20273C8.95565 2.20567 8.95271 2.21155 8.94683 2.2145C8.94389 2.21744 8.94389 2.21744 8.94094 2.22038C8.938 2.22332 8.93506 2.22921 8.92918 2.23215C8.92624 2.23509 8.92623 2.23509 8.92329 2.23803C8.92035 2.24097 8.92035 2.24097 8.91741 2.24391C8.91447 2.24686 8.91153 2.25274 8.90564 2.25568C8.9027 2.25862 8.9027 2.25862 8.89976 2.26157C8.89682 2.26451 8.89682 2.26451 8.89387 2.26745C8.89093 2.27039 8.88799 2.27627 8.88211 2.27922C8.87917 2.28216 8.87917 2.28216 8.87622 2.2851C8.87328 2.28804 8.87034 2.29393 8.86446 2.29687C8.86151 2.29981 8.86151 2.29981 8.85857 2.30275C8.85563 2.30569 8.85563 2.30569 8.85269 2.30863C8.85563 2.30569 8.85269 2.31158 8.8468 2.31452C8.84386 2.31746 8.84386 2.31746 8.84092 2.3204C8.83798 2.32334 8.83504 2.32629 8.8321 2.33217C8.82915 2.33511 8.82915 2.33511 8.82621 2.33805C8.82327 2.341 8.82327 2.341 8.82033 2.34394C8.81739 2.34688 8.81444 2.35276 8.80856 2.3557C8.80562 2.35865 8.80562 2.35865 8.80268 2.36159C8.79974 2.36453 8.79679 2.37041 8.79091 2.37336C8.78797 2.3763 8.78797 2.3763 8.78503 2.37924C8.78208 2.38218 8.78208 2.38218 8.77914 2.38512C8.7762 2.38807 8.77326 2.39395 8.76737 2.39689C8.76443 2.39983 8.76443 2.39983 8.76149 2.40277C8.75855 2.40572 8.75855 2.40572 8.75561 2.40866C8.75267 2.4116 8.74972 2.41748 8.74384 2.42043C8.7409 2.42337 8.7409 2.42337 8.73796 2.42631C8.73501 2.42925 8.73207 2.43513 8.72619 2.43808C8.72325 2.44102 8.72325 2.44102 8.72031 2.44396C8.71736 2.4469 8.71736 2.4469 8.71442 2.44984C8.71148 2.45279 8.70854 2.45867 8.70265 2.46161C8.69971 2.46455 8.69971 2.46455 8.69677 2.4675C8.69383 2.47044 8.69089 2.47632 8.685 2.47926C8.68206 2.4822 8.68206 2.4822 8.67912 2.48515C8.67618 2.48809 8.67618 2.48809 8.67324 2.49103C8.67029 2.49397 8.66735 2.49986 8.66147 2.5028C8.65853 2.50574 8.65853 2.50574 8.65558 2.50868C8.65264 2.51162 8.65264 2.51162 8.6497 2.51456C8.64676 2.51751 8.64382 2.52339 8.63793 2.52633C8.63499 2.52927 8.63499 2.52927 8.63205 2.53222C8.62911 2.53516 8.62617 2.54104 8.62028 2.54398C8.61734 2.54693 8.61734 2.54693 8.6144 2.54987C8.61146 2.55281 8.61146 2.55281 8.60851 2.55575C8.60557 2.55869 8.60263 2.56458 8.59675 2.56752C8.59381 2.57046 8.59381 2.57046 8.59086 2.5734C8.58792 2.57634 8.58498 2.58223 8.5791 2.58517C8.57615 2.58811 8.57615 2.58811 8.57321 2.59105C8.57027 2.59399 8.57027 2.59399 8.56733 2.59694C8.57027 2.59105 8.56733 2.59694 8.56145 2.59988C8.5585 2.60282 8.5585 2.60282 8.55556 2.60576C8.55262 2.6087 8.54968 2.61459 8.54379 2.61753C8.54379 2.61753 8.54085 2.62047 8.53791 2.62341C8.53497 2.62636 8.53497 2.62636 8.53203 2.6293C8.52908 2.63224 8.52614 2.63812 8.52026 2.64106C8.51732 2.64401 8.51732 2.64401 8.51438 2.64695C8.51143 2.64989 8.51143 2.64989 8.50849 2.65283C8.50555 2.65577 8.50261 2.66166 8.49672 2.6646C8.49378 2.66754 8.49378 2.66754 8.49084 2.67048C8.4879 2.67342 8.48496 2.67931 8.47907 2.68225C8.47613 2.68519 8.47613 2.68519 8.47319 2.68813C8.47025 2.69108 8.47025 2.69108 8.46731 2.69402C8.46436 2.69696 8.46142 2.70284 8.45554 2.70579C8.4526 2.70873 8.4526 2.70873 8.44966 2.71167C8.44671 2.71461 8.44377 2.72049 8.43789 2.72344C8.43495 2.72638 8.43495 2.72638 8.432 2.72932C8.42906 2.73226 8.42906 2.73226 8.42612 2.7352C8.42318 2.73815 8.42024 2.74403 8.41435 2.74697C8.41141 2.74991 8.41141 2.74991 8.40847 2.75285C8.40553 2.7558 8.40553 2.7558 8.40259 2.75874C8.39964 2.76168 8.3967 2.76756 8.39082 2.77051C8.38788 2.77345 8.38788 2.77345 8.38493 2.77639C8.38199 2.77933 8.37905 2.78522 8.37317 2.78816C8.37022 2.7911 8.37022 2.7911 8.36728 2.79404C8.36434 2.79698 8.36434 2.79698 8.3614 2.79992C8.35846 2.80287 8.35552 2.80875 8.34963 2.81169C8.34669 2.81463 8.34669 2.81463 8.34375 2.81758C8.34081 2.82052 8.33786 2.8264 8.33198 2.82934C8.32904 2.83228 8.32904 2.83228 8.3261 2.83523C8.32316 2.83817 8.32316 2.83817 8.32021 2.84111C8.31727 2.84405 8.31433 2.84994 8.30845 2.85288C8.3055 2.85582 8.3055 2.85582 8.30256 2.85876C8.29962 2.8617 8.29668 2.86759 8.29079 2.87053C8.28785 2.87347 8.28785 2.87347 8.28491 2.87641C8.28197 2.87935 8.28197 2.87935 8.27903 2.8823C8.27609 2.88524 8.27314 2.89112 8.26726 2.89406C8.26432 2.89701 8.26432 2.89701 8.26138 2.89995C8.26726 2.89406 8.26726 2.89701 8.26432 2.89701C8.26138 2.89995 8.25843 2.90583 8.25255 2.90877C8.24961 2.91171 8.24961 2.91172 8.24667 2.91466C8.24373 2.9176 8.24078 2.92348 8.2349 2.92642C8.23196 2.92937 8.23196 2.92937 8.22902 2.93231C8.22607 2.93525 8.22607 2.93525 8.22313 2.93819C8.22019 2.94113 8.21725 2.94702 8.21136 2.94996C8.20842 2.9529 8.20842 2.9529 8.20548 2.95584C8.20254 2.95878 8.1996 2.96467 8.19371 2.96761C8.19077 2.97055 8.19077 2.97055 8.18783 2.97349C8.18489 2.97644 8.18489 2.97644 8.18195 2.97938C8.179 2.98232 8.17606 2.9882 8.17018 2.99115C8.16724 2.99409 8.16724 2.99409 8.1643 2.99703C8.16135 2.99997 8.16135 2.99997 8.15841 3.00291C8.15547 3.00585 8.15253 3.01174 8.14664 3.01468C8.1437 3.01762 8.1437 3.01762 8.14076 3.02056C8.13782 3.02351 8.13488 3.02939 8.12899 3.03233C8.12605 3.03527 8.12605 3.03527 8.12311 3.03821C8.12017 3.04116 8.12017 3.04116 8.11723 3.0441C8.11428 3.04704 8.11134 3.05292 8.10546 3.05587C8.10252 3.05881 8.10252 3.05881 8.09957 3.06175C8.09663 3.06469 8.09369 3.07058 8.08781 3.07352C8.08487 3.07646 8.08487 3.07646 8.08192 3.0794C8.07898 3.08234 8.07898 3.08234 8.07604 3.08528C8.0731 3.08823 8.07016 3.09411 8.06427 3.09705C8.06133 3.09999 8.06133 3.09999 8.05839 3.10294C8.05545 3.10588 8.0525 3.11176 8.04662 3.1147C8.04368 3.11764 8.04368 3.11764 8.04074 3.12059C8.0378 3.12353 8.0378 3.12353 8.03485 3.12647C8.03191 3.12941 8.02897 3.1353 8.02309 3.13824C8.02014 3.14118 8.02014 3.14118 8.0172 3.14412C8.01426 3.14706 8.01426 3.14706 8.01132 3.15001C8.00838 3.15295 8.00543 3.15883 7.99955 3.16177C7.99661 3.16471 7.99661 3.16471 7.99367 3.16766C7.99073 3.1706 7.98778 3.17648 7.9819 3.17942C7.97896 3.18237 7.97896 3.18237 7.97602 3.18531C7.97307 3.18825 7.97307 3.18825 7.97013 3.19119C7.97307 3.18531 7.97013 3.19119 7.96719 3.19413C7.96425 3.19707 7.96425 3.19707 7.96131 3.20002C7.95836 3.20296 7.95542 3.20884 7.94954 3.21178C7.9466 3.21473 7.9466 3.21473 7.94366 3.21767C7.94071 3.22061 7.94071 3.22061 7.93777 3.22355C7.93483 3.22649 7.93189 3.23238 7.926 3.23532C7.92306 3.23826 7.92306 3.23826 7.92012 3.2412C7.91718 3.24414 7.91424 3.25003 7.90835 3.25297C7.90541 3.25591 7.90541 3.25591 7.90247 3.25885C7.89953 3.2618 7.89953 3.2618 7.89659 3.26474C7.89364 3.26768 7.8907 3.27356 7.88482 3.2765C7.88188 3.27945 7.88188 3.27945 7.87894 3.28239C7.87599 3.28533 7.87599 3.28533 7.87305 3.28827C7.87011 3.29121 7.86717 3.2971 7.86128 3.30004C7.85834 3.30298 7.85834 3.30298 7.8554 3.30592C7.85246 3.30887 7.84952 3.31475 7.84363 3.31769C7.84069 3.32063 7.84069 3.32063 7.83775 3.32357C7.83481 3.32652 7.83481 3.32652 7.83187 3.32946C7.82892 3.3324 7.82598 3.33828 7.8201 3.34123C7.81716 3.34417 7.81716 3.34417 7.81421 3.34711C7.81127 3.35005 7.80833 3.35593 7.80245 3.35888C7.79951 3.36182 7.79951 3.36182 7.79656 3.36476C7.79362 3.3677 7.79362 3.3677 7.79068 3.37064C7.78774 3.37359 7.7848 3.37947 7.77891 3.38241C7.77597 3.38535 7.77597 3.38535 7.77303 3.3883C7.77009 3.39124 7.77009 3.39124 7.76714 3.39418C7.7642 3.39712 7.76126 3.403 7.75538 3.40595C7.75244 3.40889 7.75244 3.40889 7.74949 3.41183C7.74655 3.41477 7.74361 3.42066 7.73773 3.4236C7.73478 3.42654 7.73478 3.42654 7.73184 3.42948C7.7289 3.43242 7.7289 3.43242 7.72596 3.43536C7.72302 3.43831 7.72008 3.44419 7.71419 3.44713C7.71125 3.45007 7.71125 3.45007 7.70831 3.45302C7.70537 3.45596 7.70242 3.46184 7.69654 3.46478C7.6936 3.46773 7.6936 3.46773 7.69066 3.47067C7.68772 3.47361 7.68772 3.47361 7.68477 3.47655C7.68183 3.47949 7.67889 3.48538 7.67301 3.48832C7.67889 3.48243 7.67595 3.48538 7.67595 3.48538C7.67301 3.48832 7.67006 3.4942 7.66418 3.49714C7.66124 3.50009 7.66124 3.50303 7.6583 3.50303C7.65535 3.50597 7.65535 3.50597 7.65241 3.50891C7.64947 3.51185 7.64653 3.51774 7.64065 3.52068C7.6377 3.52362 7.6377 3.52362 7.63476 3.52656C7.63182 3.5295 7.63182 3.5295 7.62888 3.53245C7.62594 3.53539 7.62299 3.54127 7.61711 3.54421C7.61417 3.54716 7.61417 3.54716 7.61123 3.5501C7.60828 3.55304 7.60534 3.55892 7.59946 3.56186C7.59652 3.56481 7.59652 3.56481 7.59358 3.56775C7.59063 3.57069 7.59063 3.57069 7.58769 3.57363C7.58475 3.57657 7.58181 3.58246 7.57592 3.5854C7.57298 3.58834 7.57298 3.58834 7.57004 3.59128C7.5671 3.59422 7.56416 3.60011 7.55827 3.60305C7.55533 3.60599 7.55533 3.60599 7.55239 3.60893C7.54945 3.61188 7.54945 3.61188 7.54651 3.61482C7.54356 3.61776 7.54062 3.62364 7.53474 3.62659C7.5318 3.62953 7.5318 3.62953 7.52885 3.63247C7.52591 3.63541 7.52591 3.63541 7.52297 3.63835C7.52003 3.64129 7.51709 3.64718 7.5112 3.65012C7.50826 3.65306 7.50826 3.65306 7.50532 3.656C7.50238 3.65895 7.49944 3.66483 7.49355 3.66777C7.49061 3.67071 7.49061 3.67071 7.48767 3.67366C7.48473 3.6766 7.48473 3.6766 7.48179 3.67954C7.47884 3.68248 7.4759 3.68836 7.47002 3.69131C7.46708 3.69425 7.46708 3.69425 7.46413 3.69719C7.46119 3.70013 7.45825 3.70602 7.45237 3.70896C7.44942 3.7119 7.44942 3.7119 7.44648 3.71484C7.44354 3.71778 7.44354 3.71778 7.4406 3.72072C7.43766 3.72367 7.43472 3.72955 7.42883 3.73249C7.42589 3.73543 7.42589 3.73543 7.42295 3.73838C7.42001 3.74132 7.41706 3.7472 7.41118 3.75014C7.40824 3.75309 7.40824 3.75308 7.4053 3.75603C7.40236 3.75897 7.40235 3.75897 7.39941 3.76191C7.39647 3.76485 7.39353 3.77074 7.38765 3.77368C7.3847 3.77662 7.3847 3.77662 7.38176 3.77956C7.38765 3.77368 7.3847 3.77662 7.38176 3.77956C7.37882 3.7825 7.37588 3.78839 7.37 3.79133L7.36705 3.79427C7.36411 3.79721 7.36117 3.8031 7.35529 3.80604C7.35234 3.80898 7.35234 3.80898 7.3494 3.81192C7.34646 3.81486 7.34646 3.81486 7.34352 3.81781C7.34058 3.82075 7.33763 3.82663 7.33175 3.82957C7.32881 3.83252 7.32881 3.83252 7.32587 3.83546C7.32293 3.8384 7.31998 3.84428 7.3141 3.84722C7.31116 3.85017 7.31116 3.85017 7.30822 3.85311C7.30527 3.85605 7.30527 3.85605 7.30233 3.85899C7.29939 3.86193 7.29645 3.86782 7.29057 3.87076C7.28762 3.8737 7.28762 3.8737 7.28468 3.87664C7.28174 3.87958 7.28174 3.87958 7.2788 3.88253C7.27586 3.88547 7.27291 3.89135 7.26703 3.89429C7.26409 3.89724 7.26409 3.89724 7.26115 3.90018C7.2582 3.90312 7.25526 3.909 7.24938 3.91194C7.24644 3.91489 7.24644 3.91489 7.24349 3.91783C7.24055 3.92077 7.24055 3.92077 7.23761 3.92371C7.23467 3.92665 7.23173 3.93254 7.22584 3.93548C7.2229 3.93842 7.2229 3.93842 7.21996 3.94136C7.21702 3.94431 7.21408 3.95019 7.20819 3.95313C7.20525 3.95607 7.20525 3.95607 7.20231 3.95901C7.19937 3.96196 7.19937 3.96196 7.19643 3.9649C7.19348 3.96784 7.19054 3.97372 7.18466 3.97667C7.18172 3.97961 7.18172 3.97961 7.17877 3.98255C7.17583 3.98549 7.17289 3.99138 7.16701 3.99432C7.16406 3.99726 7.16406 3.99726 7.16112 4.0002C7.15818 4.00314 7.15818 4.00314 7.15524 4.00608C7.1523 4.00903 7.14936 4.01491 7.14347 4.01785C7.14053 4.02079 7.14053 4.02079 7.13759 4.02374C7.13465 4.02668 7.13465 4.02668 7.1317 4.02962C7.12876 4.03256 7.12582 4.03844 7.11994 4.04139C7.117 4.04433 7.117 4.04433 7.11405 4.04727C7.11111 4.05021 7.10817 4.0561 7.10229 4.05904C7.09934 4.06198 7.09934 4.06198 7.0964 4.06492C6.864 4.23849 6.66395 4.45619 6.47861 4.68859C6.45214 4.72095 6.41978 4.74155 6.39624 4.77391C5.77551 5.60351 5.4372 6.78025 5.4372 8.29531V8.97487L3.64855 8.52183V8.52771H3.64267V8.5336H3.63678V8.53948H3.6309V8.54536H3.62502V8.55125H3.61913V8.55713H3.61325V8.56301H3.60736V8.5689H3.60148V8.57478H3.5956V8.58067H3.58971V8.58655H3.58383V8.59243H3.57795V8.59832H3.57206V8.6042H3.56618V8.61009H3.5603V8.61597H3.55441V8.62185H3.54853V8.62774H3.54264V8.63362H3.53676V8.6395H3.53088V8.64539H3.52499V8.65127H3.51911V8.65715H3.51323V8.66304H3.50734V8.66892H3.50146V8.67481H3.49557V8.68069H3.48969V8.68657H3.48381V8.69246H3.47792V8.69834H3.47204V8.70422H3.46616V8.71011H3.46027V8.71599H3.45439V8.72188H3.4485V8.72776H3.44262V8.73364H3.43674V8.73953H3.43085V8.74541H3.42497V8.75129H3.41909V8.75718H3.4132V8.76306H3.40732V8.76894H3.40144V8.77483H3.39555V8.78071H3.38967V8.7866H3.38378V8.79248H3.3779V8.79836H3.37202V8.80425H3.36613V8.81013H3.36025V8.81601H3.35437V8.8219H3.34848V8.82778H3.3426V8.83367H3.33671V8.83955H3.33083V8.84543H3.32495V8.85132H3.31906V8.8572H3.31318V8.86308H3.3073V8.86897H3.30141V8.87485H3.29553V8.88074H3.28964V8.88662H3.28376V8.8925H3.27788V8.89839H3.27199V8.90427H3.26611V8.91015H3.26023V8.91604H3.25434V8.92192H3.24846V8.92781H3.24258V8.93369H3.23669V8.93957H3.23081V8.94546H3.22492V8.95134H3.21904V8.95722H3.21316V8.96311H3.20727V8.96899H3.20139V8.97487H3.19551V8.98076H3.18962V8.98664H3.18374V8.99253H3.17785V8.99841H3.17197V9.00429H3.16609V9.01018H3.1602V9.01606H3.15432V9.02194H3.14844V9.02783H3.14255V9.03371H3.13667V9.0396H3.13078V9.04548H3.1249V9.05136H3.11902V9.05725H3.11313V9.06313H3.10725V9.06901H3.10137V9.0749H3.09548V9.08078H3.0896V9.08667H3.08371V9.09255H3.07783V9.09843H3.07195V9.08961H3.06606V9.09549H3.06018V9.10137H3.0543V9.10726H3.04841V9.11314H3.04253V9.11903H3.03665V9.12491H3.03076V9.13079H3.02488V9.13668H3.01899V9.14256H3.01311V9.14844H3.00723V9.15433H3.00134V9.16021H2.99546V9.1661H2.98958V9.17198H2.98369V9.17786H2.97781V9.18375H2.97192V9.18963H2.96604V9.19551H2.96016V9.2014H2.95427V9.20728H2.94839V9.21317H2.94251V9.21905H2.93662V9.22493H2.93074V9.23082H2.92485V9.2367H2.91897V9.24258H2.91309V9.24847H2.9072V9.25435H2.90132V9.26023H2.89544V9.26612H2.88955V9.272H2.88367V9.27789H2.87779V9.28377H2.8719V9.28965H2.86602V9.29554H2.86013V9.30142H2.85425V9.3073H2.84837V9.31319H2.84248V9.31907H2.8366V9.32495H2.83072V9.33084H2.82483V9.33672H2.81895V9.34261H2.81306V9.34849H2.80718V9.35437H2.8013V9.36026H2.79541V9.36614H2.78953V9.37202H2.78365V9.37791H2.77776V9.38379H2.77188V9.38968H2.76599V9.39556H2.76011V9.40144H2.75423V9.40733H2.74834V9.41321H2.74246V9.4191H2.73658V9.42498H2.73069V9.43086H2.72481V9.43675H2.71893V9.44263H2.71304V9.44851H2.70716V9.4544H2.70127V9.46028H2.69539V9.46616H2.68951V9.47205H2.68362V9.47793H2.67774V9.48382H2.67186V9.4897H2.66597V9.49558H2.66009V9.50147H2.6542V9.50735H2.64832V9.51323H2.64244V9.51912H2.63655V9.525H2.63067V9.53088H2.62479V9.53677H2.6189V9.54265H2.61302V9.54854H2.60713V9.55442H2.60125V9.5603H2.59537V9.56619H2.58948V9.57207H2.5836V9.57795H2.57772V9.58384H2.57183V9.58972H2.56595V9.59561H2.56007V9.60149H2.55418V9.60737H2.5483V9.61326H2.54241V9.61914H2.53653V9.62502H2.53065V9.63091H2.52476V9.63679H2.51888V9.64268H2.513V9.64856H2.50711V9.65444H2.50123V9.66033H2.49534V9.66621H2.48946V9.67209H2.48358V9.67798H2.47769V9.68386H2.47181V9.68974H2.46593V9.69563H2.46004V9.70151H2.45416V9.7074H2.44827V9.71328H2.44239V9.71916H2.43651V9.72505H2.43062V9.73093H2.42474V9.73682H2.41886V9.7427H2.41297V9.74858H2.40709V9.75447H2.40121V9.76035H2.39532V9.76623H2.38944V9.77212H2.38355V9.778H2.37767V9.78389H2.37179V9.78977H2.3659V9.79565H2.36002V9.80154H2.35414V9.80742H2.34825V9.8133H2.34237V9.81919H2.33648V9.82507H2.3306V9.83095H2.32472V9.83684H2.31883V9.84272H2.31295V9.84861H2.30707V9.85449H2.30118V9.86037H2.2953V9.86626H2.28941V9.87214H2.28353V9.87802H2.27765V9.88391H2.27176V9.88979H2.26588V9.89567H2.26V9.90156H2.25411V9.90744H2.24823V9.91333H2.24234V9.91921H2.23646V9.92509H2.23058V9.93098H2.22469V9.93686H2.21881V9.94274H2.21293V9.94863H2.20704V9.95451H2.20116V9.9604H2.19528V9.96628H2.18939V9.97216H2.18351V9.97805H2.17762V9.98393H2.17174V9.98981H2.16586V9.97216H2.15997V9.97805H2.15409V9.98393H2.14821V9.98981H2.14232V9.9957H2.13644V10.0016H2.13055V10.0075H2.12467V10.0133H2.11879V10.0192H2.1129V10.0251H2.10702V10.031H2.10114V10.0369H2.09525V10.0428H2.08937V10.0487H2.08348V10.0545H2.0776V10.0604H2.07172V10.0663H2.06583V10.0722H2.05995V10.0781H2.05407V10.084H2.04818V10.0898H2.0423V10.0957H2.03642V10.1016H2.03053V10.1075H2.02465V10.1134H2.01876V10.1193H2.01288V10.1251H2.007V10.131H2.00111V10.1369H1.99523V10.1428H1.98935V10.1487H1.98346V10.1546H1.97758V10.1604H1.97169V10.1663H1.96581V10.1722H1.95993V10.1781H1.95404V10.184H1.94816V10.1899H1.94228V10.1957H1.93639V10.2016H1.93051V10.2075H1.92462V10.2134H1.91874V10.2193H1.91286V10.2252H1.90697V10.231H1.90109V10.2369H1.89521V10.2428H1.88932V10.2487H1.88344V10.2546H1.87756V10.2605H1.87167V10.2663H1.86579V10.2722H1.8599V10.2781H1.85402V10.284H1.84814V10.2899H1.84225V10.2958H1.83637V10.3017H1.83049V10.3075H1.8246V10.3134H1.81872V10.3193H1.81283V10.3252H1.80695V10.3311H1.80107V10.337H1.79518V10.3428H1.7893V10.3487H1.78342V10.3546H1.77753V10.3605H1.77165V10.3664H1.76576V10.3723H1.75988V10.3781H1.754V10.384H1.74811V10.3899H1.74223V10.3958H1.73635V10.4017H1.73046V10.4076H1.72458V10.4134H1.7187V10.4193H1.71281V10.4252H1.70693V10.4311H1.70104V10.437H1.69516V10.4429H1.68928V10.4487H1.68339V10.4546H1.67751V10.4605H1.67163V10.4664H1.66574V10.4723H1.65986V10.4782H1.65397V10.484H1.64809V10.4899H1.64221V10.4958H1.63632V10.5017H1.63044V10.5076H1.62456V10.5135H1.61867V10.5193H1.61279V10.5252H1.6069V10.5311H1.60102V10.537H1.59514V10.5429H1.58925V10.5488H1.58337V10.5547H1.57749V10.5605H1.5716V10.5664H1.56572V10.5723H1.55984V10.5605H1.55395V10.5664H1.54807V10.5723H1.54218V10.5782H1.5363V10.5841H1.53042V10.59H1.52453V10.5958H1.51865V10.6017H1.51277V10.6076H1.50688V10.6135H1.501V10.6194H1.49511V10.6253H1.48923V10.6311H1.48335V10.637H1.47746V10.6429H1.47158V10.6488H1.4657V10.6547H1.45981V10.6606H1.45393V10.6664H1.44804V10.6723H1.44216V10.6782H1.43628V10.6841H1.43039V10.69H1.42451V10.6959H1.41863V10.7017H1.41274V10.7076H1.40686V10.7135H1.40097V10.7194H1.39509V10.7253H1.38921V10.7312H1.38332V10.737H1.37744V10.7429H1.37156V10.7488H1.36567V10.7547H1.35979V10.7606H1.35391V10.7665H1.34802V10.7723H1.34214V10.7782H1.33625V10.7841H1.33037V10.79H1.32449V10.7959H1.3186V10.8018H1.31272V10.8076H1.30684V10.8135H1.30095V10.8194H1.29507V10.8253H1.28918V15.4793L5.37542 16.4972V27.7468L10.406 29.0001V28.9942H10.4119V28.9883H10.4178V28.9824H10.4236V28.9765H10.4295V28.9707H10.4354V28.9648H10.4413V28.9589H10.4472V28.953H10.4531V28.9471H10.4589V28.9412H10.4648V28.9354H10.4707V28.9295H10.4766V28.9177H10.4825V28.9118H10.4884V28.9059H10.4942V28.9H10.5001V28.8942H10.506V28.8883H10.5119V28.8824H10.5178V28.8765H10.5237V28.8706H10.5295V28.8647H10.5354V28.8589H10.5413V28.853H10.5472V28.8471H10.5531V28.8412H10.559V28.8353H10.5648V28.8294H10.5707V28.8236H10.5766V28.8177H10.5825V28.8118H10.5884V28.8059H10.5943V28.8H10.6001V28.7941H10.606V28.7883H10.6119V28.7824H10.6178V28.7765H10.6237V28.7706H10.6296V28.7647H10.6355V28.7588H10.6413V28.753H10.6472V28.7471H10.6531V28.7412H10.659V28.7353H10.6649V28.7294H10.6708V28.7235H10.6766V28.7177H10.6825V28.7118H10.6884H10.6943V28.7059H10.7002V28.7H10.7061V28.6941H10.7119V28.6882H10.7178V28.6824H10.7237V28.6765H10.7296V28.6706H10.7355V28.6647H10.7414V28.6588H10.7472V28.6529H10.7531V28.6471H10.759V28.6412H10.7649V28.6353H10.7708V28.6294H10.7767V28.6235H10.7825V28.6176H10.7884V28.6117H10.7943V28.6059H10.8002V28.6H10.8061V28.5941H10.812V28.5882H10.8178V28.5823H10.8237V28.5764H10.8296V28.5706H10.8355V28.5647H10.8414V28.5588H10.8473V28.5529H10.8531V28.547H10.859V28.5411H10.8649V28.5353H10.8708V28.5294H10.8767V28.5235H10.8826V28.5176H10.8885V28.5117H10.8943V28.5058H10.9002H10.9061V28.5H10.912V28.4941H10.9179V28.4882H10.9238V28.4823H10.9296V28.4764H10.9355V28.4705H10.9414V28.4647H10.9473V28.4588H10.9532V28.4529H10.9591V28.447H10.9649V28.4411H10.9708V28.4352H10.9767V28.4294H10.9826V28.4235H10.9885V28.4176H10.9944V28.4117H11.0002V28.4058H11.0061V28.3999H11.012V28.3941H11.0179V28.3882H11.0238V28.3823H11.0297V28.3764H11.0355V28.3705H11.0414V28.3646H11.0473V28.3587H11.0532V28.3529H11.0591V28.347H11.065V28.3411H11.0708V28.3352H11.0767V28.3293H11.0826V28.3234H11.0885V28.3176H11.0944V28.3117H11.1003V28.3058H11.1061V28.2999H11.112H11.1179V28.294H11.1238V28.2881H11.1297V28.2823H11.1356V28.2764H11.1415V28.2705H11.1473V28.2646H11.1532V28.2587H11.1591V28.2528H11.165V28.247H11.1709V28.2411H11.1768V28.2352H11.1826V28.2293H11.1885V28.2234H11.1944V28.2175H11.2003V28.2117H11.2062V28.2058H11.2121V28.1999H11.2179V28.194H11.2238V28.1881H11.2297V28.1822H11.2356V28.1764H11.2415V28.1705H11.2474V28.1646H11.2532V28.1587H11.2591V28.1528H11.265V28.1469H11.2709V28.1411H11.2768V28.1352H11.2827V28.1293H11.2885V28.1234H11.2944V28.1175H11.3003V28.1116H11.3062V28.1057H11.3121V28.0999H11.318V28.094H11.3238H11.3297V28.0881H11.3356V28.0822H11.3415V28.0763H11.3474V28.0704H11.3533V28.0646H11.3591V28.0587H11.365V28.0528H11.3709V28.0469H11.3768V28.041H11.3827V28.0351H11.3886V28.0293H11.3945V28.0234H11.4003V28.0175H11.4062V28.0116H11.4121V28.0057H11.418V27.9998H11.4239V27.994H11.4298V27.9881H11.4356V27.9822H11.4415V27.9763H11.4474V27.9704H11.4533V27.9645H11.4592V27.9587H11.4651V27.9528H11.4709V27.9469H11.4768V27.941H11.4827V27.9351H11.4886V27.9292H11.4945V27.9234H11.5004V27.9175H11.5062V27.9116H11.5121V27.9057H11.518V27.8998H11.5239V27.8939H11.5298V27.8881H11.5357H11.5415V27.8822H11.5474V27.8763H11.5533V27.8704H11.5592V27.8645H11.5651V27.8586H11.571V27.8527H11.5768V27.8469H11.5827V27.841H11.5886V27.8351H11.5945V27.8292H11.6004V27.8233H11.6063V27.8174H11.6121V27.8116H11.618V27.8057H11.6239V27.7998H11.6298V27.7939H11.6357V27.788H11.6416V27.7821H11.6475V27.7763H11.6533V27.7704H11.6592V27.7645H11.6651V27.7586H11.671V27.7527H11.6769V27.7468H11.6828V27.741H11.6886V27.7351H11.6945V27.7292H11.7004V27.7233H11.7063V27.7174H11.7122V27.7115H11.7181V27.7057H11.7239V27.6998H11.7298V27.6939H11.7357V27.688H11.7416V27.6821H11.7475H11.7534V27.6762H11.7592V27.6704H11.7651V27.6645H11.771V27.6586H11.7769V27.6527H11.7828V27.6468H11.7887V27.6409H11.7945V27.6351H11.8004V27.6292H11.8063V27.6233H11.8122V27.6174H11.8181V27.6115H11.824V27.6056H11.8298V27.5997H11.8357V27.5939H11.8416V27.588H11.8475V27.5821H11.8534V27.5762H11.8593V27.5703H11.8651V27.5644H11.871V27.5586H11.8769V27.5527H11.8828V27.5468H11.8887V27.5409H11.8946V27.535H11.9004V27.5291H11.9063V27.5233H11.9122V27.5174H11.9181V27.5115H11.924V27.5056H11.9299V27.4997H11.9358V27.4938H11.9416V27.488H11.9475V27.4821H11.9534V27.4762H11.9593H11.9652V27.4703H11.9711V27.4644H11.9769V27.4585H11.9828V27.4527H11.9887V27.4468H11.9946V27.4409H12.0005V27.435H12.0064V27.4291H12.0122V27.4232H12.0181V27.4174H12.024V27.4115H12.0299V27.4056H12.0358V27.3997H12.0417V27.3938H12.0475V27.3879H12.0534V27.3821H12.0593V27.3762H12.0652V27.3703H12.0711V27.3644H12.077V27.3585H12.0828V27.3526H12.0887V27.3467H12.0946V27.3409H12.1005V27.335H12.1064V27.3291H12.1123V27.3232H12.1181V27.3173H12.124V27.3114H12.1299V27.3056H12.1358V27.2997H12.1417V27.2938H12.1476V27.2879H12.1534V27.282H12.1593V27.2761H12.1652V27.2703H12.1711H12.177V27.2644H12.1829V27.2585H12.1888V27.2526H12.1946V27.2467H12.2005V27.2408H12.2064V27.235H12.2123V27.2291H12.2182V27.2232H12.2241V27.2173H12.2299V27.2114H12.2358V27.2055H12.2417V27.1997H12.2476V27.1938H12.2535V27.1879H12.2594V27.182H12.2652V27.1761H12.2711V27.1702H12.277V27.1644H12.2829V27.1585H12.2888V27.1526H12.2947V27.1467H12.3005V27.1408H12.3064V27.1349H12.3123V27.1291H12.3182V27.1232H12.3241V27.1173H12.33V27.1114H12.3358V27.1055H12.3417V27.0996H12.3476V27.0938H12.3535V27.0879H12.3594V27.082H12.3653V27.0761H12.3711V27.0702H12.377V27.0643H12.3829H12.3888V27.0584H12.3947V27.0526H12.4006V27.0467H12.4064V27.0408H12.4123V27.0349H12.4182V27.029H12.4241V27.0231H12.43V27.0173H12.4359V27.0114H12.4417V27.0055H12.4476V26.9996H12.4535V26.9937H12.4594V26.9878H12.4653V26.982H12.4712V26.9761H12.4771V26.9702H12.4829V26.9643H12.4888V26.9584H12.4947V26.9525H12.5006V26.9467H12.5065V26.9408H12.5124V26.9349H12.5182V26.929H12.5241V26.9231H12.53V26.9172H12.5359V26.9114H12.5418V26.9055H12.5477V26.8996H12.5535V26.8937H12.5594V26.8878H12.5653V26.8819H12.5712V26.8761H12.5771V26.8702H12.583V26.8643H12.5888V26.8584H12.5947H12.6006V26.8525H12.6065V26.8466H12.6124V26.8407H12.6183V26.8349H12.6241V26.829H12.63V26.8231H12.6359V26.8172H12.6418V26.8113H12.6477V26.8054H12.6536V26.7996H12.6594V26.7937H12.6653V26.7878H12.6712V26.7819H12.6771V26.776H12.683V26.7701H12.6889V26.7643H12.6947V26.7584H12.7006V26.7525H12.7065V26.7466H12.7124V26.7407H12.7183V26.7348H12.7242V26.729H12.7301V26.7231H12.7359V26.7172H12.7418V26.7113H12.7477V26.7054H12.7536V26.6995H12.7595V26.6937H12.7654V18.3153L14.2216 18.6771V18.6712H14.2275V18.6653H14.2333V18.6595H14.2392V18.6536H14.2451V18.6477H14.251V18.6418H14.2569V18.6359H14.2628V18.63H14.2686V18.6242H14.2745V18.6183H14.2804V18.6124H14.2863V18.6065H14.2922V18.6006H14.2981V18.5947H14.3039V18.5889H14.3098V18.583H14.3157V18.5771H14.3216V18.5712H14.3275V18.5653H14.3334V18.5594H14.3392V18.5535H14.3451V18.5477H14.351V18.5418H14.3569V18.5359H14.3628V18.53H14.3687V18.5241H14.3745V18.5182H14.3804V18.5124H14.3863V18.5065H14.3922V18.5006H14.3981V18.4947H14.404V18.4888H14.4099V18.4829H14.4157V18.4771H14.4216V18.4712H14.4275V18.4653H14.4334V18.4594H14.4393V18.4535H14.4452V18.4476H14.451V18.4418H14.4569V18.4359H14.4628V18.43H14.4687V18.4241H14.4746V18.4182H14.4805V18.4123H14.4863V18.4065H14.4922V18.4006H14.4981V18.3947H14.504V18.3888H14.5099V18.3829H14.5158V18.377H14.5216V18.3712H14.5275V18.3653H14.5334V18.3594H14.5393V18.3535H14.5452V18.3476H14.5511V18.3417H14.5569V18.3359H14.5628V18.33H14.5687V18.3241H14.5746V18.3182H14.5805V18.3123H14.5864V18.3064H14.5922V18.3006H14.5981V18.2947H14.604V18.2888H14.6099V18.2829H14.6158V18.277H14.6217V18.2711H14.6275V18.2652H14.6334V18.2594H14.6393V18.2535H14.6452V18.2476H14.6511V18.2417H14.657V18.2358H14.6628V18.2299H14.6687V18.2241H14.6746V18.2182H14.6805V18.2123H14.6864V18.2064H14.6923V18.2005H14.6982V18.1946H14.704V18.1888H14.7099V18.1829H14.7158V18.177H14.7217V18.1711H14.7276V18.1652H14.7335V18.1593H14.7393V18.1535H14.7452V18.1476H14.7511V18.1417H14.757V18.1358H14.7629V18.1299H14.7688V18.124H14.7746V18.1182H14.7805V18.1123H14.7864V18.1064H14.7923V18.1005H14.7982V18.0946H14.8041V18.0887H14.8099V18.0829H14.8158V18.077H14.8217V18.0711H14.8276V18.0652H14.8335V18.0593H14.8394V18.0534H14.8452V18.0476H14.8511V18.0417H14.857V18.0358H14.8629V18.0299H14.8688V18.024H14.8747V18.0181H14.8805V18.0122H14.8864V18.0064H14.8923V18.0005H14.8982V17.9946H14.9041V17.9887H14.91V17.9828H14.9158V17.9769H14.9217V17.9711H14.9276V17.9652H14.9335V17.9593H14.9394V17.9534H14.9453V17.9475H14.9512V17.9416H14.957V17.9358H14.9629V17.9299H14.9688V17.924H14.9747V17.9181H14.9806V17.9122H14.9865V17.9063H14.9923V17.9005H14.9982V17.8946H15.0041V17.8887H15.01V17.8828H15.0159V17.8769H15.0218V17.871H15.0276V17.8652H15.0335V17.8593H15.0394V17.8534H15.0453V17.8475H15.0512V17.8416H15.0571V17.8357H15.0629V17.8299H15.0688V17.824H15.0747V17.8181H15.0806V17.8122H15.0865V17.8063H15.0924V17.8004H15.0982V17.7946H15.1041V17.7887H15.11V17.7828H15.1159V17.7769H15.1218V17.771H15.1277V17.7651H15.1335V17.7593H15.1394V17.7534H15.1453V17.7475H15.1512V17.7416H15.1571V17.7357H15.163V17.7298H15.1688V17.7239H15.1747V17.7181H15.1806V17.7122H15.1865V17.7063H15.1924V17.7004H15.1983V17.6945H15.2042V17.6886H15.21V17.6828H15.2159V17.6769H15.2218V17.671H15.2277V17.6651H15.2336V17.6592H15.2395V17.6533H15.2453V17.6475H15.2512V17.6416H15.2571V17.6357H15.263V17.6298H15.2689V17.6239H15.2748V17.618H15.2806V17.6122H15.2865V17.6063H15.2924V17.6004H15.2983V17.5945H15.3042V17.5886H15.3101V17.5827H15.3159V17.5769H15.3218V17.571H15.3277V17.5651H15.3336V17.5592H15.3395V17.5533H15.3454V17.5474H15.3512V17.5416H15.3571V17.5357H15.363V17.5298H15.3689V17.5239H15.3748V17.518H15.3807V17.5121H15.3865V17.5063H15.3924V17.5004H15.3983V17.4945H15.4042V17.4886H15.4101V17.4827H15.416V17.4768H15.4218V17.4709H15.4277V17.4651H15.4336V17.4592H15.4395V17.4533H15.4454V17.4474H15.4513V17.4415H15.4571V17.4356H15.463V17.4298H15.4689V17.4239H15.4748V17.418H15.4807V17.4121H15.4866V17.4062H15.4925V17.4003H15.4983V17.3945H15.5042V17.3886H15.5101V17.3827H15.516V17.3768H15.5219V17.3709H15.5278V17.365H15.5336V17.3592H15.5395V17.3533H15.5454V17.3474H15.5513V17.3415H15.5572V17.3356H15.5631V17.3297H15.5689V17.3239H15.5748V17.318H15.5807V17.3121H15.5866V17.3062H15.5925V17.3003H15.5984V17.2944H15.6042V17.2886H15.6101V17.2827H15.616V17.2768H15.6219V17.2709H15.6278V17.265H15.6337V17.2591H15.6395V17.2533H15.6454V17.2474H15.6513V17.2415H15.6572V17.2356H15.6631V17.2297H15.669V17.2238H15.6748V17.2179H15.6807V17.2121H15.6866V17.2062H15.6925V17.2003H15.6984V17.1944H15.7043V17.1885H15.7101V17.1826H15.716V17.1768H15.7219V17.1709H15.7278V17.165H15.7337V17.1591H15.7396V17.1532H15.7455V17.1473H15.7513V17.1415H15.7572V17.1356H15.7631V17.1297H15.769V17.1238H15.7749V17.1179H15.7808V17.112H15.7866V17.1062H15.7925V17.1003H15.7984V17.0944H15.8043V17.0885H15.8102V17.0826H15.8161V17.0767H15.8219V17.0709H15.8278V17.065H15.8337V17.0591H15.8396V17.0532H15.8455V17.0473H15.8514V17.0414H15.8572V17.0356H15.8631V17.0297H15.869V17.0238H15.8749V17.0179H15.8808V17.012H15.8867V17.0061H15.8925V17.0003H15.8984V16.9944H15.9043V16.9885H15.9102V16.9826H15.9161V16.9767H15.922V16.9708H15.9278V16.9649H15.9337V16.9591H15.9396V16.9532H15.9455V16.9473H15.9514V16.9414H15.9573V16.9355H15.9631V16.9296H15.969V16.9238H15.9749V16.9179H15.9808V16.912H15.9867V16.9061H15.9926V16.9002H15.9985V16.8943H16.0043V16.8885H16.0102V16.8826H16.0161V16.8767H16.022V16.8708H16.0279V16.8649H16.0338V16.859H16.0396V16.8532H16.0455V16.8473H16.0514V16.8414H16.0573V16.8355H16.0632V16.8296H16.0691V16.8237H16.0749V16.8179H16.0808V16.812H16.0867V16.8061H16.0926V16.8002H16.0985V16.7943H16.1044V16.7884H16.1102V16.7826H16.1161V16.7767H16.122V16.7708H16.1279V16.7649H16.1338V16.759H16.1397V16.7531H16.1455V16.7473H16.1514V16.7414H16.1573V16.7355H16.1632V16.7296H16.1691V16.7237H16.175V16.7178H16.1808V16.7119H16.1867V16.7061H16.1926V16.7002H16.1985V16.6943H16.2044V16.6884H16.2103V16.6825H16.2161V16.6766H16.222V16.6708H16.2279V16.6649H16.2338V16.659H16.2397V16.6531H16.2456V16.6472H16.2514V16.6413H16.2573V16.6355H16.2632V16.6296H16.2691V16.6237H16.275V16.6178H16.2809V16.6119H16.2868V16.606H16.2926V16.6002H16.2985V16.5943H16.3044V16.5884H16.3103V16.5825H16.3162V16.5766H16.3221V16.5707H16.3279V16.5649H16.3338V16.559H16.3397V16.5531H16.3456V16.5472H16.3515V16.5413H16.3574V16.5354H16.3632V16.5296H16.3691V16.5237H16.375V16.5178H16.3809V16.5119H16.3868V16.506H16.3927V16.5001H16.3985V16.4943H16.4044V16.4884H16.4103V16.4825H16.4162V16.4766H16.4221V16.4707H16.428V16.4648H16.4338V16.459H16.4397V16.4531H16.4456V16.4472H16.4515V16.4413H16.4574V16.4354H16.4633V16.4295H16.4691V16.4236H16.475V16.4178H16.4809V16.4119H16.4868V16.406H16.4927V16.4001H16.4986V16.3942H16.5044V16.3883H16.5103V16.3825H16.5162V16.3766H16.5221V16.3707H16.528V16.3648H16.5339V16.3589H16.5398V16.353H16.5456V16.3472H16.5515V16.3413H16.5574V16.3354H16.5633V16.3295H16.5692V16.3236H16.5751V16.3177H16.5809L17.2958 11.8432L12.7654 10.7959V8.1541C12.8742 8.17175 12.9742 8.18057 13.0948 8.20999L15.1247 8.71599V8.71011H15.1306V8.70422H15.1365V8.69834H15.1424V8.69246H15.1483V8.68657H15.1541V8.68069H15.16V8.67481H15.1659V8.66892H15.1718V8.66304H15.1777V8.65715H15.1836V8.65127H15.1894V8.64539H15.1953V8.6395H15.2012V8.63362H15.2071V8.62774H15.213V8.62185H15.2189V8.61891H15.2247V8.61303H15.2306V8.60714H15.2365V8.60126H15.2424V8.59538H15.2483V8.58949H15.2542V8.58361H15.26V8.57772H15.2659V8.57184H15.2718V8.56596H15.2777V8.56007H15.2836V8.55419H15.2895V8.54831H15.2953V8.54242H15.3012V8.53654H15.3071V8.53065H15.313V8.52477H15.3189V8.51889H15.3248V8.513H15.3306V8.50712H15.3365V8.50124H15.3424V8.49535H15.3483V8.48947H15.3542V8.48359H15.3601V8.4777H15.366V8.47182H15.3718V8.46593H15.3777V8.46005H15.3836V8.45417H15.3895V8.44828H15.3954V8.4424H15.4013V8.43652H15.4071V8.43063H15.413V8.42475H15.4189V8.41886H15.4248V8.41298H15.4307H15.4366V8.4071H15.4424V8.40121H15.4483V8.39533H15.4542V8.38945H15.4601V8.38356H15.466V8.37768H15.4719V8.37179H15.4777V8.36591H15.4836V8.36003H15.4895V8.35414H15.4954V8.34826H15.5013V8.34238H15.5072V8.33649H15.513V8.33061H15.5189V8.32473H15.5248V8.31884H15.5307V8.31296H15.5366V8.30707H15.5425V8.30119H15.5483V8.29531H15.5542V8.28942H15.5601V8.28354H15.566V8.27766H15.5719V8.27177H15.5778V8.26589H15.5836V8.26H15.5895V8.25412H15.5954V8.24824H15.6013V8.24235H15.6072V8.23647H15.6131V8.23059H15.619V8.2247H15.6248V8.21882H15.6307V8.21293H15.6366V8.20705H15.6425H15.6484V8.20117H15.6543V8.19528H15.6601V8.1894H15.666V8.18352H15.6719V8.17763H15.6778V8.17175H15.6837V8.16587H15.6896V8.15998H15.6954V8.1541H15.7013V8.14821H15.7072V8.14233H15.7131V8.13645H15.719V8.13056H15.7249V8.12468H15.7307V8.1188H15.7366V8.11291H15.7425V8.10703H15.7484V8.10114H15.7543V8.09526H15.7602V8.08938H15.766V8.08349H15.7719V8.07761H15.7778V8.07173H15.7837V8.06584H15.7896V8.05996H15.7955V8.05407H15.8013V8.04819H15.8072V8.04231H15.8131V8.03642H15.819V8.03054H15.8249V8.02466H15.8308V8.01877H15.8366V8.01289H15.8425V8.007H15.8484V8.00112H15.8543H15.8602V7.99524H15.8661V7.98935H15.872V7.98347H15.8778V7.97759H15.8837V7.9717H15.8896V7.96582H15.8955V7.95994H15.9014V7.95405H15.9073V7.94817H15.9131V7.94228H15.919V7.9364H15.9249V7.93052H15.9308V7.92463H15.9367V7.91875H15.9426V7.91287H15.9484V7.90698H15.9543V7.9011H15.9602V7.89521H15.9661V7.88933H15.972V7.88345H15.9779V7.87756H15.9837V7.87168H15.9896V7.8658H15.9955V7.85991H16.0014V7.85403H16.0073V7.84815H16.0132V7.84226H16.019V7.83638H16.0249V7.83049H16.0308V7.82461H16.0367V7.81873H16.0426V7.81284H16.0485V7.80696H16.0543V7.80108H16.0602V7.79519H16.0661H16.072V7.78931H16.0779V7.78342H16.0838V7.77754H16.0896V7.77166H16.0955V7.76577H16.1014V7.75989H16.1073V7.75401H16.1132V7.74812H16.1191V7.74224H16.1249V7.73635H16.1308V7.73047H16.1367V7.72459H16.1426V7.7187H16.1485V7.71282H16.1544V7.70694H16.1603V7.70105H16.1661V7.69517H16.172V7.68928H16.1779V7.6834H16.1838V7.67752H16.1897V7.67163H16.1956V7.66575H16.2014V7.65987H16.2073V7.65398H16.2132V7.6481H16.2191V7.64222H16.225V7.63633H16.2309V7.63045H16.2367V7.62456H16.2426V7.61868H16.2485V7.6128H16.2544V7.60691H16.2603V7.60103H16.2662V7.59515H16.272V7.58926H16.2779H16.2838V7.58338H16.2897V7.57749H16.2956V7.57161H16.3015V7.56573H16.3073V7.55984H16.3132V7.55396H16.3191V7.54808H16.325V7.54219H16.3309V7.53631H16.3368V7.53043H16.3426V7.52454H16.3485V7.51866H16.3544V7.51277H16.3603V7.50689H16.3662V7.50101H16.3721V7.49512H16.3779V7.48924H16.3838V7.48336H16.3897V7.47747H16.3956V7.47159H16.4015V7.4657H16.4074V7.45982H16.4133V7.45394H16.4191V7.44805H16.425V7.44217H16.4309V7.43629H16.4368V7.4304H16.4427V7.42452H16.4486V7.41863H16.4544V7.41275H16.4603V7.40687H16.4662V7.40098H16.4721V7.3951H16.478V7.38922H16.4839V7.38333H16.4897H16.4956V7.37745H16.5015V7.37156H16.5074V7.36568H16.5133V7.3598H16.5192V7.35391H16.525V7.34803H16.5309V7.34215H16.5368V7.33626H16.5427V7.33038H16.5486V7.32449H16.5545V7.31861H16.5603V7.31273H16.5662V7.30684H16.5721V7.30096H16.578V7.29508H16.5839V7.28919H16.5898V7.28331H16.5956V7.27743H16.6015V7.27154H16.6074V7.26566H16.6133V7.25977H16.6192V7.25389H16.6251V7.24801H16.6309V7.24212H16.6368V7.23624H16.6427V7.23036H16.6486V7.22447H16.6545V7.21859H16.6604V7.2127H16.6663V7.20682H16.6721V7.20094H16.678V7.19505H16.6839V7.18917H16.6898V7.18329H16.6957V7.1774H16.7016H16.7074V7.17152H16.7133V7.16563H16.7192V7.15975H16.7251V7.15387H16.731V7.14798H16.7369V7.1421H16.7427V7.13622H16.7486V7.13033H16.7545V7.12445H16.7604V7.11857H16.7663V7.11268H16.7722V7.1068H16.778V7.10091H16.7839V7.09503H16.7898V7.08915H16.7957V7.08326H16.8016V7.07738H16.8075V7.0715H16.8133V7.06561H16.8192V7.05973H16.8251V7.05384H16.831V7.04796H16.8369V7.04208H16.8428V7.03619H16.8486V7.03031H16.8545V7.02443H16.8604V7.01854H16.8663V7.01266H16.8722V7.00677H16.8781V7.00089H16.8839V6.99501H16.8898V6.98912H16.8957V6.98324H16.9016V6.97736H16.9075V6.97147H16.9134H16.9193V6.96559H16.9251V6.95971H16.931V6.95382H16.9369V6.94794H16.9428V6.94205H16.9487V6.93617H16.9546V6.93029H16.9604V6.9244H16.9663V6.91852H16.9722V6.91264H16.9781V6.90675H16.984V6.90087H16.9899V6.89498H16.9957V6.8891H17.0016V6.88322H17.0075V6.87733H17.0134V6.87145H17.0193V6.86557H17.0252V6.85968H17.031V6.8538H17.0369V6.84791H17.0428V6.84203H17.0487V6.83615H17.0546V6.83026H17.0605V6.82438H17.0663V6.8185H17.0722V6.81261H17.0781V6.80673H17.084V6.80084H17.0899V6.79496H17.0958V6.78908H17.1016V6.78319H17.1075V6.77731H17.1134V6.77143H17.1193V6.76554H17.1252H17.1311V6.75966H17.1369V6.75378H17.1428V6.74789H17.1487V6.74201H17.1546V6.73612H17.1605V6.73024H17.1664V6.72436H17.1722V6.71847H17.1781V6.71259H17.184V6.70671H17.1899V6.70082H17.1958V6.69494H17.2017V6.68905H17.2076V6.68317H17.2134V6.67729H17.2193V6.6714H17.2252V6.66552H17.2311V6.65964H17.237V6.65375H17.2429V6.64787H17.2487V6.64198H17.2546V6.6361H17.2605V6.63022H17.2664V6.62433H17.2723V6.61845H17.2782V6.61257H17.284V6.60668H17.2899V6.6008H17.2958V6.59492H17.3017V6.58903H17.3076V6.58315H17.3135V6.57726H17.3193V6.57138H17.3252V6.5655H17.3311V6.55961H17.337V6.55373H17.3429V6.54785H17.3488V6.54196H17.3546V6.53608H17.3605V6.53019H17.3664H17.3723V6.52431H17.3782V6.51843H17.3841V6.51254H17.3899V6.50666H17.3958V6.50078H17.4017V6.49489H17.4076V6.48901H17.4135V6.48312H17.4194V6.47724H17.4252V6.47136H17.4311V6.46547H17.437V6.45959H17.4429V6.45371H17.4488V6.44782H17.4547V6.44194H17.4606V6.43606H17.4664V6.43017H17.4723V6.42429H17.4782V6.4184H17.4841V2.46161H17.4194Z" fill="black" stroke="white" stroke-miterlimit="10" stroke-linecap="round" stroke-linejoin="round"/>
    <path d="M14.2215 18.68L14.9364 14.2054L10.4707 13.0904V10.0692C10.4707 8.79534 11.0944 7.7098 13.0948 8.20991L15.1247 8.71591V4.75618C15.1247 4.75618 13.2831 3.98247 11.5209 3.54413C7.84361 2.62627 5.44012 4.25606 5.44012 8.29228V11.8402L1.35388 10.8164V15.4704L5.44012 16.4883V27.7379L10.4707 28.9912V17.7445L14.2215 18.68Z" fill="black" stroke="white" stroke-miterlimit="10" stroke-linecap="round" stroke-linejoin="round"/>
    </svg>
    