
<svg width="30" height="30" viewBox="0 0 30 30" fill="none" xmlns="http://www.w3.org/2000/svg">
    <path d="M26.5899 6.45788L5.93096 1.08096C5.05902 0.854955 4.29232 1.11548 3.83831 1.69618C3.83831 1.69932 3.8353 1.70246 3.83229 1.70246C3.82929 1.70246 3.82929 1.70873 3.82628 1.70873C3.82628 1.71187 3.82327 1.71501 3.82027 1.71501C3.82027 1.71815 3.81726 1.72129 3.81425 1.72129C3.81425 1.72443 3.81125 1.72757 3.80824 1.72757C3.80824 1.73071 3.80523 1.73385 3.80223 1.73385C3.80223 1.73698 3.79922 1.74012 3.79621 1.74012C3.79621 1.74326 3.79321 1.7464 3.7902 1.7464C3.7902 1.74954 3.78719 1.75268 3.78419 1.75268C3.78118 1.75268 3.78118 1.75896 3.77817 1.75896C3.77817 1.7621 3.77517 1.76523 3.77216 1.76523C3.77216 1.76837 3.76915 1.77151 3.76615 1.77151C3.76615 1.77465 3.76314 1.77779 3.76013 1.77779C3.76013 1.78093 3.75713 1.78407 3.75412 1.78407C3.75412 1.78721 3.75111 1.79035 3.74811 1.79035C3.74811 1.79348 3.7451 1.79662 3.74209 1.79662C3.74209 1.79976 3.73909 1.8029 3.73608 1.8029C3.73608 1.80604 3.73307 1.80918 3.73007 1.80918C3.73007 1.81232 3.72706 1.81546 3.72405 1.81546C3.72405 1.8186 3.72105 1.82173 3.71804 1.82173C3.71804 1.82487 3.71503 1.82801 3.71203 1.82801C3.71203 1.83115 3.70902 1.83429 3.70601 1.83429C3.70601 1.83743 3.70301 1.84057 3.7 1.84057C3.7 1.84371 3.69699 1.84685 3.69399 1.84685C3.69399 1.84998 3.69098 1.85312 3.68797 1.85312C3.68797 1.85626 3.68497 1.8594 3.68196 1.8594C3.68196 1.86254 3.67895 1.86568 3.67595 1.86568C3.67294 1.86568 3.67294 1.87196 3.66993 1.87196C3.66993 1.8751 3.66693 1.87823 3.66392 1.87823C3.66392 1.88137 3.66091 1.88451 3.65791 1.88451C3.65791 1.88765 3.6549 1.89079 3.65189 1.89079C3.65189 1.89393 3.64889 1.89707 3.64588 1.89707C3.64588 1.90021 3.64287 1.90335 3.63987 1.90335C3.63686 1.90335 3.63686 1.90962 3.63385 1.90962C3.63385 1.91276 3.63085 1.9159 3.62784 1.9159C3.62784 1.91904 3.62483 1.92218 3.62183 1.92218C3.62183 1.92532 3.61882 1.92846 3.61581 1.92846C3.61581 1.9316 3.61281 1.93473 3.6098 1.93473C3.6098 1.93787 3.60679 1.94101 3.60379 1.94101C3.60379 1.94415 3.60078 1.94729 3.59777 1.94729C3.59777 1.95043 3.59477 1.95357 3.59176 1.95357C3.59176 1.95671 3.58875 1.95985 3.58575 1.95985C3.58575 1.96298 3.58274 1.96612 3.57973 1.96612C3.57973 1.96926 3.57673 1.9724 3.57372 1.9724C3.57372 1.97554 3.57071 1.97868 3.56771 1.97868C3.5647 1.97868 3.5647 1.98496 3.56169 1.98496C3.56169 1.9881 3.55869 1.99123 3.55568 1.99123C3.55568 1.99437 3.55267 1.99751 3.54967 1.99751C3.54967 2.00065 3.54666 2.00065 3.54365 2.00379C3.54365 2.00693 3.54065 2.01007 3.53764 2.01007C3.53764 2.01321 3.53463 2.01635 3.53163 2.01635C3.52862 2.01635 3.52862 2.01948 3.52561 2.02262C3.52561 2.02576 3.52261 2.02576 3.5196 2.0289C3.5196 2.03204 3.51659 2.03204 3.51359 2.03518C3.51359 2.03832 3.51058 2.03832 3.50757 2.04146C3.50757 2.0446 3.50457 2.0446 3.50156 2.04773C3.50156 2.05087 3.49855 2.05087 3.49555 2.05401C3.49555 2.05715 3.49254 2.05715 3.48953 2.06029C3.48953 2.06343 3.48653 2.06657 3.48352 2.06657C3.48352 2.06971 3.48051 2.06971 3.47751 2.07285C3.47751 2.07598 3.4745 2.07598 3.47149 2.07912C3.47149 2.08226 3.46849 2.08226 3.46548 2.0854C3.46247 2.08854 3.46247 2.08854 3.45947 2.09168C3.45646 2.09482 3.45646 2.09482 3.45345 2.09796C3.45345 2.1011 3.45045 2.1011 3.44744 2.10424C3.44744 2.10737 3.44443 2.10737 3.44143 2.11051C3.44143 2.11365 3.43842 2.11365 3.43541 2.11679C3.43541 2.11993 3.43241 2.12307 3.4294 2.12307C3.4294 2.12621 3.42639 2.12621 3.42339 2.12935C3.42339 2.13249 3.42038 2.13249 3.41737 2.13562C3.41737 2.13876 3.41437 2.13876 3.41136 2.1419C3.40835 2.14504 3.40835 2.14504 3.40535 2.14818C3.40234 2.15132 3.40234 2.15132 3.39933 2.15446C3.39933 2.1576 3.39633 2.1576 3.39332 2.16074C3.39332 2.16387 3.39031 2.16387 3.38731 2.16701C3.38731 2.17015 3.3843 2.17015 3.38129 2.17329C3.38129 2.17643 3.37829 2.17643 3.37528 2.17957C3.37528 2.18271 3.37227 2.18271 3.36927 2.18585C3.36927 2.18899 3.36626 2.18899 3.36325 2.19212C3.36325 2.19526 3.36025 2.19526 3.35724 2.1984C3.35724 2.20154 3.35423 2.20154 3.35123 2.20468C3.35123 2.20782 3.34822 2.20782 3.34521 2.21096C3.34521 2.2141 3.34221 2.2141 3.3392 2.21724C3.3392 2.22037 3.33619 2.22037 3.33319 2.22351C3.33319 2.22665 3.33018 2.22665 3.32717 2.22979C3.32717 2.23293 3.32417 2.23293 3.32116 2.23607C3.32116 2.23921 3.31815 2.23921 3.31515 2.24235C3.31515 2.24549 3.31214 2.24549 3.30913 2.24862C3.30913 2.25176 3.30613 2.25176 3.30312 2.2549C3.30011 2.25804 3.30011 2.25804 3.29711 2.26118C3.29711 2.26432 3.2941 2.26432 3.29109 2.26746C3.29109 2.2706 3.28809 2.2706 3.28508 2.27374C3.28508 2.27687 3.28207 2.27687 3.27907 2.28001C3.27907 2.28315 3.27606 2.28315 3.27305 2.28629C3.27305 2.28943 3.27005 2.28943 3.26704 2.29257C3.26704 2.29571 3.26403 2.29571 3.26103 2.29885C3.26103 2.30199 3.25802 2.30199 3.25501 2.30512C3.25501 2.30826 3.25201 2.30826 3.249 2.3114C3.24599 2.31454 3.24599 2.31454 3.24299 2.31768C3.24299 2.32082 3.23998 2.32082 3.23697 2.32396C3.23697 2.3271 3.23397 2.3271 3.23096 2.33024C3.23096 2.33337 3.22795 2.33337 3.22495 2.33651C3.22495 2.33965 3.22194 2.33965 3.21893 2.34279C3.21893 2.34593 3.21592 2.34593 3.21292 2.34907C3.20991 2.35221 3.20991 2.35221 3.2069 2.35535C3.2069 2.35849 3.2039 2.35849 3.20089 2.36162C3.20089 2.36476 3.19788 2.36476 3.19488 2.3679C3.19187 2.37104 3.19187 2.37104 3.18886 2.37418C3.18886 2.37732 3.18586 2.37732 3.18285 2.38046C3.18285 2.3836 3.17984 2.3836 3.17684 2.38674C3.17684 2.38987 3.17383 2.38987 3.17082 2.39301C3.17082 2.39615 3.16782 2.39615 3.16481 2.39929C3.16481 2.40243 3.1618 2.40243 3.1588 2.40557C3.15579 2.40871 3.15579 2.40871 3.15579 2.41185C3.15278 2.41499 3.14978 2.41499 3.14677 2.41812C3.14677 2.42126 3.14376 2.42126 3.14076 2.4244C3.14076 2.42754 3.13775 2.42754 3.13474 2.43068C3.13474 2.43382 3.13174 2.43382 3.12873 2.43696C3.12873 2.4401 3.12572 2.4401 3.12272 2.44324C3.12272 2.44637 3.11971 2.44637 3.1167 2.44951C3.1167 2.45265 3.1137 2.45265 3.11069 2.45579C3.11069 2.45893 3.10768 2.45893 3.10768 2.46207C3.10768 2.46521 3.10167 2.46521 3.10167 2.46835C3.09866 2.47149 3.09566 2.47149 3.09265 2.47462C3.09265 2.47776 3.08964 2.47776 3.08664 2.4809C3.08363 2.48404 3.08363 2.48404 3.08062 2.48718C3.08062 2.49032 3.07762 2.49032 3.07762 2.49346C3.07461 2.4966 3.0716 2.4966 3.0716 2.49974C3.0686 2.50287 3.06559 2.50287 3.06559 2.50601C3.06258 2.50915 3.05958 2.50915 3.05657 2.51229C3.05657 2.51543 3.05356 2.51543 3.05356 2.51857C3.05056 2.52171 3.04755 2.52171 3.04755 2.52485C3.04454 2.52799 3.04154 2.52799 3.04154 2.53112C3.04154 2.53426 3.03552 2.53426 3.03552 2.5374C3.03552 2.54054 3.02951 2.54054 3.02951 2.54368C3.0265 2.54682 3.0235 2.54682 3.0235 2.54996C3.02049 2.5531 3.01748 2.5531 3.01748 2.55624C3.01448 2.55937 3.01147 2.55937 3.01147 2.56251C3.00846 2.56565 3.00546 2.56565 3.00245 2.56879C3.00245 2.57193 2.99944 2.57193 2.99944 2.57507C2.99644 2.57821 2.99343 2.57821 2.99343 2.58135C2.99042 2.58449 2.98742 2.58449 2.98742 2.58762C2.98742 2.59076 2.9814 2.59076 2.9814 2.5939C2.9814 2.59704 2.97539 2.59704 2.97539 2.60018C2.97238 2.60332 2.96938 2.60332 2.96938 2.60646C2.96637 2.6096 2.96336 2.6096 2.96336 2.61274C2.96036 2.61587 2.95735 2.61587 2.95735 2.61901C2.95434 2.62215 2.95134 2.62215 2.95134 2.62529C2.94833 2.62843 2.94532 2.62843 2.94532 2.63157C2.94232 2.63471 2.93931 2.63471 2.93931 2.63785C2.9363 2.64099 2.9333 2.64099 2.9333 2.64412C2.93029 2.64726 2.92728 2.64726 2.92728 2.6504C2.92428 2.65354 2.92127 2.65354 2.92127 2.65668C2.91826 2.65982 2.91526 2.65982 2.91526 2.66296C2.91225 2.6661 2.90924 2.6661 2.90924 2.66924C2.90624 2.67238 2.90323 2.67238 2.90323 2.67551C2.90022 2.67865 2.89722 2.67865 2.89722 2.68179C2.89421 2.68493 2.8912 2.68493 2.8912 2.68807C2.8882 2.69121 2.88519 2.69121 2.88519 2.69435C2.88218 2.69749 2.87918 2.69749 2.87918 2.70063C2.87617 2.70376 2.87316 2.70376 2.87316 2.7069C2.87016 2.71004 2.86715 2.71004 2.86715 2.71318C2.86414 2.71632 2.86114 2.71632 2.86114 2.71946C2.85813 2.7226 2.85512 2.7226 2.85512 2.72574C2.85212 2.72888 2.84911 2.72888 2.84911 2.73201C2.8461 2.73515 2.8431 2.73515 2.8431 2.73829C2.84009 2.74143 2.83708 2.74143 2.83708 2.74457C2.83408 2.74771 2.83107 2.74771 2.83107 2.75085C2.82806 2.75399 2.82506 2.75399 2.82506 2.75713C2.82506 2.76026 2.81904 2.76026 2.81904 2.7634C2.81604 2.76654 2.81303 2.76654 2.81303 2.76968C2.81002 2.77282 2.80702 2.77282 2.80702 2.77596C2.80401 2.7791 2.801 2.7791 2.801 2.78224C2.798 2.78538 2.79499 2.78538 2.79499 2.78851C2.79198 2.79165 2.78898 2.79165 2.78898 2.79479C2.78898 2.79793 2.78296 2.79793 2.78296 2.80107C2.77996 2.80421 2.77695 2.80421 2.77695 2.80735C2.77394 2.81049 2.77094 2.81049 2.77094 2.81363C2.77094 2.81676 2.76492 2.81676 2.76492 2.8199C2.76192 2.82304 2.75891 2.82304 2.75891 2.82618C2.7559 2.82932 2.7529 2.82932 2.7529 2.83246C2.74989 2.8356 2.74688 2.8356 2.74688 2.83874C2.74388 2.84188 2.74087 2.84188 2.74087 2.84501C2.73786 2.84815 2.73486 2.84815 2.73486 2.85129C2.73486 2.85443 2.72884 2.85443 2.72884 2.85757C2.72584 2.86071 2.72283 2.86071 2.72283 2.86385C2.71982 2.86699 2.71682 2.86699 2.71682 2.87013C2.71381 2.87326 2.7108 2.87326 2.7108 2.8764C2.7078 2.87954 2.70479 2.87954 2.70479 2.88268C2.70178 2.88582 2.69878 2.88582 2.69878 2.88896C2.69577 2.8921 2.69276 2.8921 2.69276 2.89524C2.68976 2.89838 2.68675 2.89838 2.68675 2.90151C2.68374 2.90465 2.68074 2.90465 2.68074 2.90779C2.67773 2.91093 2.67472 2.91093 2.67472 2.91407C2.67172 2.91721 2.66871 2.91721 2.66871 2.92035C2.6657 2.92349 2.6627 2.92349 2.6627 2.92663C2.6627 2.92976 2.65668 2.92976 2.65668 2.9329C2.65368 2.93604 2.65067 2.93604 2.65067 2.93918C2.64766 2.94232 2.64466 2.94232 2.64466 2.94546C2.64165 2.9486 2.63864 2.9486 2.63864 2.95174C2.63564 2.95488 2.63263 2.95488 2.63263 2.95801C2.62962 2.96115 2.62662 2.96115 2.62662 2.96429C2.62361 2.96743 2.6206 2.96743 2.6206 2.97057C2.6176 2.97371 2.61459 2.97371 2.61459 2.97685C2.61459 2.97999 2.60858 2.97999 2.60858 2.98313C2.60858 2.98626 2.60256 2.98626 2.60256 2.9894C2.59956 2.99254 2.59655 2.99254 2.59655 2.99568C2.59354 2.99882 2.59053 2.99882 2.59053 3.00196C2.58753 3.0051 2.58452 3.0051 2.58452 3.00824C2.58151 3.01138 2.57851 3.01138 2.57851 3.01451C2.5755 3.01765 2.57249 3.01765 2.57249 3.02079C2.56949 3.02393 2.56648 3.02393 2.56648 3.02707C2.56347 3.03021 2.56047 3.03021 2.56047 3.03335C2.56047 3.03649 2.55445 3.03649 2.55445 3.03963C2.55445 3.04276 2.54844 3.04276 2.54844 3.0459C2.54543 3.04904 2.54243 3.04904 2.54243 3.05218C2.53942 3.05532 2.53641 3.05532 2.53641 3.05846C2.53341 3.0616 2.5304 3.0616 2.5304 3.06474C2.52739 3.06788 2.52439 3.06788 2.52439 3.07101C2.52138 3.07415 2.51837 3.07415 2.51837 3.07729C2.51537 3.08043 2.51236 3.08043 2.51236 3.08357C2.50935 3.08671 2.50635 3.08671 2.50635 3.08985C2.50635 3.09299 2.50033 3.09299 2.50033 3.09613C2.49733 3.09926 2.49432 3.09926 2.49432 3.1024C2.49131 3.10554 2.48831 3.10554 2.48831 3.10868C2.4853 3.11182 2.48229 3.11182 2.48229 3.11496C2.47929 3.1181 2.47628 3.1181 2.47628 3.12124C2.47327 3.12438 2.47027 3.12438 2.47027 3.12752C2.46726 3.13065 2.46425 3.13065 2.46425 3.13379C2.46125 3.13693 2.45824 3.13693 2.45824 3.14007C2.45523 3.14321 2.45223 3.14321 2.45223 3.14635C2.44922 3.14949 2.44621 3.14949 2.44621 3.15263C2.44321 3.15577 2.4402 3.15577 2.4402 3.1589C2.43719 3.16204 2.43419 3.16204 2.43419 3.16518C2.43118 3.16832 2.42817 3.16832 2.42817 3.17146C2.42517 3.1746 2.42216 3.1746 2.42216 3.17774C2.41915 3.18088 2.41615 3.18088 2.41615 3.18402C2.41314 3.18715 2.41013 3.18715 2.41013 3.19029C2.40713 3.19343 2.40412 3.19343 2.40412 3.19657C2.40111 3.19971 2.39811 3.19971 2.39811 3.20285C2.39811 3.20599 2.39209 3.20599 2.39209 3.20913C2.38909 3.21227 2.38608 3.21227 2.38608 3.2154C2.38307 3.21854 2.38007 3.21854 2.38007 3.22168C2.37706 3.22482 2.37405 3.22482 2.37405 3.22796C2.37105 3.2311 2.36804 3.2311 2.36804 3.23424C2.36503 3.23738 2.36203 3.23738 2.36203 3.24052C2.36203 3.24365 2.35601 3.24365 2.35601 3.24679C2.35301 3.24993 2.35 3.24993 2.35 3.25307C2.34699 3.25621 2.34399 3.25621 2.34399 3.25935C2.34399 3.26249 2.33797 3.26249 2.33797 3.26563C2.33497 3.26877 2.33196 3.26877 2.33196 3.2719C2.32895 3.27504 2.32595 3.27504 2.32595 3.27818C2.32294 3.28132 2.31993 3.28132 2.31993 3.28446C2.31693 3.2876 2.31392 3.2876 2.31392 3.29074C2.31091 3.29388 2.30791 3.29388 2.30791 3.29702C2.30791 3.30015 2.30189 3.30015 2.30189 3.30329C2.29889 3.30643 2.29588 3.30643 2.29588 3.30957C2.29287 3.31271 2.28987 3.31271 2.28987 3.31585C2.28987 3.31899 2.28385 3.31899 2.28385 3.32213C2.28085 3.32527 2.27784 3.32527 2.27784 3.3284C2.27483 3.33154 2.27183 3.33154 2.27183 3.33468C2.26882 3.33782 2.26581 3.33782 2.26581 3.34096C2.26281 3.3441 2.2598 3.3441 2.2598 3.34724C2.25679 3.35038 2.25379 3.35038 2.25379 3.35352C2.25078 3.35665 2.24777 3.35665 2.24777 3.35979C2.24477 3.36293 2.24176 3.36293 2.24176 3.36607C2.23875 3.36921 2.23575 3.36921 2.23575 3.37235C2.23575 3.37549 2.22973 3.37549 2.22973 3.37863C2.22673 3.38177 2.22372 3.38177 2.22372 3.3849C2.22071 3.38804 2.21771 3.38804 2.21771 3.39118C2.2147 3.39432 2.21169 3.39432 2.21169 3.39746C2.20869 3.4006 2.20568 3.4006 2.20568 3.40374C2.20267 3.40688 2.19967 3.40688 2.19967 3.41002C2.19666 3.41002 2.19365 3.41315 2.19365 3.41629C2.19065 3.41943 2.18764 3.41943 2.18764 3.42257C2.18764 3.42571 2.18163 3.42571 2.18163 3.42885C2.17862 3.42885 2.17561 3.43199 2.17561 3.43513C2.17261 3.43827 2.1696 3.43827 2.1696 3.4414C2.16659 3.44454 2.16359 3.44454 2.16359 3.44768C2.16058 3.45082 2.15757 3.45082 2.15757 3.45396C2.15457 3.4571 2.15156 3.4571 2.15156 3.46024C2.14855 3.46024 2.14555 3.46338 2.14555 3.46652C2.14254 3.46652 2.13953 3.46965 2.13953 3.47279C2.13653 3.47279 2.13352 3.47593 2.13352 3.47907C2.13051 3.47907 2.12751 3.48221 2.12751 3.48535C2.12751 3.48849 2.12149 3.48849 2.12149 3.49163C2.11849 3.49163 2.11548 3.49477 2.11548 3.4979C2.11247 3.4979 2.10947 3.50104 2.10947 3.50418C2.10646 3.50418 2.10345 3.50732 2.10345 3.51046C2.10045 3.51046 2.09744 3.5136 2.09744 3.51674C2.09443 3.51674 2.09143 3.51988 2.09143 3.52302C2.08842 3.52302 2.08541 3.52615 2.08541 3.52929C2.08241 3.52929 2.0794 3.53243 2.0794 3.53557C2.0794 3.53871 2.07339 3.53871 2.07339 3.54185C2.07038 3.54185 2.06737 3.54499 2.06737 3.54813C2.06437 3.54813 2.06136 3.55127 2.06136 3.5544C2.05835 3.5544 2.05535 3.55754 2.05535 3.56068C2.05234 3.56068 2.04933 3.56382 2.04933 3.56696C2.04633 3.56696 2.04332 3.5701 2.04332 3.57324C2.04031 3.57324 2.03731 3.57638 2.03731 3.57952C2.0343 3.57952 2.03129 3.58265 2.03129 3.58579C2.02829 3.58579 2.02528 3.58893 2.02528 3.59207C2.02528 3.59521 2.01927 3.59521 2.01927 3.59835C2.01626 3.59835 2.01325 3.60149 2.01325 3.60463C2.01025 3.60463 2.00724 3.60777 2.00724 3.6109C2.00423 3.6109 2.00123 3.61404 2.00123 3.61718C1.99822 3.61718 1.99521 3.62032 1.99521 3.62346C1.99221 3.62346 1.9892 3.6266 1.9892 3.62974C1.98619 3.62974 1.98619 3.63288 1.98319 3.63602C1.98018 3.63602 1.97717 3.63916 1.97717 3.64229C1.97417 3.64229 1.97116 3.64543 1.97116 3.64857C1.96815 3.64857 1.96515 3.65171 1.96515 3.65485C1.96214 3.65485 1.95913 3.65799 1.95913 3.66113C1.95613 3.66113 1.95312 3.66427 1.95312 3.66741C1.95011 3.66741 1.9471 3.67054 1.9471 3.67368C1.9441 3.67368 1.94109 3.67682 1.94109 3.67996C1.93808 3.67996 1.93808 3.6831 1.93508 3.68624C1.93207 3.68624 1.93207 3.68938 1.92906 3.69252C1.92606 3.69252 1.92606 3.69566 1.92305 3.69879C1.92004 3.69879 1.91704 3.70193 1.91704 3.70507C1.91704 3.70821 1.91403 3.70821 1.91102 3.71135C1.90802 3.71135 1.90802 3.71449 1.90501 3.71763C1.902 3.71763 1.902 3.72077 1.899 3.72391C1.89599 3.72391 1.89599 3.72704 1.89298 3.73018C1.88998 3.73018 1.88998 3.73332 1.88697 3.73646C1.88396 3.73646 1.88396 3.7396 1.88096 3.74274C1.87795 3.74274 1.87795 3.74588 1.87494 3.74902C1.87194 3.74902 1.87194 3.75216 1.86893 3.75529C1.86592 3.75529 1.86592 3.75843 1.86292 3.76157C1.85991 3.76157 1.85991 3.76471 1.8569 3.76785C1.8539 3.76785 1.8539 3.77099 1.85089 3.77413C1.84788 3.77413 1.84788 3.77727 1.84488 3.78041C1.84187 3.78041 1.84187 3.78354 1.83886 3.78668C1.83586 3.78668 1.83586 3.78982 1.83285 3.79296C1.82984 3.79296 1.82984 3.7961 1.82684 3.79924C1.82383 3.79924 1.82383 3.80238 1.82082 3.80552C1.81782 3.80552 1.81782 3.80866 1.81481 3.81179C1.8118 3.81493 1.8118 3.81493 1.8088 3.81807C1.80579 3.82121 1.80579 3.82121 1.80278 3.82435C1.79978 3.82435 1.79978 3.82749 1.79677 3.83063C1.79376 3.83063 1.79376 3.83377 1.79076 3.83691C1.78775 3.83691 1.78775 3.84004 1.78474 3.84318C1.78174 3.84318 1.78174 3.84632 1.77873 3.84946C1.77572 3.84946 1.77572 3.8526 1.77272 3.85574C1.76971 3.85574 1.76971 3.85888 1.7667 3.86202C1.7637 3.86202 1.7637 3.86516 1.76069 3.86829C1.75768 3.87143 1.75768 3.87143 1.75468 3.87457C1.75167 3.87457 1.75167 3.87771 1.74866 3.88085C1.74566 3.88085 1.74566 3.88399 1.74265 3.88713C1.73964 3.88713 1.73964 3.89027 1.73664 3.89341C1.73363 3.89341 1.73363 3.89654 1.73062 3.89968C1.72762 3.89968 1.72762 3.90282 1.72461 3.90596C1.7216 3.90596 1.7216 3.9091 1.7186 3.91224C1.71559 3.91224 1.71559 3.91538 1.71258 3.91852C1.70958 3.91852 1.70958 3.92166 1.70657 3.92479C1.70356 3.92793 1.70356 3.92793 1.70056 3.93107C1.69755 3.93107 1.69755 3.93421 1.69454 3.93735C1.69154 3.93735 1.69154 3.94049 1.68853 3.94363C1.68552 3.94363 1.68552 3.94677 1.68252 3.94991C1.67951 3.94991 1.67951 3.95304 1.6765 3.95618C1.6735 3.95618 1.6735 3.95932 1.67049 3.96246C1.66748 3.96246 1.66748 3.9656 1.66448 3.96874C1.66147 3.96874 1.66147 3.97188 1.65846 3.97502C1.65546 3.97502 1.65546 3.97816 1.65245 3.98129C1.64944 3.98443 1.64944 3.98443 1.64644 3.98757C1.64343 3.99071 1.64343 3.99071 1.64042 3.99385C1.63742 3.99699 1.63742 3.99699 1.63441 4.00013C1.6314 4.00327 1.6314 4.00327 1.6284 4.00641C1.62539 4.00954 1.62539 4.00954 1.62238 4.01268C1.61938 4.01582 1.61938 4.01582 1.61637 4.01896C1.61336 4.0221 1.61336 4.0221 1.61036 4.02524C1.60735 4.02838 1.60735 4.02838 1.60434 4.03152C1.60134 4.03466 1.60134 4.03466 1.59833 4.03779C1.59532 4.04093 1.59532 4.04093 1.59232 4.04407C1.58931 4.04721 1.58931 4.04721 1.5863 4.05035C1.5833 4.05349 1.5833 4.05349 1.58029 4.05663C1.57728 4.05977 1.57728 4.05977 1.57428 4.06291C1.57127 4.06605 1.57127 4.06604 1.56826 4.06918C1.56526 4.07232 1.56526 4.07232 1.56225 4.07546C1.55924 4.0786 1.55924 4.0786 1.55624 4.08174C1.55323 4.08488 1.55323 4.08488 1.55022 4.08802C1.54722 4.09116 1.54722 4.09116 1.54421 4.09429C1.5412 4.09743 1.5412 4.09743 1.5382 4.10057C1.53519 4.10371 1.53519 4.10371 1.53218 4.10685C1.52918 4.10999 1.52918 4.10999 1.52617 4.11313C1.52316 4.11627 1.52316 4.11627 1.52016 4.11941C1.51715 4.12254 1.51715 4.12255 1.51414 4.12568C1.51114 4.12882 1.51114 4.12882 1.50813 4.13196C1.50512 4.1351 1.50512 4.1351 1.50212 4.13824C1.49911 4.14138 1.49911 4.14138 1.4961 4.14452C1.4931 4.14766 1.4931 4.14766 1.49009 4.15079C1.48708 4.15393 1.48708 4.15393 1.48408 4.15707C1.48107 4.16021 1.48107 4.16021 1.47806 4.16335C1.47506 4.16649 1.47506 4.16649 1.47205 4.16963C1.46904 4.17277 1.46904 4.17277 1.46604 4.17591C1.46303 4.17904 1.46303 4.17905 1.46002 4.18218C1.45702 4.18532 1.45702 4.18532 1.45401 4.18846C1.451 4.18846 1.451 4.1916 1.448 4.1916C1.44499 4.19474 1.44499 4.19474 1.44198 4.19788C1.43898 4.20102 1.43898 4.20102 1.43597 4.20416C1.16236 4.55257 1 5.02027 1 5.56958V20.2847C1 21.738 2.12751 23.2102 3.5196 23.5711L24.1815 28.9512C25.0505 29.1772 25.8202 28.9167 26.2712 28.336C26.2742 28.3328 26.2742 28.3328 26.2772 28.3297C26.2802 28.3266 26.2802 28.3266 26.2832 28.3234C26.2862 28.3203 26.2862 28.3203 26.2892 28.3172C26.2922 28.314 26.2922 28.314 26.2952 28.3109C26.2982 28.3077 26.2982 28.3077 26.3012 28.3046C26.3042 28.3015 26.3042 28.3015 26.3072 28.2983C26.3103 28.2952 26.3103 28.2952 26.3133 28.292C26.3163 28.2889 26.3163 28.2889 26.3193 28.2858C26.3223 28.2826 26.3223 28.2826 26.3253 28.2795C26.3283 28.2763 26.3283 28.2763 26.3313 28.2732C26.3343 28.2701 26.3343 28.2701 26.3373 28.2669C26.3403 28.2638 26.3403 28.2638 26.3433 28.2607C26.3463 28.2575 26.3463 28.2575 26.3493 28.2544C26.3523 28.2512 26.3523 28.2512 26.3554 28.2481C26.3584 28.245 26.3584 28.245 26.3614 28.2418C26.3644 28.2387 26.3644 28.2387 26.3674 28.2355C26.3704 28.2324 26.3704 28.2324 26.3734 28.2293C26.3764 28.2261 26.3764 28.2261 26.3794 28.223C26.3824 28.2198 26.3824 28.2198 26.3854 28.2167C26.3884 28.2136 26.3884 28.2136 26.3914 28.2104C26.3944 28.2073 26.3944 28.2073 26.3974 28.2042C26.4005 28.201 26.4005 28.201 26.4035 28.1979C26.4065 28.1947 26.4065 28.1947 26.4095 28.1916C26.4125 28.1885 26.4125 28.1885 26.4155 28.1853C26.4185 28.1822 26.4185 28.1822 26.4215 28.179C26.4245 28.1759 26.4245 28.1759 26.4275 28.1728C26.4305 28.1696 26.4305 28.1696 26.4335 28.1665C26.4365 28.1633 26.4365 28.1633 26.4395 28.1602C26.4425 28.1571 26.4425 28.1571 26.4456 28.1539C26.4486 28.1508 26.4486 28.1508 26.4516 28.1477C26.4546 28.1445 26.4546 28.1445 26.4576 28.1414C26.4606 28.1382 26.4606 28.1382 26.4636 28.1351C26.4666 28.132 26.4666 28.132 26.4696 28.1288C26.4726 28.1257 26.4726 28.1257 26.4756 28.1225C26.4786 28.1194 26.4786 28.1194 26.4816 28.1163C26.4846 28.1131 26.4846 28.1131 26.4876 28.11C26.4907 28.1068 26.4907 28.1068 26.4937 28.1037C26.4967 28.1006 26.4967 28.1006 26.4997 28.0974C26.5027 28.0943 26.5027 28.0943 26.5057 28.0912C26.5087 28.088 26.5087 28.088 26.5117 28.0849C26.5147 28.0817 26.5147 28.0817 26.5177 28.0786C26.5207 28.0755 26.5207 28.0755 26.5237 28.0723C26.5267 28.0692 26.5267 28.0692 26.5297 28.066C26.5327 28.0629 26.5327 28.0629 26.5358 28.0598C26.5388 28.0566 26.5388 28.0566 26.5418 28.0535C26.5448 28.0503 26.5448 28.0503 26.5478 28.0472C26.5508 28.0441 26.5508 28.0441 26.5538 28.0409C26.5568 28.0378 26.5568 28.0378 26.5598 28.0347C26.5628 28.0315 26.5628 28.0315 26.5658 28.0284C26.5688 28.0252 26.5688 28.0252 26.5718 28.0221C26.5748 28.019 26.5748 28.019 26.5778 28.0158C26.5809 28.0127 26.5809 28.0127 26.5839 28.0095C26.5869 28.0064 26.5869 28.0064 26.5899 28.0033C26.5929 28.0001 26.5929 28.0001 26.5959 27.997C26.5989 27.9938 26.5989 27.9938 26.6019 27.9907C26.6049 27.9876 26.6049 27.9876 26.6079 27.9844C26.6109 27.9813 26.6109 27.9813 26.6139 27.9782C26.6169 27.975 26.6169 27.975 26.6199 27.9719C26.6229 27.9687 26.6229 27.9687 26.626 27.9656C26.629 27.9625 26.629 27.9625 26.632 27.9593C26.635 27.9562 26.635 27.9562 26.638 27.953C26.641 27.9499 26.641 27.9499 26.644 27.9468C26.647 27.9436 26.647 27.9436 26.65 27.9405C26.653 27.9373 26.653 27.9373 26.656 27.9342C26.659 27.9311 26.659 27.9311 26.662 27.9279C26.665 27.9248 26.665 27.9248 26.668 27.9216C26.6711 27.9185 26.6711 27.9185 26.6741 27.9154C26.6771 27.9122 26.6771 27.9122 26.6801 27.9091C26.6831 27.906 26.6831 27.906 26.6861 27.9028C26.6891 27.8997 26.6891 27.8997 26.6921 27.8965C26.6951 27.8934 26.6951 27.8934 26.6981 27.8903C26.7011 27.8871 26.7011 27.8871 26.7041 27.884C26.7071 27.8808 26.7071 27.8808 26.7101 27.8777C26.7131 27.8746 26.7131 27.8746 26.7162 27.8714C26.7192 27.8683 26.7192 27.8683 26.7222 27.8652C26.7252 27.862 26.7252 27.862 26.7282 27.8589C26.7312 27.8557 26.7312 27.8557 26.7342 27.8526C26.7372 27.8495 26.7372 27.8495 26.7402 27.8463C26.7432 27.8432 26.7432 27.8432 26.7462 27.84C26.7492 27.8369 26.7492 27.8369 26.7522 27.8338C26.7552 27.8306 26.7552 27.8306 26.7582 27.8275C26.7613 27.8243 26.7613 27.8243 26.7643 27.8212C26.7673 27.8181 26.7673 27.8181 26.7703 27.8149C26.7733 27.8118 26.7733 27.8118 26.7763 27.8087C26.7793 27.8055 26.7793 27.8055 26.7823 27.8024C26.7853 27.7992 26.7853 27.7992 26.7883 27.7961C26.7913 27.793 26.7913 27.793 26.7943 27.7898C26.7973 27.7867 26.7973 27.7867 26.8003 27.7835C26.8033 27.7804 26.8033 27.7804 26.8064 27.7773C26.8094 27.7741 26.8094 27.7741 26.8124 27.771C26.8154 27.7678 26.8154 27.7678 26.8184 27.7647C26.8214 27.7616 26.8214 27.7616 26.8244 27.7584C26.8274 27.7553 26.8274 27.7553 26.8304 27.7522C26.8334 27.749 26.8334 27.749 26.8364 27.7459C26.8394 27.7427 26.8394 27.7427 26.8424 27.7396C26.8454 27.7365 26.8454 27.7365 26.8484 27.7333C26.8515 27.7302 26.8515 27.7302 26.8545 27.727C26.8575 27.7239 26.8575 27.7239 26.8605 27.7208C26.8635 27.7176 26.8635 27.7176 26.8665 27.7145C26.8695 27.7113 26.8695 27.7113 26.8725 27.7082C26.8755 27.7051 26.8755 27.7051 26.8785 27.7019C26.8815 27.6988 26.8815 27.6988 26.8845 27.6957C26.8875 27.6925 26.8875 27.6925 26.8905 27.6894C26.8935 27.6862 26.8935 27.6862 26.8966 27.6831C26.8996 27.68 26.8996 27.68 26.9026 27.6768C26.9056 27.6737 26.9056 27.6737 26.9086 27.6705C26.9116 27.6674 26.9116 27.6674 26.9146 27.6643C26.9176 27.6611 26.9176 27.6611 26.9206 27.658C26.9236 27.6548 26.9236 27.6548 26.9266 27.6517C26.9296 27.6486 26.9296 27.6486 26.9326 27.6454C26.9356 27.6423 26.9356 27.6423 26.9386 27.6392C26.9417 27.636 26.9417 27.636 26.9447 27.6329C26.9477 27.6297 26.9477 27.6297 26.9507 27.6266C26.9537 27.6235 26.9537 27.6235 26.9567 27.6203C26.9597 27.6172 26.9597 27.6172 26.9627 27.614C26.9657 27.6109 26.9657 27.6109 26.9687 27.6078C26.9717 27.6046 26.9717 27.6046 26.9747 27.6015C26.9777 27.5983 26.9777 27.5983 26.9807 27.5952C26.9838 27.5921 26.9837 27.5921 26.9868 27.5889C26.9898 27.5858 26.9898 27.5858 26.9928 27.5827C26.9958 27.5795 26.9958 27.5795 26.9988 27.5764C27.0018 27.5732 27.0018 27.5732 27.0048 27.5701C27.0078 27.567 27.0078 27.567 27.0108 27.5638C27.0138 27.5607 27.0138 27.5607 27.0168 27.5575C27.0198 27.5544 27.0198 27.5544 27.0228 27.5513C27.0258 27.5481 27.0258 27.5481 27.0288 27.545C27.0319 27.5418 27.0319 27.5418 27.0349 27.5387C27.0379 27.5356 27.0379 27.5356 27.0409 27.5324C27.0439 27.5293 27.0439 27.5293 27.0469 27.5262C27.0499 27.523 27.0499 27.523 27.0529 27.5199C27.0559 27.5167 27.0559 27.5167 27.0589 27.5136C27.0619 27.5105 27.0619 27.5105 27.0649 27.5073C27.0679 27.5042 27.0679 27.5042 27.0709 27.501C27.0739 27.4979 27.0739 27.4979 27.077 27.4948C27.08 27.4916 27.08 27.4916 27.083 27.4885C27.086 27.4853 27.086 27.4853 27.089 27.4822C27.092 27.4791 27.092 27.4791 27.095 27.4759C27.098 27.4728 27.098 27.4728 27.101 27.4697C27.104 27.4665 27.104 27.4665 27.107 27.4634C27.11 27.4602 27.11 27.4602 27.113 27.4571C27.116 27.454 27.116 27.454 27.1191 27.4508C27.1221 27.4477 27.1221 27.4477 27.1251 27.4445C27.1281 27.4414 27.1281 27.4414 27.1311 27.4383C27.1341 27.4351 27.1341 27.4351 27.1371 27.432C27.1401 27.4288 27.1401 27.4288 27.1431 27.4257C27.1461 27.4226 27.1461 27.4226 27.1491 27.4194C27.1521 27.4163 27.1521 27.4163 27.1551 27.4132C27.1581 27.41 27.1581 27.41 27.1611 27.4069C27.1642 27.4037 27.1642 27.4037 27.1672 27.4006C27.1702 27.3975 27.1702 27.3975 27.1732 27.3943C27.1762 27.3912 27.1762 27.3912 27.1792 27.388C27.1822 27.3849 27.1822 27.3849 27.1852 27.3818C27.1882 27.3786 27.1882 27.3786 27.1912 27.3755C27.1942 27.3723 27.1942 27.3723 27.1972 27.3692C27.2002 27.3661 27.2002 27.3661 27.2032 27.3629C27.2062 27.3598 27.2062 27.3598 27.2092 27.3567C27.2123 27.3535 27.2123 27.3535 27.2153 27.3504C27.2183 27.3472 27.2183 27.3472 27.2213 27.3441C27.2243 27.341 27.2243 27.341 27.2273 27.3378C27.2303 27.3347 27.2303 27.3347 27.2333 27.3315C27.2363 27.3284 27.2363 27.3284 27.2393 27.3253C27.2423 27.3221 27.2423 27.3221 27.2453 27.319C27.2483 27.3158 27.2483 27.3158 27.2513 27.3127C27.2544 27.3096 27.2544 27.3096 27.2574 27.3064C27.2604 27.3033 27.2604 27.3033 27.2634 27.3001C27.2664 27.297 27.2664 27.297 27.2694 27.2939C27.2724 27.2907 27.2724 27.2907 27.2754 27.2876C27.2784 27.2845 27.2784 27.2845 27.2814 27.2813C27.2844 27.2782 27.2844 27.2782 27.2874 27.275C27.2904 27.2719 27.2904 27.2719 27.2934 27.2688C27.2964 27.2656 27.2964 27.2656 27.2995 27.2625C27.3025 27.2593 27.3025 27.2593 27.3055 27.2562C27.3085 27.2531 27.3085 27.2531 27.3115 27.2499C27.3145 27.2468 27.3145 27.2468 27.3175 27.2437C27.3205 27.2405 27.3205 27.2405 27.3235 27.2374C27.3265 27.2342 27.3265 27.2342 27.3295 27.2311C27.3325 27.228 27.3325 27.228 27.3355 27.2248C27.3385 27.2217 27.3385 27.2217 27.3415 27.2185C27.3446 27.2154 27.3446 27.2154 27.3476 27.2123C27.3506 27.2091 27.3506 27.2091 27.3536 27.206C27.3566 27.2028 27.3566 27.2028 27.3596 27.1997C27.3626 27.1966 27.3626 27.1966 27.3656 27.1934C27.3686 27.1903 27.3686 27.1903 27.3716 27.1872C27.3746 27.184 27.3746 27.184 27.3776 27.1809C27.3806 27.1777 27.3806 27.1777 27.3836 27.1746C27.3866 27.1715 27.3866 27.1715 27.3897 27.1683C27.3927 27.1652 27.3927 27.1652 27.3957 27.162C27.3987 27.1589 27.3987 27.1589 27.4017 27.1558C27.4047 27.1526 27.4047 27.1526 27.4077 27.1495C27.4107 27.1463 27.4107 27.1463 27.4137 27.1432C27.4167 27.1401 27.4167 27.1401 27.4197 27.1369C27.4227 27.1338 27.4227 27.1338 27.4257 27.1306C27.4287 27.1275 27.4287 27.1275 27.4317 27.1244C27.4348 27.1212 27.4348 27.1212 27.4378 27.1181C27.4408 27.115 27.4408 27.115 27.4438 27.1118C27.4468 27.1087 27.4468 27.1087 27.4498 27.1055C27.4528 27.1024 27.4528 27.1024 27.4558 27.0993C27.4588 27.0961 27.4588 27.0961 27.4618 27.093C27.4648 27.0898 27.4648 27.0898 27.4678 27.0867C27.4708 27.0836 27.4708 27.0836 27.4738 27.0804C27.4768 27.0773 27.4768 27.0773 27.4799 27.0742C27.4829 27.071 27.4829 27.071 27.4859 27.0679C27.4889 27.0647 27.4889 27.0647 27.4919 27.0616C27.4949 27.0585 27.4949 27.0585 27.4979 27.0553C27.5009 27.0522 27.5009 27.0522 27.5039 27.049C27.5069 27.0459 27.5069 27.0459 27.5099 27.0428C27.5129 27.0396 27.5129 27.0396 27.5159 27.0365C27.5189 27.0333 27.5189 27.0333 27.5219 27.0302C27.525 27.0271 27.525 27.0271 27.528 27.0239C27.531 27.0208 27.531 27.0208 27.534 27.0176C27.537 27.0145 27.537 27.0145 27.54 27.0114C27.543 27.0082 27.543 27.0082 27.546 27.0051C27.549 27.002 27.549 27.002 27.552 26.9988C27.555 26.9957 27.555 26.9957 27.558 26.9925C27.561 26.9894 27.561 26.9894 27.564 26.9863C27.567 26.9831 27.567 26.9831 27.5701 26.98C27.5731 26.9768 27.5731 26.9768 27.5761 26.9737C27.5791 26.9706 27.5791 26.9706 27.5821 26.9674C27.5851 26.9643 27.5851 26.9643 27.5881 26.9611C27.5911 26.958 27.5911 26.958 27.5941 26.9549C27.5971 26.9517 27.5971 26.9517 27.6001 26.9486C27.6031 26.9455 27.6031 26.9455 27.6061 26.9423C27.6091 26.9392 27.6091 26.9392 27.6091 26.936C27.6121 26.9329 27.6121 26.9329 27.6152 26.9298C27.6182 26.9266 27.6182 26.9266 27.6212 26.9235C27.6242 26.9203 27.6242 26.9203 27.6272 26.9172C27.6302 26.9141 27.6302 26.9141 27.6332 26.9109C27.6362 26.9078 27.6362 26.9078 27.6392 26.9046C27.6422 26.9015 27.6422 26.9015 27.6452 26.8984C27.6482 26.8952 27.6482 26.8952 27.6512 26.8921C27.6542 26.889 27.6542 26.889 27.6572 26.8858C27.6603 26.8827 27.6603 26.8827 27.6633 26.8795C27.6663 26.8764 27.6663 26.8764 27.6693 26.8733C27.6723 26.8701 27.6723 26.8701 27.6753 26.867C27.6783 26.8638 27.6783 26.8638 27.6813 26.8607C27.6843 26.8576 27.6843 26.8576 27.6873 26.8544C27.6903 26.8513 27.6903 26.8513 27.6933 26.8481C27.6963 26.845 27.6963 26.845 27.6993 26.8419C27.7023 26.8387 27.7023 26.8387 27.7054 26.8356C27.7084 26.8325 27.7084 26.8325 27.7114 26.8293C27.7144 26.8262 27.7144 26.8262 27.7174 26.823C27.7204 26.8199 27.7204 26.8199 27.7234 26.8168C27.7264 26.8136 27.7264 26.8136 27.7294 26.8105C27.7324 26.8073 27.7324 26.8073 27.7354 26.8042C27.7384 26.8011 27.7384 26.8011 27.7414 26.7979C27.7444 26.7948 27.7444 26.7948 27.7474 26.7916C27.7505 26.7885 27.7505 26.7885 27.7535 26.7854C27.7565 26.7822 27.7565 26.7822 27.7595 26.7791C27.7625 26.776 27.7625 26.776 27.7655 26.7728C27.7685 26.7697 27.7685 26.7697 27.7715 26.7665C27.7745 26.7634 27.7745 26.7634 27.7775 26.7603C27.7805 26.7571 27.7805 26.7571 27.7835 26.754C27.7865 26.7508 27.7865 26.7508 27.7895 26.7477C27.7925 26.7446 27.7925 26.7446 27.7956 26.7414C27.7986 26.7383 27.7986 26.7383 27.8016 26.7351C27.8046 26.732 27.8046 26.732 27.8076 26.7289C27.8106 26.7257 27.8106 26.7257 27.8136 26.7226C27.8166 26.7195 27.8166 26.7195 27.8196 26.7163C27.8226 26.7132 27.8226 26.7132 27.8256 26.71C27.8286 26.7069 27.8286 26.7069 27.8316 26.7038C27.8346 26.7006 27.8346 26.7006 27.8376 26.6975C27.8407 26.6943 27.8407 26.6943 27.8437 26.6912C27.8467 26.6881 27.8467 26.6881 27.8497 26.6849C27.8527 26.6818 27.8527 26.6818 27.8557 26.6786C27.8587 26.6755 27.8587 26.6755 27.8617 26.6724C27.8647 26.6692 27.8647 26.6692 27.8677 26.6661C27.8707 26.663 27.8707 26.663 27.8737 26.6598C27.8767 26.6567 27.8767 26.6567 27.8797 26.6535C27.8827 26.6504 27.8827 26.6504 27.8858 26.6473C27.8888 26.6441 27.8888 26.6441 27.8918 26.641C27.8948 26.6378 27.8948 26.6378 27.8978 26.6347C27.9008 26.6316 27.9008 26.6316 27.9038 26.6284C27.9068 26.6253 27.9068 26.6253 27.9098 26.6221C27.9128 26.619 27.9128 26.619 27.9158 26.6159C27.9188 26.6127 27.9188 26.6127 27.9218 26.6096C27.9248 26.6065 27.9248 26.6065 27.9278 26.6033C27.9309 26.6002 27.9309 26.6002 27.9339 26.597C27.9369 26.5939 27.9369 26.5939 27.9399 26.5908C27.9429 26.5876 27.9429 26.5876 27.9459 26.5845C27.9489 26.5813 27.9489 26.5813 27.9519 26.5782C27.9549 26.5751 27.9549 26.5751 27.9579 26.5719C27.9609 26.5688 27.9609 26.5688 27.9639 26.5656C27.9669 26.5625 27.9669 26.5625 27.9699 26.5594C27.9729 26.5562 27.9729 26.5562 27.976 26.5531C27.979 26.55 27.979 26.55 27.982 26.5468C27.985 26.5437 27.985 26.5437 27.988 26.5405C27.991 26.5374 27.991 26.5374 27.994 26.5343C27.997 26.5311 27.997 26.5311 28 26.528C28.003 26.5248 28.003 26.5248 28.006 26.5217C28.009 26.5186 28.009 26.5186 28.012 26.5154C28.015 26.5123 28.015 26.5123 28.018 26.5091C28.0211 26.506 28.0211 26.506 28.0241 26.5029C28.0271 26.4997 28.0271 26.4997 28.0301 26.4966C28.0331 26.4935 28.0331 26.4935 28.0361 26.4903C28.0391 26.4872 28.0391 26.4872 28.0421 26.484C28.0451 26.4809 28.0451 26.4809 28.0481 26.4778C28.0511 26.4746 28.0511 26.4746 28.0541 26.4715C28.0571 26.4683 28.0571 26.4683 28.0601 26.4652C28.0631 26.4621 28.0631 26.4621 28.0662 26.4589C28.0692 26.4558 28.0692 26.4558 28.0722 26.4526C28.0752 26.4495 28.0752 26.4495 28.0782 26.4464C28.0812 26.4432 28.0812 26.4432 28.0842 26.4401C28.0872 26.437 28.0872 26.437 28.0902 26.4338C28.0932 26.4307 28.0932 26.4307 28.0962 26.4275C28.0992 26.4244 28.0992 26.4244 28.1022 26.4213C28.1052 26.4181 28.1052 26.4181 28.1082 26.415C28.1113 26.4118 28.1113 26.4118 28.1143 26.4087C28.1173 26.4056 28.1173 26.4056 28.1203 26.4024C28.1233 26.3993 28.1233 26.3993 28.1263 26.3961C28.1293 26.393 28.1293 26.393 28.1323 26.3899C28.1353 26.3867 28.1353 26.3867 28.1383 26.3836C28.1413 26.3805 28.1413 26.3805 28.1443 26.3773C28.1473 26.3742 28.1473 26.3742 28.1503 26.371C28.1533 26.3679 28.1533 26.3679 28.1564 26.3648C28.1594 26.3616 28.1594 26.3616 28.1624 26.3585C28.1654 26.3553 28.1654 26.3553 28.1684 26.3522C28.1714 26.3491 28.1714 26.3491 28.1744 26.3459C28.1774 26.3428 28.1774 26.3428 28.1804 26.3396C28.1834 26.3365 28.1834 26.3365 28.1864 26.3334C28.1894 26.3302 28.1894 26.3302 28.1924 26.3271C28.1954 26.324 28.1954 26.324 28.1984 26.3208C28.2015 26.3177 28.2015 26.3177 28.2045 26.3145C28.2075 26.3114 28.2075 26.3114 28.2105 26.3083C28.2135 26.3051 28.2135 26.3051 28.2165 26.302C28.2195 26.2988 28.2195 26.2988 28.2225 26.2957C28.2255 26.2926 28.2255 26.2926 28.2285 26.2894C28.2315 26.2863 28.2315 26.2863 28.2345 26.2831C28.2375 26.28 28.2375 26.28 28.2405 26.2769C28.2435 26.2737 28.2435 26.2737 28.2466 26.2706C28.2496 26.2675 28.2496 26.2675 28.2526 26.2643C28.2556 26.2612 28.2556 26.2612 28.2586 26.258C28.2616 26.2549 28.2616 26.2549 28.2646 26.2518C28.2676 26.2486 28.2676 26.2486 28.2706 26.2455C28.2736 26.2423 28.2736 26.2423 28.2766 26.2392C28.2796 26.2361 28.2796 26.2361 28.2826 26.2329C28.2856 26.2298 28.2856 26.2298 28.2887 26.2266C28.2917 26.2235 28.2917 26.2235 28.2947 26.2204C28.2977 26.2172 28.2977 26.2172 28.3007 26.2141C28.3037 26.211 28.3037 26.211 28.3067 26.2078C28.3097 26.2047 28.3097 26.2047 28.3127 26.2015C28.3157 26.1984 28.3157 26.1984 28.3187 26.1953C28.3217 26.1921 28.3217 26.1921 28.3247 26.189C28.3277 26.1858 28.3277 26.1858 28.3307 26.1827C28.3337 26.1796 28.3337 26.1796 28.3368 26.1764C28.3398 26.1733 28.3398 26.1733 28.3428 26.1701C28.3458 26.167 28.3458 26.167 28.3488 26.1639C28.3518 26.1607 28.3518 26.1607 28.3548 26.1576C28.3578 26.1545 28.3578 26.1545 28.3608 26.1513C28.3638 26.1482 28.3638 26.1482 28.3668 26.145C28.3698 26.1419 28.3698 26.1419 28.3728 26.1388C28.3758 26.1356 28.3758 26.1356 28.3788 26.1325C28.3819 26.1293 28.3819 26.1293 28.3849 26.1262C28.3879 26.1231 28.3879 26.1231 28.3909 26.1199C28.3939 26.1168 28.3939 26.1168 28.3969 26.1136C28.3999 26.1105 28.3999 26.1105 28.4029 26.1074C28.4059 26.1042 28.4059 26.1042 28.4089 26.1011C28.4119 26.098 28.4119 26.098 28.4149 26.0948C28.4179 26.0917 28.4179 26.0917 28.4209 26.0885C28.4239 26.0854 28.424 26.0854 28.427 26.0823C28.43 26.0791 28.43 26.0791 28.433 26.076C28.436 26.0728 28.436 26.0728 28.439 26.0697C28.442 26.0666 28.442 26.0666 28.445 26.0634C28.448 26.0603 28.448 26.0603 28.451 26.0571C28.454 26.054 28.454 26.054 28.457 26.0509C28.46 26.0477 28.46 26.0477 28.463 26.0446C28.466 26.0415 28.466 26.0415 28.4691 26.0383C28.4721 26.0352 28.4721 26.0352 28.4751 26.032C28.4781 26.0289 28.4781 26.0289 28.4811 26.0258C28.4841 26.0226 28.4841 26.0226 28.4871 26.0195C28.4901 26.0163 28.4901 26.0163 28.4931 26.0132C28.4961 26.0101 28.4961 26.0101 28.4991 26.0069C28.5021 26.0038 28.5021 26.0038 28.5051 26.0006C28.5081 25.9975 28.5081 25.9975 28.5111 25.9944C28.5142 25.9912 28.5141 25.9912 28.5172 25.9881C28.5202 25.985 28.5202 25.985 28.5232 25.9818C28.5262 25.9787 28.5262 25.9787 28.5292 25.9755C28.5322 25.9724 28.5322 25.9724 28.5352 25.9693C28.5382 25.9661 28.5382 25.9661 28.5412 25.963C28.5442 25.9598 28.5442 25.9598 28.5472 25.9567C28.5502 25.9536 28.5502 25.9536 28.5532 25.9504C28.5562 25.9473 28.5562 25.9473 28.5593 25.9441C28.5623 25.941 28.5623 25.941 28.5653 25.9379C28.5683 25.9347 28.5683 25.9347 28.5713 25.9316C28.5743 25.9285 28.5743 25.9285 28.5773 25.9253C28.5803 25.9222 28.5803 25.9222 28.5833 25.919C28.5863 25.9159 28.5863 25.9159 28.5893 25.9128C28.5923 25.9096 28.5923 25.9096 28.5953 25.9065C28.5983 25.9033 28.5983 25.9033 28.6013 25.9002C28.6044 25.8971 28.6044 25.8971 28.6074 25.8939C28.6104 25.8908 28.6104 25.8908 28.6134 25.8876C28.6164 25.8845 28.6164 25.8845 28.6194 25.8814C28.6224 25.8782 28.6224 25.8782 28.6254 25.8751C28.6284 25.872 28.6284 25.872 28.6314 25.8688C28.6344 25.8657 28.6344 25.8657 28.6374 25.8625C28.6404 25.8594 28.6404 25.8594 28.6434 25.8563C28.6464 25.8531 28.6464 25.8531 28.6495 25.85C28.6525 25.8468 28.6525 25.8468 28.6555 25.8437C28.6585 25.8406 28.6585 25.8406 28.6615 25.8374C28.6645 25.8343 28.6645 25.8343 28.6675 25.8311C28.6705 25.828 28.6705 25.828 28.6735 25.8249C28.9471 25.4764 29.1095 25.0088 29.1095 24.4594V9.74431C29.1095 8.291 27.982 6.822 26.5899 6.45788Z" fill="black" stroke="white" stroke-miterlimit="10" stroke-linecap="round" stroke-linejoin="round"/>
    <path d="M24.1815 28.9511L3.5196 23.5742C2.12751 23.2132 1 21.7411 1 20.2878V5.56951C1 4.1162 2.12751 3.23103 3.5196 3.59514L24.1815 8.97207C25.5736 9.33304 26.7011 10.8052 26.7011 12.2585V26.9736C26.7011 28.4301 25.5736 29.3153 24.1815 28.9511Z" fill="black" stroke="white" stroke-miterlimit="10" stroke-linecap="round" stroke-linejoin="round"/>
    <path d="M15.2999 11.298L25.9255 25.9221C27.1101 27.5544 26.2141 29.4816 24.4762 29.0296L3.22501 23.4958C1.49016 23.0438 0.591157 20.6488 1.77579 19.6349L12.4014 10.5447C13.1862 9.87611 14.5151 10.2214 15.2999 11.298Z" stroke="white" stroke-miterlimit="10"/>
    <path d="M12.4015 21.2483L1.77585 6.62729C0.591218 4.99506 1.48721 3.06778 3.22507 3.51978L24.4793 9.05051C26.2142 9.50252 27.1132 11.8975 25.9285 12.9114L15.2999 22.0016C14.5152 22.6733 13.1862 22.3249 12.4015 21.2483Z" fill="black" stroke="white" stroke-miterlimit="10"/>
    </svg>
    