
<svg width="25" height="30" viewBox="0 0 25 30" fill="none" xmlns="http://www.w3.org/2000/svg">
    <path d="M24.2001 24.0174L19.1458 17.3567C18.8986 17.0302 18.4995 16.9266 18.2493 17.1213L15.9917 18.9073C14.297 18.2136 10.6038 13.4582 9.88603 11.1919L9.889 11.1887C9.889 11.1887 9.889 11.1856 9.89198 11.1856L9.89496 11.1825L9.89794 11.1793L9.90092 11.1762C9.90092 11.1762 9.90092 11.173 9.9039 11.173L9.90688 11.1699C9.90688 11.1699 9.90688 11.1668 9.90985 11.1668L9.91283 11.1636C9.91283 11.1636 9.91283 11.1605 9.91581 11.1605L9.91879 11.1574L9.92177 11.1542L9.92475 11.1511C9.92475 11.1511 9.92475 11.1479 9.92772 11.1479L9.9307 11.1448C9.9307 11.1448 9.9307 11.1417 9.93368 11.1417L9.93666 11.1385L9.93964 11.1354L9.94262 11.1322C9.94262 11.1322 9.94262 11.1291 9.94559 11.1291L9.94857 11.126C9.94857 11.126 9.94857 11.1228 9.95155 11.1228L9.95453 11.1197C9.95453 11.1197 9.95453 11.1165 9.95751 11.1165L9.96049 11.1134L9.96346 11.1103L9.96644 11.1071C9.96644 11.1071 9.96644 11.104 9.96942 11.104L9.9724 11.1009C9.9724 11.1009 9.9724 11.0977 9.97538 11.0977L9.97836 11.0946L9.98133 11.0914L9.98431 11.0883C9.98431 11.0883 9.98431 11.0852 9.98729 11.0852L9.99027 11.082C9.99027 11.082 9.99027 11.0789 9.99325 11.0789L9.99623 11.0757C9.99623 11.0757 9.99623 11.0726 9.99921 11.0726L10.0022 11.0695L10.0052 11.0663L10.0081 11.0632C10.0081 11.0632 10.0081 11.06 10.0111 11.06L10.0141 11.0569C10.0141 11.0569 10.0141 11.0538 10.0171 11.0538L10.0201 11.0506L10.023 11.0475L10.026 11.0444C10.026 11.0444 10.026 11.0412 10.029 11.0412L10.032 11.0381C10.032 11.0381 10.032 11.0349 10.0349 11.0349L10.0379 11.0318C10.0379 11.0318 10.0379 11.0287 10.0409 11.0287L10.0439 11.0255L10.0469 11.0224L10.0498 11.0192C10.0498 11.0192 10.0498 11.0161 10.0528 11.0161L10.0558 11.013C10.0558 11.013 10.0558 11.0098 10.0588 11.0098L10.0618 11.0067C10.0618 11.0067 10.0618 11.0035 10.0647 11.0035L10.0677 11.0004L10.0707 10.9973L10.0737 10.9941C10.0737 10.9941 10.0737 10.991 10.0766 10.991L10.0796 10.9879C10.0796 10.9879 10.0796 10.9847 10.0826 10.9847L10.0856 10.9816L10.0886 10.9784L10.0915 10.9753C10.0915 10.9753 10.0915 10.9722 10.0945 10.9722L10.0975 10.969C10.0975 10.969 10.0975 10.9659 10.1005 10.9659L10.1034 10.9627C10.1034 10.9627 10.1034 10.9596 10.1064 10.9596L10.0915 10.9784L10.0945 10.9753L10.0975 10.9722C10.0975 10.9722 10.0975 10.969 10.1005 10.969L10.1034 10.9659C10.1034 10.9659 10.1034 10.9627 10.1064 10.9627L10.1094 10.9596L10.1124 10.9565L10.1154 10.9533C10.1154 10.9533 10.1154 10.9502 10.1183 10.9502L10.1213 10.947C10.1213 10.947 10.1213 10.9439 10.1243 10.9439L10.1273 10.9408C10.1273 10.9408 10.1273 10.9376 10.1303 10.9376L10.1332 10.9345L10.1362 10.9314L10.1392 10.9282C10.1392 10.9282 10.1392 10.9251 10.1422 10.9251L10.1451 10.9219C10.1451 10.9219 10.1451 10.9188 10.1481 10.9188L10.1511 10.9157C10.1511 10.9157 10.1511 10.9125 10.1541 10.9125L10.1571 10.9094L10.16 10.9062L10.163 10.9031C10.163 10.9031 10.163 10.9 10.166 10.9L10.169 10.8968C10.169 10.8968 10.169 10.8937 10.172 10.8937L10.1749 10.8905L10.1779 10.8874L10.1809 10.8843C10.1809 10.8843 10.1809 10.8811 10.1839 10.8811L10.1779 10.8874C10.1779 10.8874 10.1779 10.8843 10.1809 10.8843L10.1839 10.8811C10.1839 10.8811 10.1839 10.878 10.1868 10.878L10.1898 10.8749L10.1928 10.8717L10.1958 10.8686C10.1958 10.8686 10.1958 10.8654 10.1988 10.8654L10.2017 10.8623C10.2017 10.8623 10.2017 10.8592 10.2047 10.8592L10.2077 10.856L10.2107 10.8529L10.2136 10.8497C10.2136 10.8497 10.2136 10.8466 10.2166 10.8466L10.2196 10.8435C10.2196 10.8435 10.2196 10.8403 10.2226 10.8403L10.2256 10.8372C10.2256 10.8372 10.2256 10.834 10.2285 10.834L10.2315 10.8309L10.2345 10.8278L10.2375 10.8246C10.2375 10.8246 10.2375 10.8215 10.2405 10.8215L10.2434 10.8184C10.2434 10.8184 10.2434 10.8152 10.2464 10.8152L10.2494 10.8121L10.2524 10.8089L10.2553 10.8058C10.2553 10.8058 10.2553 10.8027 10.2583 10.8027L10.2613 10.7995C10.2613 10.7995 10.2613 10.7964 10.2643 10.7964L10.2673 10.7932C10.2673 10.7932 10.2673 10.7901 10.2702 10.7901L10.2732 10.787L10.2762 10.7838L10.2792 10.7807C10.2792 10.7807 10.2792 10.7775 10.2822 10.7775L10.2851 10.7744C10.2851 10.7744 10.2851 10.7713 10.2881 10.7713L10.2911 10.7681C10.2911 10.7681 10.2911 10.765 10.2941 10.765L10.297 10.7619L10.3 10.7587L10.303 10.7556C10.303 10.7556 10.303 10.7524 10.306 10.7524L10.309 10.7493C10.309 10.7493 10.309 10.7462 10.3119 10.7462L10.3149 10.743L10.3179 10.7399L10.3209 10.7367C10.3209 10.7367 10.3209 10.7336 10.3238 10.7336L10.3268 10.7305C10.3268 10.7305 10.3268 10.7273 10.3298 10.7273L10.3328 10.7242C10.3328 10.7242 10.3328 10.721 10.3358 10.721L10.3387 10.7179L10.3417 10.7148L10.3447 10.7116C10.3447 10.7116 10.3447 10.7085 10.3477 10.7085L10.3507 10.7054C10.3507 10.7054 10.3507 10.7022 10.3536 10.7022L10.3566 10.6991L10.3596 10.6959L10.3626 10.6928C10.3626 10.6928 10.3626 10.6897 10.3655 10.6897L10.3685 10.6865C10.3685 10.6865 10.3685 10.6834 10.3715 10.6834L10.3745 10.6802C10.3745 10.6802 10.3745 10.6771 10.3775 10.6771L10.3804 10.674L10.3834 10.6708L10.3864 10.6677C10.3864 10.6677 10.3864 10.6645 10.3894 10.6645L10.3924 10.6614C10.3924 10.6614 10.3924 10.6583 10.3953 10.6583L10.3983 10.6551C10.3983 10.6551 10.3983 10.652 10.4013 10.652L10.4043 10.6489L10.4072 10.6457L10.4102 10.6426C10.4102 10.6426 10.4102 10.6394 10.4132 10.6394L10.4162 10.6363C10.4162 10.6363 10.4162 10.6332 10.4192 10.6332L10.4221 10.63L10.4251 10.6269L10.4281 10.6237C10.4281 10.6237 10.4281 10.6206 10.4311 10.6206L10.434 10.6175C10.434 10.6175 10.434 10.6143 10.437 10.6143L10.44 10.6112C10.44 10.6112 10.44 10.608 10.443 10.608L10.446 10.6049L10.4489 10.6018L10.4519 10.5986C10.4519 10.5986 10.4519 10.5955 10.4549 10.5955L10.4579 10.5924C10.4579 10.5924 10.4579 10.5892 10.4609 10.5892L10.4638 10.5861L10.4668 10.5829L10.4698 10.5798C10.4698 10.5798 10.4698 10.5767 10.4728 10.5767L10.4757 10.5735C10.4757 10.5735 10.4757 10.5704 10.4787 10.5704L10.4817 10.5672C10.4817 10.5672 10.4817 10.5641 10.4847 10.5641L10.4877 10.561L10.4906 10.5578L10.4936 10.5547C10.4936 10.5547 10.4936 10.5515 10.4966 10.5515L10.4996 10.5484C10.4996 10.5484 10.4996 10.5453 10.5026 10.5453L10.4787 10.5735L10.4817 10.5704L10.4847 10.5672C10.4847 10.5672 10.4847 10.5641 10.4877 10.5641L10.4906 10.561C10.4906 10.561 10.4906 10.5578 10.4936 10.5578L10.4966 10.5547C10.4966 10.5547 10.4966 10.5515 10.4996 10.5515L10.5026 10.5484L10.5055 10.5453L10.5085 10.5421C10.5085 10.5421 10.5085 10.539 10.5115 10.539L10.5145 10.5359C10.5145 10.5359 10.5145 10.5327 10.5174 10.5327L10.5204 10.5296C10.5204 10.5296 10.5204 10.5264 10.5234 10.5264L10.5264 10.5233L10.5294 10.5202L10.5323 10.517C10.5323 10.517 10.5323 10.5139 10.5353 10.5139L10.5383 10.5107C10.5383 10.5107 10.5383 10.5076 10.5413 10.5076L10.5442 10.5045L10.5472 10.5013L10.5502 10.4982C10.5502 10.4982 10.5502 10.495 10.5532 10.495L10.5562 10.4919C10.5562 10.4919 10.5562 10.4888 10.5591 10.4888L10.5621 10.4856C10.5621 10.4856 10.5621 10.4825 10.5651 10.4825L10.5681 10.4794L10.5711 10.4762L10.574 10.4731C10.574 10.4731 10.574 10.4699 10.577 10.4699L10.58 10.4668C10.58 10.4668 10.58 10.4637 10.583 10.4637L10.5859 10.4605L10.5889 10.4574L10.5919 10.4542C10.5919 10.4542 10.5919 10.4511 10.5949 10.4511L10.5979 10.448C10.5979 10.448 10.5979 10.4448 10.6008 10.4448L10.6038 10.4417C10.6038 10.4417 10.6038 10.4385 10.6068 10.4385L10.6098 10.4354L10.6128 10.4323L10.6157 10.4291C10.6157 10.4291 10.6157 10.426 10.6187 10.426L10.6217 10.4229C10.6217 10.4229 10.6217 10.4197 10.6247 10.4197L10.6276 10.4166C10.6276 10.4166 10.6276 10.4134 10.6306 10.4134L10.6336 10.4103L10.6366 10.4072L10.6396 10.404C10.6396 10.404 10.6396 10.4009 10.6425 10.4009L10.6455 10.3977C10.6455 10.3977 10.6455 10.3946 10.6485 10.3946L10.6515 10.3915L10.6544 10.3883L10.6574 10.3852C10.6574 10.3852 10.6574 10.382 10.6604 10.382L10.6634 10.3789C10.6634 10.3789 10.6634 10.3758 10.6664 10.3758L10.6693 10.3726C10.6693 10.3726 10.6693 10.3695 10.6723 10.3695L10.6753 10.3664L10.6783 10.3632L10.6813 10.3601C10.6813 10.3601 10.6813 10.3569 10.6842 10.3569L10.6872 10.3538C10.6872 10.3538 10.6872 10.3507 10.6902 10.3507L10.6932 10.3475L10.6961 10.3444L10.6991 10.3412C10.6991 10.3412 10.6991 10.3381 10.7021 10.3381L10.6872 10.3538C10.6872 10.3538 10.6872 10.3507 10.6902 10.3507L10.6932 10.3475C10.6932 10.3475 10.6932 10.3444 10.6961 10.3444L10.6991 10.3412L10.7021 10.3381L10.7051 10.335C10.7051 10.335 10.7051 10.3318 10.7081 10.3318L10.711 10.3287C10.711 10.3287 10.711 10.3255 10.714 10.3255L10.717 10.3224L10.72 10.3193L10.723 10.3161C10.723 10.3161 10.723 10.313 10.7259 10.313L10.7289 10.3099C10.7289 10.3099 10.7289 10.3067 10.7319 10.3067L10.7349 10.3036C10.7349 10.3036 10.7349 10.3004 10.7378 10.3004L10.7408 10.2973L10.7438 10.2942L10.7468 10.291C10.7468 10.291 10.7468 10.2879 10.7498 10.2879L10.7527 10.2847C10.7527 10.2847 10.7527 10.2816 10.7557 10.2816L10.7587 10.2785C10.7587 10.2785 10.7587 10.2753 10.7617 10.2753L10.7646 10.2722L10.7676 10.269L10.7706 10.2659C10.7706 10.2659 10.7706 10.2628 10.7736 10.2628L10.7766 10.2596C10.7766 10.2596 10.7766 10.2565 10.7795 10.2565L10.7825 10.2534L10.7855 10.2502L10.7885 10.2471C10.7885 10.2471 10.7885 10.2439 10.7915 10.2439L10.7944 10.2408C10.7944 10.2408 10.7944 10.2377 10.7974 10.2377L10.8004 10.2345C10.8004 10.2345 10.8004 10.2314 10.8034 10.2314L10.8063 10.2282L10.8093 10.2251L10.8123 10.222C10.8123 10.222 10.8123 10.2188 10.8153 10.2188L10.8183 10.2157C10.8183 10.2157 10.8183 10.2125 10.8212 10.2125L10.8242 10.2094L10.8272 10.2063L10.8302 10.2031C10.8302 10.2031 10.8302 10.2 10.8332 10.2L10.8361 10.1968C10.8361 10.1968 10.8361 10.1937 10.8391 10.1937L10.8421 10.1906C10.8421 10.1906 10.8421 10.1874 10.8451 10.1874L10.848 10.1843L10.851 10.1812L10.854 10.178C10.854 10.178 10.854 10.1749 10.857 10.1749L10.86 10.1717C10.86 10.1717 10.86 10.1686 10.8629 10.1686L10.8659 10.1655L10.8689 10.1623L10.8719 10.1592C10.8719 10.1592 10.8719 10.156 10.8748 10.156L10.8778 10.1529C10.8778 10.1529 10.8778 10.1498 10.8808 10.1498L10.8838 10.1466C10.8838 10.1466 10.8838 10.1435 10.8868 10.1435L10.8897 10.1404L10.8927 10.1372L10.8957 10.1341C10.8957 10.1341 10.8957 10.1309 10.8987 10.1309L10.9017 10.1278C10.9017 10.1278 10.9017 10.1247 10.9046 10.1247L10.9076 10.1215C10.9076 10.1215 10.9076 10.1184 10.9106 10.1184L10.9136 10.1152L10.9165 10.1121L10.9195 10.109C10.9195 10.109 10.9195 10.1058 10.9225 10.1058L10.9255 10.1027C10.9255 10.1027 10.9255 10.0995 10.9285 10.0995L10.9314 10.0964L10.9344 10.0933L10.9374 10.0901C10.9374 10.0901 10.9374 10.087 10.9404 10.087L10.9434 10.0838C10.9434 10.0838 10.9434 10.0807 10.9463 10.0807L10.9493 10.0776C10.9493 10.0776 10.9493 10.0744 10.9523 10.0744L10.9553 10.0713L10.9582 10.0682L10.9612 10.065C10.9612 10.065 10.9612 10.0619 10.9642 10.0619L10.9672 10.0587C10.9672 10.0587 10.9672 10.0556 10.9702 10.0556L10.9731 10.0525L10.9761 10.0493L10.9791 10.0462C10.9791 10.0462 10.9791 10.043 10.9821 10.043L10.985 10.0399C10.985 10.0399 10.985 10.0368 10.988 10.0368L10.991 10.0336C10.991 10.0336 10.991 10.0305 10.994 10.0305L10.997 10.0274L10.9999 10.0242L11.0029 10.0211C11.0029 10.0211 11.0029 10.0179 11.0059 10.0179L11.0089 10.0148C11.0089 10.0148 11.0089 10.0117 11.0119 10.0117L10.985 10.0368C10.985 10.0368 10.985 10.0336 10.988 10.0336L10.991 10.0305L10.994 10.0274L10.997 10.0242C10.997 10.0242 10.997 10.0211 10.9999 10.0211L11.0029 10.0179C11.0029 10.0179 11.0029 10.0148 11.0059 10.0148L11.0089 10.0117L11.0119 10.0085L11.0148 10.0054C11.0148 10.0054 11.0148 10.0022 11.0178 10.0022L11.0208 9.9991C11.0208 9.9991 11.0208 9.99596 11.0238 9.99596L11.0267 9.99282C11.0267 9.99282 11.0267 9.98968 11.0297 9.98968L11.0327 9.98654L11.0357 9.98341L11.0387 9.98027C11.0387 9.98027 11.0387 9.97713 11.0416 9.97713L11.0446 9.97399C11.0446 9.97399 11.0446 9.97085 11.0476 9.97085L11.0506 9.96771L11.0536 9.96457L11.0565 9.96143C11.0565 9.96143 11.0565 9.95829 11.0595 9.95829L11.0625 9.95516C11.0625 9.95516 11.0625 9.95202 11.0655 9.95202L11.0684 9.94888C11.0684 9.94888 11.0684 9.94574 11.0714 9.94574L11.0744 9.9426L11.0774 9.93946L11.0714 9.94574C11.0714 9.94574 11.0714 9.9426 11.0744 9.9426L11.0774 9.93946C11.0774 9.93946 11.0774 9.93632 11.0804 9.93632L11.0833 9.93318L11.0863 9.93004L11.0893 9.92691C11.0893 9.92691 11.0893 9.92377 11.0923 9.92377L11.0952 9.92063C11.0952 9.92063 11.0952 9.91749 11.0982 9.91749L11.1012 9.91435C11.1012 9.91435 11.1012 9.91121 11.1042 9.91121L11.1072 9.90807L11.1101 9.90493L11.1131 9.90179C11.1131 9.90179 11.1131 9.89866 11.1161 9.89866L11.1191 9.89552C11.1191 9.89552 11.1191 9.89238 11.1221 9.89238L11.125 9.88924C11.125 9.88924 11.125 9.8861 11.128 9.8861L11.131 9.88296L11.134 9.87982L11.1369 9.87668C11.1369 9.87668 11.1369 9.87354 11.1399 9.87354L11.1429 9.87041C11.1429 9.87041 11.1429 9.86727 11.1459 9.86727L11.1489 9.86413L11.1518 9.86099L11.1548 9.85785C11.1548 9.85785 11.1548 9.85471 11.1578 9.85471L11.1608 9.85157C11.1608 9.85157 11.1608 9.84843 11.1638 9.84843L11.1667 9.84529C11.1667 9.84529 11.1667 9.84216 11.1697 9.84216L11.1727 9.83902L11.1757 9.83588L11.1786 9.83274C11.1786 9.83274 11.1786 9.8296 11.1816 9.8296L11.1846 9.82646C11.1846 9.82646 11.1846 9.82332 11.1876 9.82332L11.1906 9.82018L11.1935 9.81704L11.1965 9.8139C11.1965 9.8139 11.1965 9.81077 11.1995 9.81077L11.2025 9.80763C11.2025 9.80763 11.2025 9.80449 11.2054 9.80449L11.2084 9.80135C11.2084 9.80135 11.2084 9.79821 11.2114 9.79821L11.2144 9.79507L11.2174 9.79193L11.2203 9.78879C11.2203 9.78879 11.2203 9.78566 11.2233 9.78566L11.2263 9.78252C11.2263 9.78252 11.2263 9.77938 11.2293 9.77938L11.2323 9.77624C11.2323 9.77624 11.2323 9.7731 11.2352 9.7731L11.2382 9.76996L11.2412 9.76682L11.2442 9.76368C11.2442 9.76368 11.2442 9.76054 11.2471 9.76054L11.2501 9.75741C11.2501 9.75741 11.2501 9.75427 11.2531 9.75427L11.2561 9.75113L11.2591 9.74799L11.262 9.74485C11.262 9.74485 11.262 9.74171 11.265 9.74171L11.268 9.73857C11.268 9.73857 11.268 9.73543 11.271 9.73543L11.274 9.73229C11.274 9.73229 11.274 9.72915 11.2769 9.72915L11.2799 9.72602L11.2829 9.72288L11.2859 9.71974C11.2859 9.71974 11.2859 9.7166 11.2888 9.7166L11.2918 9.71346C11.2918 9.71346 11.2918 9.71032 11.2948 9.71032L11.2978 9.70718L11.3008 9.70404L11.3037 9.7009C11.3037 9.7009 11.3037 9.69777 11.3067 9.69777L11.3097 9.69463C11.3097 9.69463 11.3097 9.69149 11.3127 9.69149L11.3156 9.68835C11.3156 9.68835 11.3156 9.68521 11.3186 9.68521L11.3216 9.68207L11.3246 9.67893L11.3276 9.67579C11.3276 9.67579 11.3276 9.67265 11.3305 9.67265L11.3335 9.66952C11.3335 9.66952 11.3335 9.66638 11.3365 9.66638L11.3395 9.66324L11.3425 9.6601L11.3454 9.65696C11.3454 9.65696 11.3454 9.65382 11.3484 9.65382L11.3514 9.65068C11.3514 9.65068 11.3514 9.64754 11.3544 9.64754L11.3573 9.64441C11.3573 9.64441 11.3573 9.64127 11.3603 9.64127L11.3633 9.63813L11.3663 9.63499L11.3693 9.63185C11.3693 9.63185 11.3693 9.62871 11.3722 9.62871L11.3752 9.62557C11.3752 9.62557 11.3752 9.62243 11.3782 9.62243L11.3812 9.61929C11.3812 9.61929 11.3812 9.61615 11.3842 9.61615L11.3871 9.61302L11.3901 9.60988L11.3931 9.60674C11.3931 9.60674 11.3931 9.6036 11.3961 9.6036L11.3722 9.63185C11.3722 9.63185 11.3722 9.62871 11.3752 9.62871L11.3782 9.62557L11.3812 9.62243L11.3842 9.61929C11.3842 9.61929 11.3842 9.61615 11.3871 9.61615L11.3901 9.61302C11.3901 9.61302 11.3901 9.60988 11.3931 9.60988L11.3961 9.60674C11.3961 9.60674 11.3961 9.6036 11.399 9.6036L11.402 9.60046L11.405 9.59732L11.408 9.59418C11.408 9.59418 11.408 9.59104 11.411 9.59104L11.4139 9.5879C11.4139 9.5879 11.4139 9.58477 11.4169 9.58477L11.4199 9.58163L11.4229 9.57849L11.4258 9.57535C11.4258 9.57535 11.4258 9.57221 11.4288 9.57221L11.4318 9.56907C11.4318 9.56907 11.4318 9.56593 11.4348 9.56593L11.4378 9.56279C11.4378 9.56279 11.4378 9.55966 11.4407 9.55966L11.4437 9.55652L11.4467 9.55338L11.4497 9.55024C11.4497 9.55024 11.4497 9.5471 11.4527 9.5471L11.4556 9.54396C11.4556 9.54396 11.4556 9.54082 11.4586 9.54082L11.4616 9.53768C11.4616 9.53768 11.4616 9.53454 11.4646 9.53454L11.4675 9.5314L11.4705 9.52827L11.4735 9.52513C11.4735 9.52513 11.4735 9.52199 11.4765 9.52199L11.4795 9.51885C11.4795 9.51885 11.4795 9.51571 11.4824 9.51571L11.4854 9.51257L11.4884 9.50943L11.4914 9.50629C11.4914 9.50629 11.4914 9.50315 11.4944 9.50315L11.4973 9.50002C11.4973 9.50002 11.4973 9.49688 11.5003 9.49688L11.5033 9.49374C11.5033 9.49374 11.5033 9.4906 11.5063 9.4906L11.5092 9.48746L11.5122 9.48432L11.5152 9.48118C11.5152 9.48118 11.5152 9.47804 11.5182 9.47804L11.5212 9.4749C11.5212 9.4749 11.5212 9.47177 11.5241 9.47177L11.5271 9.46863L11.5301 9.46549L11.5331 9.46235C11.5331 9.46235 11.5331 9.45921 11.536 9.45921L11.539 9.45607C11.539 9.45607 11.539 9.45293 11.542 9.45293L11.545 9.44979C11.545 9.44979 11.545 9.44665 11.548 9.44665L11.5509 9.44352L11.5539 9.44038L11.5569 9.43724C11.5569 9.43724 11.5569 9.4341 11.5599 9.4341L11.5629 9.43096C11.5629 9.43096 11.5629 9.42782 11.5658 9.42782L11.5688 9.42468L11.5718 9.42154L11.5748 9.4184C11.5748 9.4184 11.5748 9.41527 11.5777 9.41527L11.5807 9.41213C11.5807 9.41213 11.5807 9.40899 11.5837 9.40899L11.5867 9.40585C11.5867 9.40585 11.5867 9.40271 11.5897 9.40271L11.5926 9.39957L11.5956 9.39643L11.5807 9.41213C11.5807 9.41213 11.5807 9.40899 11.5837 9.40899L11.5867 9.40585C11.5867 9.40585 11.5867 9.40271 11.5897 9.40271L11.5926 9.39957C11.5926 9.39957 11.5926 9.39643 11.5956 9.39643L11.5986 9.39329L11.6016 9.39015L11.6046 9.38702C11.6046 9.38702 11.6046 9.38388 11.6075 9.38388L11.6105 9.38074C11.6105 9.38074 11.6105 9.3776 11.6135 9.3776L11.6165 9.37446L11.6194 9.37132L11.6224 9.36818C11.6224 9.36818 11.6224 9.36504 11.6254 9.36504L11.6284 9.3619C11.6284 9.3619 11.6284 9.35876 11.6314 9.35876L11.6343 9.35563C11.6343 9.35563 11.6343 9.35249 11.6373 9.35249L11.6403 9.34935L11.6433 9.34621L11.6462 9.34307C11.6462 9.34307 11.6462 9.33993 11.6492 9.33993L11.6522 9.33679C11.6522 9.33679 11.6522 9.33365 11.6552 9.33365L11.6582 9.33052L11.6611 9.32738L11.6641 9.32424C11.6641 9.32424 11.6641 9.3211 11.6671 9.3211L11.6701 9.31796C11.6701 9.31796 11.6701 9.31482 11.6731 9.31482L11.676 9.31168C11.676 9.31168 11.676 9.30854 11.679 9.30854L11.682 9.3054L11.685 9.30227L11.6879 9.29913C11.6879 9.29913 11.6879 9.29599 11.6909 9.29599L11.6939 9.29285C11.6939 9.29285 11.6939 9.28971 11.6969 9.28971L11.6999 9.28657C11.6999 9.28657 11.6999 9.28343 11.7028 9.28343L11.7058 9.28029L11.7088 9.27715L11.7118 9.27402C11.7118 9.27402 11.7118 9.27088 11.7148 9.27088L11.7177 9.26774C11.7177 9.26774 11.7177 9.2646 11.7207 9.2646L11.7237 9.26146L11.7267 9.25832L11.7296 9.25518C11.7296 9.25518 11.7296 9.25204 11.7326 9.25204L11.7356 9.2489C11.7356 9.2489 11.7356 9.24577 11.7386 9.24577L11.7416 9.24263C11.7416 9.24263 11.7416 9.23949 11.7445 9.23949L11.7475 9.23635L11.7505 9.23321L11.7535 9.23007C11.7535 9.23007 11.7535 9.22693 11.7564 9.22693L11.7594 9.22379C11.7594 9.22379 11.7594 9.22065 11.7624 9.22065L11.7654 9.21751L11.7684 9.21438L11.7713 9.21124C11.7713 9.21124 11.7713 9.2081 11.7743 9.2081L11.7773 9.20496C11.7773 9.20496 11.7773 9.20182 11.7803 9.20182L11.7833 9.19868C11.7833 9.19868 11.7833 9.19554 11.7862 9.19554L11.7892 9.1924L11.7922 9.18927L11.7952 9.18613C11.7952 9.18613 11.7952 9.18299 11.7981 9.18299L11.8011 9.17985C11.8011 9.17985 11.8011 9.17671 11.8041 9.17671L11.8071 9.17357L11.8101 9.17043L11.813 9.16729C11.813 9.16729 11.813 9.16415 11.816 9.16415L11.819 9.16101C11.819 9.16101 11.819 9.15788 11.822 9.15788L11.825 9.15474C11.825 9.15474 11.825 9.1516 11.8279 9.1516L11.8309 9.14846L11.8339 9.14532L11.8369 9.14218C11.8369 9.14218 11.8369 9.13904 11.8398 9.13904L11.8428 9.1359C11.8428 9.1359 11.8428 9.13276 11.8458 9.13276L11.8488 9.12963C11.8488 9.12963 11.8488 9.12649 11.8518 9.12649L11.8547 9.12335L11.8577 9.12021L11.8607 9.11707C11.8607 9.11707 11.8607 9.11393 11.8637 9.11393L11.8666 9.11079C11.8666 9.11079 11.8666 9.10765 11.8696 9.10765L11.8726 9.10452L11.8756 9.10138L11.8786 9.09824C11.8786 9.09824 11.8786 9.0951 11.8815 9.0951L11.8845 9.09196C11.8845 9.09196 11.8845 9.08882 11.8875 9.08882L11.8905 9.08568C11.8905 9.08568 11.8905 9.08254 11.8935 9.08254L11.8964 9.0794L11.8994 9.07626L11.9024 9.07313C11.9024 9.07313 11.9024 9.06999 11.9054 9.06999L11.8786 9.0951C11.8786 9.0951 11.8786 9.09196 11.8815 9.09196L11.8845 9.08882L11.8875 9.08568L11.8905 9.08254C11.8905 9.08254 11.8905 9.0794 11.8935 9.0794L11.8964 9.07626C11.8964 9.07626 11.8964 9.07313 11.8994 9.07313L11.9024 9.06999C11.9024 9.06999 11.9024 9.06685 11.9054 9.06685L11.9083 9.06371L11.9113 9.06057L11.9143 9.05743C11.9143 9.05743 11.9143 9.05429 11.9173 9.05429L11.9203 9.05115C11.9203 9.05115 11.9203 9.04801 11.9232 9.04801L11.9262 9.04488C11.9262 9.04488 11.9262 9.04174 11.9292 9.04174L11.9322 9.0386L11.9352 9.03546L11.9381 9.03232C11.9381 9.03232 11.9381 9.02918 11.9411 9.02918L11.9441 9.02604C11.9441 9.02604 11.9441 9.0229 11.9471 9.0229L11.95 9.01976L11.953 9.01663L11.956 9.01349C11.956 9.01349 11.956 9.01035 11.959 9.01035L11.962 9.00721C11.962 9.00721 11.962 9.00407 11.9649 9.00407L11.9679 9.00093C11.9679 9.00093 11.9679 8.99779 11.9709 8.99779L11.9649 9.00407L11.9679 9.00093L11.9709 8.99779C11.9709 8.99779 11.9709 8.99465 11.9739 8.99465L11.9768 8.99151C11.9768 8.99151 11.9768 8.98838 11.9798 8.98838L11.9828 8.98524L11.9858 8.9821L11.9888 8.97896C11.9888 8.97896 11.9888 8.97582 11.9917 8.97582L11.9947 8.97268C11.9947 8.97268 11.9947 8.96954 11.9977 8.96954L12.0007 8.9664C12.0007 8.9664 12.0007 8.96326 12.0037 8.96326L12.0066 8.96013L12.0096 8.95699L12.0126 8.95385C12.0126 8.95385 12.0126 8.95071 12.0156 8.95071L12.0185 8.94757C12.0185 8.94757 12.0185 8.94443 12.0215 8.94443L12.0245 8.94129L12.0275 8.93815L12.0305 8.93501C12.0305 8.93501 12.0305 8.93188 12.0334 8.93188L12.0364 8.92874C12.2836 8.73413 12.2836 8.31037 12.0364 7.98393L6.97317 1.33261C6.73788 1.02186 6.35963 0.911997 6.10944 1.07522C5.52568 1.35144 5.03723 1.69986 4.63813 2.10478C4.63515 2.10792 4.63515 2.10792 4.63217 2.11106C4.62919 2.11419 4.62919 2.11419 4.62621 2.11733C4.62323 2.12047 4.62323 2.12047 4.62026 2.12361C4.61728 2.12675 4.61728 2.12675 4.6143 2.12989C4.61132 2.13303 4.61132 2.13303 4.60834 2.13617C4.60536 2.13931 4.60536 2.13931 4.60239 2.14244C4.59941 2.14558 4.59941 2.14558 4.59643 2.14872C4.59345 2.15186 4.59345 2.15186 4.59047 2.155C4.58749 2.15814 4.58749 2.15814 4.58452 2.16128C4.58154 2.16442 4.58154 2.16442 4.57856 2.16756C4.57558 2.17069 4.57558 2.17069 4.5726 2.17383C4.56962 2.17697 4.56962 2.17697 4.56664 2.18011C4.56367 2.18325 4.56367 2.18325 4.56069 2.18639C4.55771 2.18953 4.55771 2.18953 4.55473 2.19267C4.55175 2.19581 4.55175 2.19581 4.54877 2.19894C4.5458 2.20208 4.5458 2.20208 4.54282 2.20522C4.53984 2.20836 4.53984 2.20836 4.53686 2.2115C4.53388 2.21464 4.53388 2.21464 4.5309 2.21778C4.52793 2.22092 4.52793 2.22092 4.52495 2.22406C4.52197 2.22719 4.52197 2.22719 4.51899 2.23033C4.51601 2.23347 4.51601 2.23347 4.51303 2.23661C4.51006 2.23975 4.51006 2.23975 4.50708 2.24289C4.5041 2.24603 4.5041 2.24603 4.50112 2.24917C4.49814 2.25231 4.49814 2.25231 4.49516 2.25544C4.49219 2.25858 4.49219 2.25858 4.48921 2.26172C4.48623 2.26486 4.48623 2.26486 4.48325 2.268C4.48027 2.27114 4.48027 2.27114 4.47729 2.27428C4.47431 2.27742 4.47432 2.27742 4.47134 2.28056C4.46836 2.28369 4.46836 2.28369 4.46538 2.28683C4.4624 2.28997 4.4624 2.28997 4.45942 2.29311C4.45644 2.29625 4.45644 2.29625 4.45347 2.29939C4.45049 2.30253 4.45049 2.30253 4.44751 2.30567C4.44453 2.30881 4.44453 2.30881 4.44155 2.31194C4.43857 2.31508 4.43857 2.31508 4.4356 2.31822C4.43262 2.32136 4.43262 2.32136 4.42964 2.3245C4.42666 2.32764 4.42666 2.32764 4.42368 2.33078C4.4207 2.33392 4.4207 2.33392 4.41773 2.33706C4.4356 2.31822 4.4356 2.32136 4.43262 2.3245C4.42964 2.32764 4.42964 2.32764 4.42666 2.33078C4.42368 2.33392 4.42368 2.33392 4.4207 2.33706C4.41773 2.34019 4.41773 2.34019 4.41475 2.34333C4.41177 2.34647 4.41177 2.34647 4.40879 2.34961C4.40581 2.35275 4.40581 2.35275 4.40283 2.35589C4.39986 2.35903 4.39986 2.35903 4.39688 2.36217C4.3939 2.36531 4.3939 2.36531 4.39092 2.36844C4.38794 2.37158 4.38794 2.37158 4.38496 2.37472C4.38199 2.37786 4.38199 2.37786 4.37901 2.381C4.37603 2.38414 4.37603 2.38414 4.37305 2.38728C4.37007 2.39042 4.37007 2.39042 4.36709 2.39356C4.36411 2.39669 4.36412 2.39669 4.36114 2.39983C4.35816 2.40297 4.35816 2.40297 4.35518 2.40611C4.3522 2.40925 4.3522 2.40925 4.34922 2.41239C4.34625 2.41553 4.34624 2.41553 4.34327 2.41867C4.34922 2.41239 4.34624 2.41239 4.34624 2.41553C4.34327 2.41867 4.34327 2.41867 4.34029 2.42181C4.33731 2.42494 4.33731 2.42494 4.33433 2.42808C4.33135 2.43122 4.33135 2.43122 4.32837 2.43436C4.3254 2.4375 4.3254 2.4375 4.32242 2.44064C4.31944 2.44378 4.31944 2.44378 4.31646 2.44692C4.31348 2.45006 4.31348 2.45006 4.3105 2.45319C4.30753 2.45633 4.30753 2.45633 4.30455 2.45947C4.30157 2.46261 4.30157 2.46261 4.29859 2.46575C4.29561 2.46889 4.29561 2.46889 4.29263 2.47203C4.28966 2.47517 4.28966 2.47517 4.28668 2.47831C4.2837 2.48144 4.2837 2.48144 4.28072 2.48458C4.27774 2.48772 4.27774 2.48772 4.27476 2.49086C4.27179 2.494 4.27179 2.494 4.26881 2.49714C4.26583 2.50028 4.26583 2.50028 4.26285 2.50342C4.25987 2.50656 4.25987 2.50656 4.25689 2.5097C4.25392 2.51283 4.25392 2.51283 4.25094 2.51597C4.24796 2.51911 4.24796 2.51911 4.24498 2.52225C4.242 2.52539 4.242 2.52539 4.23902 2.52853C4.23605 2.53167 4.23604 2.53167 4.23307 2.53481C4.23009 2.53795 4.23009 2.53795 4.22711 2.54108C4.22413 2.54422 4.22413 2.54422 4.22115 2.54736C4.21817 2.5505 4.21817 2.5505 4.2152 2.55364C4.21222 2.55678 4.21222 2.55678 4.20924 2.55992C4.20626 2.56306 4.20626 2.56306 4.20328 2.5662C4.2003 2.56933 4.2003 2.56933 4.19733 2.57247C4.19435 2.57561 4.19435 2.57561 4.19137 2.57875C4.18839 2.58189 4.18839 2.58189 4.18541 2.58503C4.18243 2.58817 4.18243 2.58817 4.17946 2.59131C4.17648 2.59445 4.17648 2.59445 4.1735 2.59758C4.17052 2.60072 4.17052 2.60072 4.16754 2.60386C4.16456 2.607 4.16456 2.607 4.16159 2.61014C4.15861 2.61328 4.15861 2.61328 4.15563 2.61642C4.15265 2.61956 4.15265 2.61956 4.14967 2.6227C4.14669 2.62583 4.14669 2.62583 4.14372 2.62897C4.14074 2.63211 4.14074 2.63211 4.13776 2.63525C4.13478 2.63839 4.13478 2.63839 4.1318 2.64153C4.12882 2.64467 4.12882 2.64467 4.12584 2.64781C4.12287 2.65095 4.12287 2.65095 4.11989 2.65408C4.13776 2.63525 4.13478 2.63839 4.1318 2.63839C4.12882 2.64153 4.12882 2.64153 4.12584 2.64467C4.12287 2.64781 4.12287 2.64781 4.11989 2.65095C4.11691 2.65408 4.11691 2.65408 4.11393 2.65722C4.11095 2.66036 4.11095 2.66036 4.10797 2.6635C4.105 2.66664 4.105 2.66664 4.10202 2.66978C4.09904 2.67292 4.09904 2.67292 4.09606 2.67606C4.09308 2.6792 4.09308 2.6792 4.0901 2.68233C4.08713 2.68547 4.08713 2.68547 4.08415 2.68861C4.08117 2.69175 4.08117 2.69175 4.07819 2.69489C4.07521 2.69803 4.07521 2.69803 4.07223 2.70117C4.06926 2.70431 4.06926 2.70431 4.06628 2.70745C4.0633 2.71058 4.0633 2.71058 4.06032 2.71372C4.05734 2.71686 4.05734 2.71686 4.05436 2.72C4.05139 2.72314 4.05139 2.72314 4.04841 2.72628C4.05436 2.72314 4.05436 2.72314 4.05139 2.72628C4.04841 2.72628 4.04841 2.72942 4.04543 2.72942C4.04245 2.73256 4.04245 2.73256 4.03947 2.7357C4.03649 2.73883 4.03649 2.73883 4.03352 2.74197C4.03054 2.74511 4.03054 2.74511 4.02756 2.74825C4.02458 2.75139 4.02458 2.75139 4.0216 2.75453C4.01862 2.75767 4.01862 2.75767 4.01565 2.76081C4.01267 2.76395 4.01267 2.76395 4.00969 2.76708C4.00671 2.77022 4.00671 2.77022 4.00373 2.77336C4.00075 2.7765 4.00075 2.7765 3.99777 2.77964C3.9948 2.78278 3.9948 2.78278 3.99182 2.78592C3.98884 2.78906 3.98884 2.78906 3.98586 2.7922C3.98288 2.79533 3.98288 2.79533 3.9799 2.79847C3.97693 2.80161 3.97693 2.80161 3.97395 2.80475C3.97097 2.80789 3.97097 2.80789 3.96799 2.81103C3.96501 2.81417 3.96501 2.81417 3.96203 2.81731C3.95906 2.82045 3.95906 2.82045 3.95608 2.82358C3.9531 2.82672 3.9531 2.82672 3.95012 2.82986C3.94714 2.833 3.94714 2.833 3.94416 2.83614C3.94119 2.83928 3.94119 2.83928 3.93821 2.84242C3.93523 2.84556 3.93523 2.84556 3.93225 2.8487C3.92927 2.85183 3.92927 2.85183 3.92629 2.85497C3.92332 2.85811 3.92332 2.85811 3.92034 2.86125C3.91736 2.86439 3.91736 2.86439 3.91438 2.86753C3.9114 2.87067 3.9114 2.87067 3.90842 2.87381C3.90544 2.87695 3.90545 2.87695 3.90247 2.88008C3.89949 2.88322 3.89949 2.88322 3.89651 2.88636C3.89353 2.8895 3.89353 2.8895 3.89055 2.89264C3.88757 2.89578 3.88757 2.89578 3.8846 2.89892C3.88162 2.90206 3.88162 2.90206 3.87864 2.9052C3.87566 2.90833 3.87566 2.90833 3.87268 2.91147C3.8697 2.91461 3.8697 2.91461 3.86673 2.91775C3.86375 2.92089 3.86375 2.92089 3.86077 2.92403C3.85779 2.92717 3.85779 2.92717 3.85481 2.93031C3.85183 2.93345 3.85183 2.93345 3.84886 2.93658C3.84588 2.93972 3.84588 2.93972 3.8429 2.94286C3.83992 2.946 3.83992 2.946 3.83694 2.94914C3.83396 2.95228 3.83396 2.95228 3.83099 2.95542C3.82801 2.95856 3.82801 2.95856 3.82503 2.9617C3.82205 2.96483 3.82205 2.96483 3.81907 2.96797C3.83694 2.95228 3.83396 2.95228 3.83396 2.95542C3.83099 2.95542 3.83099 2.95856 3.82801 2.9617C3.82503 2.9617 3.82503 2.96483 3.82205 2.96797C3.82205 2.96797 3.81907 2.97111 3.81609 2.97425L3.81312 2.97739C3.81014 2.98053 3.80716 2.98053 3.80716 2.98367C3.80418 2.98681 3.8012 2.98681 3.8012 2.98995C3.79822 2.99309 3.79822 2.99309 3.79524 2.99622C3.79227 2.99622 3.79227 2.99936 3.78929 3.0025C3.78929 3.0025 3.78631 3.00564 3.78333 3.00564C3.78333 3.00878 3.78035 3.01192 3.77737 3.01192C3.77737 3.01506 3.7744 3.01506 3.7744 3.0182C3.77142 3.02133 3.77142 3.02133 3.76844 3.02447C3.76546 3.02447 3.76546 3.02761 3.76248 3.03075C3.7595 3.03075 3.7595 3.03389 3.75653 3.03703C3.75653 3.03703 3.75355 3.04017 3.75057 3.04017C3.75057 3.04331 3.74759 3.04645 3.74759 3.04645C3.74461 3.04959 3.74163 3.04959 3.74163 3.05272C3.73866 3.05586 3.73866 3.05586 3.73568 3.059C3.7327 3.059 3.7327 3.06214 3.72972 3.06528C3.72674 3.06528 3.72674 3.06842 3.72376 3.07156C3.72376 3.07156 3.72079 3.0747 3.71781 3.0747C3.71781 3.07784 3.71483 3.08097 3.71483 3.08097C3.71185 3.08411 3.70887 3.08411 3.70887 3.08725C3.70589 3.09039 3.70292 3.09039 3.70292 3.09353C3.69994 3.09353 3.69994 3.09667 3.69696 3.09981C3.69696 3.09981 3.69398 3.10295 3.691 3.10295C3.691 3.10609 3.68802 3.10922 3.68505 3.10922C3.68505 3.11236 3.68207 3.1155 3.68207 3.1155C3.67909 3.11864 3.67611 3.11864 3.67611 3.12178C3.67313 3.12492 3.67313 3.12492 3.67015 3.12806C3.66717 3.12806 3.66717 3.1312 3.6642 3.13434C3.66122 3.13434 3.66122 3.13747 3.65824 3.14061L3.65526 3.14375C3.65228 3.14689 3.6493 3.15003 3.6493 3.15003C3.64633 3.15317 3.64335 3.15317 3.64335 3.15631C3.64037 3.15945 3.64037 3.15945 3.63739 3.16259C3.63441 3.16259 3.63441 3.16572 3.63143 3.16886C3.63143 3.16886 3.62846 3.172 3.62548 3.172C3.62548 3.17514 3.6225 3.17828 3.61952 3.17828C3.61952 3.18142 3.61654 3.18142 3.61654 3.18456C3.61356 3.1877 3.61059 3.1877 3.61059 3.19084C3.61059 3.19397 3.60761 3.19397 3.60463 3.19711C3.60165 3.19711 3.60165 3.20025 3.59867 3.20025C3.59867 3.20339 3.59569 3.20653 3.59272 3.20653C3.59272 3.20967 3.58974 3.21281 3.58974 3.21281C3.58676 3.21595 3.58378 3.21909 3.58378 3.21909C3.5808 3.22222 3.5808 3.22222 3.57782 3.22536C3.57485 3.22536 3.57485 3.2285 3.57187 3.23164C3.56889 3.23164 3.56889 3.23478 3.56591 3.23792C3.56591 3.23792 3.56293 3.24106 3.55995 3.24106C3.55995 3.2442 3.55698 3.24734 3.55698 3.24734C3.554 3.25047 3.55102 3.25047 3.55102 3.25361C3.54804 3.25675 3.54506 3.25675 3.54506 3.25989C3.54208 3.26303 3.54208 3.26303 3.5391 3.26617C3.53613 3.26617 3.53613 3.26931 3.53315 3.27245C3.53315 3.27245 3.53017 3.27559 3.52719 3.27559C3.52719 3.27872 3.52421 3.28186 3.52123 3.28186C3.52123 3.285 3.51826 3.285 3.51826 3.28814C3.51528 3.29128 3.51528 3.29128 3.5123 3.29442C3.50932 3.29442 3.50932 3.29756 3.50634 3.3007C3.50336 3.3007 3.50336 3.30384 3.50039 3.30384C3.50039 3.30697 3.49741 3.31011 3.49443 3.31011C3.49443 3.31325 3.49145 3.31639 3.49145 3.31639C3.48847 3.31953 3.48549 3.31953 3.48549 3.32267C3.48252 3.32581 3.48252 3.32581 3.47954 3.32895C3.47656 3.32895 3.47656 3.33209 3.47358 3.33522C3.4706 3.33522 3.4706 3.33836 3.46762 3.3415L3.46465 3.34464C3.46167 3.34778 3.45869 3.35092 3.45869 3.35092C3.45571 3.35406 3.45273 3.35406 3.45273 3.3572C3.44975 3.36034 3.44677 3.36034 3.44677 3.36347C3.4438 3.36347 3.4438 3.36661 3.44082 3.36975C3.44082 3.36975 3.43784 3.37289 3.43486 3.37289C3.43486 3.37603 3.43188 3.37917 3.4289 3.37917C3.4289 3.38231 3.42593 3.38545 3.42593 3.38545C3.42295 3.38859 3.41997 3.38859 3.41997 3.39172C3.41699 3.39486 3.41699 3.39486 3.41401 3.398C3.41103 3.40114 3.41103 3.40114 3.40806 3.40428C3.40508 3.40428 3.40508 3.40742 3.4021 3.40742C3.4021 3.41056 3.39912 3.4137 3.39614 3.4137C3.39614 3.41684 3.39316 3.41997 3.39316 3.41997C3.39019 3.42311 3.38721 3.42311 3.38721 3.42625C3.38423 3.42939 3.38423 3.42939 3.38125 3.43253C3.37827 3.43253 3.37827 3.43567 3.37529 3.43881C3.37529 3.43881 3.37232 3.44195 3.36934 3.44509L3.36636 3.44822C3.36338 3.45136 3.3604 3.45136 3.3604 3.4545C3.35742 3.45764 3.35445 3.45764 3.35445 3.46078C3.35147 3.46392 3.35147 3.46392 3.34849 3.46706C3.34551 3.46706 3.34551 3.4702 3.34253 3.4702C3.34253 3.47334 3.33955 3.47648 3.33657 3.47648C3.33657 3.47961 3.3336 3.48275 3.3336 3.48275C3.33062 3.48589 3.32764 3.48589 3.32764 3.48903C3.32466 3.49217 3.32168 3.49217 3.32168 3.49531C3.3187 3.49531 3.3187 3.49845 3.31573 3.50159C3.31275 3.50159 3.31275 3.50472 3.30977 3.50786C3.30977 3.50786 3.30679 3.511 3.30381 3.511C3.30381 3.51414 3.30083 3.51728 3.30083 3.51728C3.29786 3.52042 3.29488 3.52042 3.29488 3.52356C3.2919 3.5267 3.28892 3.5267 3.28892 3.52984C3.28594 3.53298 3.28594 3.53297 3.28296 3.53611C3.27999 3.53611 3.27999 3.53925 3.27701 3.54239C3.27701 3.54239 3.27403 3.54553 3.27105 3.54553C3.27105 3.54867 3.26807 3.55181 3.26807 3.55181C3.26509 3.55495 3.26212 3.55495 3.26212 3.55809C3.25914 3.56122 3.25914 3.56123 3.25616 3.56436C3.25318 3.56436 3.25318 3.5675 3.2502 3.57064C3.24722 3.57064 3.24722 3.57378 3.24425 3.57378C3.24425 3.57692 3.24127 3.58006 3.23829 3.58006C3.23531 3.58006 3.23531 3.58634 3.23233 3.58634C3.23233 3.58948 3.22935 3.58948 3.22935 3.59261C3.22638 3.59575 3.22638 3.59575 3.2234 3.59889C3.22042 3.59889 3.22042 3.60203 3.21744 3.60517C3.21446 3.60517 3.21446 3.60831 3.21148 3.61145L3.2085 3.61459C3.20553 3.61773 3.20255 3.62086 3.20255 3.62086C3.19957 3.624 3.19659 3.624 3.19659 3.62714C3.19361 3.63028 3.19063 3.63028 3.19063 3.63342C3.18766 3.63342 3.18766 3.63656 3.18468 3.6397C3.18468 3.6397 3.1817 3.64284 3.17872 3.64284C3.17872 3.64598 3.17574 3.64911 3.17276 3.64911C3.17276 3.65225 3.16979 3.65225 3.16979 3.65539C3.16681 3.65853 3.16383 3.65853 3.16383 3.66167C3.16085 3.66481 3.16085 3.66481 3.15787 3.66795C3.15489 3.66795 3.15489 3.67109 3.15192 3.67423C3.14894 3.67423 3.14894 3.67736 3.14596 3.67736C3.14596 3.6805 3.14298 3.68364 3.14 3.68364C3.14 3.68678 3.13702 3.68992 3.13702 3.68992C3.13405 3.69306 3.13107 3.69306 3.13107 3.6962C3.12809 3.6962 3.12809 3.69934 3.12511 3.70248C3.12213 3.70248 3.12213 3.70561 3.11915 3.70875C3.11915 3.70875 3.11618 3.71189 3.1132 3.71503L3.11022 3.71817C3.10724 3.72131 3.10426 3.72131 3.10426 3.72445C3.10128 3.72759 3.0983 3.72759 3.0983 3.73073C3.09533 3.73386 3.09533 3.73386 3.09235 3.737C3.08937 3.737 3.08937 3.74014 3.08639 3.74328C3.08639 3.74328 3.08341 3.74642 3.08043 3.74642C3.08043 3.74956 3.07746 3.7527 3.07448 3.7527C3.07448 3.75584 3.0715 3.75584 3.0715 3.75898C3.06852 3.76211 3.06852 3.76211 3.06554 3.76525C3.06256 3.76525 3.06256 3.76839 3.05959 3.77153C3.05661 3.77153 3.05661 3.77467 3.05363 3.77781C3.05363 3.77781 3.05065 3.78095 3.04767 3.78095C3.04767 3.78409 3.04469 3.78723 3.04469 3.78723C3.04172 3.79036 3.03874 3.7935 3.03874 3.7935C3.03576 3.79664 3.03576 3.79664 3.03278 3.79978C3.0298 3.79978 3.0298 3.80292 3.02682 3.80606C3.02385 3.80606 3.02385 3.8092 3.02087 3.81234C3.02087 3.81234 3.01789 3.81548 3.01491 3.81548C3.01491 3.81861 3.01193 3.82175 3.01193 3.82175C3.00895 3.82489 3.00598 3.82489 3.00598 3.82803C3.003 3.83117 3.00002 3.83117 3.00002 3.83431C2.99704 3.83431 2.99704 3.83745 2.99406 3.84059C2.99406 3.84059 2.99108 3.84373 2.9881 3.84686C2.9881 3.84686 2.98513 3.85 2.98215 3.85C2.98215 3.85314 2.97917 3.85628 2.97619 3.85628C2.97619 3.85942 2.97321 3.85942 2.97321 3.86256C2.97023 3.8657 2.97023 3.8657 2.96726 3.86884C2.96428 3.86884 2.96428 3.87198 2.9613 3.87511C2.95832 3.87511 2.95832 3.87825 2.95534 3.88139L2.95236 3.88453C2.94939 3.88767 2.94641 3.89081 2.94641 3.89081C2.94343 3.89395 2.94045 3.89395 2.94045 3.89709C2.93747 3.90023 2.93747 3.90023 2.93449 3.90336C2.93152 3.90336 2.93152 3.9065 2.92854 3.90964C2.92854 3.90964 2.92556 3.91278 2.92258 3.91278C2.92258 3.91592 2.9196 3.91906 2.91662 3.91906C2.91662 3.9222 2.91365 3.9222 2.91365 3.92534C2.91067 3.92848 2.90769 3.92848 2.90769 3.93161C2.90471 3.93475 2.90471 3.93475 2.90173 3.93789C2.89875 3.93789 2.89875 3.94103 2.89578 3.94417C2.89578 3.94417 2.8928 3.94731 2.88982 3.94731C2.88982 3.95045 2.88684 3.95359 2.88386 3.95359C2.88386 3.95673 2.88088 3.95986 2.88088 3.95986C2.8779 3.963 2.87493 3.963 2.87493 3.96614C2.87195 3.96614 2.87195 3.96928 2.86897 3.97242C2.86599 3.97242 2.86599 3.97556 2.86301 3.9787C2.86003 3.98184 2.86003 3.98184 2.85706 3.98184C2.85408 3.98498 2.85408 3.98498 2.8511 3.98812C2.84812 3.99125 2.84812 3.99125 2.84514 3.99439C2.84216 3.99753 2.84216 3.99753 2.83919 4.00067C2.83621 4.00381 2.83621 4.00381 2.83323 4.00695C2.83025 4.01009 2.83025 4.01009 2.82727 4.01323C2.82429 4.01637 2.82429 4.01636 2.82132 4.0195C2.81834 4.02264 2.81834 4.02264 2.81536 4.02578C2.81238 4.02892 2.81238 4.02892 2.8094 4.03206C2.80642 4.0352 2.80642 4.0352 2.80345 4.03834C2.80047 4.04148 2.80047 4.04148 2.79749 4.04462C2.79451 4.04775 2.79451 4.04775 2.79153 4.05089C2.78855 4.05403 2.78855 4.05403 2.78558 4.05717C2.7826 4.06031 2.7826 4.06031 2.77962 4.06345C2.77664 4.06659 2.77664 4.06659 2.77366 4.06973C2.77068 4.07287 2.77068 4.07287 2.7677 4.076C2.76473 4.07914 2.76473 4.07914 2.76175 4.08228C2.75877 4.08542 2.75877 4.08542 2.75579 4.08856C2.75281 4.0917 2.75281 4.0917 2.74983 4.09484C2.74686 4.09798 2.74686 4.09798 2.74388 4.10112C2.7409 4.10425 2.7409 4.10425 2.73792 4.10739C2.73494 4.11053 2.73494 4.11053 2.73196 4.11367C2.72899 4.11681 2.72899 4.11681 2.72601 4.11995C2.72303 4.12309 2.72303 4.12309 2.72005 4.12623C2.71707 4.12937 2.71707 4.12936 2.71409 4.1325C2.71112 4.13564 2.71112 4.13564 2.70814 4.13878C2.70516 4.14192 2.70516 4.14192 2.70218 4.14506C2.6992 4.1482 2.6992 4.1482 2.69622 4.15134C2.69325 4.15448 2.69325 4.15448 2.69027 4.15762C2.68729 4.16075 2.68729 4.16075 2.68431 4.16389C2.68133 4.16703 2.68133 4.16703 2.67835 4.17017C2.67538 4.17331 2.67538 4.17331 2.6724 4.17645C2.66942 4.17959 2.66942 4.17959 2.66644 4.18273C2.66346 4.18587 2.66346 4.18587 2.66048 4.189C2.65751 4.19214 2.65751 4.19214 2.65453 4.19528C2.65155 4.19842 2.65155 4.19842 2.64857 4.20156C2.64559 4.2047 2.64559 4.2047 2.64261 4.20784C2.63963 4.21098 2.63963 4.21098 2.63666 4.21412C2.63368 4.21725 2.63368 4.21725 2.6307 4.22039C2.64857 4.2047 2.64857 4.2047 2.64559 4.20784C2.64261 4.21098 2.64261 4.21098 2.63963 4.21412C2.63666 4.21725 2.63666 4.21725 2.63368 4.22039C2.6307 4.22353 2.6307 4.22353 2.62772 4.22667C2.62474 4.22981 2.62474 4.22981 2.62176 4.23295C2.61879 4.23609 2.61879 4.23609 2.61581 4.23923C2.61283 4.24237 2.61283 4.24237 2.60985 4.2455C2.60687 4.24864 2.60687 4.24864 2.60389 4.25178C2.60092 4.25492 2.60092 4.25492 2.59794 4.25806C2.59496 4.2612 2.59496 4.2612 2.59198 4.26434C2.589 4.26748 2.589 4.26748 2.58602 4.27062C2.58305 4.27375 2.58305 4.27375 2.58007 4.27689C2.57709 4.28003 2.57709 4.28003 2.57411 4.28317C2.57113 4.28631 2.57113 4.28631 2.56815 4.28945C2.56518 4.29259 2.56518 4.29259 2.5622 4.29573C2.55922 4.29887 2.55922 4.29887 2.55624 4.302C2.5622 4.29573 2.55922 4.29573 2.55922 4.29887C2.55624 4.302 2.55624 4.302 2.55326 4.30514C2.55028 4.30828 2.55028 4.30828 2.5473 4.31142C2.54433 4.31456 2.54433 4.31456 2.54135 4.3177C2.53837 4.32084 2.53837 4.32084 2.53539 4.32398C2.53241 4.32712 2.53241 4.32712 2.52943 4.32712C2.52646 4.33025 2.52646 4.33025 2.52348 4.33339C2.5205 4.33653 2.5205 4.33653 2.51752 4.33967C2.51454 4.34281 2.51454 4.34281 2.51156 4.34595C2.50859 4.34909 2.50859 4.34909 2.50561 4.35223C2.50263 4.35537 2.50263 4.35537 2.49965 4.3585C2.49667 4.36164 2.49667 4.36164 2.49369 4.36478C2.49072 4.36792 2.49072 4.36792 2.48774 4.37106C2.48476 4.3742 2.48476 4.3742 2.48178 4.37734C2.4788 4.38048 2.4788 4.38048 2.47582 4.38362C2.47285 4.38675 2.47285 4.38675 2.46987 4.38989C2.46689 4.39303 2.46689 4.39303 2.46391 4.39617C2.46093 4.39931 2.46093 4.39931 2.45795 4.40245C2.45498 4.40559 2.45498 4.40559 2.452 4.40873C0.724538 6.16023 0.653057 9.0229 1.63592 12.2057C2.49667 14.968 4.16159 17.9782 6.20475 20.6713C8.2509 23.3645 10.6932 25.7595 13.1057 27.2913C16.3283 29.341 19.4973 29.8809 21.6715 27.6585C21.6744 27.6554 21.6744 27.6554 21.6774 27.6523C21.6804 27.6491 21.6804 27.6491 21.6834 27.646C21.6864 27.6428 21.6864 27.6428 21.6893 27.6397C21.6923 27.6366 21.6923 27.6366 21.6953 27.6334C21.6983 27.6303 21.6983 27.6303 21.7013 27.6271C21.7042 27.624 21.7042 27.624 21.7072 27.6209C21.7102 27.6177 21.7102 27.6177 21.7132 27.6146C21.7161 27.6114 21.7161 27.6114 21.7191 27.6083C21.7221 27.6052 21.7221 27.6052 21.7251 27.602C21.7281 27.5989 21.7281 27.5989 21.731 27.5958C21.734 27.5926 21.734 27.5926 21.737 27.5895C21.74 27.5863 21.74 27.5863 21.7429 27.5832C21.7459 27.5801 21.7459 27.5801 21.7489 27.5769C21.7519 27.5738 21.7519 27.5738 21.7549 27.5706C21.7578 27.5675 21.7578 27.5675 21.7608 27.5644C21.7638 27.5612 21.7638 27.5612 21.7668 27.5581C21.7698 27.5549 21.7698 27.5549 21.7727 27.5518C21.7757 27.5487 21.7757 27.5487 21.7787 27.5455C21.7817 27.5424 21.7817 27.5424 21.7846 27.5393C21.7876 27.5361 21.7876 27.5361 21.7906 27.533C21.7936 27.5298 21.7936 27.5298 21.7966 27.5267C21.7995 27.5236 21.7995 27.5236 21.8025 27.5204C21.8055 27.5173 21.8055 27.5173 21.8085 27.5141C21.8114 27.511 21.8115 27.511 21.8144 27.5079C21.8174 27.5047 21.8174 27.5047 21.8204 27.5016C21.8234 27.4984 21.8234 27.4984 21.8263 27.4953C21.8293 27.4922 21.8293 27.4922 21.8323 27.489C21.8353 27.4859 21.8353 27.4859 21.8383 27.4827C21.8412 27.4796 21.8412 27.4796 21.8442 27.4765C21.8472 27.4733 21.8472 27.4733 21.8502 27.4702C21.8531 27.4671 21.8531 27.4671 21.8561 27.4639C21.8591 27.4608 21.8591 27.4608 21.8621 27.4576C21.8651 27.4545 21.8651 27.4545 21.868 27.4514C21.871 27.4482 21.871 27.4482 21.874 27.4451C21.877 27.4419 21.877 27.4419 21.88 27.4388C21.8829 27.4357 21.8829 27.4357 21.8859 27.4325C21.8889 27.4294 21.8889 27.4294 21.8919 27.4263C21.8948 27.4231 21.8948 27.4231 21.8978 27.42C21.9008 27.4168 21.9008 27.4168 21.9038 27.4137C21.9068 27.4106 21.9068 27.4106 21.9097 27.4074C21.9127 27.4043 21.9127 27.4043 21.9157 27.4011C21.9187 27.398 21.9187 27.398 21.9217 27.3949C21.9246 27.3917 21.9246 27.3917 21.9276 27.3886C21.9306 27.3854 21.9306 27.3854 21.9336 27.3823C21.9365 27.3792 21.9365 27.3792 21.9395 27.376C21.9425 27.3729 21.9425 27.3729 21.9455 27.3698C21.9485 27.3666 21.9485 27.3666 21.9514 27.3635C21.9544 27.3603 21.9544 27.3603 21.9574 27.3572C21.9604 27.3541 21.9604 27.3541 21.9633 27.3509C21.9663 27.3478 21.9663 27.3478 21.9693 27.3446C21.9723 27.3415 21.9723 27.3415 21.9753 27.3384C21.9782 27.3352 21.9782 27.3352 21.9812 27.3321C21.9842 27.3289 21.9842 27.3289 21.9872 27.3258C21.9902 27.3227 21.9902 27.3227 21.9931 27.3195C21.9961 27.3164 21.9961 27.3164 21.9991 27.3132C22.0021 27.3101 22.0021 27.3101 22.005 27.307C22.008 27.3038 22.008 27.3038 22.011 27.3007C22.014 27.2976 22.014 27.2976 22.017 27.2944C22.0199 27.2913 22.0199 27.2913 22.0229 27.2881C22.0259 27.285 22.0259 27.285 22.0289 27.2819C22.0319 27.2787 22.0319 27.2787 22.0348 27.2756C22.0378 27.2724 22.0378 27.2724 22.0408 27.2693C22.0438 27.2662 22.0438 27.2662 22.0467 27.263C22.0497 27.2599 22.0497 27.2599 22.0527 27.2568C22.0557 27.2536 22.0557 27.2536 22.0587 27.2505C22.0616 27.2473 22.0616 27.2473 22.0646 27.2442C22.0676 27.2411 22.0676 27.2411 22.0706 27.2379C22.0735 27.2348 22.0735 27.2348 22.0765 27.2316C22.0795 27.2285 22.0795 27.2285 22.0825 27.2254C22.0855 27.2222 22.0855 27.2222 22.0884 27.2191C22.0914 27.2159 22.0914 27.2159 22.0944 27.2128C22.0974 27.2097 22.0974 27.2097 22.1004 27.2065C22.1033 27.2034 22.1033 27.2034 22.1063 27.2002C22.1093 27.1971 22.1093 27.1971 22.1123 27.194C22.1152 27.1908 22.1152 27.1908 22.1182 27.1877C22.1212 27.1846 22.1212 27.1846 22.1242 27.1814C22.1272 27.1783 22.1272 27.1783 22.1301 27.1751C22.1331 27.172 22.1331 27.172 22.1361 27.1689C22.1391 27.1657 22.1391 27.1657 22.142 27.1626C22.145 27.1594 22.145 27.1594 22.148 27.1563C22.151 27.1532 22.151 27.1532 22.154 27.15C22.1569 27.1469 22.1569 27.1469 22.1599 27.1437C22.1629 27.1406 22.1629 27.1406 22.1659 27.1375C22.1689 27.1343 22.1689 27.1343 22.1718 27.1312C22.1748 27.1281 22.1748 27.1281 22.1778 27.1249C22.1808 27.1218 22.1808 27.1218 22.1837 27.1186C22.1867 27.1155 22.1867 27.1155 22.1897 27.1124C22.1927 27.1092 22.1927 27.1092 22.1957 27.1061C22.1986 27.1029 22.1986 27.1029 22.2016 27.0998C22.2046 27.0967 22.2046 27.0967 22.2076 27.0935C22.2106 27.0904 22.2106 27.0904 22.2135 27.0872C22.2165 27.0841 22.2165 27.0841 22.2195 27.081C22.2225 27.0778 22.2225 27.0778 22.2254 27.0747C22.2284 27.0716 22.2284 27.0716 22.2314 27.0684C22.2344 27.0653 22.2344 27.0653 22.2374 27.0621C22.2403 27.059 22.2403 27.059 22.2433 27.0559C22.2463 27.0527 22.2463 27.0527 22.2493 27.0496C22.2523 27.0464 22.2522 27.0464 22.2552 27.0433C22.2582 27.0402 22.2582 27.0402 22.2612 27.037C22.2642 27.0339 22.2642 27.0339 22.2671 27.0307C22.2701 27.0276 22.2701 27.0276 22.2731 27.0245C22.2761 27.0213 22.2761 27.0213 22.2791 27.0182C22.282 27.0151 22.282 27.0151 22.285 27.0119C22.288 27.0088 22.288 27.0088 22.291 27.0056C22.2939 27.0025 22.2939 27.0025 22.2969 26.9994C22.2999 26.9962 22.2999 26.9962 22.3029 26.9931C22.3059 26.9899 22.3059 26.9899 22.3088 26.9868C22.3118 26.9837 22.3118 26.9837 22.3148 26.9805C22.3178 26.9774 22.3178 26.9774 22.3208 26.9742C22.3237 26.9711 22.3237 26.9711 22.3267 26.968C22.3297 26.9648 22.3297 26.9648 22.3327 26.9617C22.3356 26.9586 22.3356 26.9586 22.3386 26.9554C22.3416 26.9523 22.3416 26.9523 22.3446 26.9491C22.3476 26.946 22.3476 26.946 22.3505 26.9429C22.3535 26.9397 22.3535 26.9397 22.3565 26.9366C22.3595 26.9334 22.3595 26.9334 22.3624 26.9303C22.3654 26.9272 22.3654 26.9272 22.3684 26.924C22.3714 26.9209 22.3714 26.9209 22.3744 26.9177C22.3773 26.9146 22.3773 26.9146 22.3803 26.9115C22.3833 26.9083 22.3833 26.9083 22.3863 26.9052C22.3893 26.9021 22.3893 26.9021 22.3922 26.8989C22.3952 26.8958 22.3952 26.8958 22.3982 26.8926C22.4012 26.8895 22.4012 26.8895 22.4041 26.8864C22.4071 26.8832 22.4071 26.8832 22.4101 26.8801C22.4131 26.8769 22.4131 26.8769 22.4161 26.8738C22.419 26.8707 22.419 26.8707 22.422 26.8675C22.425 26.8644 22.425 26.8644 22.428 26.8612C22.431 26.8581 22.431 26.8581 22.4339 26.855C22.4369 26.8518 22.4369 26.8518 22.4399 26.8487C22.4429 26.8456 22.4429 26.8456 22.4458 26.8424C22.4488 26.8393 22.4488 26.8393 22.4518 26.8361C22.4548 26.833 22.4548 26.833 22.4578 26.8299C22.4607 26.8267 22.4607 26.8267 22.4637 26.8236C22.4667 26.8204 22.4667 26.8204 22.4697 26.8173C22.4727 26.8142 22.4727 26.8142 22.4756 26.811C22.4786 26.8079 22.4786 26.8079 22.4816 26.8047C22.4846 26.8016 22.4846 26.8016 22.4875 26.7985C22.4905 26.7953 22.4905 26.7953 22.4935 26.7922C22.4965 26.7891 22.4965 26.7891 22.4995 26.7859C22.5024 26.7828 22.5024 26.7828 22.5054 26.7796C22.5084 26.7765 22.5084 26.7765 22.5114 26.7734C22.5143 26.7702 22.5143 26.7702 22.5173 26.7671C22.5203 26.7639 22.5203 26.7639 22.5233 26.7608C22.5263 26.7577 22.5263 26.7577 22.5292 26.7545C22.5322 26.7514 22.5322 26.7514 22.5352 26.7482C22.5382 26.7451 22.5382 26.7451 22.5412 26.742C22.5441 26.7388 22.5441 26.7388 22.5471 26.7357C22.5501 26.7326 22.5501 26.7326 22.5531 26.7294C22.556 26.7263 22.556 26.7263 22.559 26.7231C22.562 26.72 22.562 26.72 22.565 26.7169C22.568 26.7137 22.568 26.7137 22.5709 26.7106C22.5739 26.7074 22.5739 26.7074 22.5769 26.7043C22.5799 26.7012 22.5799 26.7012 22.5829 26.698C22.5858 26.6949 22.5858 26.6949 22.5888 26.6917C22.5918 26.6886 22.5918 26.6886 22.5948 26.6855C22.5977 26.6823 22.5977 26.6823 22.6007 26.6792C22.6037 26.6761 22.6037 26.6761 22.6067 26.6729C22.6097 26.6698 22.6097 26.6698 22.6126 26.6666C22.6156 26.6635 22.6156 26.6635 22.6186 26.6604C22.6216 26.6572 22.6216 26.6572 22.6245 26.6541C22.6275 26.6509 22.6275 26.6509 22.6305 26.6478C22.6335 26.6447 22.6335 26.6447 22.6365 26.6415C22.6394 26.6384 22.6394 26.6384 22.6424 26.6352C22.6454 26.6321 22.6454 26.6321 22.6484 26.629C22.6514 26.6258 22.6514 26.6258 22.6543 26.6227C22.6573 26.6196 22.6573 26.6196 22.6603 26.6164C22.6633 26.6133 22.6633 26.6133 22.6662 26.6101C22.6692 26.607 22.6692 26.607 22.6722 26.6039C22.6752 26.6007 22.6752 26.6007 22.6782 26.5976C22.6811 26.5944 22.6811 26.5944 22.6841 26.5913C22.6871 26.5882 22.6871 26.5882 22.6901 26.585C22.6931 26.5819 22.6931 26.5819 22.696 26.5787C22.699 26.5756 22.699 26.5756 22.702 26.5725C22.705 26.5693 22.705 26.5693 22.7079 26.5662C22.7109 26.5631 22.7109 26.5631 22.7139 26.5599C22.7169 26.5568 22.7169 26.5568 22.7199 26.5536C22.7228 26.5505 22.7228 26.5505 22.7258 26.5474C22.7288 26.5442 22.7288 26.5442 22.7318 26.5411C22.7347 26.5379 22.7347 26.5379 22.7377 26.5348C22.7407 26.5317 22.7407 26.5317 22.7437 26.5285C22.7467 26.5254 22.7467 26.5254 22.7496 26.5222C22.7526 26.5191 22.7526 26.5191 22.7556 26.516C22.7586 26.5128 22.7586 26.5128 22.7616 26.5097C22.7645 26.5066 22.7645 26.5066 22.7675 26.5034C22.7705 26.5003 22.7705 26.5003 22.7735 26.4971C22.7764 26.494 22.7764 26.494 22.7794 26.4909C22.7824 26.4877 22.7824 26.4877 22.7854 26.4846C22.7884 26.4814 22.7884 26.4814 22.7913 26.4783C22.7943 26.4752 22.7943 26.4752 22.7973 26.472C22.8003 26.4689 22.8003 26.4689 22.8033 26.4657C22.8062 26.4626 22.8062 26.4626 22.8092 26.4595C22.8122 26.4563 22.8122 26.4563 22.8152 26.4532C22.8181 26.4501 22.8181 26.4501 22.8211 26.4469C22.8241 26.4438 22.8241 26.4438 22.8271 26.4406C22.8301 26.4375 22.8301 26.4375 22.833 26.4344C22.836 26.4312 22.836 26.4312 22.839 26.4281C22.842 26.4249 22.842 26.4249 22.8449 26.4218C22.8479 26.4187 22.8479 26.4187 22.8509 26.4155C22.8539 26.4124 22.8539 26.4124 22.8569 26.4092C22.8598 26.4061 22.8598 26.4061 22.8628 26.403C22.8658 26.3998 22.8658 26.3998 22.8688 26.3967C22.8718 26.3936 22.8718 26.3936 22.8747 26.3904C22.8777 26.3873 22.8777 26.3873 22.8807 26.3841C22.8837 26.381 22.8837 26.381 22.8866 26.3779C22.8896 26.3747 22.8896 26.3747 22.8926 26.3716C22.8956 26.3684 22.8956 26.3684 22.8986 26.3653C22.9015 26.3622 22.9015 26.3622 22.9045 26.359C22.9075 26.3559 22.9075 26.3559 22.9105 26.3527C22.9135 26.3496 22.9135 26.3496 22.9164 26.3465C22.9194 26.3433 22.9194 26.3433 22.9224 26.3402C22.9254 26.3371 22.9254 26.3371 22.9283 26.3339C22.9313 26.3308 22.9313 26.3308 22.9343 26.3276C22.9373 26.3245 22.9373 26.3245 22.9403 26.3214C22.9432 26.3182 22.9432 26.3182 22.9462 26.3151C22.9492 26.3119 22.9492 26.3119 22.9522 26.3088C22.9551 26.3057 22.9551 26.3057 22.9581 26.3025C22.9611 26.2994 22.9611 26.2994 22.9641 26.2962C22.9671 26.2931 22.9671 26.2931 22.97 26.29C22.973 26.2868 22.973 26.2868 22.976 26.2837C22.979 26.2806 22.979 26.2806 22.982 26.2774C22.9849 26.2743 22.9849 26.2743 22.9879 26.2711C22.9909 26.268 22.9909 26.268 22.9939 26.2649C22.9968 26.2617 22.9968 26.2617 22.9998 26.2586C23.0028 26.2554 23.0028 26.2554 23.0058 26.2523C23.0088 26.2492 23.0088 26.2492 23.0117 26.246C23.0147 26.2429 23.0147 26.2429 23.0177 26.2397C23.0207 26.2366 23.0207 26.2366 23.0236 26.2335C23.0266 26.2303 23.0266 26.2303 23.0296 26.2272C23.0326 26.2241 23.0326 26.2241 23.0356 26.2209C23.0385 26.2178 23.0385 26.2178 23.0415 26.2146C23.0445 26.2115 23.0445 26.2115 23.0475 26.2084C23.0505 26.2052 23.0505 26.2052 23.0534 26.2021C23.0564 26.1989 23.0564 26.1989 23.0594 26.1958C23.0624 26.1927 23.0624 26.1927 23.0653 26.1895C23.0683 26.1864 23.0683 26.1864 23.0713 26.1832C23.0743 26.1801 23.0743 26.1801 23.0773 26.177C23.0802 26.1738 23.0802 26.1738 23.0832 26.1707C23.0862 26.1676 23.0862 26.1676 23.0892 26.1644C23.0922 26.1613 23.0922 26.1613 23.0951 26.1581C23.0981 26.155 23.0981 26.155 23.1011 26.1519C23.1041 26.1487 23.1041 26.1487 23.107 26.1456C23.11 26.1424 23.11 26.1424 23.113 26.1393C23.116 26.1362 23.116 26.1362 23.119 26.133C23.1219 26.1299 23.1219 26.1299 23.1249 26.1267C23.1279 26.1236 23.1279 26.1236 23.1309 26.1205C23.1339 26.1173 23.1339 26.1173 23.1368 26.1142C23.1398 26.1111 23.1398 26.1111 23.1428 26.1079C23.1458 26.1048 23.1458 26.1048 23.1487 26.1016C23.1517 26.0985 23.1517 26.0985 23.1547 26.0954C23.1577 26.0922 23.1577 26.0922 23.1607 26.0891C23.1636 26.0859 23.1636 26.0859 23.1666 26.0828C23.1696 26.0797 23.1696 26.0797 23.1726 26.0765C23.1755 26.0734 23.1755 26.0734 23.1785 26.0702C23.1815 26.0671 23.1815 26.0671 23.1845 26.064C23.1875 26.0608 23.1875 26.0608 23.1904 26.0577C23.1934 26.0546 23.1934 26.0546 23.1964 26.0514C23.1994 26.0483 23.1994 26.0483 23.2024 26.0451C23.2053 26.042 23.2053 26.042 23.2083 26.0389C23.2113 26.0357 23.2113 26.0357 23.2143 26.0326C23.2172 26.0294 23.2172 26.0294 23.2202 26.0263C23.2232 26.0232 23.2232 26.0232 23.2262 26.02C23.2292 26.0169 23.2292 26.0169 23.2321 26.0137C23.2351 26.0106 23.2351 26.0106 23.2381 26.0075C23.2411 26.0043 23.2411 26.0043 23.2441 26.0012C23.247 25.9981 23.247 25.9981 23.25 25.9949C23.253 25.9918 23.253 25.9918 23.256 25.9886C23.2589 25.9855 23.2589 25.9855 23.2619 25.9824C23.2649 25.9792 23.2649 25.9792 23.2679 25.9761C23.2709 25.9729 23.2709 25.9729 23.2738 25.9698C23.2768 25.9667 23.2768 25.9667 23.2798 25.9635C23.2828 25.9604 23.2828 25.9604 23.2857 25.9572C23.2887 25.9541 23.2887 25.9541 23.2917 25.951C23.2947 25.9478 23.2947 25.9478 23.2977 25.9447C23.3006 25.9416 23.3006 25.9416 23.3036 25.9384C23.3066 25.9353 23.3066 25.9353 23.3096 25.9321C23.3126 25.929 23.3126 25.929 23.3155 25.9259C23.3185 25.9227 23.3185 25.9227 23.3215 25.9196C23.3245 25.9164 23.3245 25.9164 23.3274 25.9133C23.3304 25.9102 23.3304 25.9102 23.3334 25.907C23.3364 25.9039 23.3364 25.9039 23.3394 25.9007C23.3423 25.8976 23.3423 25.8976 23.3453 25.8945C23.3483 25.8913 23.3483 25.8913 23.3513 25.8882C23.3542 25.8851 23.3542 25.8851 23.3572 25.8819C23.3602 25.8788 23.3602 25.8788 23.3632 25.8756C23.3662 25.8725 23.3662 25.8725 23.3691 25.8694C23.3721 25.8662 23.3721 25.8662 23.3751 25.8631C23.3781 25.8599 23.3781 25.8599 23.3811 25.8568C23.384 25.8537 23.384 25.8537 23.387 25.8505C23.39 25.8474 23.39 25.8474 23.393 25.8442C23.3959 25.8411 23.3959 25.8411 23.3989 25.838C23.4019 25.8348 23.4019 25.8348 23.4049 25.8317C23.4079 25.8286 23.4079 25.8286 23.4108 25.8254C23.4138 25.8223 23.4138 25.8223 23.4168 25.8191C23.4198 25.816 23.4198 25.816 23.4228 25.8129C23.4257 25.8097 23.4257 25.8097 23.4287 25.8066C23.4317 25.8034 23.4317 25.8034 23.4347 25.8003C23.4376 25.7972 23.4376 25.7972 23.4406 25.794C23.4436 25.7909 23.4436 25.7909 23.4466 25.7877C23.4496 25.7846 23.4496 25.7846 23.4525 25.7815C23.4555 25.7783 23.4555 25.7783 23.4585 25.7752C23.4615 25.7721 23.4615 25.7721 23.4645 25.7689C23.4674 25.7658 23.4674 25.7658 23.4704 25.7626C23.4734 25.7595 23.4734 25.7595 23.4764 25.7564C23.4793 25.7532 23.4793 25.7532 23.4823 25.7501C23.4853 25.7469 23.4853 25.7469 23.4883 25.7438C23.4913 25.7407 23.4913 25.7407 23.4942 25.7375C23.4972 25.7344 23.4972 25.7344 23.5002 25.7312C23.5032 25.7281 23.5032 25.7281 23.5061 25.725C23.5091 25.7218 23.5091 25.7218 23.5121 25.7187C23.5151 25.7156 23.5151 25.7156 23.5181 25.7124C23.521 25.7093 23.521 25.7093 23.524 25.7061C23.527 25.703 23.527 25.703 23.53 25.6999C23.533 25.6967 23.533 25.6967 23.5359 25.6936C23.5389 25.6904 23.5389 25.6904 23.5419 25.6873C23.5449 25.6842 23.5449 25.6842 23.5478 25.681C23.5508 25.6779 23.5508 25.6779 23.5538 25.6747C23.5568 25.6716 23.5568 25.6716 23.5598 25.6685C23.5627 25.6653 23.5627 25.6653 23.5657 25.6622C23.5687 25.6591 23.5687 25.6591 23.5717 25.6559C23.5747 25.6528 23.5746 25.6528 23.5776 25.6496C23.5806 25.6465 23.5806 25.6465 23.5836 25.6434C23.5866 25.6402 23.5866 25.6402 23.5895 25.6371C23.5925 25.6339 23.5925 25.6339 23.5955 25.6308C23.5985 25.6277 23.5985 25.6277 23.6015 25.6245C23.6044 25.6214 23.6044 25.6214 23.6074 25.6182C23.6104 25.6151 23.6104 25.6151 23.6134 25.612C23.6163 25.6088 23.6163 25.6088 23.6193 25.6057C23.6223 25.6026 23.6223 25.6026 23.6253 25.5994C23.6283 25.5963 23.6283 25.5963 23.6312 25.5931C23.6342 25.59 23.6342 25.59 23.6372 25.5869C23.6402 25.5837 23.6402 25.5837 23.6432 25.5806C23.6461 25.5774 23.6461 25.5774 23.6491 25.5743C23.6521 25.5712 23.6521 25.5712 23.6551 25.568C23.658 25.5649 23.658 25.5649 23.661 25.5617C23.664 25.5586 23.664 25.5586 23.667 25.5555C23.67 25.5523 23.67 25.5523 23.6729 25.5492C23.6759 25.5461 23.6759 25.5461 23.6789 25.5429C23.6819 25.5398 23.6819 25.5398 23.6849 25.5366C23.6878 25.5335 23.6878 25.5335 23.6908 25.5304C23.6938 25.5272 23.6938 25.5272 23.6968 25.5241C23.6997 25.5209 23.6997 25.5209 23.7027 25.5178C23.7057 25.5147 23.7057 25.5147 23.7087 25.5115C23.7117 25.5084 23.7117 25.5084 23.7146 25.5052C23.7176 25.5021 23.7176 25.5021 23.7206 25.499C23.7236 25.4958 23.7236 25.4958 23.7265 25.4927C23.7295 25.4896 23.7295 25.4896 23.7325 25.4864C23.7355 25.4833 23.7355 25.4833 23.7385 25.4801C23.7414 25.477 23.7414 25.477 23.7444 25.4739C23.7474 25.4707 23.7474 25.4707 23.7504 25.4676C23.7534 25.4644 23.7534 25.4644 23.7563 25.4613C23.7593 25.4582 23.7593 25.4582 23.7623 25.455C23.7653 25.4519 23.7653 25.4519 23.7682 25.4487C23.7712 25.4456 23.7712 25.4456 23.7742 25.4425C23.7772 25.4393 23.7772 25.4393 23.7802 25.4362C23.7831 25.4331 23.7831 25.4331 23.7861 25.4299C23.7891 25.4268 23.7891 25.4268 23.7921 25.4236C23.795 25.4205 23.795 25.4205 23.798 25.4174C23.801 25.4142 23.801 25.4142 23.804 25.4111C23.807 25.4079 23.807 25.4079 23.8099 25.4048C23.8129 25.4017 23.8129 25.4017 23.8159 25.3985C23.8189 25.3954 23.8189 25.3954 23.8219 25.3922C23.8248 25.3891 23.8248 25.3891 23.8278 25.386C23.8308 25.3828 23.8308 25.3828 23.8338 25.3797C23.8367 25.3766 23.8367 25.3766 23.8397 25.3734C23.8427 25.3703 23.8427 25.3703 23.8457 25.3671C23.8487 25.364 23.8487 25.364 23.8516 25.3609C23.8546 25.3577 23.8546 25.3577 23.8576 25.3546C23.8606 25.3514 23.8606 25.3514 23.8636 25.3483C23.8665 25.3452 23.8665 25.3452 23.8695 25.342C23.8725 25.3389 23.8725 25.3389 23.8755 25.3357C23.8784 25.3326 23.8784 25.3326 23.8814 25.3295C23.8844 25.3263 23.8844 25.3263 23.8874 25.3232C23.8904 25.32 23.8904 25.3201 23.8933 25.3169C23.8963 25.3138 23.8963 25.3138 23.8993 25.3106C23.9023 25.3075 23.9023 25.3075 23.9052 25.3044C23.9082 25.3012 23.9082 25.3012 23.9112 25.2981C23.9142 25.2949 23.9142 25.2949 23.9172 25.2918C23.9201 25.2887 23.9201 25.2887 23.9231 25.2855C23.9261 25.2824 23.9261 25.2824 23.9291 25.2792C23.9321 25.2761 23.9321 25.2761 23.935 25.273C23.938 25.2698 23.938 25.2698 23.941 25.2667C23.944 25.2635 23.944 25.2636 23.9469 25.2604C23.9499 25.2573 23.9499 25.2573 23.9529 25.2541C23.9559 25.251 23.9559 25.251 23.9589 25.2479C23.9618 25.2447 23.9618 25.2447 23.9648 25.2416C23.9678 25.2384 23.9678 25.2384 23.9708 25.2353C23.9738 25.2322 23.9738 25.2322 23.9767 25.229C23.9797 25.2259 23.9797 25.2259 23.9827 25.2227C23.9857 25.2196 23.9857 25.2196 23.9886 25.2165C23.9916 25.2133 23.9916 25.2133 23.9946 25.2102C23.9976 25.2071 23.9976 25.2071 24.0006 25.2039C24.0035 25.2008 24.0035 25.2008 24.0065 25.1976C24.0095 25.1945 24.0095 25.1945 24.0125 25.1914C24.0154 25.1882 24.0155 25.1882 24.0184 25.1851C24.0214 25.1819 24.0214 25.1819 24.0244 25.1788C24.0274 25.1757 24.0274 25.1757 24.0303 25.1725C24.0333 25.1694 24.0333 25.1694 24.0363 25.1662C24.0393 25.1631 24.0393 25.1631 24.0423 25.16C24.0452 25.1568 24.0452 25.1568 24.0482 25.1537C24.0512 25.1505 24.0512 25.1506 24.0542 25.1474C24.2001 24.9999 24.3401 24.8398 24.4771 24.664C24.4473 24.6609 24.4116 24.2968 24.2001 24.0174Z" fill="black" stroke="white" stroke-miterlimit="10" stroke-linecap="round" stroke-linejoin="round"/>
    <path d="M6.20476 20.6714C4.1616 17.9782 2.49668 14.968 1.64487 12.1995C0.435647 8.28527 0.819858 4.85132 3.92631 3.37917C4.17351 3.21595 4.55176 3.32581 4.79004 3.63656L9.84732 10.2942C10.0945 10.6206 10.0945 11.0412 9.84732 11.239L7.58971 13.025C7.84585 15.0151 11.9828 20.4642 13.8086 21.2112L16.0662 19.4252C16.3134 19.2306 16.7155 19.3342 16.9627 19.6606L22.02 26.3182L22.017 26.3214C22.2284 26.5976 22.2642 26.9617 22.0914 27.1846C19.9172 29.9468 16.5457 29.4791 13.1086 27.2913C10.6932 25.7595 8.25091 23.3645 6.20476 20.6714Z" fill="black" stroke="white" stroke-miterlimit="10" stroke-linecap="round" stroke-linejoin="round"/>
    </svg>
    